<svg width="143" height="58" viewBox="0 0 143 58" fill="none" xmlns="http://www.w3.org/2000/svg">
<path class="cloth_color" d="M142.527 57.9166V50.473C142.527 24.7069 123.06 2.94884 97.2935 0.658518L96.7209 0.0859375H93.2854C93.858 0.0859375 93.858 0.658518 93.858 0.658518V3.52142L92.1402 4.66658C78.3983 17.8359 64.6564 17.8359 50.9144 4.66658L49.1967 3.52142C49.1967 2.37626 49.1967 1.2311 49.7693 0.0859375H46.3338L45.7612 0.658518C19.9951 2.94884 0.527344 24.7069 0.527344 50.473V57.9166H142.527Z" fill="#25557C"/>
<path d="M42.8989 57.9166L31.4473 32.1505C33.165 29.8601 34.3102 28.1424 35.4553 26.4246C34.3102 24.7069 33.165 22.4166 31.4473 20.6988L46.3344 0.0859375H49.7698C46.9069 20.1263 49.7698 42.4569 53.7779 57.9166H42.8989Z" fill="black"/>
<path d="M100.156 57.9166L111.608 32.1505C109.89 29.8601 108.745 28.1424 107.6 26.4246C108.745 24.7069 109.89 22.4166 111.608 20.6988L96.7209 0.0859375H93.2854C96.1483 20.1263 93.2854 42.4569 89.2773 57.9166H100.156Z" fill="black"/>
<path d="M108.172 40.7385C113.898 35.0127 115.043 33.2949 121.341 39.5933C116.761 40.1659 112.753 40.7385 108.172 40.7385Z" fill="white"/>
<path d="M94.4314 6.95502C78.9718 20.697 63.5121 20.1244 48.625 6.38243C48.625 5.80985 49.1976 4.66469 49.1976 3.51953L50.9153 4.66469C64.6573 17.834 78.3992 17.834 92.1411 4.66469L93.8589 3.51953C93.8589 4.66469 94.4314 5.80985 94.4314 6.95502Z" fill="black"/>
<path class="cloth_color" d="M53.7769 57.9167H89.2769C92.7124 44.1748 95.5753 25.2796 94.4301 6.95703C93.2849 7.52961 92.1398 8.67477 90.9946 9.81993C88.7043 10.9651 86.9865 12.6828 84.6962 13.828C72.672 20.1264 60.6478 17.2635 48.6236 6.95703C47.4785 25.2796 50.3414 44.1748 53.7769 57.9167Z" fill="#25557C"/>
</svg>
