<svg width="143" height="68" viewBox="0 0 143 68" fill="none" xmlns="http://www.w3.org/2000/svg">
<path id="hoodie_color" d="M142.527 67.6309V59.0422C142.527 38.4293 128.785 20.1067 110.463 13.2358C109.89 5.79221 100.729 1.78415 88.1322 0.0664062V12.6632C88.1322 21.8245 80.6886 29.268 70.9548 29.268C61.7935 29.268 54.3499 21.8245 54.3499 12.6632V0.0664062C41.7532 1.78415 32.5919 5.79221 32.0193 13.2358C13.6967 20.6793 0.527344 38.4293 0.527344 59.0422V67.6309H142.527Z" fill="#5793CE"/>
<path d="M50.3417 34.4215V62.478C50.3417 63.6231 49.1965 64.7683 47.4788 64.7683C46.3336 64.7683 45.1885 63.6231 45.1885 62.478V31.5586C46.3336 32.7038 48.0514 33.2763 50.3417 34.4215Z" fill="white"/>
<path d="M97.8661 31.5586V54.4618C97.8661 55.607 96.721 56.7521 95.0032 56.7521C93.8581 56.7521 92.7129 55.607 92.7129 54.4618V34.4215C94.4306 33.2763 96.1484 32.7038 97.8661 31.5586Z" fill="white"/>
<path d="M32.0191 13.2344C29.7287 14.3795 26.8658 15.5247 24.0029 17.2424C29.7287 29.8392 44.6158 36.1376 63.511 38.4279C45.761 35.565 32.0191 24.1134 32.0191 14.3795C32.0191 13.807 32.0191 13.807 32.0191 13.2344Z" fill="black" fill-opacity="0.4"/>
<path d="M118.479 17.2424C116.188 15.5247 113.326 14.3795 110.463 13.2344C110.463 13.2344 110.463 13.807 110.463 14.3795C110.463 24.1134 96.7207 35.565 78.9707 38.4279C97.8659 36.1376 112.753 29.8392 118.479 17.2424Z" fill="black" fill-opacity="0.4"/>
</svg>
