<svg width="147" height="65" viewBox="0 0 147 65" fill="none" xmlns="http://www.w3.org/2000/svg">
<path class="cloth_color" d="M52.5068 0.789062C62.3823 22.9763 84.5206 23.5283 94.7412 0.847656C120.523 8.33783 148.382 29.1364 145.942 64.9043H1.10741C-1.30424 29.0517 26.9109 8.40985 52.5068 0.789062ZM73.5195 20.3115C72.168 20.3117 71.0635 25.4914 71.0635 31.8447C71.0635 38.1979 72.168 43.3768 73.5195 43.377C74.8711 43.377 75.9765 38.198 75.9766 31.8447C75.9766 25.4913 74.8711 20.3115 73.5195 20.3115Z" fill="#BB495C"/>
<path fill-rule="evenodd" clip-rule="evenodd" d="M22.4559 43.6441C22.4559 43.2396 22.7913 42.9141 23.1958 42.9141C23.6003 42.9141 23.9259 43.2495 23.9259 43.654L23.7483 63.9177C23.7483 64.3222 23.4129 64.6478 23.0084 64.6478C22.6039 64.6478 22.2783 64.3123 22.2783 63.9078L22.4559 43.6441Z" fill="black" fill-opacity="0.5"/>
<path fill-rule="evenodd" clip-rule="evenodd" d="M123.31 43.6441C123.31 43.2396 123.646 42.9141 124.05 42.9141C124.455 42.9141 124.78 43.2495 124.78 43.654L124.603 63.9177C124.603 64.3222 124.267 64.6478 123.863 64.6478C123.458 64.6478 123.133 64.3123 123.133 63.9078L123.31 43.6441Z" fill="black" fill-opacity="0.5"/>
<path fill-rule="evenodd" clip-rule="evenodd" d="M47.0011 2.59646C46.9715 2.33009 47.159 2.08345 47.4253 2.05385C47.6917 2.02426 47.9383 2.2117 47.9679 2.47807C48.5204 6.91755 51.263 12.0575 55.811 15.7077C59.5303 18.6871 64.4631 20.6701 70.4021 20.4431C70.6685 20.4431 70.8954 20.6405 70.9052 20.9167C70.9052 21.1831 70.7079 21.41 70.4317 21.4198C64.2361 21.6566 59.0864 19.5848 55.1993 16.4674C50.4442 12.6494 47.5832 7.26284 47.0011 2.59646Z" fill="black" fill-opacity="0.5"/>
<path fill-rule="evenodd" clip-rule="evenodd" d="M99.0704 2.47807C99.1 2.2117 99.3467 2.02426 99.613 2.05385C99.8794 2.08345 100.077 2.33009 100.037 2.59646C99.4552 7.26284 96.5942 12.6494 91.839 16.4674C87.952 19.5848 82.8022 21.6566 76.6067 21.4198C76.3403 21.4198 76.1233 21.1831 76.1331 20.9167C76.1331 20.6503 76.3699 20.4333 76.6363 20.4431C82.5753 20.6701 87.5081 18.6871 91.2274 15.7077C95.7754 12.0575 98.5081 6.91755 99.0704 2.47807Z" fill="black" fill-opacity="0.5"/>
</svg>
