<svg width="143" height="58" viewBox="0 0 143 58" fill="none" xmlns="http://www.w3.org/2000/svg">
<path d="M142.527 57.4768V48.8881C142.527 23.6946 123.06 3.08165 98.4386 0.21875C97.2935 13.9607 85.8419 24.8397 72.0999 24.8397C57.7854 24.8397 46.3338 13.9607 45.1886 0.21875C19.9951 2.50907 0.527344 23.6946 0.527344 48.8881V57.4768H142.527Z" fill="#E0E0E0"/>
<path class="cloth_color" d="M117.334 5.94456C111.608 3.08165 105.309 0.791331 99.011 0.21875V32.8558H71.5272H44.0433V0.21875C37.7449 1.36391 31.4465 3.08165 25.7207 6.51714V57.4768H117.334V5.94456Z" fill="#6A66D5"/>
<path d="M36.0269 44.88C38.5568 44.88 40.6076 42.8292 40.6076 40.2994C40.6076 37.7696 38.5568 35.7188 36.0269 35.7188C33.4971 35.7188 31.4463 37.7696 31.4463 40.2994C31.4463 42.8292 33.4971 44.88 36.0269 44.88Z" fill="black" fill-opacity="0.5"/>
<path d="M107.027 44.88C109.557 44.88 111.608 42.8292 111.608 40.2994C111.608 37.7696 109.557 35.7188 107.027 35.7188C104.497 35.7188 102.446 37.7696 102.446 40.2994C102.446 42.8292 104.497 44.88 107.027 44.88Z" fill="black" fill-opacity="0.5"/>
</svg>
