<svg width="143" height="62" viewBox="0 0 143 62" fill="none" xmlns="http://www.w3.org/2000/svg">
<path class="cloth_color" d="M142.527 61.4807V52.892C142.527 27.6985 123.06 6.51298 97.8661 4.22266H89.2773V10.521C89.2773 12.2388 88.7048 13.9565 87.5596 14.5291C84.6967 20.8275 78.9709 25.4081 71.5273 25.4081C64.6564 25.4081 58.358 20.8275 56.0677 15.1017L55.4951 14.5291C54.3499 13.9565 54.3499 12.2388 54.3499 10.521V4.22266H45.1886C19.9951 6.51298 0.527344 27.6985 0.527344 52.892V61.4807H142.527Z" fill="#2590F2"/>
<path d="M54.3501 10.5213V0.214844C52.0598 0.214844 46.334 5.36807 46.334 13.3842C46.334 19.11 50.342 23.6906 55.4953 26.5536C56.0679 24.2632 59.5033 22.5455 61.2211 22.5455C63.5114 22.5455 63.5114 23.1181 64.084 23.1181L55.4953 14.5294C54.3501 13.9568 54.3501 12.239 54.3501 10.5213Z" fill="white"/>
<path d="M89.2772 10.5213V0.214844C91.5675 0.214844 96.7207 5.36807 96.7207 13.3842C96.7207 19.11 93.2852 23.6906 87.5594 26.5536C86.9868 24.2632 83.5513 22.5455 81.8336 22.5455C80.1159 22.5455 80.1159 23.1181 78.9707 23.1181L87.5594 14.5294C88.7046 13.9568 89.2772 12.239 89.2772 10.5213Z" fill="white"/>
</svg>
