<svg width="21" height="5" viewBox="0 0 21 5" fill="none" xmlns="http://www.w3.org/2000/svg">
<path d="M2.45717 4.12137C3.52298 4.12137 4.38699 3.25736 4.38699 2.19154C4.38699 1.12573 3.52298 0.261719 2.45717 0.261719C1.39136 0.261719 0.527344 1.12573 0.527344 2.19154C0.527344 3.25736 1.39136 4.12137 2.45717 4.12137Z" fill="#C04F1B" fill-opacity="0.6"/>
<path d="M18.5978 4.12137C19.6636 4.12137 20.5276 3.25736 20.5276 2.19154C20.5276 1.12573 19.6636 0.261719 18.5978 0.261719C17.532 0.261719 16.668 1.12573 16.668 2.19154C16.668 3.25736 17.532 4.12137 18.5978 4.12137Z" fill="#C04F1B" fill-opacity="0.6"/>
<path d="M8.2474 2.54208C9.82634 3.06839 11.4053 3.06839 12.8088 2.54208C12.8088 1.48945 13.686 0.436815 14.9141 0.261376C14.0369 0.787692 13.5106 1.48945 13.5106 2.36664C13.5106 3.77015 14.7386 4.82278 15.9667 4.82278C16.1421 4.82278 16.1421 4.82278 16.1421 4.82278C15.7913 4.99822 15.6158 4.99822 15.2649 4.99822C14.0369 4.99822 13.1597 4.29646 12.8088 3.41927C11.2299 3.94559 9.6509 3.94559 8.07196 3.41927C7.72108 4.29646 6.84389 4.82278 5.79126 4.82278C5.44038 4.82278 5.26494 4.82278 4.91406 4.64734C4.91406 4.64734 4.91406 4.64734 5.0895 4.64734C6.31757 4.64734 7.54564 3.59471 7.54564 2.1912C7.54564 1.31401 7.01933 0.436815 6.14213 0.0859375C7.3702 0.261376 8.2474 1.31401 8.2474 2.54208Z" fill="black"/>
</svg>
