<svg width="21" height="9" viewBox="0 0 21 9" fill="none" xmlns="http://www.w3.org/2000/svg">
<path d="M16.381 1.67578H4.67366C3.94195 1.67578 2.96634 1.91968 2.47854 2.65139C1.74683 3.1392 1.50293 3.8709 1.50293 4.84651C1.50293 5.82212 1.74683 6.55383 2.47854 7.04164C2.96634 7.77334 3.94195 8.01724 4.67366 8.01724H16.381C17.1127 8.01724 18.0883 7.77334 18.5761 7.04164C19.3078 6.55383 19.5517 5.82212 19.5517 4.84651C19.5517 3.8709 19.3078 3.1392 18.5761 2.65139C18.0883 1.91968 17.1127 1.67578 16.381 1.67578Z" fill="#FEFEFE"/>
<path d="M1.50293 4.60261H4.18586V1.67578C4.42976 1.67578 4.67366 1.67578 4.67366 1.67578H5.16147V4.60261H8.0883V1.67578H9.06391V4.60261H11.9907V1.67578H12.9663V4.60261H15.8932V1.67578H16.381C16.381 1.67578 16.6249 1.67578 16.8688 1.67578V4.60261H19.5517V4.84651C19.5517 5.09042 19.5517 5.09042 19.5517 5.33432H16.8688V8.01724C16.6249 8.01724 16.381 8.01724 16.381 8.01724H15.8932V5.33432H12.9663V8.01724H11.9907V5.33432H9.06391V8.01724H8.0883V5.33432H5.16147V8.01724H4.67366C4.67366 8.01724 4.42976 8.01724 4.18586 8.01724V5.33432H1.50293C1.50293 5.09042 1.50293 5.09042 1.50293 4.84651V4.60261Z" fill="#B2B3B3"/>
<path d="M4.67369 0.703125H16.381C17.3566 0.703125 18.5761 1.19093 19.3078 1.92264C20.0395 2.65434 20.5273 3.87386 20.5273 4.84947C20.5273 6.06898 20.0395 7.04459 19.3078 7.7763C18.5761 8.508 17.3566 8.99581 16.381 8.99581H4.67369C3.69808 8.99581 2.47856 8.508 1.74686 7.7763C1.01515 7.04459 0.527344 6.06898 0.527344 4.84947C0.527344 3.87386 1.01515 2.65434 1.74686 1.92264C2.47856 1.19093 3.69808 0.703125 4.67369 0.703125ZM16.381 1.67873H4.67369C3.94198 1.67873 2.96637 1.92264 2.47856 2.65434C1.74686 3.14215 1.50295 3.87386 1.50295 4.84947C1.50295 5.82508 1.74686 6.55678 2.47856 7.04459C2.96637 7.7763 3.94198 8.0202 4.67369 8.0202H16.381C17.1127 8.0202 18.0883 7.7763 18.5761 7.04459C19.3078 6.55678 19.5517 5.82508 19.5517 4.84947C19.5517 3.87386 19.3078 3.14215 18.5761 2.65434C18.0883 1.92264 17.1127 1.67873 16.381 1.67873Z" fill="black"/>
</svg>
