<svg width="21" height="16" viewBox="0 0 21 16" fill="none" xmlns="http://www.w3.org/2000/svg">
<path d="M10.5273 0.554688C16.3607 0.554688 20.5273 5.13802 20.5273 10.5547C20.5273 12.2214 20.5273 13.888 20.5273 15.138C17.194 14.7214 13.8607 14.3047 10.5273 14.3047C7.19401 14.3047 3.86068 14.7214 0.527344 15.138V10.5547C0.527344 5.13802 4.69401 0.554688 10.5273 0.554688Z" fill="black"/>
<path d="M10.5277 0.554688C13.4443 0.554688 15.9443 1.38802 17.611 3.47135H3.44434C5.111 1.38802 7.611 0.554688 10.5277 0.554688Z" fill="#FEFEFE"/>
<path d="M10.5277 11.388C9.69434 10.5547 8.861 10.5547 8.02767 10.5547C6.77767 10.5547 4.69434 10.9714 4.27767 12.2214C3.44434 13.0547 3.02767 13.4714 2.19434 15.138C5.111 14.7214 7.611 14.3047 10.5277 14.3047C13.4443 14.3047 15.9443 14.7214 18.861 15.138C18.0277 13.4714 17.611 13.0547 16.7777 12.2214C16.361 10.9714 14.2777 10.5547 13.0277 10.5547C12.1943 10.5547 11.361 10.5547 10.5277 11.388Z" fill="#FF4F6D"/>
</svg>
