<svg width="21" height="11" viewBox="0 0 21 11" fill="none" xmlns="http://www.w3.org/2000/svg">
<path d="M10.5273 10.8477C15.944 10.8477 20.5273 6.68099 20.5273 1.26432V0.847656H0.527344V1.26432C0.527344 6.68099 5.11068 10.8477 10.5273 10.8477Z" fill="black"/>
<path d="M10.528 10.8464C13.028 10.8464 15.1113 10.013 17.1947 8.76302C16.3613 7.51302 15.1113 6.67969 13.4447 6.67969C12.1947 6.67969 11.3613 7.09635 10.528 7.51302C9.69466 7.09635 8.86133 6.67969 7.61133 6.67969C5.94466 6.67969 4.69466 7.51302 3.86133 8.76302C5.94466 10.013 8.02799 10.8464 10.528 10.8464Z" fill="#FF4F6D"/>
<path d="M18.4447 0.847656H2.61133V1.68099C2.61133 2.93099 3.44466 3.76432 4.27799 3.76432H16.778C17.6113 3.76432 18.4447 2.93099 18.4447 1.68099V0.847656Z" fill="#FEFEFE"/>
</svg>
