<svg width="21" height="14" viewBox="0 0 21 14" fill="none" xmlns="http://www.w3.org/2000/svg">
<path d="M10.5273 8.30053C16.0112 8.30053 20.5273 5.07472 20.5273 0.881174V0.558594H0.527344V0.881174C0.527344 5.07472 5.04347 8.30053 10.5273 8.30053Z" fill="black"/>
<path d="M16.6565 0.558594H4.39844V1.20376C4.39844 2.1715 5.0436 2.81666 5.68876 2.81666H15.3662C16.0113 2.81666 16.6565 2.1715 16.6565 1.20376V0.558594Z" fill="#FEFEFE"/>
<path d="M15.044 8.29965C15.044 10.8803 13.1085 13.1384 10.5278 13.1384C7.9472 13.1384 6.01172 10.8803 6.01172 8.29965V6.04158C6.01172 4.75126 7.30204 3.46094 8.59236 3.46094C9.56011 3.46094 10.2053 3.78352 10.5278 4.1061C10.8504 3.78352 11.4956 3.46094 12.4633 3.46094C13.7537 3.46094 15.044 4.75126 15.044 6.04158V8.29965Z" fill="#FF4F6D"/>
</svg>
