<svg width="21" height="19" viewBox="0 0 21 19" fill="none" xmlns="http://www.w3.org/2000/svg">
<path d="M10.5273 0.890625C15.944 0.890625 20.5273 5.47396 20.5273 11.3073V12.1406H0.527344V11.3073C0.527344 5.47396 5.11068 0.890625 10.5273 0.890625Z" fill="black"/>
<path d="M10.5277 0.890625C13.0277 0.890625 15.5277 2.14062 17.611 3.80729H3.44434C5.52767 2.14062 8.02767 0.890625 10.5277 0.890625Z" fill="#FEFEFE"/>
<path d="M4.27702 8.39062H16.777C18.4437 8.39062 20.1104 10.0573 20.1104 11.724V14.224C20.1104 15.8906 18.4437 17.1406 16.777 17.1406C15.1104 17.1406 13.8604 15.8906 13.8604 14.224C13.8604 12.974 12.1937 12.1406 10.527 12.1406C8.86035 12.1406 7.61035 13.8073 7.61035 15.474C7.61035 17.5573 5.94368 18.8073 4.27702 18.8073C2.61035 18.8073 1.36035 17.5573 1.36035 15.474V11.724C1.36035 10.0573 2.61035 8.39062 4.27702 8.39062Z" fill="#88C553"/>
</svg>
