<svg width="123" height="151" viewBox="0 0 123 151" fill="none" xmlns="http://www.w3.org/2000/svg">
<path d="M72.3922 86.6328H48.3023V101.759H72.3922V86.6328Z" fill="#733F17"/>
<path d="M48.3023 93.663C50.1157 94.0067 51.9807 94.1958 53.8972 94.1958H65.2933C67.7426 94.1958 70.1233 93.895 72.3922 93.3364V86.6328H48.3023V93.663Z" fill="black" fill-opacity="0.2"/>
<path d="M122.662 143.182V150.548H0.877869V143.182C0.877869 120.102 20.0294 101.441 43.1095 101.441H47.038H76.5019H80.4304C103.51 101.441 122.662 120.102 122.662 143.182Z" fill="#733F17"/>
<path d="M94.9968 60.4012C99.9142 60.4012 103.901 56.4148 103.901 51.4975C103.901 46.5801 99.9142 42.5938 94.9968 42.5938C90.0795 42.5938 86.0931 46.5801 86.0931 51.4975C86.0931 56.4148 90.0795 60.4012 94.9968 60.4012Z" fill="#733F17"/>
<path d="M93.8445 58.8042C93.5436 58.8042 93.2772 58.5808 93.2343 58.28C93.1827 57.9448 93.4147 57.6268 93.7499 57.5752C98.5541 56.8533 99.5511 53.9742 99.7058 52.3155C99.9292 50.0552 98.8463 47.9152 97.7291 47.5113C97.4111 47.3996 97.2392 47.0386 97.3595 46.7206C97.4713 46.4026 97.8322 46.2307 98.1502 46.351C99.9206 46.987 101.193 49.7802 100.935 52.4358C100.771 54.0516 99.7745 57.919 93.9304 58.7956C93.896 58.7956 93.8702 58.7956 93.8359 58.7956L93.8445 58.8042Z" fill="black" fill-opacity="0.2"/>
<path d="M24.1872 60.4012C29.1046 60.4012 33.0909 56.4148 33.0909 51.4975C33.0909 46.5801 29.1046 42.5938 24.1872 42.5938C19.2698 42.5938 15.2835 46.5801 15.2835 51.4975C15.2835 56.4148 19.2698 60.4012 24.1872 60.4012Z" fill="#733F17"/>
<path d="M25.3382 58.8039C25.3382 58.8039 25.2781 58.8039 25.2437 58.8039C19.3996 57.9273 18.394 54.0598 18.2393 52.4441C17.9729 49.7799 19.2535 46.9953 21.0239 46.3593C21.3419 46.2476 21.7029 46.4109 21.8146 46.7289C21.9263 47.0469 21.763 47.4078 21.445 47.5196C20.3278 47.9235 19.2449 50.0635 19.4683 52.3238C19.6316 53.9739 20.62 56.8616 25.4328 57.5835C25.768 57.6351 26 57.9531 25.9484 58.2883C25.9055 58.5977 25.6391 58.8125 25.3382 58.8125V58.8039Z" fill="black" fill-opacity="0.2"/>
<path d="M53.8886 0.851562H65.2847C81.6827 0.851562 94.9953 14.1642 94.9953 30.5535V62.533C94.9953 78.9309 81.6827 92.2349 65.2933 92.2349H53.8972C37.4993 92.2349 24.1953 78.9223 24.1953 62.533V30.5535C24.1867 14.1642 37.4993 0.851562 53.8886 0.851562Z" fill="#733F17"/>
</svg>
