<svg width="122" height="151" viewBox="0 0 122 151" fill="none" xmlns="http://www.w3.org/2000/svg">
<path d="M71.608 86.6328H47.5181V101.759H71.608V86.6328Z" fill="#935F37"/>
<path d="M47.5181 93.663C49.3315 94.0067 51.1965 94.1958 53.113 94.1958H64.5091C66.9585 94.1958 69.3391 93.895 71.608 93.3364V86.6328H47.5181V93.663Z" fill="black" fill-opacity="0.2"/>
<path d="M121.878 143.182V150.548H0.093689V143.182C0.093689 120.102 19.2452 101.441 42.3253 101.441H46.2538H75.7177H79.6462C102.726 101.441 121.878 120.102 121.878 143.182Z" fill="#935F37"/>
<path d="M94.2127 60.4012C99.1301 60.4012 103.116 56.4148 103.116 51.4975C103.116 46.5801 99.1301 42.5938 94.2127 42.5938C89.2953 42.5938 85.309 46.5801 85.309 51.4975C85.309 56.4148 89.2953 60.4012 94.2127 60.4012Z" fill="#935F37"/>
<path d="M93.0603 58.8042C92.7595 58.8042 92.4931 58.5808 92.4501 58.28C92.3985 57.9448 92.6306 57.6268 92.9658 57.5752C97.77 56.8533 98.7669 53.9742 98.9216 52.3155C99.1451 50.0552 98.0622 47.9152 96.9449 47.5113C96.6269 47.3996 96.4551 47.0386 96.5754 46.7206C96.6871 46.4026 97.0481 46.2307 97.3661 46.351C99.1365 46.987 100.408 49.7802 100.151 52.4358C99.9873 54.0516 98.9904 57.919 93.1462 58.7956C93.1119 58.7956 93.0861 58.7956 93.0517 58.7956L93.0603 58.8042Z" fill="black" fill-opacity="0.2"/>
<path d="M23.4031 60.4012C28.3205 60.4012 32.3068 56.4148 32.3068 51.4975C32.3068 46.5801 28.3205 42.5938 23.4031 42.5938C18.4857 42.5938 14.4994 46.5801 14.4994 51.4975C14.4994 56.4148 18.4857 60.4012 23.4031 60.4012Z" fill="#935F37"/>
<path d="M24.5541 58.8039C24.5541 58.8039 24.494 58.8039 24.4596 58.8039C18.6155 57.9273 17.6099 54.0598 17.4552 52.4441C17.1888 49.7799 18.4694 46.9953 20.2398 46.3593C20.5578 46.2476 20.9187 46.4109 21.0305 46.7289C21.1422 47.0469 20.9789 47.4078 20.6609 47.5196C19.5436 47.9235 18.4608 50.0635 18.6842 52.3238C18.8475 53.9739 19.8359 56.8616 24.6487 57.5835C24.9838 57.6351 25.2159 57.9531 25.1643 58.2883C25.1214 58.5977 24.8549 58.8125 24.5541 58.8125V58.8039Z" fill="black" fill-opacity="0.2"/>
<path d="M53.1045 0.851562H64.5006C80.8985 0.851562 94.2111 14.1642 94.2111 30.5535V62.533C94.2111 78.9309 80.8985 92.2349 64.5092 92.2349H53.1131C36.7151 92.2349 23.4111 78.9223 23.4111 62.533V30.5535C23.4025 14.1642 36.7151 0.851562 53.1045 0.851562Z" fill="#935F37"/>
</svg>
