<svg width="123" height="151" viewBox="0 0 123 151" fill="none" xmlns="http://www.w3.org/2000/svg">
<path d="M71.8239 86.6328H47.734V101.759H71.8239V86.6328Z" fill="#AD8A60"/>
<path d="M47.734 93.663C49.5474 94.0067 51.4124 94.1958 53.3289 94.1958H64.725C67.1744 94.1958 69.555 93.895 71.8239 93.3364V86.6328H47.734V93.663Z" fill="black" fill-opacity="0.2"/>
<path d="M122.094 143.182V150.548H0.30957V143.182C0.30957 120.102 19.4611 101.441 42.5412 101.441H46.4697H75.9336H79.8621C102.942 101.441 122.094 120.102 122.094 143.182Z" fill="#AD8A60"/>
<path d="M94.4286 60.4012C99.3459 60.4012 103.332 56.4148 103.332 51.4975C103.332 46.5801 99.3459 42.5938 94.4286 42.5938C89.5112 42.5938 85.5248 46.5801 85.5248 51.4975C85.5248 56.4148 89.5112 60.4012 94.4286 60.4012Z" fill="#AD8A60"/>
<path d="M93.2762 58.8042C92.9754 58.8042 92.709 58.5808 92.666 58.28C92.6144 57.9448 92.8465 57.6268 93.1816 57.5752C97.9859 56.8533 98.9828 53.9742 99.1375 52.3155C99.361 50.0552 98.2781 47.9152 97.1608 47.5113C96.8428 47.3996 96.6709 47.0386 96.7913 46.7206C96.903 46.4026 97.2639 46.2307 97.5819 46.351C99.3524 46.987 100.624 49.7802 100.366 52.4358C100.203 54.0516 99.2063 57.919 93.3621 58.7956C93.3277 58.7956 93.302 58.7956 93.2676 58.7956L93.2762 58.8042Z" fill="black" fill-opacity="0.2"/>
<path d="M23.619 60.4012C28.5364 60.4012 32.5227 56.4148 32.5227 51.4975C32.5227 46.5801 28.5364 42.5938 23.619 42.5938C18.7016 42.5938 14.7153 46.5801 14.7153 51.4975C14.7153 56.4148 18.7016 60.4012 23.619 60.4012Z" fill="#AD8A60"/>
<path d="M24.77 58.8039C24.77 58.8039 24.7099 58.8039 24.6755 58.8039C18.8313 57.9273 17.8258 54.0598 17.6711 52.4441C17.4047 49.7799 18.6852 46.9953 20.4557 46.3593C20.7737 46.2476 21.1346 46.4109 21.2463 46.7289C21.3581 47.0469 21.1948 47.4078 20.8768 47.5196C19.7595 47.9235 18.6766 50.0635 18.9001 52.3238C19.0634 53.9739 20.0517 56.8616 24.8645 57.5835C25.1997 57.6351 25.4318 57.9531 25.3802 58.2883C25.3372 58.5977 25.0708 58.8125 24.77 58.8125V58.8039Z" fill="black" fill-opacity="0.2"/>
<path d="M53.3204 0.851562H64.7164C81.1144 0.851562 94.427 14.1642 94.427 30.5535V62.533C94.427 78.9309 81.1144 92.2349 64.725 92.2349H53.329C36.931 92.2349 23.627 78.9223 23.627 62.533V30.5535C23.6184 14.1642 36.931 0.851562 53.3204 0.851562Z" fill="#AD8A60"/>
</svg>
