<svg width="123" height="150" viewBox="0 0 123 150" fill="none" xmlns="http://www.w3.org/2000/svg">
<path d="M72.3922 85.9336H48.3023V101.06H72.3922V85.9336Z" fill="#BB6536"/>
<path d="M48.3023 92.9637C50.1157 93.3075 51.9807 93.4966 53.8972 93.4966H65.2933C67.7426 93.4966 70.1233 93.1958 72.3922 92.6372V85.9336H48.3023V92.9637Z" fill="black" fill-opacity="0.2"/>
<path d="M122.662 142.483V149.849H0.877869V142.483C0.877869 119.403 20.0294 100.742 43.1095 100.742H47.038H76.5019H80.4304C103.51 100.742 122.662 119.403 122.662 142.483Z" fill="#BB6536"/>
<path d="M94.9968 59.702C99.9142 59.702 103.901 55.7156 103.901 50.7982C103.901 45.8809 99.9142 41.8945 94.9968 41.8945C90.0795 41.8945 86.0931 45.8809 86.0931 50.7982C86.0931 55.7156 90.0795 59.702 94.9968 59.702Z" fill="#BB6536"/>
<path d="M93.8445 58.105C93.5436 58.105 93.2772 57.8815 93.2343 57.5807C93.1827 57.2456 93.4147 56.9276 93.7499 56.876C98.5541 56.1541 99.5511 53.275 99.7058 51.6163C99.9292 49.356 98.8463 47.216 97.7291 46.8121C97.4111 46.7003 97.2392 46.3394 97.3595 46.0214C97.4713 45.7034 97.8322 45.5315 98.1502 45.6518C99.9206 46.2878 101.193 49.081 100.935 51.7366C100.771 53.3523 99.7745 57.2198 93.9304 58.0964C93.896 58.0964 93.8702 58.0964 93.8359 58.0964L93.8445 58.105Z" fill="black" fill-opacity="0.2"/>
<path d="M24.1872 59.702C29.1046 59.702 33.0909 55.7156 33.0909 50.7982C33.0909 45.8809 29.1046 41.8945 24.1872 41.8945C19.2698 41.8945 15.2835 45.8809 15.2835 50.7982C15.2835 55.7156 19.2698 59.702 24.1872 59.702Z" fill="#BB6536"/>
<path d="M25.3382 58.1047C25.3382 58.1047 25.2781 58.1047 25.2437 58.1047C19.3996 57.2281 18.394 53.3606 18.2393 51.7449C17.9729 49.0807 19.2535 46.2961 21.0239 45.6601C21.3419 45.5484 21.7029 45.7117 21.8146 46.0297C21.9263 46.3477 21.763 46.7086 21.445 46.8204C20.3278 47.2243 19.2449 49.3643 19.4683 51.6246C19.6316 53.2747 20.62 56.1624 25.4328 56.8843C25.768 56.9359 26 57.2539 25.9484 57.589C25.9055 57.8984 25.6391 58.1133 25.3382 58.1133V58.1047Z" fill="black" fill-opacity="0.2"/>
<path d="M53.8886 0.152344H65.2847C81.6827 0.152344 94.9953 13.4649 94.9953 29.8543V61.8338C94.9953 78.2317 81.6827 91.5357 65.2933 91.5357H53.8972C37.4993 91.5357 24.1953 78.2231 24.1953 61.8338V29.8543C24.1867 13.4649 37.4993 0.152344 53.8886 0.152344Z" fill="#BB6536"/>
</svg>
