<svg width="123" height="151" viewBox="0 0 123 151" fill="none" xmlns="http://www.w3.org/2000/svg">
<path d="M72.0397 86.6328H47.9498V101.759H72.0397V86.6328Z" fill="#CF965F"/>
<path d="M47.9498 93.663C49.7632 94.0067 51.6282 94.1958 53.5447 94.1958H64.9408C67.3902 94.1958 69.7708 93.895 72.0397 93.3364V86.6328H47.9498V93.663Z" fill="black" fill-opacity="0.2"/>
<path d="M122.31 143.182V150.548H0.525391V143.182C0.525391 120.102 19.6769 101.441 42.757 101.441H46.6855H76.1494H80.0779C103.158 101.441 122.31 120.102 122.31 143.182Z" fill="#CF965F"/>
<path d="M94.6444 60.4012C99.5618 60.4012 103.548 56.4148 103.548 51.4975C103.548 46.5801 99.5618 42.5938 94.6444 42.5938C89.727 42.5938 85.7407 46.5801 85.7407 51.4975C85.7407 56.4148 89.727 60.4012 94.6444 60.4012Z" fill="#CF965F"/>
<path d="M93.492 58.8042C93.1912 58.8042 92.9248 58.5808 92.8818 58.28C92.8302 57.9448 93.0623 57.6268 93.3975 57.5752C98.2017 56.8533 99.1986 53.9742 99.3533 52.3155C99.5768 50.0552 98.4939 47.9152 97.3766 47.5113C97.0586 47.3996 96.8868 47.0386 97.0071 46.7206C97.1188 46.4026 97.4798 46.2307 97.7978 46.351C99.5682 46.987 100.84 49.7802 100.582 52.4358C100.419 54.0516 99.4221 57.919 93.5779 58.7956C93.5436 58.7956 93.5178 58.7956 93.4834 58.7956L93.492 58.8042Z" fill="black" fill-opacity="0.2"/>
<path d="M23.8348 60.4012C28.7522 60.4012 32.7385 56.4148 32.7385 51.4975C32.7385 46.5801 28.7522 42.5938 23.8348 42.5938C18.9174 42.5938 14.9311 46.5801 14.9311 51.4975C14.9311 56.4148 18.9174 60.4012 23.8348 60.4012Z" fill="#CF965F"/>
<path d="M24.9858 58.8039C24.9858 58.8039 24.9257 58.8039 24.8913 58.8039C19.0472 57.9273 18.0416 54.0598 17.8869 52.4441C17.6205 49.7799 18.9011 46.9953 20.6715 46.3593C20.9895 46.2476 21.3504 46.4109 21.4622 46.7289C21.5739 47.0469 21.4106 47.4078 21.0926 47.5196C19.9753 47.9235 18.8925 50.0635 19.1159 52.3238C19.2792 53.9739 20.2676 56.8616 25.0804 57.5835C25.4155 57.6351 25.6476 57.9531 25.596 58.2883C25.5531 58.5977 25.2866 58.8125 24.9858 58.8125V58.8039Z" fill="black" fill-opacity="0.2"/>
<path d="M53.5362 0.851562H64.9323C81.3302 0.851562 94.6428 14.1642 94.6428 30.5535V62.533C94.6428 78.9309 81.3302 92.2349 64.9409 92.2349H53.5448C37.1468 92.2349 23.8428 78.9223 23.8428 62.533V30.5535C23.8342 14.1642 37.1468 0.851562 53.5362 0.851562Z" fill="#CF965F"/>
</svg>
