<svg width="122" height="150" viewBox="0 0 122 150" fill="none" xmlns="http://www.w3.org/2000/svg">
<path d="M71.608 85.9336H47.5181V101.06H71.608V85.9336Z" fill="#D49E7A"/>
<path d="M47.5181 92.9637C49.3315 93.3075 51.1965 93.4966 53.113 93.4966H64.5091C66.9585 93.4966 69.3391 93.1958 71.608 92.6372V85.9336H47.5181V92.9637Z" fill="black" fill-opacity="0.2"/>
<path d="M121.878 142.483V149.849H0.093689V142.483C0.093689 119.403 19.2452 100.742 42.3253 100.742H46.2538H75.7177H79.6462C102.726 100.742 121.878 119.403 121.878 142.483Z" fill="#D49E7A"/>
<path d="M94.2127 59.702C99.1301 59.702 103.116 55.7156 103.116 50.7982C103.116 45.8809 99.1301 41.8945 94.2127 41.8945C89.2953 41.8945 85.309 45.8809 85.309 50.7982C85.309 55.7156 89.2953 59.702 94.2127 59.702Z" fill="#D49E7A"/>
<path d="M93.0603 58.105C92.7595 58.105 92.4931 57.8815 92.4501 57.5807C92.3985 57.2456 92.6306 56.9276 92.9658 56.876C97.77 56.1541 98.7669 53.275 98.9216 51.6163C99.1451 49.356 98.0622 47.216 96.9449 46.8121C96.6269 46.7003 96.4551 46.3394 96.5754 46.0214C96.6871 45.7034 97.0481 45.5315 97.3661 45.6518C99.1365 46.2878 100.408 49.081 100.151 51.7366C99.9873 53.3523 98.9904 57.2198 93.1462 58.0964C93.1119 58.0964 93.0861 58.0964 93.0517 58.0964L93.0603 58.105Z" fill="black" fill-opacity="0.2"/>
<path d="M23.4031 59.702C28.3205 59.702 32.3068 55.7156 32.3068 50.7982C32.3068 45.8809 28.3205 41.8945 23.4031 41.8945C18.4857 41.8945 14.4994 45.8809 14.4994 50.7982C14.4994 55.7156 18.4857 59.702 23.4031 59.702Z" fill="#D49E7A"/>
<path d="M24.5541 58.1047C24.5541 58.1047 24.494 58.1047 24.4596 58.1047C18.6155 57.2281 17.6099 53.3606 17.4552 51.7449C17.1888 49.0807 18.4694 46.2961 20.2398 45.6601C20.5578 45.5484 20.9187 45.7117 21.0305 46.0297C21.1422 46.3477 20.9789 46.7086 20.6609 46.8204C19.5436 47.2243 18.4608 49.3643 18.6842 51.6246C18.8475 53.2747 19.8359 56.1624 24.6487 56.8843C24.9838 56.9359 25.2159 57.2539 25.1643 57.589C25.1214 57.8984 24.8549 58.1133 24.5541 58.1133V58.1047Z" fill="black" fill-opacity="0.2"/>
<path d="M53.1045 0.152344H64.5006C80.8985 0.152344 94.2111 13.4649 94.2111 29.8543V61.8338C94.2111 78.2317 80.8985 91.5357 64.5092 91.5357H53.1131C36.7151 91.5357 23.4111 78.2231 23.4111 61.8338V29.8543C23.4025 13.4649 36.7151 0.152344 53.1045 0.152344Z" fill="#D49E7A"/>
</svg>
