<svg width="123" height="150" viewBox="0 0 123 150" fill="none" xmlns="http://www.w3.org/2000/svg">
<path d="M72.0397 85.9336H47.9498V101.06H72.0397V85.9336Z" fill="#ECC091"/>
<path d="M47.9498 92.9637C49.7632 93.3075 51.6282 93.4966 53.5447 93.4966H64.9408C67.3902 93.4966 69.7708 93.1958 72.0397 92.6372V85.9336H47.9498V92.9637Z" fill="black" fill-opacity="0.2"/>
<path d="M122.31 142.483V149.849H0.525391V142.483C0.525391 119.403 19.6769 100.742 42.757 100.742H46.6855H76.1494H80.0779C103.158 100.742 122.31 119.403 122.31 142.483Z" fill="#ECC091"/>
<path d="M94.6444 59.702C99.5618 59.702 103.548 55.7156 103.548 50.7982C103.548 45.8809 99.5618 41.8945 94.6444 41.8945C89.727 41.8945 85.7407 45.8809 85.7407 50.7982C85.7407 55.7156 89.727 59.702 94.6444 59.702Z" fill="#ECC091"/>
<path d="M93.492 58.105C93.1912 58.105 92.9248 57.8815 92.8818 57.5807C92.8302 57.2456 93.0623 56.9276 93.3975 56.876C98.2017 56.1541 99.1986 53.275 99.3533 51.6163C99.5768 49.356 98.4939 47.216 97.3766 46.8121C97.0586 46.7003 96.8868 46.3394 97.0071 46.0214C97.1188 45.7034 97.4798 45.5315 97.7978 45.6518C99.5682 46.2878 100.84 49.081 100.582 51.7366C100.419 53.3523 99.4221 57.2198 93.5779 58.0964C93.5436 58.0964 93.5178 58.0964 93.4834 58.0964L93.492 58.105Z" fill="black" fill-opacity="0.2"/>
<path d="M23.8348 59.702C28.7522 59.702 32.7385 55.7156 32.7385 50.7982C32.7385 45.8809 28.7522 41.8945 23.8348 41.8945C18.9174 41.8945 14.9311 45.8809 14.9311 50.7982C14.9311 55.7156 18.9174 59.702 23.8348 59.702Z" fill="#ECC091"/>
<path d="M24.9858 58.1047C24.9858 58.1047 24.9257 58.1047 24.8913 58.1047C19.0472 57.2281 18.0416 53.3606 17.8869 51.7449C17.6205 49.0807 18.9011 46.2961 20.6715 45.6601C20.9895 45.5484 21.3504 45.7117 21.4622 46.0297C21.5739 46.3477 21.4106 46.7086 21.0926 46.8204C19.9753 47.2243 18.8925 49.3643 19.1159 51.6246C19.2792 53.2747 20.2676 56.1624 25.0804 56.8843C25.4155 56.9359 25.6476 57.2539 25.596 57.589C25.5531 57.8984 25.2866 58.1133 24.9858 58.1133V58.1047Z" fill="black" fill-opacity="0.2"/>
<path d="M53.5362 0.152344H64.9323C81.3302 0.152344 94.6428 13.4649 94.6428 29.8543V61.8338C94.6428 78.2317 81.3302 91.5357 64.9409 91.5357H53.5448C37.1468 91.5357 23.8428 78.2231 23.8428 61.8338V29.8543C23.8342 13.4649 37.1468 0.152344 53.5362 0.152344Z" fill="#ECC091"/>
</svg>
