<svg width="123" height="150" viewBox="0 0 123 150" fill="none" xmlns="http://www.w3.org/2000/svg">
<path d="M71.8239 85.9336H47.734V101.06H71.8239V85.9336Z" fill="#F2C280"/>
<path d="M47.734 92.9637C49.5474 93.3075 51.4124 93.4966 53.3289 93.4966H64.725C67.1744 93.4966 69.555 93.1958 71.8239 92.6372V85.9336H47.734V92.9637Z" fill="black" fill-opacity="0.2"/>
<path d="M122.094 142.483V149.849H0.30957V142.483C0.30957 119.403 19.4611 100.742 42.5412 100.742H46.4697H75.9336H79.8621C102.942 100.742 122.094 119.403 122.094 142.483Z" fill="#F2C280"/>
<path d="M94.4286 59.702C99.3459 59.702 103.332 55.7156 103.332 50.7982C103.332 45.8809 99.3459 41.8945 94.4286 41.8945C89.5112 41.8945 85.5248 45.8809 85.5248 50.7982C85.5248 55.7156 89.5112 59.702 94.4286 59.702Z" fill="#F2C280"/>
<path d="M93.2762 58.105C92.9754 58.105 92.709 57.8815 92.666 57.5807C92.6144 57.2456 92.8465 56.9276 93.1816 56.876C97.9859 56.1541 98.9828 53.275 99.1375 51.6163C99.361 49.356 98.2781 47.216 97.1608 46.8121C96.8428 46.7003 96.6709 46.3394 96.7913 46.0214C96.903 45.7034 97.2639 45.5315 97.5819 45.6518C99.3524 46.2878 100.624 49.081 100.366 51.7366C100.203 53.3523 99.2063 57.2198 93.3621 58.0964C93.3277 58.0964 93.302 58.0964 93.2676 58.0964L93.2762 58.105Z" fill="black" fill-opacity="0.2"/>
<path d="M23.619 59.702C28.5364 59.702 32.5227 55.7156 32.5227 50.7982C32.5227 45.8809 28.5364 41.8945 23.619 41.8945C18.7016 41.8945 14.7153 45.8809 14.7153 50.7982C14.7153 55.7156 18.7016 59.702 23.619 59.702Z" fill="#F2C280"/>
<path d="M24.77 58.1047C24.77 58.1047 24.7099 58.1047 24.6755 58.1047C18.8313 57.2281 17.8258 53.3606 17.6711 51.7449C17.4047 49.0807 18.6852 46.2961 20.4557 45.6601C20.7737 45.5484 21.1346 45.7117 21.2463 46.0297C21.3581 46.3477 21.1948 46.7086 20.8768 46.8204C19.7595 47.2243 18.6766 49.3643 18.9001 51.6246C19.0634 53.2747 20.0517 56.1624 24.8645 56.8843C25.1997 56.9359 25.4318 57.2539 25.3802 57.589C25.3372 57.8984 25.0708 58.1133 24.77 58.1133V58.1047Z" fill="black" fill-opacity="0.2"/>
<path d="M53.3204 0.152344H64.7164C81.1144 0.152344 94.427 13.4649 94.427 29.8543V61.8338C94.427 78.2317 81.1144 91.5357 64.725 91.5357H53.329C36.931 91.5357 23.627 78.2231 23.627 61.8338V29.8543C23.6184 13.4649 36.931 0.152344 53.3204 0.152344Z" fill="#F2C280"/>
</svg>
