<svg width="122" height="151" viewBox="0 0 122 151" fill="none" xmlns="http://www.w3.org/2000/svg">
<path d="M71.608 86.2344H47.5181V101.36H71.608V86.2344Z" fill="#F8D998"/>
<path d="M47.5181 93.2645C49.3315 93.6083 51.1965 93.7974 53.113 93.7974H64.5091C66.9585 93.7974 69.3391 93.4966 71.608 92.9379V86.2344H47.5181V93.2645Z" fill="black" fill-opacity="0.2"/>
<path d="M121.878 142.784V150.149H0.093689V142.784C0.093689 119.703 19.2452 101.043 42.3253 101.043H46.2538H75.7177H79.6462C102.726 101.043 121.878 119.703 121.878 142.784Z" fill="#F8D998"/>
<path d="M94.2127 60.0027C99.1301 60.0027 103.116 56.0164 103.116 51.099C103.116 46.1816 99.1301 42.1953 94.2127 42.1953C89.2953 42.1953 85.309 46.1816 85.309 51.099C85.309 56.0164 89.2953 60.0027 94.2127 60.0027Z" fill="#F8D998"/>
<path d="M93.0603 58.4058C92.7595 58.4058 92.4931 58.1823 92.4501 57.8815C92.3985 57.5463 92.6306 57.2283 92.9658 57.1768C97.77 56.4549 98.7669 53.5758 98.9216 51.9171C99.1451 49.6568 98.0622 47.5168 96.9449 47.1128C96.6269 47.0011 96.4551 46.6402 96.5754 46.3222C96.6871 46.0042 97.0481 45.8323 97.3661 45.9526C99.1365 46.5886 100.408 49.3817 100.151 52.0374C99.9873 53.6531 98.9904 57.5206 93.1462 58.3972C93.1119 58.3972 93.0861 58.3972 93.0517 58.3972L93.0603 58.4058Z" fill="black" fill-opacity="0.2"/>
<path d="M23.4031 60.0027C28.3205 60.0027 32.3068 56.0164 32.3068 51.099C32.3068 46.1816 28.3205 42.1953 23.4031 42.1953C18.4857 42.1953 14.4994 46.1816 14.4994 51.099C14.4994 56.0164 18.4857 60.0027 23.4031 60.0027Z" fill="#F8D998"/>
<path d="M24.5541 58.4055C24.5541 58.4055 24.494 58.4055 24.4596 58.4055C18.6155 57.5289 17.6099 53.6614 17.4552 52.0457C17.1888 49.3814 18.4694 46.5969 20.2398 45.9609C20.5578 45.8492 20.9187 46.0125 21.0305 46.3305C21.1422 46.6485 20.9789 47.0094 20.6609 47.1211C19.5436 47.5251 18.4608 49.6651 18.6842 51.9254C18.8475 53.5755 19.8359 56.4632 24.6487 57.1851C24.9838 57.2367 25.2159 57.5546 25.1643 57.8898C25.1214 58.1992 24.8549 58.4141 24.5541 58.4141V58.4055Z" fill="black" fill-opacity="0.2"/>
<path d="M53.1045 0.453125H64.5006C80.8985 0.453125 94.2111 13.7657 94.2111 30.1551V62.1345C94.2111 78.5325 80.8985 91.8365 64.5092 91.8365H53.1131C36.7151 91.8365 23.4111 78.5239 23.4111 62.1345V30.1551C23.4025 13.7657 36.7151 0.453125 53.1045 0.453125Z" fill="#F8D998"/>
</svg>
