<svg width="123" height="151" viewBox="0 0 123 151" fill="none" xmlns="http://www.w3.org/2000/svg">
<path d="M72.3922 86.2344H48.3023V101.36H72.3922V86.2344Z" fill="#F9D4A0"/>
<path d="M48.3023 93.2645C50.1157 93.6083 51.9807 93.7974 53.8972 93.7974H65.2933C67.7426 93.7974 70.1233 93.4966 72.3922 92.9379V86.2344H48.3023V93.2645Z" fill="black" fill-opacity="0.2"/>
<path d="M122.662 142.784V150.149H0.877869V142.784C0.877869 119.703 20.0294 101.043 43.1095 101.043H47.038H76.5019H80.4304C103.51 101.043 122.662 119.703 122.662 142.784Z" fill="#F9D4A0"/>
<path d="M94.9968 60.0027C99.9142 60.0027 103.901 56.0164 103.901 51.099C103.901 46.1816 99.9142 42.1953 94.9968 42.1953C90.0795 42.1953 86.0931 46.1816 86.0931 51.099C86.0931 56.0164 90.0795 60.0027 94.9968 60.0027Z" fill="#F9D4A0"/>
<path d="M93.8445 58.4058C93.5436 58.4058 93.2772 58.1823 93.2343 57.8815C93.1827 57.5463 93.4147 57.2283 93.7499 57.1768C98.5541 56.4549 99.5511 53.5758 99.7058 51.9171C99.9292 49.6568 98.8463 47.5168 97.7291 47.1128C97.4111 47.0011 97.2392 46.6402 97.3595 46.3222C97.4713 46.0042 97.8322 45.8323 98.1502 45.9526C99.9206 46.5886 101.193 49.3817 100.935 52.0374C100.771 53.6531 99.7745 57.5206 93.9304 58.3972C93.896 58.3972 93.8702 58.3972 93.8359 58.3972L93.8445 58.4058Z" fill="black" fill-opacity="0.2"/>
<path d="M24.1872 60.0027C29.1046 60.0027 33.0909 56.0164 33.0909 51.099C33.0909 46.1816 29.1046 42.1953 24.1872 42.1953C19.2698 42.1953 15.2835 46.1816 15.2835 51.099C15.2835 56.0164 19.2698 60.0027 24.1872 60.0027Z" fill="#F9D4A0"/>
<path d="M25.3382 58.4055C25.3382 58.4055 25.2781 58.4055 25.2437 58.4055C19.3996 57.5289 18.394 53.6614 18.2393 52.0457C17.9729 49.3814 19.2535 46.5969 21.0239 45.9609C21.3419 45.8492 21.7029 46.0125 21.8146 46.3305C21.9263 46.6485 21.763 47.0094 21.445 47.1211C20.3278 47.5251 19.2449 49.6651 19.4683 51.9254C19.6316 53.5755 20.62 56.4632 25.4328 57.1851C25.768 57.2367 26 57.5546 25.9484 57.8898C25.9055 58.1992 25.6391 58.4141 25.3382 58.4141V58.4055Z" fill="black" fill-opacity="0.2"/>
<path d="M53.8886 0.453125H65.2847C81.6827 0.453125 94.9953 13.7657 94.9953 30.1551V62.1345C94.9953 78.5325 81.6827 91.8365 65.2933 91.8365H53.8972C37.4993 91.8365 24.1953 78.5239 24.1953 62.1345V30.1551C24.1867 13.7657 37.4993 0.453125 53.8886 0.453125Z" fill="#F9D4A0"/>
</svg>
