<svg width="123" height="151" viewBox="0 0 123 151" fill="none" xmlns="http://www.w3.org/2000/svg">
<path d="M71.8239 86.2344H47.734V101.36H71.8239V86.2344Z" fill="#FDE7AD"/>
<path d="M47.734 93.2645C49.5474 93.6083 51.4124 93.7974 53.3289 93.7974H64.725C67.1744 93.7974 69.555 93.4966 71.8239 92.9379V86.2344H47.734V93.2645Z" fill="black" fill-opacity="0.2"/>
<path d="M122.094 142.784V150.149H0.30957V142.784C0.30957 119.703 19.4611 101.043 42.5412 101.043H46.4697H75.9336H79.8621C102.942 101.043 122.094 119.703 122.094 142.784Z" fill="#FDE7AD"/>
<path d="M94.4286 60.0027C99.3459 60.0027 103.332 56.0164 103.332 51.099C103.332 46.1816 99.3459 42.1953 94.4286 42.1953C89.5112 42.1953 85.5248 46.1816 85.5248 51.099C85.5248 56.0164 89.5112 60.0027 94.4286 60.0027Z" fill="#FDE7AD"/>
<path d="M93.2762 58.4058C92.9754 58.4058 92.709 58.1823 92.666 57.8815C92.6144 57.5463 92.8465 57.2283 93.1816 57.1768C97.9859 56.4549 98.9828 53.5758 99.1375 51.9171C99.361 49.6568 98.2781 47.5168 97.1608 47.1128C96.8428 47.0011 96.6709 46.6402 96.7913 46.3222C96.903 46.0042 97.2639 45.8323 97.5819 45.9526C99.3524 46.5886 100.624 49.3817 100.366 52.0374C100.203 53.6531 99.2063 57.5206 93.3621 58.3972C93.3277 58.3972 93.302 58.3972 93.2676 58.3972L93.2762 58.4058Z" fill="black" fill-opacity="0.2"/>
<path d="M23.619 60.0027C28.5364 60.0027 32.5227 56.0164 32.5227 51.099C32.5227 46.1816 28.5364 42.1953 23.619 42.1953C18.7016 42.1953 14.7153 46.1816 14.7153 51.099C14.7153 56.0164 18.7016 60.0027 23.619 60.0027Z" fill="#FDE7AD"/>
<path d="M24.77 58.4055C24.77 58.4055 24.7099 58.4055 24.6755 58.4055C18.8313 57.5289 17.8258 53.6614 17.6711 52.0457C17.4047 49.3814 18.6852 46.5969 20.4557 45.9609C20.7737 45.8492 21.1346 46.0125 21.2463 46.3305C21.3581 46.6485 21.1948 47.0094 20.8768 47.1211C19.7595 47.5251 18.6766 49.6651 18.9001 51.9254C19.0634 53.5755 20.0517 56.4632 24.8645 57.1851C25.1997 57.2367 25.4318 57.5546 25.3802 57.8898C25.3372 58.1992 25.0708 58.4141 24.77 58.4141V58.4055Z" fill="black" fill-opacity="0.2"/>
<path d="M53.3204 0.453125H64.7164C81.1144 0.453125 94.427 13.7657 94.427 30.1551V62.1345C94.427 78.5325 81.1144 91.8365 64.725 91.8365H53.329C36.931 91.8365 23.627 78.5239 23.627 62.1345V30.1551C23.6184 13.7657 36.931 0.453125 53.3204 0.453125Z" fill="#FDE7AD"/>
</svg>
