<svg width="123" height="151" viewBox="0 0 123 151" fill="none" xmlns="http://www.w3.org/2000/svg">
<path d="M72.0397 86.2344H47.9498V101.36H72.0397V86.2344Z" fill="#FEE3C5"/>
<path d="M47.9498 93.2645C49.7632 93.6083 51.6282 93.7974 53.5447 93.7974H64.9408C67.3902 93.7974 69.7708 93.4966 72.0397 92.9379V86.2344H47.9498V93.2645Z" fill="black" fill-opacity="0.2"/>
<path d="M122.31 142.784V150.149H0.525391V142.784C0.525391 119.703 19.6769 101.043 42.757 101.043H46.6855H76.1494H80.0779C103.158 101.043 122.31 119.703 122.31 142.784Z" fill="#FEE3C5"/>
<path d="M94.6444 60.0027C99.5618 60.0027 103.548 56.0164 103.548 51.099C103.548 46.1816 99.5618 42.1953 94.6444 42.1953C89.727 42.1953 85.7407 46.1816 85.7407 51.099C85.7407 56.0164 89.727 60.0027 94.6444 60.0027Z" fill="#FEE3C5"/>
<path d="M93.492 58.4058C93.1912 58.4058 92.9248 58.1823 92.8818 57.8815C92.8302 57.5463 93.0623 57.2283 93.3975 57.1768C98.2017 56.4549 99.1986 53.5758 99.3533 51.9171C99.5768 49.6568 98.4939 47.5168 97.3766 47.1128C97.0586 47.0011 96.8868 46.6402 97.0071 46.3222C97.1188 46.0042 97.4798 45.8323 97.7978 45.9526C99.5682 46.5886 100.84 49.3817 100.582 52.0374C100.419 53.6531 99.4221 57.5206 93.5779 58.3972C93.5436 58.3972 93.5178 58.3972 93.4834 58.3972L93.492 58.4058Z" fill="black" fill-opacity="0.2"/>
<path d="M23.8348 60.0027C28.7522 60.0027 32.7385 56.0164 32.7385 51.099C32.7385 46.1816 28.7522 42.1953 23.8348 42.1953C18.9174 42.1953 14.9311 46.1816 14.9311 51.099C14.9311 56.0164 18.9174 60.0027 23.8348 60.0027Z" fill="#FEE3C5"/>
<path d="M24.9858 58.4055C24.9858 58.4055 24.9257 58.4055 24.8913 58.4055C19.0472 57.5289 18.0416 53.6614 17.8869 52.0457C17.6205 49.3814 18.9011 46.5969 20.6715 45.9609C20.9895 45.8492 21.3504 46.0125 21.4622 46.3305C21.5739 46.6485 21.4106 47.0094 21.0926 47.1211C19.9753 47.5251 18.8925 49.6651 19.1159 51.9254C19.2792 53.5755 20.2676 56.4632 25.0804 57.1851C25.4155 57.2367 25.6476 57.5546 25.596 57.8898C25.5531 58.1992 25.2866 58.4141 24.9858 58.4141V58.4055Z" fill="black" fill-opacity="0.2"/>
<path d="M53.5362 0.453125H64.9323C81.3302 0.453125 94.6428 13.7657 94.6428 30.1551V62.1345C94.6428 78.5325 81.3302 91.8365 64.9409 91.8365H53.5448C37.1468 91.8365 23.8428 78.5239 23.8428 62.1345V30.1551C23.8342 13.7657 37.1468 0.453125 53.5362 0.453125Z" fill="#FEE3C5"/>
</svg>
