<svg width="115" height="104" viewBox="0 0 115 104" fill="none" xmlns="http://www.w3.org/2000/svg">
<path d="M13.7169 73.56C9.25747 68.0779 8.21159 64.8234 0.527344 62.8562C0.527344 62.8562 5.20471 57.7792 9.7223 58.3433C14.2399 58.9074 3.86832 50.1708 0.527344 45.3831C0.527344 45.3831 4.44936 47.9144 8.98147 47.3647C13.4991 46.8006 20.3699 41.7235 20.3699 41.7235C20.3699 41.7235 5.46618 30.2532 3.21465 23.585C3.21465 23.585 12.1917 27.9099 20.3699 25.6534C28.548 23.397 38.9631 23.585 38.9631 23.585C38.9631 23.585 24.9891 14.3856 20.3699 3.95663C20.3699 3.95663 27.5893 9.32297 34.8232 11.565C49.9448 16.2659 53.2422 14.9497 57.7017 14.6604C57.7017 14.6604 57.1642 16.0634 56.2781 6.77721C56.2781 6.77721 60.3599 10.4367 64.0205 12.6932C64.0205 12.6932 63.0908 8.46957 69.5258 0.0078125C69.5258 0.0078125 68.7705 7.34133 73.3752 12.1291C77.9654 16.9169 80.8706 20.3016 80.8706 20.3016C80.8706 20.3016 79.2292 12.9825 80.4784 5.37416C80.4784 5.37416 83.2964 16.3672 88.7873 21.9939C94.2781 27.6351 97.866 33.5511 97.866 33.5511C97.866 33.5511 97.285 19.1733 92.7674 13.5466C92.7674 13.5466 104.316 23.7007 104.809 43.98C104.809 43.98 110.518 41.0292 114.527 39.1922C114.527 39.1922 106.712 47.2201 108.702 55.6673C110.692 64.1291 105.841 78.0729 105.841 78.0729C105.841 78.0729 109.574 71.0287 110.838 62.8562C110.838 62.8562 113.685 80.3583 99.8416 93.3041L97.1107 102.041L94.3943 103.993C94.3943 103.993 100.96 78.3477 97.866 65.9516C97.866 65.9516 99.7835 69.5967 87.2475 75.5271C87.2475 75.5271 72.983 79.6929 71.2544 86.6214C71.2544 86.6214 77.2682 72.7066 83.7613 69.3219C83.7613 69.3219 79.5487 73.8348 66.0832 75.2379C66.0832 75.2379 69.8599 74.1096 75.7865 67.6295C75.7865 67.6295 61.0281 68.9747 51.8622 74.6737C51.8622 74.6737 54.4914 66.7906 59.5755 64.2448C59.5755 64.2448 42.8416 82.6582 28.025 82.8896C28.025 82.8896 35.4624 81.1538 40.6481 71.289C40.6481 71.289 30.7269 75.4693 26.9937 80.286C26.9937 80.286 24.9601 95.5316 26.9937 102.012L22.3744 94.9385C22.3744 94.9385 17.2322 77.8849 13.7024 73.5455L13.7169 73.56Z" fill="#46423D"/>
</svg>
