<svg width="97" height="82" viewBox="0 0 97 82" fill="none" xmlns="http://www.w3.org/2000/svg">
<path d="M94.8958 42.7741C94.1488 37.1787 92.8598 31.1145 90.897 26.6323C86.5026 16.7889 77.4796 12.585 63.2126 6.65267C50.513 1.33552 45.8843 4.04536 32.7306 7.23858C32.4523 6.30112 32.0421 5.4076 31.4855 4.60197C27.5013 -1.2132 17.8338 -1.47686 9.88003 4.01606C1.92628 9.50898 -1.28159 18.6785 2.70261 24.4937C3.58148 25.7827 4.7533 26.7787 6.1009 27.5111C3.7719 32.5939 2.49754 37.5742 1.98487 40.9578C1.89698 41.5876 1.82374 42.1736 1.72121 42.7741C-0.0218815 55.8253 1.63332 61.201 3.08345 64.116C3.7426 65.5075 4.3871 66.3424 4.59217 67.2066C5.35386 70.2973 4.89978 71.308 6.4085 74.5745C7.3899 75.468 9.92397 76.6838 10.7149 78.837C12.1065 82.5282 12.6192 81.8984 12.6192 81.8984C12.6192 81.8984 10.671 68.9058 10.4806 64.116C10.4513 63.8523 10.4513 63.6033 10.4513 63.3982C10.4513 61.0839 11.4913 49.4535 19.0349 42.7595C19.3864 42.4226 19.7673 42.1003 20.1628 41.8074C26.5199 36.9589 37.3446 39.0096 38.5311 39.0096C38.7655 39.0096 41.2263 40.9431 44.7711 42.7595C48.1986 44.5465 52.6076 46.2164 56.958 45.9966C83.9978 44.5904 89.6958 59.4287 90.2964 62.534C90.2671 63.0467 90.2085 63.574 90.1792 64.1013C89.857 67.939 89.4615 72.4066 89.1685 75.3948C88.6705 78.9688 88.2311 81.8837 88.2311 81.8837C88.2311 81.8837 88.7877 82.5136 90.1499 78.8223C90.8091 77.006 93.0795 75.8781 93.9437 75.0139C94.1048 72.9925 94.6761 67.7633 94.9251 67.192C95.1595 66.7233 95.3938 65.5514 95.5696 64.1013C95.8772 61.8162 96.0823 58.872 96.0823 57.0557C96.0823 55.4152 95.8186 49.4389 94.8665 42.7595L94.8958 42.7741Z" fill="#46423D"/>
</svg>
