<svg width="99" height="136" viewBox="0 0 99 136" fill="none" xmlns="http://www.w3.org/2000/svg">
<path d="M13.6865 112.519C18.6665 118.231 25.4921 122.291 33.2314 123.769V134.816H26.6924C24.0998 134.816 21.55 135.019 19.0586 135.409H17.0029C17.4821 132.9 18.004 130.518 18.5537 128.207C15.8207 130.292 12.4116 130.87 12.4082 130.871C12.415 130.866 17.1442 127.554 17.7217 121.92C17.8344 120.779 17.962 119.778 18.0889 118.89C17.5392 120.342 16.7356 121.935 15.5518 123.485C12.5515 127.401 8.46718 128.91 8.46191 128.912C8.46849 128.907 12.902 125.858 13.3809 114.168C13.4033 113.697 13.5144 113.134 13.6865 112.519ZM82.4346 107.933C83.9307 112.137 85.3456 112.617 85.3486 112.618C85.3486 112.618 83.7978 112.689 81.2188 110.8C81.712 112.069 82.0782 113.281 82.1064 114.168C82.5853 125.858 87.0188 128.907 87.0254 128.912C87.0201 128.91 82.9217 127.401 79.9355 123.485C78.7658 121.92 77.9481 120.342 77.3984 118.89C77.5253 119.778 77.6529 120.779 77.7656 121.92L77.793 121.935C78.3703 127.565 83.0952 130.876 83.1074 130.884C83.1043 130.884 80.2448 130.419 77.667 128.743L78.5127 135.409H77.752C75.2606 135.019 72.7107 134.816 70.1182 134.816H61.2617V123.388C70.178 121.198 77.7397 115.543 82.4346 107.933ZM11.9834 110.404C12.2984 110.828 12.6234 111.244 12.957 111.653C11.1944 112.652 10.1643 112.619 10.1396 112.618C10.1638 112.609 10.9598 112.316 11.9834 110.404ZM43.6289 1.77396C52.7859 -1.0533 58.7279 2.08545 58.752 2.09818C58.7072 2.09665 53.9206 1.93683 51.5918 3.78861C53.9174 2.80199 57.8929 2.44963 64.5879 5.1558C77.6392 10.4272 77.3994 19.8714 86.4902 22.7749C95.7457 25.7339 98.4717 21.9674 98.499 21.9292L98.5273 21.9429C98.5273 21.9429 94.4822 28.6377 87.3223 28.6519C86.1665 28.6519 86.0391 28.6236 86.0391 28.6236C86.0391 28.6377 88.7318 35.7837 89.2393 41.1255C89.7608 46.5802 88.1256 50.3155 87.6182 60.5201C87.1812 69.2445 84.8277 64.7768 82.0088 71.2037C81.0644 73.3601 81.0215 75.7847 81.0215 75.7847C79.9782 76.0371 77.2442 70.5542 79.2031 61.0132C79.6401 58.885 79.1893 54.7414 77.7939 50.3863C77.2584 51.3164 76.6668 52.2752 76.0186 53.2476C71.8627 59.4251 65.0353 63.071 64.9824 63.0992C65.0301 63.05 72.4638 55.3566 71.8037 45.0445C71.0145 46.341 70.1268 47.68 69.084 49.0611C64.5936 55.0108 57.5882 58.2919 57.5264 58.3208C57.5889 58.2626 65.6432 50.7392 65.3203 40.1812C58.7194 60.7722 40.1302 66.1571 40.0771 66.1724C40.0987 66.162 52.7907 59.9999 53.1289 44.9458C53.1571 43.7619 53.2411 42.6194 53.3115 41.5201C51.8739 44.6209 50.1118 47.7646 48.0117 50.1607C47.8568 50.3437 47.6739 50.5128 47.5049 50.6958C37.8205 63.1351 27.7295 64.0386 27.6738 64.0435V64.0015C24.4321 64.7344 20.6404 64.6075 16.2852 62.9302C16.257 62.9161 16.2147 62.9023 16.1865 62.8882C16.0175 62.8178 15.8344 62.7331 15.6514 62.6626C12.325 61.4646 11.5069 65.4535 11.3096 67.9341C11.2672 75.2912 9.68848 75.2349 9.68848 75.2349C8.89986 75.2336 9.74482 71.0344 7.12402 68.1314C4.50243 65.2279 0.527356 55.4741 0.527344 45.7066C0.527344 35.9391 3.93788 27.2705 12.8174 18.0386C21.697 8.82072 34.7637 4.33842 34.7637 4.33842L31.1406 7.66556C33.3112 6.03059 37.1736 3.76131 43.6289 1.77396Z" fill="#46423D"/>
</svg>
