<svg width="105" height="180" viewBox="0 0 105 180" fill="none" xmlns="http://www.w3.org/2000/svg">
<path d="M82.069 49.5619C87.0782 47.9921 93.3926 46.7574 93.6572 39.473C93.9217 32.1885 100.254 26.6149 92.0874 18.8366C83.921 11.0406 74.1849 6.80755 74.1849 6.80755C74.1849 6.80755 65.2248 3.24469 58.6459 1.92184C52.0493 0.58136 50.0033 -0.318174 44.1475 1.92184C33.9351 5.83746 32.5594 7.03684 27.8148 14.3919C23.0702 21.7292 20.9713 21.5176 20.1776 25.9623C19.3839 30.4247 14.3747 32.8587 20.1776 34.6402C25.9804 36.4216 27.0211 42.4361 33.0885 43.759C39.1383 45.0995 81.2753 49.5442 81.2753 49.5442H82.069V49.5619Z" fill="#46423D"/>
<path d="M101.947 88.7765H81.0991L80.6405 87.4889L78.8238 82.6914L77.0071 87.4889L76.5485 88.7765H57.1997L55.8769 85.2489L54.5541 88.7765H45.0119L44.1477 86.5365L42.331 81.739L40.5495 86.5365L39.6853 88.7765H26.7567L24.9753 83.9437L23.1586 88.7765H2.32817C-4.10967 83.2205 0.793671 32.5115 53.2841 33.3581C109.161 34.2577 108.42 83.2205 101.965 88.7765H101.947Z" fill="#46423D"/>
<path d="M26.1351 179.445C26.1351 179.445 8.58542 165.405 5.76335 144.381C2.55325 120.587 3.99956 82.6481 3.99956 82.6481L13.4182 82.1719C13.4182 82.1719 13.6651 107.676 14.9703 148.261C15.2525 157.098 26.1351 179.445 26.1351 179.445Z" fill="#46423D"/>
<path d="M81.9002 179.445C81.9002 179.445 99.4499 165.405 102.272 144.381C105.482 120.587 104.036 82.6481 104.036 82.6481L94.6171 82.1719C94.6171 82.1719 94.3702 107.676 93.065 148.261C92.7828 157.098 81.9002 179.445 81.9002 179.445Z" fill="#46423D"/>
</svg>
