<svg width="174" height="102" viewBox="0 0 174 102" fill="none" xmlns="http://www.w3.org/2000/svg">
<path d="M132.156 24.8341C131.015 19.9062 129.089 18.1921 127.52 18.5207C127.52 18.5207 54.506 22.3915 45.9765 18.2207C45.891 18.1207 45.7483 18.035 45.5344 17.9922C43.9654 17.6636 42.0399 19.3777 40.8988 24.3056C39.7577 29.2334 40.4994 33.4614 41.0557 32.033C41.0557 32.033 90.4924 40.0319 132.669 32.8329L132.498 32.3473C132.826 31.2474 132.94 28.2336 132.141 24.8198L132.156 24.8341Z" fill="white"/>
<path d="M46.1478 18.2797C45.4346 18.8654 30.2442 1.31071 17.3073 23.2362C8.93475 37.4056 26.0793 71.2294 0.0344238 71.2437C3.35778 71.1151 9.93318 71.6722 13.7272 69.5011C-0.0654191 76.2144 5.79681 90.4124 10.4467 101.497C6.55277 84.8846 27.4343 84.4132 30.829 69.8296C32.1269 72.8863 32.7545 76.4858 31.8274 79.7282C42.3537 69.701 32.512 56.6314 35.8497 44.2761C37.7039 37.4484 46.1335 18.2797 46.1335 18.2797H46.1478Z" fill="#46423D"/>
<path d="M59.2698 71.3129C59.2698 71.3129 59.013 67.5849 63.834 55.5295C65.075 52.4156 68.3841 35.718 68.3841 35.718C68.3841 35.718 67.8563 51.8014 76.6711 56.2579C76.6711 56.2579 75.045 51.5586 78.6537 40.8172C78.6537 40.8172 87.7965 56.6864 89.4795 69.4703C89.4795 69.4703 101.974 51.5586 97.1247 36.5893C97.1247 36.5893 102.317 43.2455 102.317 54.8867C102.317 54.8867 109.377 48.8161 109.206 37.6177C109.206 37.6177 114.597 58.2291 113.128 70.8273C113.128 70.8273 118.577 62.857 118.377 55.7437C118.377 55.7437 120.873 71.8843 120.531 77.2835C119.96 86.5822 116.566 94.9382 116.566 94.9382C116.566 94.9382 129.146 92.6671 129.374 45.1595C129.445 30.2759 125.994 0.694355 88.0104 0.494384C79.053 0.451533 64.9181 0.894326 52.7229 14.8781C43.3091 25.6908 43.195 50.3159 44.9637 64.1282C48.2014 89.4247 56.9591 97.0807 56.9591 97.0807C56.9591 97.0807 53.9781 82.6828 53.7784 77.812C53.5787 72.7984 55.49 57.8148 55.49 57.8148C55.49 57.8148 55.3902 67.7706 59.2555 71.2987L59.2698 71.3129Z" fill="#46423D"/>
<path d="M126.921 18.2797C127.634 18.8654 142.825 1.3107 155.762 23.2362C164.134 37.4199 146.99 71.2437 173.02 71.258C169.697 71.1294 163.136 71.6865 159.327 69.5153C173.12 76.2287 167.258 90.4267 162.608 101.511C166.502 84.8989 145.62 84.4275 142.226 69.8439C140.928 72.9006 140.286 76.5001 141.227 79.7425C130.701 69.7153 140.557 56.6457 137.205 44.2903C135.351 37.4627 126.921 18.294 126.921 18.294V18.2797Z" fill="#46423D"/>
</svg>
