<svg width="96" height="98" viewBox="0 0 96 98" fill="none" xmlns="http://www.w3.org/2000/svg">
<path d="M73.0413 4.18441C65.7901 0.753856 51.3565 -0.531168 49.3716 0.455547C42.5908 -0.0951777 26.8263 3.89758 20.47 8.76231C8.95072 17.5739 2.20435 31.6633 0.391544 45.4773C-2.88986 70.65 17.3607 88.2732 17.3607 88.2732C17.3607 88.2732 12.2895 81.2973 13.2188 73.1971C13.4139 71.499 13.6663 69.9272 13.9531 68.4471C12.8402 87.688 30.0504 97.865 30.0504 97.865C30.0504 97.865 24.6234 93.3444 25.6216 76.8915C25.9314 71.74 28.0884 64.8559 31.1862 57.6735C30.7961 62.8136 32.3565 65.1542 32.3565 65.1542C32.3565 65.1542 32.2418 53.4513 38.8275 46.2231C41.1107 43.7219 43.2219 41.4731 45.2871 39.2816C43.1874 43.676 42.8088 47.8638 42.0975 50.0322C41.1566 52.935 36.9344 59.3257 36.9344 59.3257C36.9344 59.3257 45.5395 52.5908 51.781 43.653C53.4103 41.3239 54.5806 39.2702 55.4411 37.5033C55.028 38.8227 54.6379 40.0504 54.3167 40.9223C53.1808 44.0775 47.3293 52.5334 47.3293 52.5334C47.3293 52.5334 55.269 44.9839 57.5407 41.0027C59.8124 37.0214 60.1911 35.3233 60.1911 35.3233C60.1911 35.3233 59.6518 39.8897 57.9193 43.5956C54.1905 51.5697 49.7961 54.5184 49.7961 54.5184C49.7961 54.5184 57.839 49.6077 62.1874 44.6283C65.0558 41.3469 67.0636 37.3426 67.6717 34.3366C66.7883 39.0407 63.025 46.2231 63.025 46.2231C63.025 46.2231 66.7424 44.0087 69.7599 38.8686C72.1349 34.8299 73.397 30.9749 72.8463 25.9151C83.4936 47.118 76.644 65.8426 76.644 65.8426C76.644 65.8426 81.3481 55.1838 81.9103 48.5522C82.0594 46.8885 82.3462 46.3034 82.3462 46.3034C82.3462 46.3034 81.8185 50.7895 80.9694 57.3408C79.8565 65.9459 78.2732 72.1071 78.2732 72.1071L83.5969 59.2798L78.8928 78.2339C78.8928 78.2339 81.4398 74.3903 83.746 70.6615C82.7937 75.4803 81.9447 79.3928 81.9447 79.3928C81.9447 79.3928 116.629 24.8251 73.0298 4.18441H73.0413ZM67.6832 34.2677C67.7635 33.8432 67.8209 33.4417 67.8438 33.0745C67.8209 33.4417 67.752 33.8547 67.6832 34.2677Z" fill="#46423D"/>
</svg>
