<svg width="116" height="127" viewBox="0 0 116 127" fill="none" xmlns="http://www.w3.org/2000/svg">
<path d="M104.768 63.1168C110.605 66.7809 115.027 70.5092 115.027 70.5092C113.305 60.1856 106.401 53.4617 99.1626 49.1549C98.3655 47.5735 97.5427 46.095 96.6942 44.7323C105.809 48.962 114.526 56.2901 114.526 56.2901C111.916 40.6054 97.3627 33.2258 87.7976 30.0118C90.2275 25.602 95.2286 19.521 104.999 10.8172C104.999 10.8172 92.9402 19.5467 77.7825 27.4405C77.5897 27.4019 77.384 27.3505 77.204 27.3119C77.654 22.8508 81.4594 15.6769 96.3985 2.3449C96.3985 2.3449 80.3795 13.9413 62.0592 22.4779C41.6562 13.9028 22.436 -0.0078125 22.436 -0.0078125C37.8893 13.7742 41.4376 20.9737 41.669 25.3963C26.2286 17.4382 13.8351 8.45166 13.8351 8.45166C24.403 17.8754 29.3912 24.2135 31.5768 28.7004C22.9245 30.9374 3.54998 37.9313 0.503029 56.2644C0.503029 56.2644 7.56116 50.3248 15.6221 46.0565C14.8893 47.9464 14.6707 49.1677 14.6707 49.1677C14.645 49.4634 14.6064 49.7205 14.5679 49.9519C7.81829 54.2845 1.63439 60.8027 0.0273438 70.4964C0.0273438 70.4964 5.56843 65.8424 12.4209 61.8183C11.9837 63.9268 11.688 64.5053 11.9195 69.3007C7.94685 73.4148 4.86133 78.8916 5.13131 85.8854C5.13131 85.8854 8.37111 81.9 12.7037 78.0302C13.4237 83.597 14.645 87.981 15.1593 90.7323C18.8233 110.505 36.4237 123.015 36.4237 123.015C36.4237 123.015 34.1867 117.576 32.1939 112.305C30.6512 108.217 26.1514 101.377 26.1514 91.0408C26.1514 80.7043 36.1922 67.9251 36.1922 67.9251C36.1922 67.9251 31.564 75.9475 30.6512 84.7669C29.7255 93.5992 34.5852 100.426 34.5852 100.426C34.5852 100.426 28.427 88.9709 38.2621 80.4086C41.3862 77.6831 44.0089 74.8547 46.1173 72.2448V72.2706C43.6489 79.033 48.5986 84.7155 48.5986 84.7155C48.5986 84.7155 48.5086 76.0375 53.6383 73.1062C66.1347 65.9195 68.1145 62.9626 69.8759 57.1772C70.1201 56.393 70.2487 55.6602 70.3387 54.9531L81.7551 71.6663C82.2951 72.3863 83.1565 73.6205 84.1721 75.2018C87.1291 79.8429 91.2174 87.4282 91.2174 94.0363C91.2174 104.36 88.9161 111.38 87.3733 115.468C85.3806 120.726 80.9452 126.01 80.9452 126.01C80.9452 126.01 98.5327 113.501 102.197 93.7278C102.711 90.9894 104.382 86.5025 105.347 80.91C108.085 83.6613 109.911 85.8983 109.911 85.8983C110.116 80.7557 108.496 76.4489 106.054 72.8877C106.054 69.8021 105.681 66.5238 104.768 63.1168Z" fill="#46423D"/>
</svg>
