<svg width="115" height="86" viewBox="0 0 115 86" fill="none" xmlns="http://www.w3.org/2000/svg">
<path d="M102.845 50.7922C102.942 50.1122 103.081 49.3073 103.247 48.2943C103.871 44.6306 105.201 42.549 106.227 41.3971L107.627 40.1759C107.627 40.1759 102.929 40.2037 99.1313 44.5196C99.1313 43.3816 99.0066 41.9661 98.6463 40.2176C98.6186 40.1065 98.577 40.0094 98.5216 39.8984C97.9672 33.3898 98.2305 22.2322 106.56 21.5661C106.56 21.5661 94.946 19.2486 90.1509 34.9441C90.1231 34.9025 90.0816 34.8747 90.0538 34.8331C82.4177 11.2135 57.8877 0.5 57.8877 0.5C57.7768 0.541633 57.6659 0.597143 57.5551 0.638776C57.4442 0.597143 57.3333 0.541633 57.2224 0.5C57.2224 0.5 32.6924 11.2135 25.0424 34.8608C25.0147 34.9025 24.9731 34.9302 24.9454 34.9718C20.1503 19.2902 8.53662 21.5939 8.53662 21.5939C16.8657 22.26 17.1429 33.4176 16.5747 39.9261C16.5193 40.0233 16.4638 40.1343 16.45 40.2453C16.0896 41.9939 15.9649 43.4094 15.9649 44.5473C12.1676 40.2314 7.46949 40.2037 7.46949 40.2037L8.86923 41.4249C9.89477 42.5767 11.2252 44.6584 11.8489 48.322C12.029 49.3351 12.1538 50.1261 12.2508 50.82C6.0559 42.2714 0.0550537 44.8527 0.0550537 44.8527C14.4959 52.3327 15.6184 68.2502 15.6184 68.2502V67.7923C15.7293 74.3147 18.113 80.3792 22.1598 85.5C22.0073 83.9874 21.9242 82.4608 21.9242 80.9065C21.9242 72.9686 23.8921 65.6135 27.2875 59.4241C34.3555 50.0429 42.1441 59.4241 42.1441 59.4241C42.3797 59.8543 42.6292 60.2567 42.8925 60.6037C45.5672 65.3359 50.9721 68.5833 57.2224 68.5833C57.3333 68.5833 57.4303 68.5694 57.5273 68.5694C57.6382 68.5694 57.7352 68.5833 57.8322 68.5833C64.0825 68.5833 69.4874 65.3359 72.1622 60.6037C72.4255 60.2429 72.675 59.8404 72.9106 59.4241C72.9106 59.4241 80.6992 50.029 87.7672 59.4241C91.1625 65.6135 93.1305 72.9686 93.1305 80.9065C93.1305 82.4608 93.0473 83.9874 92.8949 85.5C96.9555 80.3792 99.3392 74.3147 99.4362 67.7923V68.2502C99.4362 68.2502 100.559 52.3327 115 44.8527C115 44.8527 108.999 42.2714 102.79 50.7922H102.845Z" fill="#46423D"/>
</svg>
