<svg width="96" height="76" viewBox="0 0 96 76" fill="none" xmlns="http://www.w3.org/2000/svg">
<g clip-path="url(#clip0_2703_13898)">
<path d="M0.449045 46.128C2.75135 43.9129 5.55815 40.1796 7.90632 33.9698C7.92008 33.9286 7.93842 33.8827 7.9476 33.8368C8.77313 30.92 9.60783 28.6727 9.60783 28.6727C9.60783 28.6727 9.48858 28.6864 8.33284 28.6864C5.5077 28.6819 3.17329 27.6316 1.38006 26.3612C0.288526 25.5907 0.921431 23.88 2.25145 23.9351C3.98047 24.0085 6.23233 23.7379 9.12627 22.8114C18.1842 19.8992 17.9548 10.4193 30.9753 5.12678C32.796 4.38839 34.3966 3.89307 35.8367 3.56286C34.3874 3.21431 34.4929 1.11838 35.9835 0.916584C38.3867 0.586373 40.8449 0.517579 43.2206 0.590959C45.5779 0.46713 48.504 0.696443 51.8749 1.74211C55.6953 2.92996 58.5892 4.21411 60.7768 5.40196C60.731 5.33775 60.6851 5.26895 60.6393 5.20475C59.7449 3.97563 61.2217 2.44381 62.4829 3.29686C63.9414 4.27832 65.3127 5.39737 66.6289 6.55311C66.5326 6.39259 66.4409 6.23666 66.3492 6.08072C65.5787 4.74612 64.7027 3.40234 63.813 2.18239C62.9186 0.953274 64.3954 -0.57854 65.6566 0.274506C68.0644 1.89346 70.2979 3.83804 72.2838 5.81013C72.4994 6.02569 72.7057 6.24124 72.9121 6.4568C74.5815 8.16748 76.0675 9.87816 77.2828 11.3916C78.1955 12.529 80.0117 11.5705 79.6081 10.1625C79.5943 10.1166 79.5806 10.0708 79.5668 10.0295C79.1815 8.6949 80.7776 7.72261 81.7911 8.66738C97.5266 23.3113 94.8437 45.8208 94.8437 45.8208C94.8437 55.6033 90.8765 65.4087 88.2669 68.3256C85.6619 71.2379 86.4966 75.4618 85.717 75.4618C85.717 75.4618 84.1485 75.5169 84.098 68.133C83.9054 65.6426 83.0936 61.6388 79.7732 62.8358C79.5943 62.9138 79.4155 62.9917 79.2366 63.0651C79.2091 63.0835 79.1724 63.0926 79.1403 63.111C62.4738 69.5822 53.9571 53.1817 53.9571 53.1817C53.9571 53.1817 48.8617 42.6654 43.161 38.8129C41.4824 37.6755 39.2856 36.8087 36.621 36.0061C21.4358 31.4107 15.1389 54.9658 16.4184 61.1802C18.3676 70.7517 15.6479 76.2644 14.6069 76.003C14.6069 76.003 14.5656 73.5723 13.6208 71.4076C10.8186 64.9547 8.46585 69.4355 8.03474 60.6894C7.75497 55.0025 7.12207 51.3197 6.7093 48.2285C6.58547 47.3205 5.60401 46.7747 4.80142 47.2058C3.92544 47.6782 2.92104 48.0818 1.77448 48.3982C0.412355 48.7789 -0.578279 47.1278 0.444459 46.1464L0.449045 46.128Z" fill="#46423D"/>
</g>
<defs>
<clipPath id="clip0_2703_13898">
<rect width="95" height="75.9853" fill="white" transform="translate(0.0273438 0.0078125)"/>
</clipPath>
</defs>
</svg>
