<svg width="93" height="122" viewBox="0 0 93 122" fill="none" xmlns="http://www.w3.org/2000/svg">
<path d="M8.03156 88.8066C12.3327 99.6302 21.9478 107.773 33.6526 110.007V120.703H25.8187C22.5162 120.703 19.2829 121.031 16.1517 121.657C9.11801 116.584 4.79913 109.714 4.79913 102.15C4.79922 98.1132 5.94359 93.4712 8.03156 88.8066Z" fill="#46423D"/>
<path d="M84.4593 91.2656C86.0868 95.0875 86.9826 98.824 86.9827 102.15C86.9827 109.489 82.9161 116.176 76.2484 121.201C73.9576 120.873 71.6189 120.703 69.2444 120.703H61.6829V109.624C71.7004 107.163 80.0066 100.331 84.4593 91.2656Z" fill="#46423D"/>
<path d="M92.0428 62.4686C91.099 63.2476 89.9605 64.9105 89.2564 66.5434C87.7883 69.8541 84.4776 80.2057 84.4776 80.2057C84.4776 80.2057 88.2827 56.2666 88.2827 52.6713C88.2827 49.0759 85.6161 32.5672 71.2796 31.6234C63.4747 31.0991 54.726 33.6458 46.8012 33.6458H46.172C38.397 33.511 32.0452 32.0429 24.3901 31.3088C12.81 30.2152 5.75412 49.2257 5.75412 52.7911C5.75412 56.3565 8.0162 78.5729 8.0162 78.5729C8.0162 78.5729 5.55937 69.8541 4.09126 66.5434C3.25234 64.6258 1.90408 63.5323 0.840454 62.7533C-1.48155 37.391 0.00154114 0.34375 46.2918 0.34375H46.5465C93.0915 0.34375 94.8142 38.4696 92.0428 62.4686Z" fill="#46423D"/>
</svg>
