<svg width="66" height="16" viewBox="0 0 66 16" fill="none" xmlns="http://www.w3.org/2000/svg">
<path d="M31.2984 11.3372C30.7995 12.0644 30.0328 12.5295 29.2012 12.7776C29.827 12.631 30.4443 12.2956 31.0137 12.0982L31.0306 12.1321C30.6472 12.5211 30.1709 12.7353 29.6494 12.8734C29.9679 12.8537 30.2836 12.7917 30.6021 12.8114C30.6557 12.8142 30.6726 12.8903 30.6247 12.9157C30.2893 13.1017 29.8834 13.1102 29.5085 13.1045C29.2689 13.0989 28.9673 13.0961 28.7108 13.0228C28.6037 13.0143 28.4966 12.9946 28.3979 12.9523C28.3838 12.9523 28.3669 12.958 28.3528 12.9608C28.2767 12.9692 28.2316 12.9044 28.2372 12.8452C28.2203 12.8508 28.2034 12.8565 28.1865 12.8593C28.0005 12.3576 27.8116 11.8558 27.5833 11.3682C25.94 7.85041 23.1635 5.44321 19.0989 5.50804C15.5557 5.56442 12.8075 7.82786 10.4538 10.2463C8.39334 12.3604 5.724 16.3517 2.27387 15.5033C1.00826 15.1904 0.0978121 14.108 0.0273438 12.8227C0.88142 13.9981 2.1583 14.6774 3.62405 13.9558C2.61776 14.2884 1.53537 14.1418 0.819407 13.175C0.788401 13.1355 0.839137 13.0904 0.875781 13.1214C2.45427 14.4716 4.05813 13.5555 5.29274 12.0644C4.6557 12.7127 3.89465 13.1863 2.94191 13.2793C2.91654 13.2793 2.894 13.2426 2.925 13.2314C5.92977 11.8727 6.66828 8.91589 8.36798 6.3593C9.34044 4.89638 10.6963 3.25023 12.3678 2.45535C14.6087 0.910685 17.2639 0.0115133 20.0291 0.0819816C22.1544 0.135538 24.1754 0.885315 25.9287 2.06636C26.1993 2.24958 26.453 2.44126 26.6954 2.63857C26.4755 2.30314 26.2247 1.98745 25.9259 1.70275L25.9315 1.69711C26.5291 2.00153 26.9632 2.5371 27.2873 3.16568C27.6735 3.54057 28.0202 3.93801 28.3415 4.36082C28.1104 3.85063 27.8285 3.35453 27.4875 2.87253L27.5241 2.84716C28.0907 3.54057 28.5445 4.30444 28.863 5.10778C29.2351 5.68562 29.5705 6.30292 29.8834 6.95687C29.6438 5.95622 29.2322 4.96967 28.7615 4.05358L28.7728 4.04793C29.3986 5.10496 30.0299 6.30574 30.309 7.52344C30.2583 7.04425 30.1793 6.56506 30.0553 6.10279H30.0666C30.3569 6.95687 30.5542 7.7884 30.574 8.6763C30.6162 8.80032 30.6557 8.92153 30.6952 9.04555C30.729 8.54945 30.7234 8.05054 30.6839 7.54035H30.7234C30.8587 8.00826 30.9094 8.49026 30.8925 8.96945C30.9178 9.22877 30.9179 9.4881 30.8953 9.7446C30.9122 9.80661 30.9291 9.8658 30.9432 9.92782C31.0052 9.474 31.0362 9.01454 31.0419 8.55791H31.0729C31.18 9.13857 31.1518 9.69668 31.0165 10.2491C31.0306 10.3055 31.0447 10.3619 31.056 10.4183C31.1349 10.0631 31.2082 9.70795 31.273 9.34434H31.3125C31.3519 9.80097 31.2758 10.2689 31.1152 10.6973C31.1321 10.7875 31.1518 10.8806 31.1687 10.9708C30.5373 11.6642 29.8044 12.2307 28.9814 12.5859C29.8185 12.3096 30.526 11.8474 31.2561 11.2977C31.2815 11.278 31.3209 11.3062 31.3012 11.3344L31.2984 11.3372ZM33.7563 11.3372C34.2552 12.0644 35.0219 12.5295 35.8535 12.7776C35.2277 12.631 34.6104 12.2956 34.041 12.0982L34.0241 12.1321C34.4074 12.5211 34.8838 12.7353 35.4053 12.8734C35.0868 12.8537 34.7711 12.7917 34.4525 12.8114C34.399 12.8142 34.3821 12.8903 34.43 12.9157C34.7654 13.1017 35.1713 13.1102 35.5462 13.1045C35.7858 13.0989 36.0874 13.0961 36.3439 13.0228C36.451 13.0143 36.5581 12.9946 36.6568 12.9523C36.6709 12.9523 36.6878 12.958 36.7019 12.9608C36.778 12.9692 36.8231 12.9044 36.8175 12.8452C36.8344 12.8508 36.8513 12.8565 36.8682 12.8593C37.0542 12.3576 37.2431 11.8558 37.4714 11.3682C39.1147 7.85041 41.8912 5.44321 45.9558 5.50804C49.4989 5.56442 52.2472 7.82786 54.6008 10.2463C56.6613 12.3604 59.3307 16.3517 62.7808 15.5033C64.0464 15.1904 64.9569 14.108 65.0273 12.8227C64.1733 13.9981 62.8964 14.6774 61.4306 13.9558C62.4369 14.2884 63.5193 14.1418 64.2353 13.175C64.2663 13.1355 64.2155 13.0904 64.1789 13.1214C62.6004 14.4716 60.9966 13.5555 59.762 12.0644C60.399 12.7127 61.16 13.1863 62.1128 13.2793C62.1381 13.2793 62.1607 13.2426 62.1297 13.2314C59.1249 11.8727 58.3864 8.91589 56.6867 6.3593C55.7142 4.89638 54.3584 3.25023 52.6869 2.45535C50.446 0.910685 47.7908 0.0115133 45.0228 0.0819816C42.8975 0.135538 40.8764 0.885315 39.1232 2.06636C38.8526 2.24958 38.5989 2.44126 38.3565 2.63857C38.5764 2.30314 38.8272 1.98745 39.126 1.70275L39.1204 1.69711C38.5228 2.00153 38.0887 2.5371 37.7646 3.16568C37.3784 3.54057 37.0317 3.93801 36.7104 4.36082C36.9415 3.85063 37.2234 3.35453 37.5644 2.87253L37.5278 2.84716C36.9584 3.54057 36.5074 4.30444 36.1889 5.10778C35.8168 5.68562 35.4814 6.30292 35.1685 6.95687C35.4081 5.95622 35.8196 4.96967 36.2904 4.05358L36.2791 4.04793C35.6533 5.10496 35.0219 6.30574 34.7429 7.52344C34.7936 7.04425 34.8725 6.56506 34.9966 6.10279H34.9825C34.6921 6.95687 34.4948 7.7884 34.4751 8.6763C34.4328 8.80032 34.3933 8.92153 34.3539 9.04555C34.3201 8.54945 34.3257 8.05054 34.3652 7.54035H34.3257C34.1904 8.00826 34.1397 8.49026 34.1566 8.96945C34.1312 9.22877 34.1312 9.4881 34.1538 9.7446C34.1368 9.80661 34.1199 9.8658 34.1058 9.92782C34.0438 9.474 34.0128 9.01454 34.0072 8.55791H33.9762C33.8691 9.13857 33.8973 9.69668 34.0326 10.2491C34.0185 10.3055 34.0044 10.3619 33.9931 10.4183C33.9142 10.0631 33.8409 9.70795 33.776 9.34434H33.7366C33.6971 9.80097 33.7732 10.2689 33.9339 10.6973C33.917 10.7875 33.8973 10.8806 33.8803 10.9708C34.5117 11.6642 35.2446 12.2307 36.0677 12.5859C35.2305 12.3096 34.523 11.8474 33.793 11.2977C33.7676 11.278 33.7281 11.3062 33.7479 11.3344L33.7563 11.3372Z" fill="#3A3A3A"/>
</svg>
