<svg width="66" height="13" viewBox="0 0 66 13" fill="none" xmlns="http://www.w3.org/2000/svg">
<path d="M29.4298 11.7401C28.9219 12.5984 27.8884 12.9547 27.0093 12.5449C27.0034 12.5449 26.9975 12.539 26.9945 12.539C25.566 11.8737 18.079 7.33873 15.611 5.94587C12.8995 4.41936 9.82871 3.23439 6.79054 4.44312C5.10663 5.11431 0.919126 8.41976 0.262787 8.87118C0.135083 8.96027 -0.0371709 8.77911 0.0519249 8.65141C3.25937 4.11049 8.33189 0.181365 13.5499 1.12578C16.0149 1.57126 26.2728 7.3714 29.902 9.70571C30.2019 9.89875 30.291 10.3116 30.101 10.6234C29.8901 10.9679 29.6258 11.4074 29.4268 11.7401H29.4298ZM35.6249 11.7401C36.1328 12.5984 37.1663 12.9547 38.0453 12.5449C38.0513 12.5449 38.0572 12.539 38.0602 12.539C39.4887 11.8737 46.9757 7.33873 49.4437 5.94587C52.1551 4.41936 55.226 3.23439 58.2641 4.44312C59.9481 5.11431 64.1356 8.41976 64.7919 8.87118C64.9196 8.96027 65.0919 8.77911 65.0028 8.65141C61.7953 4.11049 56.7228 0.181365 51.5047 1.12578C49.0398 1.57126 38.7819 7.3714 35.1527 9.70571C34.8527 9.89875 34.7636 10.3116 34.9537 10.6234C35.1646 10.9679 35.4289 11.4074 35.6279 11.7401H35.6249Z" fill="#3A3A3A"/>
</svg>
