<svg width="65" height="12" viewBox="0 0 65 12" fill="none" xmlns="http://www.w3.org/2000/svg">
<path d="M64.9674 10.3082C64.3674 10.9282 63.6274 11.0282 62.9174 11.0182C62.1474 11.0082 61.3674 10.8282 60.6274 10.5582C59.8374 10.2682 59.0874 9.85824 58.3374 9.39824C57.5974 8.93824 56.8774 8.39824 56.1174 8.00824C45.1174 2.35824 39.0774 6.17824 36.9274 7.03824C36.9274 7.03824 35.9074 7.38824 35.0674 7.67824C34.5174 7.86824 33.9874 7.25824 33.9974 6.42824C33.9974 6.02824 34.1174 5.63824 34.3174 5.36824C34.8874 4.58824 35.4774 3.84824 36.0774 3.12824C36.6274 2.81824 37.1974 2.53824 37.7574 2.28824C36.8974 3.26824 36.0774 4.30824 35.2974 5.41824C36.3674 4.14824 37.4974 2.98824 38.6774 1.92824C39.2974 1.68824 39.9274 1.48824 40.5674 1.30824C39.5174 2.28824 38.4974 3.34824 37.5374 4.48824C38.1774 3.84824 38.8274 3.22824 39.4774 2.61824C39.9674 2.11824 40.4774 1.64824 40.9974 1.19824C41.6874 1.01824 42.3974 0.878239 43.0974 0.788239C43.2174 1.00824 43.2474 1.32824 43.0674 1.56824C43.0474 1.59824 43.0274 1.61824 42.9974 1.64824C43.2374 1.51824 43.4774 1.39824 43.7174 1.28824C43.9274 1.19824 44.1374 1.38824 44.2374 1.64824L44.4474 1.43824C44.6274 1.25824 44.8174 1.31824 44.9574 1.49824C45.2474 1.19824 45.5574 0.918239 45.8874 0.688239C45.9474 0.648239 45.9974 0.758239 45.9374 0.818239C45.6574 1.12824 45.3674 1.42824 45.0774 1.71824C45.1274 1.86824 45.1574 2.03824 45.1274 2.20824C45.2074 2.11824 45.2874 2.02824 45.3674 1.93824C45.7874 1.45824 46.2074 1.06824 46.7074 0.788239C46.8174 0.718239 46.9174 0.978239 46.8274 1.08824C46.4774 1.50824 46.1274 1.86824 45.7574 2.24824C45.9774 2.10824 46.2074 1.97824 46.4274 1.84824C46.8574 1.43824 47.3274 1.10824 47.8174 0.938239C47.9274 0.898239 47.9874 1.11824 47.8974 1.19824C47.8374 1.24824 47.7874 1.29824 47.7274 1.34824C47.7274 1.37824 47.7274 1.40824 47.6974 1.43824C47.5474 1.69824 47.3774 1.92824 47.1874 2.14824C47.2074 2.19824 47.2174 2.25824 47.2274 2.31824C47.5674 1.86824 47.9174 1.42824 48.2774 1.00824C48.4374 1.04824 48.5974 1.08824 48.7574 1.12824C48.7174 1.17824 48.6874 1.22824 48.6474 1.27824C48.6574 1.30824 48.6674 1.34824 48.6474 1.38824C48.5574 1.56824 48.4674 1.74824 48.3774 1.92824C48.4774 1.86824 48.5774 1.80824 48.6674 1.74824C48.6974 1.72824 48.7374 1.71824 48.7674 1.70824C48.9574 1.56824 49.1574 1.42824 49.3574 1.30824C49.5574 1.37824 49.7574 1.44824 49.9574 1.51824C49.8274 1.73824 49.6774 1.93824 49.5474 2.14824C49.4774 2.25824 49.4074 2.35824 49.3474 2.46824C49.3474 2.48824 49.3474 2.49824 49.3474 2.51824C49.5974 2.19824 49.8574 1.88824 50.1174 1.58824C50.2074 1.61824 50.2874 1.65824 50.3674 1.68824C50.0574 2.28824 49.6774 2.77824 49.2674 3.19824C49.3874 3.12824 49.5074 3.04824 49.6174 2.97824L50.1174 2.16824C50.2074 2.01824 50.3074 1.85824 50.3974 1.69824C50.4574 1.71824 50.5074 1.73824 50.5674 1.76824C50.7474 1.84824 50.9274 1.92824 51.1174 2.01824C51.0074 2.21824 50.8874 2.40824 50.7674 2.60824C50.7274 2.67824 50.6774 2.74824 50.6274 2.81824L51.1274 2.05824C51.1274 2.05824 51.1274 2.04824 51.1374 2.03824C51.5874 2.26824 52.0474 2.52824 52.4974 2.80824C52.4174 2.90824 52.3474 3.00824 52.2774 3.09824C52.1974 3.20824 52.1174 3.31824 52.0374 3.42824C52.0674 3.46824 52.0874 3.51824 52.1174 3.56824C52.2574 3.38824 52.3974 3.20824 52.5274 3.02824C52.5574 2.98824 52.5974 2.93824 52.6274 2.88824C52.8674 3.03824 53.1074 3.19824 53.3374 3.35824C53.2474 3.47824 53.1574 3.59824 53.0574 3.71824C53.1774 3.61824 53.2874 3.50824 53.4074 3.40824C53.4474 3.43824 53.4974 3.46824 53.5374 3.49824C55.4074 4.79824 57.1674 6.38824 59.0274 7.71824C60.8274 9.00824 62.7674 10.1782 64.8074 9.97824C64.8574 9.97824 64.8974 9.97824 64.9474 9.97824C65.0274 10.0282 65.0274 10.2182 64.9474 10.2982L64.9674 10.3082ZM0.0873633 10.3082C0.687363 10.9282 1.42736 11.0282 2.13736 11.0182C2.90736 11.0082 3.68736 10.8282 4.42736 10.5582C5.21736 10.2682 5.96736 9.85824 6.71736 9.39824C7.45736 8.93824 8.17736 8.39824 8.93736 8.00824C19.9374 2.35824 25.9774 6.17824 28.1274 7.03824C28.1274 7.03824 29.1474 7.38824 29.9874 7.67824C30.5374 7.86824 31.0674 7.25824 31.0574 6.42824C31.0574 6.02824 30.9374 5.63824 30.7374 5.36824C30.1674 4.58824 29.5774 3.84824 28.9774 3.12824C28.4274 2.81824 27.8574 2.53824 27.2974 2.28824C28.1574 3.26824 28.9774 4.30824 29.7574 5.41824C28.6874 4.14824 27.5574 2.98824 26.3774 1.92824C25.7574 1.68824 25.1274 1.48824 24.4874 1.30824C25.5374 2.28824 26.5574 3.34824 27.5174 4.48824C26.8774 3.84824 26.2274 3.22824 25.5774 2.61824C25.0874 2.11824 24.5774 1.64824 24.0574 1.19824C23.3674 1.01824 22.6574 0.878239 21.9574 0.788239C21.8374 1.00824 21.8074 1.32824 21.9874 1.56824C22.0074 1.59824 22.0274 1.61824 22.0574 1.64824C21.8174 1.51824 21.5774 1.39824 21.3374 1.28824C21.1274 1.19824 20.9174 1.38824 20.8174 1.64824L20.6074 1.43824C20.4274 1.25824 20.2374 1.31824 20.0974 1.49824C19.8074 1.19824 19.4974 0.918239 19.1674 0.688239C19.1074 0.648239 19.0574 0.758239 19.1174 0.818239C19.3974 1.12824 19.6874 1.42824 19.9774 1.71824C19.9274 1.86824 19.8974 2.03824 19.9274 2.20824C19.8474 2.11824 19.7674 2.02824 19.6874 1.93824C19.2674 1.45824 18.8474 1.06824 18.3474 0.788239C18.2374 0.718239 18.1374 0.978239 18.2274 1.08824C18.5774 1.50824 18.9274 1.86824 19.2974 2.24824C19.0774 2.10824 18.8474 1.97824 18.6274 1.84824C18.1974 1.43824 17.7274 1.10824 17.2374 0.938239C17.1274 0.898239 17.0674 1.11824 17.1574 1.19824C17.2174 1.24824 17.2674 1.29824 17.3274 1.34824C17.3274 1.37824 17.3274 1.40824 17.3574 1.43824C17.5074 1.69824 17.6774 1.92824 17.8674 2.14824C17.8474 2.19824 17.8374 2.25824 17.8274 2.31824C17.4874 1.86824 17.1374 1.42824 16.7774 1.00824C16.6174 1.04824 16.4574 1.08824 16.2974 1.12824C16.3374 1.17824 16.3674 1.22824 16.4074 1.27824C16.3974 1.30824 16.3874 1.34824 16.4074 1.38824C16.4974 1.56824 16.5874 1.74824 16.6774 1.92824C16.5774 1.86824 16.4774 1.80824 16.3874 1.74824C16.3574 1.72824 16.3174 1.71824 16.2874 1.70824C16.0974 1.56824 15.8974 1.42824 15.6974 1.30824C15.4974 1.37824 15.2974 1.44824 15.0974 1.51824C15.2274 1.73824 15.3774 1.93824 15.5074 2.14824C15.5774 2.25824 15.6474 2.35824 15.7074 2.46824C15.7074 2.48824 15.7074 2.49824 15.7074 2.51824C15.4574 2.19824 15.1974 1.88824 14.9374 1.58824C14.8474 1.61824 14.7674 1.65824 14.6874 1.68824C14.9974 2.28824 15.3774 2.77824 15.7874 3.19824C15.6674 3.12824 15.5474 3.04824 15.4374 2.97824L14.9374 2.16824C14.8474 2.01824 14.7474 1.85824 14.6574 1.69824C14.5974 1.71824 14.5474 1.73824 14.4874 1.76824C14.3074 1.84824 14.1274 1.92824 13.9374 2.01824C14.0474 2.21824 14.1674 2.40824 14.2874 2.60824C14.3274 2.67824 14.3774 2.74824 14.4274 2.81824C14.2574 2.56824 14.0974 2.30824 13.9274 2.05824C13.9274 2.05824 13.9274 2.04824 13.9174 2.03824C13.4674 2.26824 13.0074 2.52824 12.5574 2.80824C12.6374 2.90824 12.7074 3.00824 12.7774 3.09824C12.8574 3.20824 12.9374 3.31824 13.0174 3.42824C12.9874 3.46824 12.9674 3.51824 12.9374 3.56824C12.7974 3.38824 12.6574 3.20824 12.5274 3.02824C12.4974 2.98824 12.4574 2.93824 12.4274 2.88824C12.1874 3.03824 11.9474 3.19824 11.7174 3.35824C11.8074 3.47824 11.8974 3.59824 11.9974 3.71824C11.8774 3.61824 11.7674 3.50824 11.6474 3.40824C11.6074 3.43824 11.5574 3.46824 11.5174 3.49824C9.64736 4.79824 7.88736 6.38824 6.02736 7.71824C4.22736 9.00824 2.28736 10.1782 0.247363 9.97824C0.197363 9.97824 0.157363 9.97824 0.107363 9.97824C0.0273633 10.0282 0.0273633 10.2182 0.107363 10.2982L0.0873633 10.3082Z" fill="#3A3A3A"/>
</svg>
