<svg width="66" height="20" viewBox="0 0 66 20" fill="none" xmlns="http://www.w3.org/2000/svg">
<path d="M30.3275 15.194C30.3182 15.1035 30.3057 15.0162 30.287 14.9257C30.287 14.9257 30.287 14.9226 30.287 14.9195C30.2121 14.5827 29.763 14.5296 29.5665 14.8135C29.4043 15.0474 29.1798 15.2252 28.8835 15.2782C28.2129 15.3967 27.5205 14.9133 26.9528 14.6294C24.885 13.6002 23.0854 12.1281 21.3637 10.6029C18.6378 8.18576 15.9337 5.73117 13.0425 3.51362C10.7095 1.67657 8.03036 0.335436 4.97381 0.89996C2.43189 1.37092 0.348457 3.2142 0.0303267 5.83098C-0.0133382 6.18653 0.529354 6.22396 0.629159 5.91207C1.94534 1.85435 6.92938 1.8793 9.90171 4.01265C13.423 6.54209 15.7653 10.3004 18.5754 13.5254C20.4873 15.718 22.8951 18.5343 25.9049 19.1207C27.3521 19.4014 28.8242 19.1737 29.6881 17.8575C30.1716 17.1183 30.4273 16.0985 30.3306 15.194H30.3275Z" fill="#3A3A3A"/>
<g opacity="0.3">
<path d="M30.4606 18.0084C32.9433 16.1558 32.8404 12.1137 31.0626 9.82437C30.8599 9.5655 30.4825 9.89611 30.6228 10.1612C32.1573 13.0431 31.7207 15.1359 30.3858 17.9336C30.3671 17.9772 30.4107 18.0427 30.4575 18.0053L30.4606 18.0084Z" fill="#3A3A3A"/>
</g>
<path d="M34.727 15.194C34.7363 15.1035 34.7488 15.0162 34.7675 14.9257C34.7675 14.9257 34.7675 14.9226 34.7675 14.9195C34.8424 14.5827 35.2915 14.5296 35.488 14.8135C35.6502 15.0474 35.8747 15.2252 36.171 15.2782C36.8416 15.3967 37.534 14.9133 38.1016 14.6294C40.1695 13.6002 41.9691 12.1281 43.6907 10.6029C46.4167 8.18576 49.1208 5.73117 52.012 3.51362C54.345 1.67657 57.0241 0.335436 60.0807 0.89996C62.6226 1.37092 64.706 3.2142 65.0242 5.83098C65.0678 6.18653 64.5251 6.22396 64.4253 5.91207C63.1091 1.85435 58.1251 1.8793 55.1528 4.01265C51.6315 6.54209 49.2892 10.3004 46.479 13.5254C44.5672 15.718 42.1593 18.5343 39.1496 19.1207C37.7024 19.4014 36.2303 19.1737 35.3663 17.8575C34.8829 17.1183 34.6272 16.0985 34.7238 15.194H34.727Z" fill="#3A3A3A"/>
<g opacity="0.3">
<path d="M34.7621 18.0397C32.2794 16.187 32.3823 12.1449 34.1601 9.85562C34.3628 9.59675 34.7402 9.92736 34.5999 10.1925C33.0654 13.0744 33.502 15.1671 34.8369 17.9648C34.8556 18.0085 34.812 18.074 34.7652 18.0365L34.7621 18.0397Z" fill="#3A3A3A"/>
</g>
</svg>
