<svg width="61" height="7" viewBox="0 0 61 7" fill="none" xmlns="http://www.w3.org/2000/svg">
<g clip-path="url(#clip0_2703_14646)">
<path fill-rule="evenodd" clip-rule="evenodd" d="M15.5107 1.93513C15.3448 1.85772 15.1679 1.79138 15.0021 1.72503C13.0227 1.01733 11.3419 0.829342 9.20773 0.984152C7.11779 1.20531 5.54757 1.6808 3.80043 2.67601C2.98215 3.20678 -0.213578 5.79433 0.693168 6.7453C1.05808 6.84482 4.24274 5.21932 5.18266 4.92075C6.63124 4.4895 7.81444 4.32363 9.36254 4.3568C10.8001 4.42315 11.8837 4.63325 13.1886 5.13085C13.2217 5.13085 13.465 5.24143 13.5092 5.26355C16.1742 6.55732 15.942 7.39772 17.7555 6.14818C20.5642 4.65536 17.6781 3.06303 15.5107 1.93513Z" fill="#3A3A3A"/>
<path fill-rule="evenodd" clip-rule="evenodd" d="M45.5553 1.93319C45.7212 1.85579 45.8981 1.78944 46.064 1.72309C48.0433 1.01539 49.7241 0.816348 51.8583 0.971158C53.9482 1.19232 55.5074 1.6678 57.2656 2.66301C58.0839 3.19379 61.2796 5.78133 60.3729 6.73231C60.0079 6.83183 56.8233 5.20632 55.8834 4.90776C54.4237 4.4765 53.2516 4.31063 51.7035 4.34381C50.266 4.41016 49.1823 4.62025 47.8775 5.11786C47.8443 5.11786 47.601 5.22844 47.5568 5.25055C44.8918 6.54432 45.1241 7.38472 43.3106 6.13518C40.5019 4.64237 43.388 3.05004 45.5553 1.92213V1.93319Z" fill="#3A3A3A"/>
</g>
<defs>
<clipPath id="clip0_2703_14646">
<rect width="60" height="5.83856" fill="white" transform="translate(0.527344 0.929688)"/>
</clipPath>
</defs>
</svg>
