<svg width="66" height="14" viewBox="0 0 66 14" fill="none" xmlns="http://www.w3.org/2000/svg">
<path d="M27.5127 13.3822C25.1518 13.8531 14.9878 7.54389 11.3139 5.36387C7.87074 3.32108 3.48264 6.16851 0.7163 8.19259C0.313979 8.48887 -0.181905 8.54501 0.120615 8.11774C0.741249 7.24136 1.42114 6.06247 2.67488 4.49685C6.38621 -0.140747 10.5934 -0.337231 13.4065 1.03814C18.0629 3.31796 27.8495 8.90055 30.8342 8.45456C31.3207 8.38283 31.4798 9.29039 31.2116 9.77068C30.5161 11.0088 29.1438 13.0579 27.5127 13.3822ZM37.542 13.3822C39.9029 13.8531 50.0669 7.54389 53.7408 5.36387C57.1839 3.32108 61.572 6.16851 64.3384 8.19259C64.7407 8.48887 65.2366 8.54501 64.9341 8.11774C64.3134 7.24136 63.6335 6.06247 62.3798 4.49685C58.6685 -0.140747 54.4613 -0.337231 51.6481 1.03814C46.9918 3.31796 37.2052 8.90055 34.2205 8.45456C33.734 8.38283 33.5749 9.29039 33.8431 9.77068C34.5386 11.0088 35.9109 13.0579 37.542 13.3822Z" fill="#3A3A3A"/>
</svg>
