<svg width="66" height="8" viewBox="0 0 66 8" fill="none" xmlns="http://www.w3.org/2000/svg">
<path d="M0.0692167 7.38336C0.0692167 7.38336 0.041302 7.40429 0.0273438 7.41127C1.00093 5.91774 2.20832 4.68593 3.60414 3.6914C4.14851 3.53786 4.71731 3.43317 5.30006 3.36687C4.74173 3.42968 4.19039 3.5239 3.65998 3.64953C4.72429 2.89927 5.90027 2.2886 7.16 1.80355C7.22281 1.78959 7.28214 1.77564 7.34495 1.76517C7.31005 1.76517 7.27515 1.77214 7.24025 1.77214C8.30457 1.36736 9.4317 1.0533 10.6042 0.822985C10.6775 0.812516 10.7508 0.802047 10.824 0.795067C10.9357 0.77762 11.0474 0.763662 11.159 0.749704V0.728768C11.4382 0.679914 11.7208 0.641529 12.007 0.606634C11.9512 0.610123 11.8918 0.610122 11.836 0.613612C11.9616 0.596164 12.0873 0.571736 12.2129 0.557777C12.7224 0.491476 13.2353 0.446113 13.7483 0.404239C13.7797 0.414707 13.7971 0.439134 13.7971 0.467051C13.8216 0.467051 13.8495 0.467051 13.8739 0.467051C13.9751 0.432155 14.0798 0.407727 14.1845 0.376321C16.7772 0.205333 19.3944 0.303041 21.9836 0.439134C24.6427 0.578716 27.2668 0.93814 29.5525 2.26766C29.6048 2.36886 29.6537 2.47006 29.6956 2.56776C29.6711 2.47704 29.6432 2.3898 29.6153 2.30256C29.6991 2.35141 29.7793 2.40724 29.8631 2.4561C29.8875 2.52589 29.9154 2.59568 29.9329 2.66896C29.9294 2.61313 29.9259 2.55381 29.9259 2.49797C29.9817 2.53287 30.041 2.56776 30.0969 2.60615C30.39 3.27265 30.1841 4.08572 30.1422 4.15202C29.1547 5.6979 27.6158 6.00498 25.8675 6.0643C22.4408 6.17946 18.9373 5.48154 15.5035 5.34545C11.8465 5.20238 2.75967 5.05582 0.0692167 7.38684V7.38336ZM64.9855 7.38336C64.9855 7.38336 65.0134 7.40429 65.0273 7.41127C64.0538 5.91774 62.8464 4.68593 61.4505 3.6914C60.9062 3.53786 60.3374 3.43317 59.7546 3.36687C60.313 3.42968 60.8643 3.5239 61.3947 3.64953C60.3304 2.89927 59.1544 2.2886 57.8947 1.80355C57.8319 1.78959 57.7726 1.77564 57.7097 1.76517C57.7446 1.76517 57.7795 1.77214 57.8144 1.77214C56.7501 1.36736 55.623 1.0533 54.4505 0.822985C54.3772 0.812516 54.3039 0.802047 54.2306 0.795067C54.119 0.77762 54.0073 0.763662 53.8957 0.749704V0.728768C53.6165 0.679914 53.3338 0.641529 53.0477 0.606634C53.1035 0.610123 53.1628 0.610122 53.2187 0.613612C53.0931 0.596164 52.9674 0.571736 52.8418 0.557777C52.3323 0.491476 51.8194 0.446113 51.3064 0.404239C51.275 0.414707 51.2575 0.439134 51.2575 0.467051C51.2331 0.467051 51.2052 0.467051 51.1808 0.467051C51.0796 0.432155 50.9749 0.407727 50.8702 0.376321C48.2775 0.205333 45.6603 0.303041 43.071 0.439134C40.412 0.578716 37.7879 0.93814 35.5022 2.26766C35.4499 2.36886 35.401 2.47006 35.3591 2.56776C35.3835 2.47704 35.4115 2.3898 35.4394 2.30256C35.3556 2.35141 35.2754 2.40724 35.1916 2.4561C35.1672 2.52589 35.1393 2.59568 35.1218 2.66896C35.1253 2.61313 35.1288 2.55381 35.1288 2.49797C35.073 2.53287 35.0137 2.56776 34.9578 2.60615C34.6647 3.27265 34.8706 4.08572 34.9125 4.15202C35.9 5.6979 37.4389 6.00498 39.1872 6.0643C42.6139 6.17946 46.1174 5.48154 49.5512 5.34545C53.2082 5.20238 62.295 5.05582 64.9855 7.38684V7.38336Z" fill="#3A3A3A"/>
</svg>
