<svg width="66" height="18" viewBox="0 0 66 18" fill="none" xmlns="http://www.w3.org/2000/svg">
<path d="M26.5899 11.6629C25.9324 11.1734 25.4794 10.3881 25.0448 9.70501C23.0613 6.5856 20.1428 4.15654 16.4207 3.55019C12.8264 2.96576 9.192 4.1602 6.40863 6.43583C4.89276 7.67776 3.607 9.20094 2.64269 10.9068C1.59436 12.766 0.546025 14.8334 0.297641 16.9849C0.279377 17.131 0.0602148 17.1383 0.0638675 16.9849C0.0638675 16.9228 0.0711725 16.8607 0.0748252 16.8022C0.0492562 16.7913 0.0273438 16.773 0.0273438 16.7365C0.199021 14.0883 0.670219 11.4364 1.90849 9.0804C2.66095 7.65219 3.5997 6.34086 4.78683 5.24505C7.82954 2.43612 12.1361 0.653592 16.2929 0.598801C20.4716 0.544011 24.5736 2.45803 27.0903 5.782C27.9633 6.93626 29.3842 8.53249 29.2162 10.1032C29.2052 10.2127 29.1796 10.326 29.1504 10.4356C28.8399 11.5058 27.6382 12.4372 26.5935 11.6629H26.5899ZM38.4648 11.6629C39.1223 11.1734 39.5753 10.3881 40.0099 9.70501C41.9933 6.5856 44.9119 4.15654 48.634 3.55019C52.2283 2.96576 55.8627 4.1602 58.6461 6.43583C60.1619 7.67776 61.4477 9.20094 62.412 10.9068C63.4603 12.766 64.5087 14.8334 64.757 16.9849C64.7753 17.131 64.9945 17.1383 64.9908 16.9849C64.9908 16.9228 64.9835 16.8607 64.9799 16.8022C65.0054 16.7913 65.0273 16.773 65.0273 16.7365C64.8557 14.0883 64.3845 11.4364 63.1462 9.0804C62.3937 7.65219 61.455 6.34086 60.2679 5.24505C57.2252 2.43612 52.9186 0.653592 48.7618 0.598801C44.5831 0.544011 40.4811 2.45803 37.9644 5.782C37.0914 6.93626 35.6705 8.53249 35.8385 10.1032C35.8495 10.2127 35.8751 10.326 35.9043 10.4356C36.2148 11.5058 37.4165 12.4372 38.4612 11.6629H38.4648Z" fill="#3A3A3A"/>
</svg>
