<svg width="306" height="30" viewBox="0 0 306 30" fill="none" xmlns="http://www.w3.org/2000/svg">
<path d="M0.896362 3.53862C0.896362 2.93035 1.138 2.34698 1.5681 1.91686C1.99821 1.48675 2.58157 1.24512 3.18984 1.24512H42.6663C43.2746 1.24512 43.858 1.48675 44.2881 1.91686C44.7182 2.34698 44.9598 2.93035 44.9598 3.53862V26.4615C44.9598 27.0697 44.7182 27.6531 44.2881 28.0832C43.858 28.5133 43.2746 28.7549 42.6663 28.7549H3.18984C2.58157 28.7549 1.99821 28.5133 1.5681 28.0832C1.13799 27.6531 0.896362 27.0697 0.896362 26.4615V3.53862Z" fill="white" stroke="#BCBCBC" stroke-width="0.5"/>
<path fill-rule="evenodd" clip-rule="evenodd" d="M18.9081 19.46L20.3438 10.5557H22.6392L21.2035 19.46H18.9081Z" fill="#26337A"/>
<path d="M29.5246 10.7736C29.0706 10.5949 28.358 10.3994 27.4688 10.3994C25.2007 10.3994 23.6032 11.6081 23.5906 13.3381C23.5758 14.6182 24.7299 15.3308 25.6001 15.7576C26.4935 16.1927 26.7941 16.4722 26.792 16.8632C26.7857 17.4581 26.0773 17.7314 25.4193 17.7314C24.5007 17.7314 24.0131 17.5968 23.2584 17.2647L22.9641 17.1239L22.6425 19.1166C23.1786 19.3647 24.1686 19.5791 25.1986 19.5917C27.6097 19.5917 29.1757 18.3977 29.1946 16.55C29.203 15.5347 28.5913 14.7654 27.267 14.1306C26.4662 13.7165 25.9722 13.4432 25.9785 13.0249C25.9785 12.6549 26.3947 12.2597 27.2923 12.2597C28.0427 12.2471 28.5871 12.4195 29.0096 12.6024L29.2156 12.7033L29.5267 10.7736" fill="#26337A"/>
<path d="M32.5777 16.3021L33.4921 13.8132C33.4795 13.8364 33.6813 13.2961 33.7969 12.964L33.9525 13.7313L34.4843 16.3021H32.5798H32.5777ZM35.4092 10.5635H33.635C33.0843 10.5635 32.6744 10.7211 32.4327 11.3013L29.0252 19.4614H31.4342L31.9156 18.1245L34.8542 18.1287L35.1338 19.4614H37.2632L35.4071 10.5635H35.4092Z" fill="#26337A"/>
<path d="M16.9811 10.561L14.7361 16.6317L14.4965 15.3978C14.0782 13.9768 12.7749 12.4361 11.3182 11.6625L13.3719 19.4506H15.7998L19.4132 10.561H16.9811Z" fill="#26337A"/>
<path d="M12.6527 10.5552H8.95314L8.92371 10.7401C11.8035 11.478 13.708 13.2584 14.4983 15.3983L13.6932 11.3077C13.5545 10.7423 13.1509 10.5762 12.6527 10.5552Z" fill="#EC982D"/>
<path d="M52.9598 3.5378C52.9598 2.92961 53.2014 2.34634 53.6315 1.91628C54.0616 1.48623 54.6448 1.24463 55.253 1.24463H94.7304C95.3386 1.24463 95.9219 1.48623 96.3519 1.91628C96.782 2.34634 97.0236 2.92961 97.0236 3.5378V26.4624C97.0236 27.0706 96.782 27.6539 96.3519 28.0839C95.9219 28.514 95.3386 28.7556 94.7304 28.7556H55.253C54.6448 28.7556 54.0616 28.514 53.6315 28.0839C53.2014 27.6539 52.9598 27.0706 52.9598 26.4624V3.5378Z" fill="white" stroke="#BCBCBC" stroke-width="0.5"/>
<path d="M86.0834 23.8154V23.8621H86.1265C86.1522 23.8539 86.1546 23.8516 86.1557 23.8481C86.1546 23.8248 86.1522 23.8224 86.1487 23.8213L86.0834 23.8154ZM86.1265 23.7828C86.1452 23.7816 86.1639 23.7874 86.1779 23.7979C86.1954 23.8236 86.1965 23.8306 86.1965 23.8388C86.1907 23.8644 86.1872 23.8703 86.1814 23.8749C86.1755 23.8796 86.1557 23.8913 86.1406 23.8924L86.1989 23.9578H86.1534L86.1009 23.8924H86.0834V23.9578H86.046V23.7828H86.1277H86.1265ZM86.1149 24.0184C86.1347 24.0184 86.1534 24.0149 86.172 24.0068C86.1907 23.9986 86.2047 23.9893 86.2175 23.9753C86.2304 23.9613 86.242 23.9461 86.249 23.9286C86.2642 23.8924 86.2642 23.8504 86.249 23.8143C86.242 23.7968 86.2315 23.7816 86.2175 23.7676C86.2046 23.7542 86.1891 23.7435 86.172 23.7361C86.1534 23.7291 86.1347 23.7256 86.1149 23.7256C86.0951 23.7256 86.0752 23.7291 86.0577 23.7361C86.0402 23.7431 86.0239 23.7536 86.0099 23.7676C85.9901 23.7886 85.976 23.8154 85.9702 23.8434C85.9644 23.8714 85.9679 23.9018 85.9796 23.9286C85.9866 23.9461 85.9971 23.9613 86.0099 23.9753C86.0227 23.9893 86.0402 23.9998 86.0577 24.0068C86.0752 24.0138 86.0951 24.0184 86.1149 24.0184ZM86.1149 23.6848C86.1662 23.6848 86.2141 23.7046 86.2502 23.7396C86.2677 23.7571 86.2817 23.7769 86.2922 23.7991C86.3027 23.8213 86.3062 23.8469 86.3062 23.8726C86.3062 23.8983 86.3015 23.9228 86.2922 23.9461C86.2829 23.9694 86.2677 23.9893 86.2502 24.0056C86.2327 24.0219 86.2129 24.0359 86.1896 24.0464C86.1662 24.0569 86.1406 24.0616 86.1149 24.0616C86.0892 24.0616 86.0636 24.0569 86.0391 24.0464C86.0165 24.0367 85.9959 24.0228 85.9784 24.0056C85.9609 23.9881 85.9469 23.9671 85.9376 23.9438C85.9282 23.9204 85.9224 23.8959 85.9224 23.8703C85.9224 23.8446 85.9282 23.8201 85.9376 23.7968C85.9469 23.7734 85.9609 23.7536 85.9784 23.7373C85.9959 23.7209 86.0169 23.7058 86.0402 23.6964C86.0641 23.6861 86.09 23.681 86.116 23.6813L86.1149 23.6836V23.6848ZM68.4306 23.0093C68.4306 22.6757 68.6487 22.4027 69.0057 22.4027C69.3463 22.4027 69.5761 22.6652 69.5761 23.0093C69.5761 23.3535 69.3463 23.6159 69.0057 23.6159C68.6487 23.6159 68.4306 23.3418 68.4306 23.0093ZM69.9658 23.0093V22.0609H69.5528V22.2919C69.4221 22.1215 69.2238 22.0142 68.9543 22.0142C68.4235 22.0142 68.0059 22.4307 68.0059 23.0093C68.0059 23.5879 68.4224 24.0044 68.9543 24.0044C69.2238 24.0044 69.4221 23.8971 69.5528 23.7268V23.9566H69.9646V23.0082L69.9658 23.0093ZM83.8925 23.0093C83.8925 22.6757 84.1107 22.4027 84.4676 22.4027C84.8095 22.4027 85.0393 22.6652 85.0393 23.0093C85.0393 23.3535 84.8095 23.6159 84.4676 23.6159C84.1118 23.6159 83.8925 23.3418 83.8925 23.0093ZM85.4277 23.0093V21.3003H85.0159V22.2919C84.8853 22.1215 84.687 22.0142 84.4163 22.0142C83.8855 22.0142 83.4691 22.4307 83.4691 23.0093C83.4691 23.5879 83.8855 24.0044 84.4163 24.0044C84.687 24.0044 84.8853 23.8971 85.0159 23.7268V23.9566H85.4277V23.0093ZM75.0813 22.3829C75.3473 22.3829 75.5176 22.5497 75.5608 22.8425H74.5773C74.6216 22.5683 74.7873 22.3829 75.0813 22.3829ZM75.0894 22.0131C74.5341 22.0131 74.1457 22.4167 74.1457 23.0082C74.1457 23.6113 74.5493 24.0033 75.1174 24.0033C75.4021 24.0033 75.6646 23.9321 75.8944 23.7373L75.6926 23.4316C75.5327 23.5588 75.3309 23.6299 75.1408 23.6299C74.8748 23.6299 74.6333 23.5075 74.5738 23.1656H75.9807L75.9889 23.007C75.9854 22.4155 75.6202 22.0131 75.0894 22.0131ZM80.0661 23.0082C80.0661 22.6745 80.2843 22.4015 80.6412 22.4015C80.9819 22.4015 81.2117 22.664 81.2117 23.0082C81.2117 23.3523 80.9819 23.6148 80.6412 23.6148C80.2843 23.6148 80.0661 23.3406 80.0661 23.0082ZM81.6002 23.0082V22.0609H81.1884V22.2919C81.0577 22.1215 80.8594 22.0142 80.5899 22.0142C80.0591 22.0142 79.6415 22.4307 79.6415 23.0093C79.6415 23.5879 80.0579 24.0044 80.5899 24.0044C80.8594 24.0044 81.0577 23.8971 81.1884 23.7268V23.9566H81.6002V23.0082ZM77.7376 23.0082C77.7376 23.5833 78.1389 24.0033 78.749 24.0033C79.0348 24.0033 79.225 23.9403 79.4303 23.7769L79.2332 23.4433C79.078 23.5541 78.9159 23.6136 78.7362 23.6136C78.4072 23.6101 78.1657 23.3721 78.1657 23.007C78.1657 22.6418 78.4072 22.4039 78.7362 22.4004C78.9147 22.4004 79.078 22.4599 79.2332 22.5707L79.4303 22.237C79.225 22.0749 79.0348 22.0107 78.749 22.0107C78.1389 22.0107 77.7376 22.4307 77.7376 23.0058V23.0082ZM83.0526 22.0131C82.9519 22.01 82.8523 22.0342 82.7642 22.0831C82.6761 22.132 82.6028 22.2037 82.5521 22.2907V22.0609H82.1438V23.9566H82.5568V22.8938C82.5568 22.58 82.6909 22.4062 82.9604 22.4062C83.0487 22.4049 83.1363 22.4211 83.2182 22.454L83.3454 22.0655C83.2511 22.0317 83.1516 22.0144 83.0514 22.0142L83.0526 22.0131ZM72.0026 22.2114C71.8043 22.0807 71.5313 22.0131 71.2304 22.0131C70.7497 22.0131 70.4406 22.2429 70.4406 22.6197C70.4406 22.9288 70.6704 23.119 71.095 23.1785L71.2899 23.2065C71.515 23.238 71.6223 23.2975 71.6223 23.4048C71.6223 23.5518 71.4719 23.6346 71.1907 23.6346C70.9096 23.6346 70.6984 23.5436 70.5596 23.4363L70.3659 23.7583C70.5922 23.9251 70.878 24.0044 71.1872 24.0044C71.7343 24.0044 72.0516 23.7466 72.0516 23.3861C72.0516 23.0525 71.802 22.8787 71.389 22.8192L71.1954 22.7912C71.0169 22.7678 70.8734 22.7317 70.8734 22.6057C70.8734 22.4669 71.0087 22.384 71.2339 22.384C71.4765 22.384 71.711 22.475 71.8253 22.5462L72.0038 22.2125L72.0026 22.2114ZM77.3223 22.0131C77.0843 22.0131 76.9292 22.1239 76.823 22.2907V22.0597H76.4135V23.9554H76.8265V22.8927C76.8265 22.5788 76.9607 22.405 77.2301 22.405C77.3184 22.4037 77.406 22.42 77.4879 22.4529L77.6151 22.0644C77.5208 22.0306 77.4213 22.0132 77.3211 22.0131H77.3223ZM73.8039 22.0609H73.1307V21.4858H72.7131V22.0609H72.3293V22.4377H72.7131V23.3021C72.7131 23.7419 72.8846 24.0044 73.3722 24.0044C73.5545 24.0049 73.7332 23.954 73.8878 23.8574L73.7689 23.504C73.6452 23.5751 73.5111 23.6113 73.4037 23.6113C73.1972 23.6113 73.1307 23.4841 73.1307 23.294V22.4377H73.8039V22.0609ZM67.6419 23.9566V22.7667C67.6419 22.3187 67.3561 22.0177 66.8953 22.0131C66.6538 22.0096 66.4042 22.0842 66.2292 22.3502C66.0985 22.1402 65.8932 22.0131 65.6027 22.0131C65.4009 22.0131 65.2026 22.0725 65.0474 22.2942V22.0597H64.6356V23.9554H65.0509V22.9043C65.0509 22.5753 65.2341 22.4004 65.5152 22.4004C65.7894 22.4004 65.9282 22.5788 65.9282 22.8997V23.9543H66.3447V22.9032C66.3447 22.5742 66.5348 22.3992 66.8078 22.3992C67.0901 22.3992 67.2243 22.5777 67.2243 22.8985V23.9531L67.6419 23.9543V23.9566Z" fill="#231F20"/>
<path d="M78.1159 18.8398H71.87V7.61377H78.1171L78.1159 18.8398Z" fill="#FF5F00"/>
<path d="M72.2644 13.2277C72.2644 10.9506 73.3307 8.92185 74.9919 7.61527C73.7343 6.62484 72.1804 6.08587 70.5798 6.08937C68.6863 6.08937 66.8703 6.84157 65.5314 8.18049C64.1925 9.51942 63.4403 11.3354 63.4403 13.2289C63.4403 15.1224 64.1925 16.9384 65.5314 18.2773C66.8703 19.6162 68.6863 20.3684 70.5798 20.3684C72.1804 20.3707 73.7343 19.8329 74.9919 18.8425C73.3307 17.5359 72.2644 15.5072 72.2644 13.2289V13.2277Z" fill="#EB001B"/>
<path d="M86.5415 13.2279C86.5415 15.1212 85.7895 16.937 84.4508 18.2759C83.1121 19.6148 81.2965 20.3671 79.4031 20.3674C77.8026 20.3698 76.2475 19.832 74.9911 18.8415C75.8414 18.174 76.5287 17.3218 77.001 16.3495C77.4733 15.3771 77.7183 14.3101 77.7174 13.2291C77.7185 12.1479 77.4736 11.0806 77.0012 10.108C76.5289 9.13548 75.8415 8.28311 74.9911 7.61545C76.2475 6.62502 77.8026 6.08605 79.4031 6.08839C81.2965 6.0887 83.1121 6.84103 84.4508 8.17992C85.7895 9.51881 86.5415 11.3346 86.5415 13.2279Z" fill="#F79E1B"/>
<path d="M105.024 3.5378C105.024 2.92961 105.265 2.34633 105.695 1.91628C106.125 1.48623 106.709 1.24463 107.317 1.24463H146.794C147.402 1.24463 147.986 1.48623 148.416 1.91628C148.846 2.34633 149.087 2.92961 149.087 3.5378V26.4624C149.087 27.0706 148.846 27.6539 148.416 28.0839C147.986 28.514 147.402 28.7556 146.794 28.7556H107.317C106.709 28.7556 106.125 28.514 105.695 28.0839C105.265 27.6539 105.024 27.0706 105.024 26.4624V3.5378Z" fill="black" stroke="#BCBCBC" stroke-width="0.5"/>
<path fill-rule="evenodd" clip-rule="evenodd" d="M120.589 17.7781C120.589 17.9256 120.484 18.104 120.355 18.1778L115.845 20.7871C115.716 20.8609 115.507 20.8609 115.377 20.7871L110.866 18.1778C110.737 18.104 110.633 17.9256 110.633 17.7781V12.5589C110.633 12.4115 110.737 12.233 110.866 12.1589L115.377 9.54992C115.507 9.4762 115.716 9.4762 115.845 9.54992L120.355 12.1589C120.484 12.233 120.589 12.4115 120.589 12.5589V17.7781ZM145.633 12.9344H141.595V13.9009H143.045V18.0303H144.188V13.9009H145.633V12.9344ZM127.288 12.9344H123.244V13.9009H124.695V18.0303H125.838V13.9009H127.288L127.288 12.9344ZM138.977 12.7745C137.705 12.7745 136.998 13.5867 136.998 14.7626V18.0303H138.129V14.7377C138.129 14.2272 138.43 13.8332 138.989 13.8332C139.548 13.8332 139.843 14.3009 139.843 14.7377V18.0303H140.974V14.7626C140.98 13.5867 140.249 12.7745 138.977 12.7745ZM134.712 12.9344V18.0303H135.843V12.9344H134.712ZM130.877 14.9528L130.914 15.1808L131.977 18.0303H132.438L133.883 12.9344H132.769L132.081 15.6115L132.038 15.9007L131.983 15.6115L131.061 12.9344H130.693L129.771 15.6115L129.715 15.9007L129.679 15.6115L128.99 12.9344H127.872L129.316 18.0303H129.777L130.84 15.1808L130.877 14.9528H130.877Z" fill="white"/>
<path fill-rule="evenodd" clip-rule="evenodd" d="M117.965 15.1809L116.785 16.91L116.183 15.9871L116.877 14.9473C117.006 14.7628 117.282 14.2523 116.963 13.557C116.704 12.9901 116.146 12.7202 115.654 12.7202C115.162 12.7202 114.627 12.9724 114.338 13.557C114.013 14.2273 114.295 14.7503 114.418 14.9291C114.418 14.9291 114.806 15.4956 115.125 15.9754L115.647 16.7316L116.434 17.9386C116.44 17.9446 116.563 18.1356 116.784 18.1356C116.993 18.1356 117.122 17.9446 117.141 17.9261L118.985 15.1938H117.965V15.1813V15.1809ZM115.648 15.2244C115.648 15.2244 115.34 14.7567 115.138 14.43C114.922 14.0795 115.162 13.5566 115.648 13.5566C116.133 13.5566 116.373 14.0799 116.158 14.43C115.961 14.7567 115.648 15.2244 115.648 15.2244Z" fill="url(#paint0_radial_4025_2742)"/>
<path fill-rule="evenodd" clip-rule="evenodd" d="M114.517 16.8559L113.361 15.2307C113.361 15.2307 113.054 14.763 112.851 14.4367C112.636 14.0858 112.876 13.5628 113.361 13.5628C113.423 13.5628 113.478 13.5693 113.533 13.5874L113.939 12.8425C113.754 12.7619 113.551 12.7192 113.367 12.7192C112.876 12.7192 112.341 12.9714 112.052 13.5564C111.727 14.2268 112.009 14.7501 112.132 14.9286L114.154 17.9259C114.173 17.9501 114.302 18.1414 114.517 18.1414C114.732 18.1414 114.854 17.9569 114.873 17.932L115.482 17.0029L114.959 16.2339L114.517 16.8551V16.8559Z" fill="url(#paint1_radial_4025_2742)"/>
<path d="M157.633 3.5378C157.633 2.92961 157.874 2.34633 158.304 1.91628C158.734 1.48623 159.318 1.24463 159.926 1.24463H199.403C200.011 1.24463 200.595 1.48623 201.025 1.91628C201.455 2.34633 201.696 2.92961 201.696 3.5378V26.4624C201.696 27.0706 201.455 27.6539 201.025 28.0839C200.595 28.514 200.011 28.7556 199.403 28.7556H159.926C159.318 28.7556 158.734 28.514 158.304 28.0839C157.874 27.6539 157.633 27.0706 157.633 26.4624V3.5378Z" fill="white" stroke="#BCBCBC" stroke-width="0.5"/>
<path fill-rule="evenodd" clip-rule="evenodd" d="M171.353 11.3301C170.557 11.283 169.881 11.7817 169.501 11.7817C169.122 11.7817 168.539 11.3543 167.911 11.3656C167.092 11.3776 166.332 11.8413 165.916 12.5774C165.061 14.0504 165.691 16.2359 166.522 17.4352C166.926 18.0289 167.412 18.6821 168.053 18.6587C168.658 18.6354 168.896 18.2667 169.632 18.2667C170.367 18.2667 170.581 18.6587 171.223 18.6475C171.888 18.6354 172.303 18.0534 172.707 17.4594C173.169 16.7824 173.359 16.1292 173.371 16.0934C173.359 16.0813 172.09 15.5939 172.077 14.133C172.065 12.9102 173.074 12.3279 173.122 12.292C172.552 11.4492 171.661 11.3543 171.353 11.3301ZM170.859 10.5446C171.193 10.1276 171.418 9.56746 171.359 8.99561C170.871 9.01974 170.276 9.31715 169.931 9.73485C169.622 10.0922 169.348 10.6754 169.419 11.2231C169.966 11.271 170.514 10.9494 170.859 10.5446Z" fill="black"/>
<path fill-rule="evenodd" clip-rule="evenodd" d="M188.3 20.9745V19.8938C188.399 19.9184 188.62 19.9184 188.732 19.9184C189.349 19.9184 189.683 19.6591 189.886 18.9927C189.886 18.9802 190.004 18.5971 190.004 18.5909L187.658 12.0887L189.102 12.0891L190.745 17.3744H190.77L192.412 12.0891H193.82L191.387 18.9245C190.831 20.4992 190.189 21.0052 188.843 21.0052C188.732 21.0052 188.399 20.9932 188.3 20.9745ZM178.279 9.6748C180.008 9.6748 181.212 10.8668 181.212 12.6014C181.212 14.3431 179.983 15.5409 178.236 15.5409H176.321V18.5847H174.938V9.6748H178.279ZM176.321 14.3801H177.909C179.113 14.3801 179.798 13.7315 179.798 12.608C179.798 11.4842 179.113 10.8419 177.914 10.8419H176.321V14.3801ZM181.573 16.7387C181.573 15.6024 182.444 14.9052 183.987 14.818L185.766 14.7133V14.2134C185.766 13.4905 185.278 13.0584 184.463 13.0584C183.691 13.0584 183.209 13.429 183.092 14.0095H181.832C181.906 12.8366 182.907 11.9716 184.512 11.9716C186.087 11.9716 187.093 12.8058 187.093 14.1083V18.5847H185.815V17.5165H185.784C185.408 18.2394 184.586 18.696 183.734 18.696C182.462 18.696 181.573 17.9054 181.573 16.7387ZM185.766 16.1521V15.6398L184.166 15.7386C183.37 15.7943 182.919 16.1458 182.919 16.7017C182.919 17.2697 183.388 17.6403 184.104 17.6403C185.037 17.6403 185.766 16.998 185.766 16.1521Z" fill="black"/>
<path d="M209.696 3.5378C209.696 2.92961 209.937 2.34633 210.367 1.91628C210.797 1.48623 211.381 1.24463 211.989 1.24463H251.466C252.074 1.24463 252.658 1.48623 253.088 1.91628C253.518 2.34633 253.759 2.92961 253.759 3.5378V26.4624C253.759 27.0706 253.518 27.6539 253.088 28.0839C252.658 28.514 252.074 28.7556 251.466 28.7556H211.989C211.381 28.7556 210.797 28.514 210.367 28.0839C209.937 27.6539 209.696 27.0706 209.696 26.4624V3.5378Z" fill="white" stroke="#BCBCBC" stroke-width="0.5"/>
<g clip-path="url(#clip0_4025_2742)">
<path d="M244.144 20.7079C244.144 22.833 242.413 24.5634 240.288 24.5634H219.31V9.29304C219.31 7.16794 221.041 5.4375 223.166 5.4375H244.144V20.7079Z" fill="white"/>
<path d="M237.313 16.7917H238.907C238.952 16.7917 239.059 16.7765 239.104 16.7765C239.408 16.7158 239.666 16.4426 239.666 16.0631C239.666 15.6988 239.408 15.4255 239.104 15.3497C239.059 15.3345 238.968 15.3345 238.907 15.3345H237.313V16.7917Z" fill="url(#paint2_linear_4025_2742)"/>
<path d="M238.725 6.72754C237.207 6.72754 235.962 7.95706 235.962 9.49017V12.3591H239.863C239.954 12.3591 240.061 12.3591 240.136 12.3742C241.017 12.4198 241.67 12.8752 241.67 13.6645C241.67 14.2868 241.229 14.8181 240.41 14.9244V14.9547C241.305 15.0154 241.988 15.5164 241.988 16.2905C241.988 17.1254 241.229 17.6718 240.228 17.6718H235.947V23.2882H240C241.518 23.2882 242.762 22.0586 242.762 20.5255V6.72754H238.725Z" fill="url(#paint3_linear_4025_2742)"/>
<path d="M239.469 13.8466C239.469 13.4823 239.211 13.2394 238.907 13.1939C238.877 13.1939 238.801 13.1787 238.755 13.1787H237.313V14.5145H238.755C238.801 14.5145 238.892 14.5145 238.907 14.4993C239.211 14.4538 239.469 14.2109 239.469 13.8466Z" fill="url(#paint4_linear_4025_2742)"/>
<path d="M223.454 6.72754C221.936 6.72754 220.692 7.95706 220.692 9.49017V16.3057C221.466 16.6852 222.27 16.928 223.075 16.928C224.031 16.928 224.547 16.3512 224.547 15.5619V12.3439H226.915V15.5467C226.915 16.7914 226.141 17.8084 223.515 17.8084C221.921 17.8084 220.677 17.4593 220.677 17.4593V23.273H224.729C226.247 23.273 227.492 22.0435 227.492 20.5103V6.72754H223.454Z" fill="url(#paint5_linear_4025_2742)"/>
<path d="M231.09 6.72754C229.572 6.72754 228.327 7.95706 228.327 9.49017V13.1028C229.025 12.5109 230.24 12.1314 232.198 12.2224C233.245 12.268 234.368 12.5564 234.368 12.5564V13.7252C233.807 13.4368 233.139 13.1787 232.274 13.118C230.786 13.0118 229.89 13.7404 229.89 15.0154C229.89 16.3057 230.786 17.0343 232.274 16.9128C233.139 16.8521 233.807 16.5789 234.368 16.3057V17.4745C234.368 17.4745 233.26 17.7629 232.198 17.8084C230.24 17.8995 229.025 17.52 228.327 16.928V23.3033H232.38C233.898 23.3033 235.142 22.0738 235.142 20.5407V6.72754H231.09Z" fill="url(#paint6_linear_4025_2742)"/>
</g>
<path d="M302.345 1H264.414C262.947 1 261.759 2.12503 261.759 3.51282V26.4872C261.759 27.875 262.947 29 264.414 29H302.345C303.811 29 305 27.875 305 26.4872V3.51282C305 2.12503 303.811 1 302.345 1Z" fill="white" stroke="#BCBCBC" stroke-width="0.5"/>
<path fill-rule="evenodd" clip-rule="evenodd" d="M268.08 18.9833C268.08 18.3882 267.769 18.4273 267.471 18.4211V18.249C267.729 18.2615 267.994 18.2615 268.252 18.2615C268.53 18.2615 268.907 18.249 269.397 18.249C271.111 18.249 272.044 19.3933 272.044 20.565C272.044 21.2208 271.66 22.868 269.317 22.868C268.98 22.868 268.669 22.855 268.358 22.855C268.06 22.855 267.769 22.8611 267.471 22.868V22.6959C267.868 22.6559 268.06 22.6429 268.08 22.193V18.9833ZM268.728 22.0868C268.728 22.5965 269.092 22.6559 269.417 22.6559C270.846 22.6559 271.316 21.5775 271.316 20.5916C271.316 19.3542 270.522 18.461 269.245 18.461C268.973 18.461 268.848 18.4803 268.728 18.4875V22.0868Z" fill="#1A1919"/>
<path fill-rule="evenodd" clip-rule="evenodd" d="M272.276 22.6959H272.401C272.586 22.6959 272.719 22.6959 272.719 22.4771V20.6839C272.719 20.3932 272.62 20.353 272.375 20.221V20.1154C272.686 20.0219 273.057 19.8971 273.083 19.8771C273.129 19.8506 273.168 19.8435 273.202 19.8435C273.235 19.8435 273.248 19.8833 273.248 19.9368V22.4771C273.248 22.6959 273.394 22.6959 273.58 22.6959H273.692V22.8681C273.467 22.8681 273.235 22.855 272.997 22.855C272.759 22.855 272.52 22.8612 272.276 22.8681V22.6959ZM272.984 18.8248C272.811 18.8248 272.66 18.666 272.66 18.494C272.66 18.3283 272.819 18.1758 272.984 18.1758C273.156 18.1758 273.308 18.3152 273.308 18.494C273.308 18.673 273.162 18.8248 272.984 18.8248Z" fill="#1A1919"/>
<path fill-rule="evenodd" clip-rule="evenodd" d="M274.32 20.7235C274.32 20.4791 274.247 20.413 273.937 20.2871V20.1614C274.221 20.0689 274.492 19.9825 274.81 19.8433C274.83 19.8433 274.849 19.8565 274.849 19.9094V20.3397C275.227 20.0689 275.551 19.8433 275.995 19.8433C276.557 19.8433 276.756 20.2537 276.756 20.7698V22.4768C276.756 22.6958 276.902 22.6958 277.087 22.6958H277.206V22.8679C276.974 22.8679 276.742 22.8548 276.504 22.8548C276.266 22.8548 276.028 22.8609 275.789 22.8679V22.6958H275.909C276.094 22.6958 276.226 22.6958 276.226 22.4768V20.7637C276.226 20.3861 275.995 20.201 275.618 20.201C275.406 20.201 275.068 20.3726 274.849 20.5189V22.4768C274.849 22.6958 274.996 22.6958 275.181 22.6958H275.3V22.8679C275.068 22.8679 274.837 22.8548 274.598 22.8548C274.36 22.8548 274.122 22.8609 273.884 22.8679V22.6958H274.003C274.188 22.6958 274.32 22.6958 274.32 22.4768V20.7235Z" fill="#1A1919"/>
<path fill-rule="evenodd" clip-rule="evenodd" d="M277.709 21.0417C277.695 21.1012 277.695 21.2003 277.709 21.4254C277.748 22.0539 278.153 22.5698 278.681 22.5698C279.046 22.5698 279.331 22.3712 279.575 22.1269L279.667 22.2195C279.363 22.6231 278.986 22.9674 278.444 22.9674C277.391 22.9674 277.179 21.9478 277.179 21.5245C277.179 20.2274 278.053 19.8433 278.515 19.8433C279.052 19.8433 279.628 20.1808 279.634 20.8824C279.634 20.9226 279.634 20.9618 279.628 21.0017L279.568 21.0417H277.709ZM278.881 20.8297C279.046 20.8297 279.065 20.7435 279.065 20.6638C279.065 20.3269 278.86 20.0555 278.489 20.0555C278.086 20.0555 277.808 20.3528 277.729 20.8297H278.881Z" fill="#1A1919"/>
<path fill-rule="evenodd" clip-rule="evenodd" d="M279.787 22.6958H279.966C280.15 22.6958 280.283 22.6958 280.283 22.4768V20.6177C280.283 20.413 280.038 20.3726 279.939 20.3198V20.2208C280.422 20.0155 280.687 19.8433 280.747 19.8433C280.786 19.8433 280.806 19.8632 280.806 19.9297V20.5253H280.82C280.985 20.2673 281.263 19.8433 281.666 19.8433C281.832 19.8433 282.043 19.9557 282.043 20.1941C282.043 20.3726 281.918 20.5322 281.733 20.5322C281.527 20.5322 281.527 20.3726 281.295 20.3726C281.183 20.3726 280.812 20.5253 280.812 20.9226V22.4768C280.812 22.6958 280.945 22.6958 281.13 22.6958H281.5V22.8679C281.136 22.8609 280.859 22.8548 280.574 22.8548C280.303 22.8548 280.025 22.8609 279.787 22.8679V22.6958Z" fill="#1A1919"/>
<path fill-rule="evenodd" clip-rule="evenodd" d="M282.334 21.9476C282.421 22.3843 282.685 22.7555 283.169 22.7555C283.559 22.7555 283.704 22.5169 283.704 22.2855C283.704 21.5043 282.262 21.756 282.262 20.6906C282.262 20.3197 282.56 19.8433 283.288 19.8433C283.499 19.8433 283.784 19.9033 284.041 20.0357L284.088 20.7101H283.936C283.87 20.2935 283.638 20.0554 283.214 20.0554C282.95 20.0554 282.699 20.2073 282.699 20.492C282.699 21.2667 284.233 21.028 284.233 22.067C284.233 22.5034 283.883 22.9673 283.095 22.9673C282.831 22.9673 282.519 22.8745 282.288 22.7421L282.215 21.981L282.334 21.9476Z" fill="#1A1919"/>
<path fill-rule="evenodd" clip-rule="evenodd" d="M290.209 19.4461H290.044C289.918 18.6726 289.369 18.3612 288.628 18.3612C287.866 18.3612 286.761 18.8704 286.761 20.4585C286.761 21.7958 287.715 22.7554 288.733 22.7554C289.388 22.7554 289.932 22.3053 290.064 21.61L290.216 21.6495L290.064 22.616C289.786 22.7883 289.038 22.9672 288.601 22.9672C287.053 22.9672 286.074 21.9678 286.074 20.479C286.074 19.122 287.285 18.1489 288.582 18.1489C289.117 18.1489 289.633 18.3215 290.143 18.5003L290.209 19.4461Z" fill="#1A1919"/>
<path fill-rule="evenodd" clip-rule="evenodd" d="M290.448 22.6957H290.573C290.759 22.6957 290.891 22.6957 290.891 22.4768V18.7918C290.891 18.3612 290.792 18.3482 290.54 18.2752V18.1692C290.805 18.0833 291.083 17.9645 291.222 17.8844C291.294 17.8454 291.347 17.8115 291.367 17.8115C291.407 17.8115 291.421 17.8517 291.421 17.9049V22.4768C291.421 22.6957 291.566 22.6957 291.751 22.6957H291.863V22.8678C291.639 22.8678 291.407 22.8548 291.169 22.8548C290.931 22.8548 290.693 22.8609 290.448 22.8678V22.6957Z" fill="#1A1919"/>
<path fill-rule="evenodd" clip-rule="evenodd" d="M294.697 22.5034C294.697 22.6229 294.769 22.6291 294.881 22.6291C294.961 22.6291 295.06 22.6229 295.147 22.6229V22.7622C294.862 22.7884 294.319 22.9274 294.193 22.9672L294.16 22.947V22.411C293.763 22.735 293.459 22.9672 292.988 22.9672C292.631 22.9672 292.261 22.7351 292.261 22.18V20.4854C292.261 20.3131 292.234 20.1476 291.864 20.115V19.9889C292.103 19.9824 292.631 19.9429 292.717 19.9429C292.791 19.9429 292.791 19.9889 292.791 20.1348V21.8419C292.791 22.0406 292.791 22.6091 293.366 22.6091C293.591 22.6091 293.889 22.4375 294.166 22.2062V20.4257C294.166 20.2934 293.849 20.2207 293.611 20.1548V20.0358C294.206 19.9954 294.577 19.9429 294.643 19.9429C294.697 19.9429 294.697 19.9889 294.697 20.062V22.5034Z" fill="#1A1919"/>
<path fill-rule="evenodd" clip-rule="evenodd" d="M296.013 20.3198C296.278 20.0952 296.635 19.8432 296.999 19.8432C297.767 19.8432 298.23 20.5123 298.23 21.2334C298.23 22.1001 297.595 22.9673 296.648 22.9673C296.159 22.9673 295.9 22.808 295.728 22.7352L295.53 22.8875L295.391 22.8149C295.451 22.4245 295.484 22.0408 295.484 21.6369V18.7918C295.484 18.3612 295.384 18.3482 295.133 18.2752V18.1692C295.398 18.0833 295.675 17.9645 295.814 17.8844C295.887 17.8454 295.94 17.8115 295.96 17.8115C296 17.8115 296.013 17.8519 296.013 17.9049V20.3198ZM296.013 22.1198C296.013 22.3711 296.251 22.7951 296.695 22.7951C297.403 22.7951 297.7 22.1001 297.7 21.5109C297.7 20.7963 297.158 20.2009 296.642 20.2009C296.396 20.2009 296.192 20.36 296.013 20.5123V22.1198Z" fill="#1A1919"/>
<path fill-rule="evenodd" clip-rule="evenodd" d="M271.036 26.1143L271.043 26.1072V24.7573C271.043 24.4618 270.838 24.4186 270.73 24.4186H270.65V24.3105C270.82 24.3105 270.985 24.3248 271.155 24.3248C271.302 24.3248 271.45 24.3105 271.597 24.3105V24.4186H271.544C271.392 24.4186 271.223 24.4473 271.223 24.8759V26.5142C271.223 26.6404 271.227 26.7664 271.244 26.8781H271.107L269.253 24.8109V26.2947C269.253 26.6083 269.314 26.7158 269.591 26.7158H269.653V26.824C269.498 26.824 269.343 26.81 269.188 26.81C269.027 26.81 268.861 26.824 268.699 26.824V26.7158H268.749C268.998 26.7158 269.073 26.5465 269.073 26.2593V24.7422C269.073 24.5407 268.907 24.4186 268.746 24.4186H268.699V24.3105C268.835 24.3105 268.976 24.3248 269.112 24.3248C269.221 24.3248 269.325 24.3105 269.433 24.3105L271.036 26.1143Z" fill="#1A1919"/>
<path fill-rule="evenodd" clip-rule="evenodd" d="M271.244 26.8929L271.096 26.8878L269.269 24.8511V26.2943C269.273 26.6074 269.32 26.6965 269.592 26.6999H269.669V26.839H269.653C269.497 26.839 269.342 26.8246 269.188 26.8246C269.027 26.8246 268.862 26.839 268.699 26.839H268.683V26.6999H268.749C268.987 26.6985 269.055 26.5456 269.058 26.2588V24.7423C269.057 24.5505 268.9 24.4339 268.746 24.4339H268.683V24.2944H268.699C268.836 24.2944 268.977 24.3085 269.112 24.3085C269.22 24.3085 269.324 24.2944 269.445 24.3L271.028 26.0813V24.7569C271.026 24.471 270.835 24.4362 270.73 24.4339H270.635V24.2944H270.65C270.821 24.2944 270.986 24.3085 271.155 24.3085C271.301 24.3085 271.449 24.2944 271.597 24.2944H271.613V24.4339H271.544C271.395 24.4377 271.243 24.4508 271.238 24.8755V26.5138C271.238 26.6399 271.242 26.7656 271.26 26.8748L271.263 26.8929H271.244ZM271.107 26.8615H271.227C271.211 26.7531 271.208 26.6336 271.208 26.5138V24.8755C271.208 24.4433 271.389 24.4025 271.544 24.4022H271.582V24.3256C271.44 24.3268 271.298 24.3398 271.155 24.3398C270.99 24.3398 270.829 24.3268 270.667 24.3256L270.666 24.4022H270.73C270.841 24.4025 271.059 24.4517 271.059 24.7569L271.054 26.1181L271.047 26.1251L271.035 26.1367L269.433 24.3256C269.326 24.3256 269.222 24.3398 269.112 24.3398C268.98 24.3398 268.845 24.3268 268.714 24.3256L268.714 24.4022H268.746C268.915 24.4025 269.088 24.5314 269.088 24.7423V26.2588C269.088 26.5469 269.008 26.7309 268.749 26.7319L268.714 26.7309V26.8082C268.87 26.807 269.031 26.7937 269.188 26.7937C269.339 26.7937 269.489 26.807 269.637 26.8082V26.7319H269.592C269.308 26.7309 269.238 26.6074 269.238 26.2943V24.7701L271.107 26.8615ZM271.028 26.1068V26.1054L271.025 26.1031L271.028 26.1068Z" fill="#1A1919"/>
<path fill-rule="evenodd" clip-rule="evenodd" d="M272.137 24.4899C271.867 24.4899 271.856 24.5551 271.802 24.8176H271.694C271.708 24.7168 271.726 24.616 271.737 24.5116C271.752 24.4104 271.759 24.3099 271.759 24.2058H271.845C271.874 24.3139 271.964 24.3099 272.062 24.3099H273.919C274.017 24.3099 274.107 24.3063 274.114 24.1982L274.2 24.213C274.186 24.3099 274.171 24.4072 274.161 24.5046C274.154 24.6018 274.154 24.6988 274.154 24.796L274.046 24.836C274.038 24.703 274.02 24.4899 273.779 24.4899H273.189V26.4056C273.189 26.6834 273.315 26.7152 273.487 26.7152H273.556V26.8234C273.416 26.8234 273.163 26.8095 272.969 26.8095C272.753 26.8095 272.501 26.8234 272.36 26.8234V26.7152H272.429C272.627 26.7152 272.728 26.6974 272.728 26.4131V24.4899H272.137Z" fill="#1A1919"/>
<path fill-rule="evenodd" clip-rule="evenodd" d="M273.556 26.8394C273.414 26.8394 273.163 26.8251 272.969 26.8251C272.753 26.8251 272.501 26.8394 272.36 26.8394H272.345V26.7003H272.429C272.627 26.6956 272.707 26.6931 272.712 26.4137V24.506H272.137V24.4745H272.743V26.4137C272.743 26.7029 272.626 26.7321 272.429 26.7323H272.376V26.8084C272.518 26.8074 272.76 26.7942 272.969 26.7942C273.157 26.7942 273.397 26.8074 273.54 26.8084V26.7323H273.487C273.313 26.7321 273.173 26.6893 273.173 26.4063V24.4745H273.779C274.021 24.4755 274.053 24.6807 274.06 24.8147L274.138 24.786C274.138 24.6919 274.139 24.5978 274.145 24.5032C274.156 24.4101 274.169 24.3186 274.182 24.2263L274.128 24.2172C274.111 24.322 274.009 24.3276 273.919 24.3262H272.043C271.958 24.3263 271.866 24.3223 271.834 24.2218H271.774C271.774 24.3213 271.767 24.418 271.753 24.5139C271.743 24.6129 271.726 24.7078 271.713 24.8033H271.79C271.837 24.5521 271.868 24.471 272.137 24.4745V24.506C271.87 24.5113 271.876 24.5559 271.817 24.8219L271.815 24.8342H271.676L271.678 24.8156C271.693 24.7151 271.711 24.6139 271.722 24.5094C271.737 24.4095 271.743 24.3096 271.743 24.2064V24.1905H271.858L271.86 24.2018C271.885 24.2926 271.951 24.2932 272.043 24.2948H273.919C274.019 24.2932 274.092 24.2919 274.099 24.1977L274.1 24.1807L274.116 24.1839L274.218 24.2L274.215 24.2159C274.201 24.3126 274.187 24.4095 274.176 24.506C274.169 24.6025 274.169 24.6993 274.169 24.7966V24.8075L274.159 24.8117L274.032 24.8583L274.031 24.8375C274.021 24.702 274.007 24.506 273.779 24.506H273.204V26.4063C273.208 26.6778 273.316 26.6969 273.487 26.7003H273.572V26.8394H273.556Z" fill="#1A1919"/>
<path fill-rule="evenodd" clip-rule="evenodd" d="M274.315 26.7158H274.366C274.495 26.7158 274.632 26.6981 274.632 26.5106V24.6242C274.632 24.4366 274.495 24.4187 274.366 24.4187H274.315V24.3105C274.534 24.3105 274.909 24.3248 275.211 24.3248C275.514 24.3248 275.888 24.3105 276.133 24.3105C276.127 24.4654 276.13 24.7036 276.141 24.8617L276.032 24.8904C276.015 24.6562 275.972 24.4694 275.594 24.4694H275.094V25.4122H275.521C275.737 25.4122 275.784 25.2902 275.806 25.0956H275.914C275.907 25.2362 275.903 25.3766 275.903 25.5169C275.903 25.654 275.907 25.7907 275.914 25.9273L275.806 25.9488C275.784 25.733 275.774 25.5927 275.525 25.5927H275.094V26.4312C275.094 26.6656 275.302 26.6656 275.532 26.6656C275.965 26.6656 276.155 26.6366 276.263 26.2266L276.364 26.2514C276.317 26.4426 276.274 26.6329 276.242 26.824C276.011 26.824 275.597 26.8101 275.274 26.8101C274.949 26.8101 274.521 26.824 274.315 26.824V26.7158Z" fill="#1A1919"/>
<path fill-rule="evenodd" clip-rule="evenodd" d="M276.241 26.839C276.01 26.839 275.596 26.824 275.273 26.824C274.949 26.824 274.521 26.839 274.315 26.839H274.3V26.6999H274.366C274.496 26.6977 274.615 26.6862 274.616 26.5102V24.6239C274.615 24.4479 274.496 24.4362 274.366 24.4339H274.3V24.2944H274.315C274.535 24.2944 274.91 24.3085 275.211 24.3085C275.514 24.3085 275.888 24.2944 276.133 24.2944H276.149L276.149 24.311C276.146 24.3649 276.145 24.4289 276.145 24.4967C276.145 24.6212 276.149 24.7576 276.156 24.8601L276.156 24.8729L276.144 24.8766L276.018 24.9097L276.017 24.8912C275.996 24.6575 275.964 24.4876 275.594 24.484H275.108L275.108 25.396H275.521C275.729 25.3938 275.766 25.2878 275.79 25.0936L275.791 25.0791H275.93L275.93 25.0956C275.923 25.2363 275.918 25.3762 275.918 25.5165C275.918 25.6527 275.923 25.7894 275.93 25.9262L275.93 25.9393L275.917 25.9423L275.791 25.9672L275.79 25.9503C275.766 25.7305 275.764 25.61 275.525 25.6074H275.108V26.4308C275.109 26.6496 275.298 26.6484 275.532 26.6496C275.966 26.6471 276.139 26.6258 276.248 26.2219L276.252 26.2074L276.267 26.2099L276.382 26.2398L276.379 26.2547C276.332 26.4452 276.289 26.6356 276.257 26.8262L276.254 26.839H276.241ZM276.228 26.8079C276.26 26.6258 276.301 26.444 276.345 26.2627L276.274 26.2448C276.166 26.6476 275.957 26.6836 275.532 26.6809C275.305 26.6809 275.078 26.6809 275.077 26.4308V25.5766H275.525C275.776 25.574 275.802 25.7256 275.82 25.9304L275.898 25.9145C275.891 25.7817 275.887 25.6484 275.887 25.5165C275.887 25.3813 275.891 25.2464 275.898 25.1105H275.82C275.799 25.2985 275.741 25.4298 275.521 25.4275H275.077V24.4528H275.594C275.968 24.4498 276.03 24.6436 276.046 24.8702L276.124 24.8491C276.118 24.7475 276.113 24.6169 276.113 24.4967C276.113 24.4351 276.115 24.3766 276.117 24.3256C275.873 24.3268 275.507 24.3398 275.211 24.3398C274.915 24.3398 274.551 24.3268 274.331 24.3256V24.4022H274.366C274.494 24.4025 274.647 24.4248 274.648 24.6239V26.5102C274.647 26.709 274.494 26.7309 274.366 26.7319H274.331V26.8079C274.54 26.8072 274.957 26.7937 275.273 26.7937C275.591 26.7937 275.996 26.8072 276.228 26.8079Z" fill="#1A1919"/>
<path fill-rule="evenodd" clip-rule="evenodd" d="M276.85 24.6919C276.85 24.4293 276.706 24.4186 276.594 24.4186H276.529V24.3105C276.644 24.3105 276.868 24.3248 277.087 24.3248C277.303 24.3248 277.476 24.3105 277.667 24.3105C278.12 24.3105 278.524 24.4328 278.524 24.9444C278.524 25.2683 278.308 25.4661 278.024 25.5784L278.639 26.4996C278.74 26.652 278.812 26.6947 278.989 26.7158V26.824C278.869 26.824 278.754 26.8101 278.636 26.8101C278.524 26.8101 278.408 26.824 278.297 26.824C278.02 26.4605 277.782 26.0718 277.548 25.657H277.311V26.4281C277.311 26.7053 277.44 26.7158 277.605 26.7158H277.671V26.824C277.465 26.824 277.257 26.8101 277.051 26.8101C276.878 26.8101 276.709 26.824 276.529 26.824V26.7158H276.594C276.728 26.7158 276.85 26.6548 276.85 26.5218V24.6919ZM277.311 25.5271H277.487C277.847 25.5271 278.041 25.3907 278.041 24.9655C278.041 24.6454 277.836 24.4401 277.515 24.4401C277.407 24.4401 277.361 24.4512 277.311 24.4547V25.5271Z" fill="#1A1919"/>
<path fill-rule="evenodd" clip-rule="evenodd" d="M278.989 26.839C278.868 26.839 278.753 26.8246 278.635 26.8246C278.525 26.8246 278.41 26.839 278.285 26.833C278.008 26.4705 277.772 26.0839 277.539 25.6728H277.326V26.427C277.33 26.698 277.439 26.696 277.605 26.6999H277.686V26.839H277.67C277.464 26.839 277.255 26.8246 277.051 26.8246C276.879 26.8246 276.71 26.839 276.529 26.839H276.513V26.6999H276.594C276.724 26.6989 276.833 26.6424 276.834 26.5214V24.6915C276.831 24.4362 276.706 24.4374 276.594 24.4339H276.513V24.2944H276.529C276.646 24.2944 276.868 24.3085 277.087 24.3085C277.302 24.3085 277.475 24.2944 277.667 24.2944C278.121 24.2954 278.539 24.4204 278.54 24.9435C278.54 25.2684 278.325 25.4715 278.047 25.5848L278.652 26.4906C278.753 26.64 278.815 26.6773 278.991 26.6999L279.004 26.7019V26.839H278.989ZM277.311 25.6411H277.557L277.561 25.6491C277.796 26.0628 278.032 26.4516 278.297 26.8082C278.407 26.8082 278.523 26.7937 278.635 26.7937C278.75 26.7937 278.861 26.8063 278.973 26.8079V26.7288C278.804 26.7083 278.725 26.6573 278.626 26.5081L278 25.5707L278.017 25.5635C278.299 25.4524 278.508 25.2601 278.508 24.9435C278.508 24.444 278.12 24.3281 277.667 24.3256C277.477 24.3256 277.304 24.3403 277.087 24.3403C276.876 24.3403 276.662 24.3268 276.544 24.3256V24.4022H276.594C276.706 24.4025 276.865 24.421 276.865 24.6915V26.5214C276.865 26.6659 276.73 26.7316 276.594 26.7319H276.544V26.8079C276.718 26.8072 276.882 26.7937 277.051 26.7937C277.252 26.7937 277.455 26.8072 277.655 26.8079V26.7319H277.605C277.441 26.7316 277.295 26.7112 277.295 26.427V25.6411H277.311ZM277.311 25.5422H277.295V24.4397L277.309 24.4386C277.358 24.4347 277.406 24.4248 277.515 24.4248C277.843 24.4248 278.057 24.6378 278.057 24.9661C278.056 25.396 277.85 25.5421 277.487 25.5422H277.311ZM277.487 25.5116C277.843 25.5081 278.023 25.3844 278.026 24.9661C278.024 24.6515 277.829 24.4563 277.515 24.455C277.418 24.455 277.372 24.464 277.326 24.4685V25.5116H277.487Z" fill="#1A1919"/>
<path fill-rule="evenodd" clip-rule="evenodd" d="M281.433 26.1143L281.439 26.1072V24.7573C281.439 24.4618 281.235 24.4186 281.127 24.4186H281.048V24.3105C281.217 24.3105 281.382 24.3248 281.552 24.3248C281.7 24.3248 281.846 24.3105 281.995 24.3105V24.4186H281.941C281.79 24.4186 281.621 24.4473 281.621 24.8759V26.5142C281.621 26.6404 281.624 26.7664 281.642 26.8781H281.505L279.651 24.8109V26.2947C279.651 26.6083 279.712 26.7158 279.989 26.7158H280.051V26.824C279.896 26.824 279.741 26.81 279.586 26.81C279.423 26.81 279.258 26.824 279.096 26.824V26.7158H279.146C279.395 26.7158 279.471 26.5465 279.471 26.2593V24.7422C279.471 24.5407 279.305 24.4186 279.143 24.4186H279.096V24.3105C279.233 24.3105 279.374 24.3248 279.511 24.3248C279.618 24.3248 279.723 24.3105 279.831 24.3105L281.433 26.1143Z" fill="#1A1919"/>
<path fill-rule="evenodd" clip-rule="evenodd" d="M281.642 26.8929L281.494 26.8878L279.666 24.8513V26.2942C279.67 26.6078 279.718 26.6965 279.989 26.6999H280.066V26.839H280.05C279.894 26.839 279.74 26.824 279.585 26.824C279.425 26.824 279.258 26.839 279.096 26.839H279.08V26.6999H279.146C279.384 26.6989 279.452 26.5456 279.455 26.258V24.7418C279.454 24.5499 279.297 24.4339 279.143 24.4339H279.08V24.2944H279.096C279.234 24.2944 279.375 24.3085 279.511 24.3085C279.616 24.3085 279.721 24.2944 279.841 24.2991L281.424 26.0813V24.7569C281.423 24.471 281.232 24.4355 281.127 24.4339H281.032V24.2944H281.048C281.218 24.2944 281.384 24.3085 281.552 24.3085C281.699 24.3085 281.846 24.2944 281.995 24.2944H282.01V24.4339H281.941C281.792 24.4374 281.639 24.4508 281.636 24.8755V26.5138C281.636 26.6399 281.639 26.7647 281.657 26.8751L281.659 26.8929H281.642ZM281.505 26.8615H281.623C281.608 26.7538 281.604 26.6336 281.604 26.5138V24.8755C281.605 24.4433 281.787 24.4032 281.941 24.4022H281.979V24.3256C281.837 24.3268 281.695 24.3398 281.552 24.3398C281.387 24.3398 281.226 24.3268 281.063 24.3256V24.4022H281.127C281.238 24.4032 281.456 24.4517 281.456 24.7569L281.451 26.1181L281.444 26.1251L281.433 26.1369L279.831 24.3256C279.724 24.3256 279.619 24.3398 279.511 24.3398C279.377 24.3398 279.242 24.3268 279.112 24.3256V24.4022H279.143C279.313 24.4032 279.486 24.5309 279.486 24.7418V26.258C279.486 26.5469 279.404 26.7309 279.146 26.7319L279.112 26.7316V26.808C279.267 26.807 279.427 26.7937 279.585 26.7937C279.736 26.7937 279.886 26.807 280.035 26.808V26.7319H279.989C279.706 26.7316 279.635 26.6078 279.634 26.2942V24.7707L281.505 26.8615ZM281.424 26.1068V26.1059L281.422 26.1031L281.424 26.1068Z" fill="#1A1919"/>
<path fill-rule="evenodd" clip-rule="evenodd" d="M282.574 26.3087C282.538 26.4306 282.494 26.5253 282.494 26.5892C282.494 26.6975 282.646 26.7154 282.764 26.7154H282.805V26.8235C282.66 26.8157 282.513 26.8096 282.368 26.8096C282.239 26.8096 282.11 26.8157 281.98 26.8235V26.7154H282.002C282.142 26.7154 282.261 26.6324 282.314 26.4811L282.89 24.8289C282.938 24.6953 283.002 24.5154 283.024 24.3818C283.139 24.3424 283.283 24.2709 283.352 24.2271C283.363 24.2234 283.369 24.2197 283.38 24.2197C283.391 24.2197 283.398 24.2197 283.406 24.231C283.416 24.2596 283.427 24.292 283.438 24.3208L284.101 26.2043C284.144 26.3299 284.187 26.4631 284.233 26.5718C284.277 26.6727 284.353 26.7154 284.472 26.7154H284.493V26.8235C284.331 26.8157 284.169 26.8096 283.997 26.8096C283.82 26.8096 283.64 26.8157 283.456 26.8235V26.7154H283.496C283.578 26.7154 283.719 26.7011 283.719 26.611C283.719 26.5645 283.687 26.4672 283.647 26.3515L283.506 25.934H282.689L282.574 26.3087ZM283.1 24.7134H283.092L282.758 25.7326H283.43L283.1 24.7134Z" fill="#1A1919"/>
<path fill-rule="evenodd" clip-rule="evenodd" d="M284.492 26.8392C284.331 26.8323 284.168 26.8242 283.997 26.8242C283.82 26.8242 283.641 26.8323 283.457 26.8392L283.44 26.84V26.6994H283.496C283.579 26.6994 283.703 26.6807 283.703 26.6113C283.704 26.5703 283.672 26.4716 283.632 26.3571L283.495 25.9497H282.701L282.589 26.3136C282.552 26.4361 282.509 26.5312 282.509 26.5898C282.511 26.6777 282.645 26.6994 282.764 26.6994H282.82V26.84L282.803 26.8392C282.66 26.8323 282.513 26.8242 282.369 26.8242C282.24 26.8242 282.11 26.8323 281.981 26.8392L281.964 26.84V26.6994H282.002C282.135 26.6991 282.247 26.6226 282.299 26.4763L282.876 24.8236C282.922 24.6903 282.988 24.5112 283.019 24.3673C283.132 24.329 283.277 24.2563 283.346 24.2128C283.356 24.2093 283.366 24.2047 283.38 24.2047C283.389 24.2041 283.409 24.2065 283.42 24.2253C283.43 24.2549 283.442 24.2871 283.453 24.3162L284.116 26.1994C284.158 26.3255 284.201 26.4585 284.248 26.5653C284.29 26.6612 284.356 26.6991 284.472 26.6994H284.508V26.84L284.492 26.8392ZM283.472 26.8072C283.65 26.8009 283.825 26.794 283.997 26.794C284.164 26.794 284.321 26.8009 284.477 26.8072V26.7318H284.472C284.348 26.7326 284.263 26.6841 284.219 26.5779C284.172 26.4691 284.129 26.3355 284.086 26.2094L283.423 24.326C283.412 24.2972 283.402 24.265 283.393 24.2395C283.389 24.2359 283.39 24.2359 283.387 24.2359H283.38C283.373 24.2359 283.369 24.2381 283.359 24.2404C283.29 24.2854 283.146 24.3564 283.039 24.3844C283.017 24.5209 282.952 24.7008 282.905 24.8342L282.329 26.4866C282.274 26.6431 282.148 26.7321 282.002 26.7318H281.995V26.8072C282.119 26.8009 282.244 26.794 282.369 26.794C282.508 26.794 282.65 26.8009 282.788 26.8072V26.7318H282.764C282.647 26.7302 282.483 26.7174 282.479 26.5898C282.479 26.5184 282.523 26.4262 282.559 26.3045L282.677 25.9193H283.517L283.661 26.3469C283.702 26.4628 283.734 26.5587 283.734 26.6113C283.729 26.7216 283.577 26.7297 283.496 26.7318H283.472V26.8072ZM282.736 25.7484L283.08 24.6978H283.1H283.111L283.453 25.7484H282.736ZM282.779 25.7169H283.409L283.096 24.7521L282.779 25.7169Z" fill="#1A1919"/>
<path fill-rule="evenodd" clip-rule="evenodd" d="M284.652 24.4899C284.382 24.4899 284.371 24.5551 284.317 24.8176H284.208C284.222 24.7168 284.241 24.616 284.252 24.5116C284.266 24.4104 284.273 24.3099 284.273 24.2058H284.36C284.388 24.3139 284.479 24.3099 284.576 24.3099H286.434C286.531 24.3099 286.621 24.3063 286.628 24.1982L286.714 24.213C286.701 24.3099 286.686 24.4072 286.675 24.5046C286.667 24.6018 286.667 24.6988 286.667 24.796L286.56 24.836C286.553 24.703 286.535 24.4899 286.293 24.4899H285.703V26.4056C285.703 26.6834 285.829 26.7152 286.002 26.7152H286.07V26.8234C285.93 26.8234 285.678 26.8095 285.483 26.8095C285.268 26.8095 285.015 26.8234 284.874 26.8234V26.7152H284.943C285.142 26.7152 285.242 26.6974 285.242 26.4131V24.4899H284.652Z" fill="#1A1919"/>
<path fill-rule="evenodd" clip-rule="evenodd" d="M286.07 26.8394C285.929 26.8394 285.676 26.8251 285.483 26.8251C285.268 26.8251 285.016 26.8394 284.875 26.8394H284.859V26.7003H284.943C285.142 26.6956 285.221 26.6931 285.226 26.4137L285.226 24.506H284.652V24.4745H285.258V26.4137C285.258 26.7029 285.141 26.7314 284.943 26.7321H284.89V26.8086C285.032 26.8074 285.274 26.7942 285.483 26.7942C285.671 26.7942 285.912 26.8074 286.054 26.8086V26.7321H286.001C285.828 26.7314 285.688 26.6897 285.687 26.4063V24.4745H286.293C286.535 24.4755 286.567 24.6807 286.574 24.8147L286.652 24.786C286.652 24.6919 286.652 24.5978 286.66 24.5035C286.669 24.4108 286.683 24.3186 286.696 24.2267L286.642 24.2172C286.625 24.322 286.524 24.3278 286.434 24.3262H284.557C284.472 24.3272 284.381 24.3223 284.348 24.2216H284.289C284.288 24.3212 284.281 24.418 284.267 24.5139C284.257 24.6132 284.24 24.7085 284.226 24.8033H284.303C284.351 24.5521 284.382 24.4705 284.652 24.4745V24.506C284.385 24.5107 284.391 24.5559 284.332 24.8219L284.329 24.8342H284.19L284.192 24.8164C284.207 24.7151 284.225 24.6139 284.236 24.5102C284.25 24.4095 284.257 24.3096 284.257 24.2064V24.1905H284.371L284.374 24.2018C284.4 24.2926 284.465 24.2932 284.557 24.2948H286.434C286.534 24.2932 286.606 24.2919 286.613 24.198L286.613 24.1807L286.63 24.1839L286.732 24.2L286.73 24.2159C286.715 24.3126 286.701 24.4095 286.69 24.506C286.683 24.6025 286.683 24.6994 286.683 24.7966V24.8075L286.673 24.8117L286.545 24.8583L286.545 24.8375C286.535 24.702 286.521 24.506 286.293 24.506H285.718V26.4063C285.722 26.6778 285.83 26.6969 286.001 26.7003H286.085V26.8394H286.07Z" fill="#1A1919"/>
<path fill-rule="evenodd" clip-rule="evenodd" d="M286.847 26.7158H286.898C287.027 26.7158 287.164 26.6981 287.164 26.5106V24.6242C287.164 24.4366 287.027 24.4187 286.898 24.4187H286.847V24.3105C286.988 24.3105 287.203 24.3248 287.38 24.3248C287.56 24.3248 287.776 24.3105 287.946 24.3105V24.4187H287.895C287.765 24.4187 287.628 24.4366 287.628 24.6242V26.5106C287.628 26.6981 287.765 26.7158 287.895 26.7158H287.946V26.824C287.773 26.824 287.557 26.8101 287.377 26.8101C287.2 26.8101 286.988 26.824 286.847 26.824V26.7158Z" fill="#1A1919"/>
<path fill-rule="evenodd" clip-rule="evenodd" d="M287.946 26.839C287.772 26.839 287.556 26.824 287.377 26.824C287.201 26.824 286.988 26.839 286.847 26.839H286.832V26.6999H286.898C287.028 26.6977 287.147 26.6862 287.148 26.5102V24.6239C287.147 24.4479 287.028 24.4362 286.898 24.4339H286.832V24.2944H286.847C286.988 24.2944 287.205 24.3085 287.38 24.3085C287.559 24.3085 287.775 24.2944 287.946 24.2944H287.961V24.4339H287.895C287.764 24.4362 287.645 24.4479 287.644 24.6239V26.5102C287.645 26.6862 287.764 26.6977 287.895 26.6999H287.961V26.839H287.946ZM287.929 26.8079V26.7316H287.895C287.766 26.7316 287.613 26.709 287.613 26.5102V24.6239C287.613 24.4248 287.766 24.4025 287.895 24.4022H287.929V24.3256C287.764 24.3268 287.555 24.3398 287.38 24.3398C287.209 24.3398 287.003 24.3268 286.863 24.3256V24.4022H286.898C287.026 24.4025 287.179 24.4248 287.18 24.6239V26.5102C287.179 26.709 287.026 26.7316 286.898 26.7316H286.863V26.8079C287.002 26.8063 287.205 26.7937 287.377 26.7937C287.551 26.7937 287.76 26.807 287.929 26.8079Z" fill="#1A1919"/>
<path fill-rule="evenodd" clip-rule="evenodd" d="M289.382 24.2563C290.149 24.2563 290.761 24.7322 290.761 25.4991C290.761 26.3274 290.167 26.8779 289.4 26.8779C288.636 26.8779 288.053 26.3593 288.053 25.585C288.053 24.8364 288.633 24.2563 289.382 24.2563ZM289.436 26.7194C290.135 26.7194 290.257 26.1032 290.257 25.5782C290.257 25.0519 289.973 24.4148 289.375 24.4148C288.745 24.4148 288.557 24.9767 288.557 25.4588C288.557 26.1032 288.853 26.7194 289.436 26.7194Z" fill="#1A1919"/>
<path fill-rule="evenodd" clip-rule="evenodd" d="M288.037 25.585C288.039 24.8277 288.625 24.2419 289.381 24.2407V24.2722C288.641 24.2722 288.069 24.8444 288.068 25.585C288.069 26.3506 288.644 26.8615 289.4 26.8617C290.159 26.8615 290.745 26.3188 290.746 25.4986C290.745 24.7412 290.143 24.2729 289.381 24.2722V24.2407C290.155 24.2415 290.775 24.722 290.777 25.4986C290.776 26.3355 290.174 26.8917 289.4 26.8931C288.63 26.8917 288.039 26.3679 288.037 25.585ZM288.542 25.4588C288.543 24.9742 288.732 24.3988 289.375 24.3988C289.986 24.4002 290.271 25.0491 290.272 25.5782C290.271 26.1032 290.148 26.7342 289.436 26.7342V26.7036C290.121 26.7031 290.24 26.1032 290.241 25.5782C290.241 25.0565 289.96 24.4315 289.375 24.4305C288.757 24.4312 288.574 24.9792 288.573 25.4588C288.573 26.1002 288.866 26.7027 289.436 26.7036V26.7342C288.839 26.7336 288.543 26.107 288.542 25.4588Z" fill="#1A1919"/>
<path fill-rule="evenodd" clip-rule="evenodd" d="M293.187 26.1143L293.195 26.1072V24.7573C293.195 24.4618 292.989 24.4186 292.881 24.4186H292.803V24.3105C292.971 24.3105 293.137 24.3248 293.306 24.3248C293.454 24.3248 293.602 24.3105 293.75 24.3105V24.4186H293.695C293.545 24.4186 293.375 24.4473 293.375 24.8759V26.5142C293.375 26.6404 293.378 26.7664 293.397 26.8781H293.26L291.405 24.8109V26.2947C291.405 26.6083 291.466 26.7158 291.743 26.7158H291.805V26.824C291.65 26.824 291.495 26.81 291.341 26.81C291.178 26.81 291.013 26.824 290.85 26.824V26.7158H290.901C291.15 26.7158 291.225 26.5465 291.225 26.2593V24.7422C291.225 24.5407 291.06 24.4186 290.897 24.4186H290.85V24.3105C290.987 24.3105 291.128 24.3248 291.265 24.3248C291.373 24.3248 291.476 24.3105 291.585 24.3105L293.187 26.1143Z" fill="#1A1919"/>
<path fill-rule="evenodd" clip-rule="evenodd" d="M293.397 26.8929L293.248 26.8878L291.421 24.8513V26.2943C291.425 26.6078 291.472 26.696 291.743 26.6992H291.82V26.839H291.805C291.649 26.839 291.495 26.8246 291.341 26.8246C291.179 26.8246 291.013 26.839 290.85 26.839H290.835V26.6992H290.901C291.138 26.6985 291.207 26.5456 291.21 26.2588V24.7418C291.209 24.5499 291.052 24.4339 290.897 24.4339H290.835V24.2944H290.85C290.988 24.2944 291.129 24.3085 291.265 24.3085C291.371 24.3085 291.475 24.2944 291.597 24.3L293.179 26.0813V24.7569C293.178 24.471 292.986 24.4362 292.881 24.4339H292.786V24.2944H292.803C292.972 24.2944 293.138 24.3085 293.306 24.3085C293.453 24.3085 293.6 24.2944 293.75 24.2944H293.765V24.4339H293.695C293.547 24.4377 293.394 24.4513 293.391 24.8755V26.5138C293.391 26.6399 293.394 26.7656 293.411 26.8751L293.414 26.8929H293.397ZM293.26 26.8615H293.378C293.363 26.7531 293.359 26.6336 293.359 26.5138V24.8755C293.359 24.4426 293.541 24.4032 293.695 24.4022H293.734V24.3256C293.591 24.3268 293.45 24.3398 293.306 24.3398C293.142 24.3398 292.981 24.3268 292.818 24.3256V24.4022H292.881C292.992 24.4032 293.21 24.4524 293.21 24.7569L293.206 26.1181L293.199 26.1251L293.188 26.1369L291.585 24.3256C291.479 24.3256 291.374 24.3398 291.265 24.3398C291.132 24.3398 290.997 24.3268 290.866 24.3256V24.4022H290.897C291.067 24.4032 291.241 24.5309 291.241 24.7418V26.2588C291.241 26.5469 291.16 26.7309 290.901 26.7319L290.866 26.7316V26.808C291.022 26.807 291.182 26.7937 291.341 26.7937C291.491 26.7937 291.64 26.807 291.789 26.808V26.7319H291.743C291.46 26.7316 291.389 26.6078 291.389 26.2943V24.7701L293.26 26.8615ZM293.179 26.1068V26.1059L293.176 26.1031L293.179 26.1068Z" fill="#1A1919"/>
<path fill-rule="evenodd" clip-rule="evenodd" d="M294.328 26.3087C294.293 26.4306 294.249 26.5253 294.249 26.5892C294.249 26.6975 294.401 26.7154 294.519 26.7154H294.559V26.8235C294.415 26.8157 294.267 26.8096 294.123 26.8096C293.993 26.8096 293.864 26.8157 293.735 26.8235V26.7154H293.755C293.897 26.7154 294.016 26.6324 294.068 26.4811L294.646 24.8289C294.692 24.6953 294.757 24.5154 294.778 24.3818C294.894 24.3424 295.037 24.2709 295.107 24.2271C295.117 24.2234 295.124 24.2197 295.135 24.2197C295.146 24.2197 295.153 24.2197 295.16 24.231C295.171 24.2596 295.182 24.292 295.193 24.3208L295.855 26.2043C295.898 26.3299 295.942 26.4631 295.989 26.5718C296.032 26.6727 296.107 26.7154 296.226 26.7154H296.248V26.8235C296.086 26.8157 295.924 26.8096 295.751 26.8096C295.575 26.8096 295.394 26.8157 295.21 26.8235V26.7154H295.25C295.333 26.7154 295.474 26.7011 295.474 26.611C295.474 26.5645 295.442 26.4672 295.401 26.3515L295.261 25.934H294.444L294.328 26.3087ZM294.855 24.7134H294.847L294.512 25.7326H295.186L294.855 24.7134Z" fill="#1A1919"/>
<path fill-rule="evenodd" clip-rule="evenodd" d="M296.247 26.8395C296.084 26.833 295.923 26.825 295.751 26.825C295.575 26.825 295.395 26.833 295.211 26.8395L295.195 26.8403V26.7003H295.25C295.334 26.7003 295.458 26.6809 295.458 26.6116C295.459 26.5705 295.426 26.4723 295.386 26.3574L295.249 25.95H294.454L294.343 26.3139C294.307 26.4372 294.264 26.5314 294.265 26.5897C294.265 26.6779 294.4 26.7003 294.519 26.7003H294.574V26.8403L294.558 26.8395C294.414 26.833 294.266 26.825 294.123 26.825C293.994 26.825 293.865 26.833 293.735 26.8395L293.719 26.8403V26.7003H293.755C293.89 26.6996 294.002 26.6227 294.055 26.4766L294.63 24.8239C294.677 24.6906 294.742 24.5115 294.773 24.3681C294.886 24.3288 295.031 24.2566 295.101 24.2131C295.11 24.2095 295.12 24.2052 295.135 24.2052C295.145 24.2044 295.163 24.2067 295.174 24.2263C295.185 24.2547 295.196 24.2874 295.208 24.3164L295.87 26.1996C295.913 26.3257 295.956 26.4588 296.003 26.5662C296.045 26.6614 296.11 26.6993 296.226 26.7003H296.263V26.8403L296.247 26.8395ZM295.226 26.8077C295.404 26.8011 295.579 26.7942 295.751 26.7942C295.918 26.7942 296.075 26.8011 296.232 26.8074L296.232 26.732H296.226C296.104 26.7323 296.019 26.6843 295.974 26.5782C295.926 26.4694 295.884 26.3357 295.84 26.21L295.178 24.3262C295.167 24.2975 295.156 24.2653 295.147 24.2403C295.144 24.2362 295.145 24.2362 295.142 24.2362H295.135C295.127 24.2362 295.124 24.2386 295.115 24.241C295.044 24.2851 294.9 24.3573 294.794 24.3847C294.772 24.5211 294.706 24.7008 294.66 24.8345L294.083 26.4868C294.028 26.6434 293.903 26.7323 293.755 26.732H293.75V26.8074C293.874 26.8011 293.998 26.7942 294.123 26.7942C294.262 26.7942 294.405 26.8011 294.543 26.8074V26.732H294.519C294.402 26.7304 294.238 26.718 294.233 26.5897C294.234 26.5186 294.278 26.4268 294.314 26.3048L294.432 25.9196H295.271L295.416 26.3471C295.456 26.463 295.488 26.5589 295.488 26.6116C295.483 26.7218 295.332 26.73 295.25 26.732H295.226V26.8077ZM294.49 25.7485L294.836 24.698H294.855H294.866L295.206 25.7485H294.49ZM294.534 25.7172H295.164L294.85 24.7529L294.534 25.7172Z" fill="#1A1919"/>
<path fill-rule="evenodd" clip-rule="evenodd" d="M297.155 26.4709C297.155 26.6156 297.255 26.6582 297.371 26.6733C297.518 26.684 297.68 26.684 297.847 26.6656C297.998 26.6475 298.127 26.5616 298.192 26.4709C298.249 26.3918 298.281 26.2909 298.304 26.2119H298.408C298.368 26.4172 298.318 26.619 298.274 26.824C297.958 26.824 297.64 26.8101 297.324 26.8101C297.007 26.8101 296.69 26.824 296.374 26.824V26.7158H296.423C296.553 26.7158 296.694 26.6981 296.694 26.4748V24.6242C296.694 24.4366 296.553 24.4186 296.423 24.4186H296.374V24.3105C296.564 24.3105 296.752 24.3248 296.942 24.3248C297.126 24.3248 297.306 24.3105 297.49 24.3105V24.4186H297.399C297.263 24.4186 297.155 24.4224 297.155 24.6132V26.4709Z" fill="#1A1919"/>
<path fill-rule="evenodd" clip-rule="evenodd" d="M298.275 26.839C297.957 26.839 297.64 26.8246 297.324 26.8246C297.007 26.8246 296.69 26.839 296.373 26.839H296.358V26.6999H296.423C296.554 26.6967 296.677 26.6876 296.679 26.4744V24.6232C296.677 24.4479 296.554 24.4362 296.423 24.4339H296.358V24.2944H296.373C296.565 24.2944 296.752 24.3085 296.942 24.3085C297.125 24.3085 297.305 24.2944 297.49 24.2944H297.504V24.4339H297.399C297.26 24.4374 297.173 24.4311 297.17 24.6128V26.4705C297.171 26.6051 297.259 26.6411 297.372 26.6572C297.435 26.6616 297.502 26.6638 297.571 26.6638C297.659 26.6638 297.751 26.6597 297.844 26.6499C297.991 26.6325 298.117 26.5477 298.179 26.4619C298.235 26.3848 298.266 26.2862 298.288 26.2078L298.291 26.1959H298.427L298.423 26.2149C298.383 26.4207 298.333 26.6216 298.289 26.8269L298.287 26.839H298.275ZM298.261 26.8079C298.303 26.6123 298.35 26.4211 298.389 26.2269H298.315C298.293 26.3052 298.261 26.4019 298.204 26.4802C298.137 26.5735 298.003 26.6616 297.847 26.6809C297.753 26.6905 297.659 26.6953 297.571 26.6953C297.502 26.6953 297.434 26.6922 297.369 26.6876C297.252 26.6748 297.138 26.6245 297.138 26.4705V24.6128C297.138 24.4126 297.265 24.4022 297.399 24.4022H297.474V24.3256C297.296 24.3268 297.121 24.3403 296.942 24.3403C296.756 24.3403 296.573 24.3268 296.389 24.3256V24.4022H296.423C296.552 24.4022 296.709 24.4248 296.709 24.6232V26.4744C296.709 26.7075 296.552 26.7316 296.423 26.7316H296.389V26.8079C296.7 26.8072 297.011 26.7937 297.324 26.7937C297.637 26.7937 297.95 26.8072 298.261 26.8079Z" fill="#1A1919"/>
<path fill-rule="evenodd" clip-rule="evenodd" d="M275.874 11.5979C275.874 8.22983 278.604 5.49951 281.972 5.49951C285.34 5.49951 288.07 8.22983 288.07 11.5979C288.07 14.966 285.34 17.6965 281.972 17.6965C278.604 17.6965 275.874 14.966 275.874 11.5979Z" fill="#FFFFFE"/>
<path fill-rule="evenodd" clip-rule="evenodd" d="M285.66 11.4783C285.658 9.91658 284.681 8.58467 283.306 8.05721V14.8991C284.681 14.371 285.658 13.0403 285.66 11.4783ZM280.682 14.8978V8.05789C279.307 8.58702 278.333 9.91704 278.329 11.4783C278.333 13.0392 279.307 14.3691 280.682 14.8978ZM281.995 5.69528C278.801 5.69651 276.213 8.28456 276.213 11.4783C276.213 14.6717 278.801 17.2593 281.995 17.2598C285.188 17.2593 287.776 14.6717 287.777 11.4783C287.776 8.28456 285.188 5.69651 281.995 5.69528ZM281.98 17.8056C278.486 17.8222 275.609 14.9908 275.609 11.5443C275.609 7.77752 278.486 5.17217 281.98 5.17285H283.618C287.072 5.17217 290.224 7.7763 290.224 11.5443C290.224 14.9896 287.072 17.8056 283.618 17.8056H281.98Z" fill="#0069AA"/>
<path fill-rule="evenodd" clip-rule="evenodd" d="M267.464 26.7158H267.515C267.644 26.7158 267.781 26.6981 267.781 26.5106V24.6242C267.781 24.4366 267.644 24.4187 267.515 24.4187H267.464V24.3105C267.604 24.3105 267.82 24.3248 267.997 24.3248C268.177 24.3248 268.393 24.3105 268.562 24.3105V24.4187H268.511C268.383 24.4187 268.245 24.4366 268.245 24.6242V26.5106C268.245 26.6981 268.383 26.7158 268.511 26.7158H268.562V26.824C268.39 26.824 268.173 26.8101 267.994 26.8101C267.817 26.8101 267.604 26.824 267.464 26.824V26.7158Z" fill="#1A1919"/>
<path fill-rule="evenodd" clip-rule="evenodd" d="M268.562 26.839C268.388 26.839 268.173 26.8246 267.993 26.8246C267.817 26.8246 267.605 26.839 267.464 26.839H267.448V26.6999H267.514C267.645 26.6967 267.764 26.6862 267.765 26.5102V24.6239C267.764 24.4476 267.645 24.4362 267.514 24.4339H267.448V24.2944H267.464C267.605 24.2944 267.821 24.3085 267.997 24.3085C268.176 24.3085 268.392 24.2944 268.562 24.2944H268.578V24.4339H268.512C268.381 24.4362 268.262 24.4476 268.261 24.6239V26.5102C268.262 26.6862 268.381 26.6967 268.512 26.6999H268.578V26.839H268.562ZM268.547 26.8082L268.547 26.7316H268.512C268.383 26.7316 268.23 26.709 268.229 26.5102V24.6239C268.23 24.4248 268.383 24.4025 268.512 24.4025H268.547V24.3256C268.381 24.3258 268.172 24.3403 267.997 24.3403C267.826 24.3403 267.619 24.3268 267.48 24.3256V24.4025H267.514C267.643 24.4025 267.796 24.4248 267.796 24.6239V26.5102C267.796 26.709 267.643 26.7316 267.514 26.7316H267.48V26.8082C267.619 26.807 267.823 26.7937 267.993 26.7937C268.169 26.7937 268.377 26.8072 268.547 26.8082Z" fill="#1A1919"/>
<path fill-rule="evenodd" clip-rule="evenodd" d="M298.364 24.208C298.581 24.208 298.743 24.3748 298.743 24.588C298.743 24.801 298.581 24.9661 298.364 24.9661C298.147 24.9661 297.985 24.801 297.985 24.588C297.985 24.3748 298.147 24.208 298.364 24.208ZM298.364 24.8956C298.534 24.8956 298.664 24.751 298.664 24.588C298.664 24.4247 298.535 24.279 298.364 24.279C298.193 24.279 298.063 24.4247 298.063 24.588C298.063 24.751 298.193 24.8956 298.364 24.8956ZM298.175 24.788V24.7695C298.222 24.7629 298.23 24.7641 298.23 24.7358V24.4547C298.23 24.4152 298.226 24.4015 298.177 24.4037V24.3844H298.371C298.437 24.3844 298.499 24.4162 298.499 24.4852C298.499 24.5416 298.462 24.5834 298.409 24.5996L298.472 24.6865C298.501 24.7258 298.534 24.7629 298.555 24.776V24.788H298.481C298.446 24.788 298.415 24.7136 298.345 24.6136H298.303V24.7393C298.303 24.7641 298.312 24.7629 298.358 24.7695V24.788H298.175ZM298.303 24.588H298.348C298.397 24.588 298.419 24.5511 298.419 24.4913C298.419 24.431 298.384 24.4096 298.345 24.4096H298.303V24.588Z" fill="#1A1919"/>
<defs>
<radialGradient id="paint0_radial_4025_2742" cx="0" cy="0" r="1" gradientUnits="userSpaceOnUse" gradientTransform="translate(115.29 13.2071) scale(6.25008 6.47758)">
<stop stop-color="#FFCC00"/>
<stop offset="0.0901961" stop-color="#FFC800"/>
<stop offset="0.168627" stop-color="#FFBD00"/>
<stop offset="0.25098" stop-color="#FFAB00"/>
<stop offset="0.329412" stop-color="#FF9100"/>
<stop offset="0.4" stop-color="#FF7000"/>
<stop offset="0.478431" stop-color="#FF4700"/>
<stop offset="0.54902" stop-color="#FF1800"/>
<stop offset="0.580392" stop-color="#FF0000"/>
<stop offset="1" stop-color="#FF0000"/>
</radialGradient>
<radialGradient id="paint1_radial_4025_2742" cx="0" cy="0" r="1" gradientUnits="userSpaceOnUse" gradientTransform="translate(112.008 13.5324) scale(5.73187 6.01069)">
<stop stop-color="#00B4E6"/>
<stop offset="0.2" stop-color="#00B0E3"/>
<stop offset="0.388235" stop-color="#01A5DB"/>
<stop offset="0.568627" stop-color="#0292CD"/>
<stop offset="0.74902" stop-color="#0377BA"/>
<stop offset="0.929412" stop-color="#0455A1"/>
<stop offset="1" stop-color="#054696"/>
</radialGradient>
<linearGradient id="paint2_linear_4025_2742" x1="235.96" y1="16.0649" x2="242.781" y2="16.0649" gradientUnits="userSpaceOnUse">
<stop stop-color="#007940"/>
<stop offset="0.2285" stop-color="#00873F"/>
<stop offset="0.7433" stop-color="#40A737"/>
<stop offset="1" stop-color="#5CB531"/>
</linearGradient>
<linearGradient id="paint3_linear_4025_2742" x1="235.959" y1="15.0012" x2="242.781" y2="15.0012" gradientUnits="userSpaceOnUse">
<stop stop-color="#007940"/>
<stop offset="0.2285" stop-color="#00873F"/>
<stop offset="0.7433" stop-color="#40A737"/>
<stop offset="1" stop-color="#5CB531"/>
</linearGradient>
<linearGradient id="paint4_linear_4025_2742" x1="235.959" y1="13.8447" x2="242.781" y2="13.8447" gradientUnits="userSpaceOnUse">
<stop stop-color="#007940"/>
<stop offset="0.2285" stop-color="#00873F"/>
<stop offset="0.7433" stop-color="#40A737"/>
<stop offset="1" stop-color="#5CB531"/>
</linearGradient>
<linearGradient id="paint5_linear_4025_2742" x1="220.689" y1="15.0012" x2="227.615" y2="15.0012" gradientUnits="userSpaceOnUse">
<stop stop-color="#1F286F"/>
<stop offset="0.4751" stop-color="#004E94"/>
<stop offset="0.8261" stop-color="#0066B1"/>
<stop offset="1" stop-color="#006FBC"/>
</linearGradient>
<linearGradient id="paint6_linear_4025_2742" x1="228.288" y1="15.0012" x2="235.015" y2="15.0012" gradientUnits="userSpaceOnUse">
<stop stop-color="#6C2C2F"/>
<stop offset="0.1735" stop-color="#882730"/>
<stop offset="0.5731" stop-color="#BE1833"/>
<stop offset="0.8585" stop-color="#DC0436"/>
<stop offset="1" stop-color="#E60039"/>
</linearGradient>
<clipPath id="clip0_4025_2742">
<rect width="25" height="19.2926" fill="white" transform="translate(219.227 5.354)"/>
</clipPath>
</defs>
</svg>
