<svg width="203" height="29" viewBox="0 0 203 29" fill="none" xmlns="http://www.w3.org/2000/svg">
<g clip-path="url(#clip0_138_3958)">
<path d="M0.398438 2.5435C0.398438 1.93523 0.640073 1.35186 1.07018 0.921745C1.50029 0.491634 2.08365 0.25 2.69192 0.25H42.1684C42.7767 0.25 43.3601 0.491634 43.7902 0.921745C44.2203 1.35186 44.4619 1.93523 44.4619 2.5435V25.4664C44.4619 26.0746 44.2203 26.658 43.7902 27.0881C43.3601 27.5182 42.7767 27.7598 42.1684 27.7598H2.69192C2.08365 27.7598 1.50029 27.5182 1.07018 27.0881C0.64007 26.658 0.398438 26.0746 0.398438 25.4664V2.5435Z" fill="white" stroke="#BCBCBC" stroke-width="0.5"/>
<path fill-rule="evenodd" clip-rule="evenodd" d="M18.4102 18.4649L19.8459 9.56055H22.1413L20.7056 18.4649H18.4102Z" fill="#26337A"/>
<path d="M29.0266 9.77848C28.5726 9.59981 27.86 9.4043 26.9708 9.4043C24.7027 9.4043 23.1052 10.613 23.0926 12.343C23.0778 13.6231 24.2319 14.3357 25.1021 14.7625C25.9955 15.1976 26.2961 15.4771 26.294 15.8681C26.2877 16.463 25.5793 16.7363 24.9213 16.7363C24.0027 16.7363 23.5151 16.6017 22.7604 16.2696L22.4661 16.1288L22.1445 18.1215C22.6806 18.3696 23.6706 18.584 24.7006 18.5966C27.1117 18.5966 28.6777 17.4026 28.6966 15.5549C28.705 14.5396 28.0933 13.7703 26.769 13.1355C25.9682 12.7214 25.4742 12.4481 25.4805 12.0298C25.4805 11.6598 25.8967 11.2646 26.7943 11.2646C27.5447 11.252 28.0891 11.4244 28.5116 11.6073L28.7176 11.7082L29.0287 9.77848" fill="#26337A"/>
<path d="M32.0798 15.307L32.9942 12.8181C32.9816 12.8413 33.1834 12.301 33.299 11.9689L33.4546 12.7362L33.9864 15.307H32.0819H32.0798ZM34.9113 9.56836H33.1371C32.5864 9.56836 32.1765 9.72601 31.9348 10.3062L28.5273 18.4663H30.9363L31.4177 17.1294L34.3563 17.1336L34.6359 18.4663H36.7653L34.9092 9.56836H34.9113Z" fill="#26337A"/>
<path d="M16.4832 9.56592L14.2382 15.6366L13.9986 14.4027C13.5803 12.9817 12.277 11.441 10.8203 10.6674L12.874 18.4555H15.3019L18.9153 9.56592H16.4832Z" fill="#26337A"/>
<path d="M12.1548 9.56006H8.45521L8.42578 9.74503C11.3056 10.4829 13.2101 12.2633 14.0004 14.4032L13.1953 10.3126C13.0566 9.74714 12.653 9.58108 12.1548 9.56006Z" fill="#EC982D"/>
<path d="M52.8945 2.54317C52.8945 1.93498 53.1361 1.35171 53.5662 0.921653C53.9963 0.491599 54.5795 0.25 55.1877 0.25H94.6651C95.2733 0.25 95.8566 0.491599 96.2866 0.921653C96.7167 1.35171 96.9583 1.93498 96.9583 2.54317V25.4678C96.9583 26.076 96.7167 26.6593 96.2866 27.0893C95.8566 27.5194 95.2733 27.761 94.6651 27.761H55.1877C54.5795 27.761 53.9963 27.5194 53.5662 27.0893C53.1361 26.6593 52.8945 26.076 52.8945 25.4678V2.54317Z" fill="white" stroke="#BCBCBC" stroke-width="0.5"/>
<path d="M86.0181 22.8208V22.8675H86.0612C86.0869 22.8593 86.0893 22.857 86.0904 22.8535C86.0893 22.8302 86.0869 22.8278 86.0834 22.8267L86.0181 22.8208ZM86.0612 22.7882C86.0799 22.787 86.0986 22.7928 86.1126 22.8033C86.1301 22.829 86.1312 22.836 86.1312 22.8442C86.1254 22.8698 86.1219 22.8757 86.1161 22.8803C86.1102 22.885 86.0904 22.8967 86.0753 22.8978L86.1336 22.9632H86.0881L86.0356 22.8978H86.0181V22.9632H85.9807V22.7882H86.0624H86.0612ZM86.0496 23.0238C86.0694 23.0238 86.0881 23.0203 86.1067 23.0122C86.1254 23.004 86.1394 22.9947 86.1522 22.9807C86.1651 22.9667 86.1767 22.9515 86.1837 22.934C86.1989 22.8978 86.1989 22.8558 86.1837 22.8197C86.1767 22.8022 86.1662 22.787 86.1522 22.773C86.1393 22.7596 86.1238 22.7489 86.1067 22.7415C86.0881 22.7345 86.0694 22.731 86.0496 22.731C86.0298 22.731 86.0099 22.7345 85.9924 22.7415C85.9749 22.7485 85.9586 22.759 85.9446 22.773C85.9248 22.794 85.9107 22.8208 85.9049 22.8488C85.8991 22.8768 85.9026 22.9072 85.9143 22.934C85.9213 22.9515 85.9318 22.9667 85.9446 22.9807C85.9574 22.9947 85.9749 23.0052 85.9924 23.0122C86.0099 23.0192 86.0298 23.0238 86.0496 23.0238ZM86.0496 22.6902C86.1009 22.6902 86.1488 22.71 86.1849 22.745C86.2024 22.7625 86.2164 22.7823 86.2269 22.8045C86.2374 22.8267 86.2409 22.8523 86.2409 22.878C86.2409 22.9037 86.2362 22.9282 86.2269 22.9515C86.2176 22.9748 86.2024 22.9947 86.1849 23.011C86.1674 23.0273 86.1476 23.0413 86.1243 23.0518C86.1009 23.0623 86.0753 23.067 86.0496 23.067C86.0239 23.067 85.9983 23.0623 85.9738 23.0518C85.9512 23.0421 85.9306 23.0282 85.9131 23.011C85.8956 22.9935 85.8816 22.9725 85.8723 22.9492C85.8629 22.9258 85.8571 22.9013 85.8571 22.8757C85.8571 22.85 85.8629 22.8255 85.8723 22.8022C85.8816 22.7788 85.8956 22.759 85.9131 22.7427C85.9306 22.7263 85.9516 22.7112 85.9749 22.7018C85.9988 22.6915 86.0247 22.6864 86.0507 22.6867L86.0496 22.689V22.6902ZM68.3653 22.0147C68.3653 21.6811 68.5834 21.4081 68.9404 21.4081C69.281 21.4081 69.5108 21.6706 69.5108 22.0147C69.5108 22.3589 69.281 22.6213 68.9404 22.6213C68.5834 22.6213 68.3653 22.3472 68.3653 22.0147ZM69.9005 22.0147V21.0663H69.4875V21.2973C69.3568 21.1269 69.1585 21.0196 68.889 21.0196C68.3582 21.0196 67.9406 21.4361 67.9406 22.0147C67.9406 22.5933 68.3571 23.0098 68.889 23.0098C69.1585 23.0098 69.3568 22.9025 69.4875 22.7322V22.962H69.8993V22.0136L69.9005 22.0147ZM83.8272 22.0147C83.8272 21.6811 84.0454 21.4081 84.4023 21.4081C84.7442 21.4081 84.974 21.6706 84.974 22.0147C84.974 22.3589 84.7442 22.6213 84.4023 22.6213C84.0465 22.6213 83.8272 22.3472 83.8272 22.0147ZM85.3624 22.0147V20.3057H84.9506V21.2973C84.82 21.1269 84.6217 21.0196 84.351 21.0196C83.8202 21.0196 83.4038 21.4361 83.4038 22.0147C83.4038 22.5933 83.8202 23.0098 84.351 23.0098C84.6217 23.0098 84.82 22.9025 84.9506 22.7322V22.962H85.3624V22.0147ZM75.016 21.3883C75.282 21.3883 75.4523 21.5551 75.4955 21.8479H74.512C74.5563 21.5737 74.722 21.3883 75.016 21.3883ZM75.0241 21.0185C74.4688 21.0185 74.0804 21.4221 74.0804 22.0136C74.0804 22.6167 74.484 23.0087 75.0521 23.0087C75.3368 23.0087 75.5993 22.9375 75.8291 22.7427L75.6273 22.437C75.4674 22.5642 75.2656 22.6353 75.0755 22.6353C74.8095 22.6353 74.568 22.5129 74.5085 22.171H75.9154L75.9236 22.0124C75.9201 21.4209 75.5549 21.0185 75.0241 21.0185ZM80.0008 22.0136C80.0008 21.6799 80.219 21.4069 80.5759 21.4069C80.9166 21.4069 81.1464 21.6694 81.1464 22.0136C81.1464 22.3577 80.9166 22.6202 80.5759 22.6202C80.219 22.6202 80.0008 22.346 80.0008 22.0136ZM81.5349 22.0136V21.0663H81.1231V21.2973C80.9924 21.1269 80.7941 21.0196 80.5246 21.0196C79.9938 21.0196 79.5762 21.4361 79.5762 22.0147C79.5762 22.5933 79.9926 23.0098 80.5246 23.0098C80.7941 23.0098 80.9924 22.9025 81.1231 22.7322V22.962H81.5349V22.0136ZM77.6723 22.0136C77.6723 22.5887 78.0736 23.0087 78.6837 23.0087C78.9695 23.0087 79.1597 22.9457 79.365 22.7823L79.1679 22.4487C79.0127 22.5595 78.8506 22.619 78.6709 22.619C78.3419 22.6155 78.1004 22.3775 78.1004 22.0124C78.1004 21.6472 78.3419 21.4093 78.6709 21.4058C78.8494 21.4058 79.0127 21.4653 79.1679 21.5761L79.365 21.2424C79.1597 21.0803 78.9695 21.0161 78.6837 21.0161C78.0736 21.0161 77.6723 21.4361 77.6723 22.0112V22.0136ZM82.9873 21.0185C82.8866 21.0154 82.787 21.0396 82.6989 21.0885C82.6108 21.1374 82.5375 21.2091 82.4868 21.2961V21.0663H82.0785V22.962H82.4915V21.8992C82.4915 21.5854 82.6256 21.4116 82.8951 21.4116C82.9834 21.4103 83.071 21.4265 83.1529 21.4594L83.2801 21.0709C83.1858 21.0371 83.0863 21.0198 82.9861 21.0196L82.9873 21.0185ZM71.9373 21.2168C71.739 21.0861 71.466 21.0185 71.1651 21.0185C70.6844 21.0185 70.3753 21.2483 70.3753 21.6251C70.3753 21.9342 70.6051 22.1244 71.0297 22.1839L71.2246 22.2119C71.4497 22.2434 71.557 22.3029 71.557 22.4102C71.557 22.5572 71.4066 22.64 71.1254 22.64C70.8443 22.64 70.6331 22.549 70.4943 22.4417L70.3006 22.7637C70.5269 22.9305 70.8127 23.0098 71.1219 23.0098C71.669 23.0098 71.9863 22.752 71.9863 22.3915C71.9863 22.0579 71.7367 21.8841 71.3237 21.8246L71.1301 21.7966C70.9516 21.7732 70.8081 21.7371 70.8081 21.6111C70.8081 21.4723 70.9434 21.3894 71.1686 21.3894C71.4112 21.3894 71.6457 21.4804 71.76 21.5516L71.9385 21.2179L71.9373 21.2168ZM77.257 21.0185C77.019 21.0185 76.8639 21.1293 76.7577 21.2961V21.0651H76.3482V22.9608H76.7612V21.8981C76.7612 21.5842 76.8954 21.4104 77.1648 21.4104C77.2531 21.4091 77.3407 21.4254 77.4226 21.4583L77.5498 21.0698C77.4555 21.036 77.356 21.0186 77.2558 21.0185H77.257ZM73.7386 21.0663H73.0654V20.4912H72.6478V21.0663H72.264V21.4431H72.6478V22.3075C72.6478 22.7473 72.8193 23.0098 73.3069 23.0098C73.4892 23.0103 73.6679 22.9594 73.8225 22.8628L73.7036 22.5094C73.5799 22.5805 73.4458 22.6167 73.3384 22.6167C73.1319 22.6167 73.0654 22.4895 73.0654 22.2994V21.4431H73.7386V21.0663ZM67.5766 22.962V21.7721C67.5766 21.3241 67.2908 21.0231 66.83 21.0185C66.5885 21.015 66.3389 21.0896 66.1639 21.3556C66.0332 21.1456 65.8279 21.0185 65.5374 21.0185C65.3356 21.0185 65.1373 21.0779 64.9821 21.2996V21.0651H64.5703V22.9608H64.9856V21.9097C64.9856 21.5807 65.1688 21.4058 65.4499 21.4058C65.7241 21.4058 65.8629 21.5842 65.8629 21.9051V22.9597H66.2794V21.9086C66.2794 21.5796 66.4695 21.4046 66.7425 21.4046C67.0248 21.4046 67.159 21.5831 67.159 21.9039V22.9585L67.5766 22.9597V22.962Z" fill="#231F20"/>
<path d="M78.0506 17.8452H71.8047V6.61914H78.0518L78.0506 17.8452Z" fill="#FF5F00"/>
<path d="M72.1991 12.2331C72.1991 9.95592 73.2654 7.92722 74.9266 6.62064C73.669 5.63021 72.1151 5.09124 70.5145 5.09474C68.621 5.09474 66.805 5.84694 65.4661 7.18586C64.1272 8.52479 63.375 10.3408 63.375 12.2343C63.375 14.1278 64.1272 15.9438 65.4661 17.2827C66.805 18.6216 68.621 19.3738 70.5145 19.3738C72.1151 19.3761 73.669 18.8383 74.9266 17.8479C73.2654 16.5413 72.1991 14.5126 72.1991 12.2343V12.2331Z" fill="#EB001B"/>
<path d="M86.4762 12.2333C86.4762 14.1266 85.7242 15.9424 84.3855 17.2813C83.0468 18.6202 81.2312 19.3725 79.3378 19.3728C77.7373 19.3752 76.1822 18.8374 74.9258 17.8469C75.7761 17.1794 76.4634 16.3272 76.9357 15.3549C77.408 14.3825 77.653 13.3155 77.6521 12.2345C77.6532 11.1533 77.4083 10.086 76.9359 9.11341C76.4636 8.14085 75.7762 7.28848 74.9258 6.62082C76.1822 5.63039 77.7373 5.09142 79.3378 5.09376C81.2312 5.09407 83.0468 5.8464 84.3855 7.18529C85.7242 8.52418 86.4762 10.34 86.4762 12.2333Z" fill="#F79E1B"/>
<path d="M157.891 2.54317C157.891 1.93498 158.132 1.3517 158.562 0.921653C158.992 0.4916 159.576 0.25 160.184 0.25H199.661C200.269 0.25 200.853 0.4916 201.283 0.921653C201.713 1.3517 201.954 1.93498 201.954 2.54317V25.4678C201.954 26.076 201.713 26.6593 201.283 27.0893C200.853 27.5194 200.269 27.761 199.661 27.761H160.184C159.576 27.761 158.992 27.5194 158.562 27.0893C158.132 26.6593 157.891 26.076 157.891 25.4678V2.54317Z" fill="white" stroke="#BCBCBC" stroke-width="0.5"/>
<path d="M168.783 9.9034C168.37 9.43327 167.624 9.23145 166.67 9.23145H163.899C163.805 9.23124 163.713 9.26475 163.641 9.32594C163.57 9.38777 163.522 9.47176 163.507 9.56509L162.355 16.8796C162.349 16.9134 162.351 16.9484 162.361 16.9811C162.37 17.0138 162.386 17.0453 162.408 17.0709C162.431 17.0971 162.459 17.1181 162.49 17.1328C162.522 17.1468 162.555 17.1549 162.589 17.1549H164.299L164.729 14.4309L164.716 14.5161C164.73 14.4228 164.778 14.3376 164.849 14.2769C164.92 14.2156 165.011 14.1817 165.106 14.1813H165.919C167.515 14.1813 168.765 13.5327 169.13 11.6568L169.158 11.4946C169.267 10.8017 169.157 10.3292 168.783 9.90224" fill="#003087"/>
<path d="M189.716 13.3844C189.612 14.0703 189.089 14.0704 188.581 14.0704H188.293L188.495 12.7895C188.508 12.7125 188.574 12.6553 188.652 12.6553H188.785C189.131 12.6553 189.456 12.6553 189.624 12.8513C189.724 12.9692 189.755 13.1429 189.716 13.3844ZM189.496 11.5938H187.584C187.521 11.5938 187.459 11.6159 187.411 11.6579C187.363 11.6999 187.332 11.7559 187.321 11.8189L186.549 16.722C186.545 16.7453 186.547 16.7675 186.552 16.7896C186.558 16.8119 186.57 16.8329 186.585 16.8504C186.6 16.8679 186.618 16.8818 186.639 16.8911C186.66 16.9005 186.683 16.9052 186.705 16.9064H187.687C187.778 16.9064 187.857 16.8398 187.871 16.75L188.09 15.3595C188.11 15.23 188.222 15.1355 188.352 15.1355H188.958C190.217 15.1355 190.943 14.5266 191.134 13.318C191.22 12.7895 191.137 12.3742 190.89 12.0837C190.618 11.7641 190.136 11.5949 189.497 11.5949" fill="#009CDE"/>
<path d="M176.081 13.3844C175.976 14.0703 175.452 14.0704 174.944 14.0704H174.656L174.858 12.7895C174.871 12.7125 174.937 12.6553 175.015 12.6553H175.147C175.493 12.6553 175.819 12.6553 175.987 12.8513C176.088 12.9692 176.118 13.1429 176.081 13.3844ZM175.859 11.5938H173.947C173.816 11.5938 173.705 11.6894 173.684 11.8177L172.912 16.7208C172.909 16.7431 172.91 16.7664 172.916 16.7886C172.921 16.8107 172.933 16.8316 172.948 16.8491C172.963 16.8666 172.981 16.8807 173.002 16.8901C173.023 16.8999 173.046 16.905 173.07 16.9051H173.982C174.113 16.9051 174.225 16.8095 174.244 16.6812L174.453 15.3583C174.473 15.2288 174.585 15.1344 174.716 15.1344H175.321C176.581 15.1344 177.308 14.5254 177.497 13.3168C177.583 12.7883 177.5 12.373 177.253 12.0826C176.981 11.7629 176.499 11.5938 175.86 11.5938H175.859ZM180.299 15.1449C180.21 15.6675 179.795 16.0198 179.265 16.0198C178.999 16.0198 178.787 15.9346 178.651 15.7725C178.514 15.6103 178.464 15.384 178.507 15.1297C178.589 14.6106 179.011 14.2489 179.533 14.2489C179.793 14.2489 180.004 14.3352 180.144 14.4986C180.284 14.6619 180.339 14.8917 180.299 15.1449ZM181.575 13.3623H180.659C180.621 13.3623 180.585 13.3751 180.556 13.4008C180.526 13.4265 180.508 13.4603 180.502 13.4976L180.461 13.7531L180.397 13.6609C180.199 13.3728 179.758 13.2771 179.316 13.2771C178.304 13.2771 177.44 14.0436 177.272 15.1192C177.184 15.6558 177.309 16.168 177.613 16.5261C177.892 16.8551 178.291 16.9916 178.766 16.9916C179.582 16.9916 180.034 16.4678 180.034 16.4678L179.993 16.722C179.99 16.7453 179.991 16.7686 179.997 16.7908C180.003 16.8133 180.014 16.8341 180.029 16.8516C180.045 16.8691 180.062 16.8831 180.083 16.8924C180.104 16.9017 180.127 16.9064 180.151 16.9064H180.974C181.105 16.9064 181.217 16.8119 181.237 16.6824L181.733 13.5478C181.736 13.5245 181.735 13.5023 181.728 13.4801C181.722 13.4577 181.711 13.4369 181.695 13.4195C181.681 13.402 181.663 13.388 181.642 13.3786C181.621 13.3693 181.597 13.3646 181.575 13.3646" fill="#003087"/>
<path d="M193.937 15.1441C193.849 15.6667 193.433 16.019 192.904 16.019C192.639 16.019 192.426 15.9339 192.289 15.7717C192.153 15.6095 192.102 15.3832 192.146 15.1289C192.228 14.6098 192.65 14.2481 193.172 14.2481C193.432 14.2481 193.642 14.3345 193.782 14.4978C193.922 14.6611 193.977 14.8909 193.937 15.1441ZM195.214 13.3615H194.298C194.259 13.3615 194.223 13.3744 194.194 13.4C194.165 13.4257 194.146 13.4595 194.14 13.4969L194.1 13.7523L194.037 13.6602C193.838 13.372 193.396 13.2764 192.954 13.2764C191.944 13.2764 191.079 14.0428 190.91 15.1184C190.823 15.655 190.947 16.1672 191.252 16.5253C191.531 16.8543 191.93 16.9908 192.405 16.9908C193.221 16.9908 193.673 16.467 193.673 16.467L193.632 16.7213C193.628 16.7435 193.629 16.768 193.635 16.7901C193.641 16.8123 193.653 16.8333 193.668 16.8508C193.683 16.8683 193.702 16.8823 193.723 16.8916C193.744 16.901 193.766 16.9068 193.789 16.9056H194.613C194.676 16.9054 194.737 16.8828 194.786 16.8418C194.834 16.8008 194.866 16.7441 194.877 16.6816L195.371 13.547C195.375 13.5237 195.374 13.5015 195.367 13.4794C195.36 13.4572 195.35 13.4362 195.335 13.4187C195.32 13.4014 195.301 13.3875 195.28 13.3779C195.259 13.3685 195.236 13.3639 195.214 13.3639" fill="#009CDE"/>
<path d="M186.449 13.3623H185.529C185.441 13.3623 185.359 13.4055 185.31 13.479L184.04 15.349L183.501 13.5525C183.485 13.4976 183.452 13.4498 183.406 13.416C183.359 13.3821 183.304 13.3635 183.247 13.3635H182.343C182.317 13.3635 182.293 13.3693 182.269 13.381C182.246 13.3926 182.227 13.409 182.213 13.43C182.199 13.451 182.189 13.4743 182.185 13.5C182.182 13.5256 182.183 13.5501 182.191 13.5746L183.205 16.5494L182.252 17.8945C182.236 17.9178 182.225 17.947 182.223 17.9762C182.222 18.0052 182.228 18.0341 182.24 18.0602C182.254 18.0858 182.274 18.108 182.3 18.1232C182.325 18.1383 182.353 18.1465 182.383 18.1465H183.302C183.345 18.1462 183.387 18.1357 183.425 18.1158C183.463 18.0959 183.495 18.0673 183.52 18.0322L186.58 13.6143C186.597 13.591 186.607 13.563 186.609 13.5338C186.612 13.5046 186.604 13.4755 186.59 13.4498C186.576 13.4241 186.557 13.402 186.532 13.3868C186.508 13.3716 186.479 13.3623 186.449 13.3623Z" fill="#003087"/>
<path d="M196.291 11.7271L195.506 16.7201C195.502 16.7434 195.503 16.7656 195.51 16.7877C195.517 16.8099 195.527 16.8309 195.542 16.8484C195.557 16.8659 195.576 16.8799 195.597 16.8892C195.618 16.8986 195.64 16.9044 195.663 16.9044H196.453C196.584 16.9044 196.695 16.8087 196.716 16.6804L197.489 11.7772C197.493 11.7539 197.491 11.7306 197.484 11.7084C197.477 11.6862 197.468 11.6652 197.453 11.6478C197.438 11.6303 197.419 11.6163 197.398 11.6069C197.377 11.5976 197.355 11.5918 197.332 11.5929H196.448C196.41 11.5929 196.374 11.6069 196.345 11.6314C196.315 11.6559 196.297 11.6897 196.291 11.7271Z" fill="#009CDE"/>
<path d="M168.783 9.9034C168.37 9.43327 167.624 9.23145 166.67 9.23145H163.899C163.805 9.23124 163.713 9.26475 163.641 9.32594C163.57 9.38777 163.522 9.47176 163.507 9.56509L162.355 16.8796C162.349 16.9134 162.351 16.9484 162.361 16.9811C162.37 17.0138 162.386 17.0453 162.408 17.0709C162.431 17.0971 162.459 17.1181 162.49 17.1328C162.522 17.1468 162.555 17.1549 162.589 17.1549H164.299L164.729 14.4309L164.716 14.5161C164.73 14.4228 164.778 14.3376 164.849 14.2769C164.92 14.2156 165.011 14.1817 165.106 14.1813H165.919C167.515 14.1813 168.765 13.5327 169.13 11.6568L169.158 11.4946C169.267 10.8017 169.157 10.3292 168.783 9.90224" fill="#003087"/>
<path d="M165.191 11.5051C165.204 11.4239 165.246 11.35 165.308 11.2965C165.371 11.2429 165.45 11.2131 165.533 11.2123H167.705C167.944 11.2106 168.184 11.2278 168.421 11.2636C168.541 11.283 168.659 11.3095 168.776 11.343C168.909 11.3803 169.036 11.4316 169.158 11.4958C169.267 10.8028 169.157 10.3304 168.783 9.9034C168.37 9.43327 167.624 9.23145 166.67 9.23145H163.899C163.805 9.23145 163.714 9.26528 163.641 9.32711C163.569 9.38893 163.522 9.47293 163.507 9.56626L162.355 16.8808C162.349 16.9146 162.351 16.9496 162.361 16.9823C162.37 17.0149 162.386 17.0464 162.408 17.0721C162.431 17.0978 162.459 17.1188 162.49 17.1339C162.522 17.1491 162.555 17.1561 162.589 17.1561H164.299L164.729 14.4321L165.191 11.5051Z" fill="#003087"/>
<path d="M169.159 11.4953L169.131 11.6575C168.766 13.5333 167.515 14.182 165.919 14.182H165.106C165.012 14.1824 164.921 14.2163 164.85 14.2776C164.779 14.3395 164.731 14.4234 164.717 14.5168L164.3 17.1556L164.182 17.9046C164.178 17.9337 164.179 17.9641 164.187 17.9932C164.196 18.0218 164.21 18.0484 164.229 18.0714C164.249 18.0947 164.273 18.1122 164.3 18.125C164.327 18.1379 164.357 18.1437 164.388 18.1437H165.83C166 18.1437 166.145 18.0189 166.171 17.8509L166.185 17.7774L166.457 16.0555L166.475 15.9598C166.488 15.8782 166.53 15.8035 166.593 15.7499C166.656 15.6962 166.735 15.667 166.818 15.667H167.034C168.43 15.667 169.523 15.1001 169.843 13.4587C169.976 12.7727 169.907 12.2011 169.555 11.7986C169.442 11.6739 169.308 11.5707 169.159 11.4941" fill="#009CDE"/>
<path d="M168.778 11.3448L168.607 11.3005L168.424 11.2655C168.187 11.2289 167.947 11.2113 167.708 11.213H165.537C165.454 11.2135 165.374 11.2432 165.312 11.2968C165.249 11.3504 165.207 11.4244 165.194 11.5058L164.732 14.4316L164.719 14.5168C164.733 14.4235 164.781 14.3383 164.852 14.2776C164.923 14.2163 165.014 14.1824 165.108 14.182H165.921C167.517 14.182 168.768 13.5334 169.133 11.6575L169.161 11.4953C169.065 11.4452 168.964 11.402 168.861 11.3682L168.778 11.3425" fill="#012169"/>
<path d="M105.391 2.54317C105.391 1.93498 105.632 1.3517 106.062 0.921653C106.492 0.4916 107.076 0.25 107.684 0.25H147.161C147.769 0.25 148.353 0.4916 148.783 0.921653C149.213 1.3517 149.454 1.93498 149.454 2.54317V25.4678C149.454 26.076 149.213 26.6593 148.783 27.0893C148.353 27.5194 147.769 27.761 147.161 27.761H107.684C107.076 27.761 106.492 27.5194 106.062 27.0893C105.632 26.6593 105.391 26.076 105.391 25.4678V2.54317Z" fill="white" stroke="#BCBCBC" stroke-width="0.5"/>
<path d="M115.862 15.3548L116.662 16.2394L117.49 15.3609H118.153V15.6327L117.116 16.7372L118.153 17.9181V15.3619H120.025C120.379 15.3619 120.898 15.5197 120.898 16.2262C120.898 17.2177 120.215 17.2299 119.841 17.2299H118.869V18.1898H117.483L116.637 17.2492L115.769 18.1827H113.015V15.3558L115.862 15.3548ZM124.343 15.3548H126.704V15.9646H125.065V16.4939H126.659V17.0304H125.065V17.5903H126.704V18.1827H124.343V15.3548ZM121.963 18.1888H121.24V15.3609H123.118C123.474 15.3609 123.986 15.5126 123.986 16.1183C123.986 16.4603 123.881 16.7118 123.486 16.9011C123.827 16.9388 123.959 17.1536 123.959 17.6076L123.986 18.1878H123.282L123.262 17.6697C123.257 17.4304 123.158 17.1902 122.909 17.1902H121.963V18.1888ZM131.238 16.4573C132.127 16.5 132.2 16.9266 132.2 17.3806C132.2 17.9109 131.748 18.1949 131.275 18.1949H129.757V17.5892H130.94C131.14 17.5892 131.439 17.5892 131.439 17.3164C131.439 17.1872 131.386 17.1057 131.173 17.0833L130.674 17.0497C129.872 17.0294 129.685 16.6466 129.685 16.1794C129.685 15.649 130.073 15.3589 130.547 15.3589H132.063V15.9656H130.954C130.701 15.9686 130.427 15.9371 130.427 16.2119C130.427 16.385 130.563 16.4196 130.733 16.4359L131.238 16.4552V16.4573ZM128.532 16.4573C129.421 16.5 129.495 16.9266 129.495 17.3806C129.495 17.9109 129.041 18.1949 128.569 18.1949H127.052V17.5892H128.234C128.434 17.5892 128.733 17.5892 128.733 17.3164C128.733 17.1872 128.681 17.1057 128.467 17.0833C128.372 17.0701 128.02 17.0518 127.968 17.0497C127.167 17.0294 126.98 16.6466 126.98 16.1794C126.98 15.649 127.367 15.3589 127.84 15.3589H129.358V15.9656H128.247C127.994 15.9686 127.722 15.9371 127.722 16.2119C127.722 16.385 127.856 16.4196 128.028 16.4359L128.532 16.4552V16.4573ZM119.013 13.3291H118.291V10.5001H120.169C120.524 10.5001 121.036 10.6518 121.036 11.2575C121.036 11.5985 120.932 11.852 120.537 12.0403C120.879 12.078 121.01 12.2928 121.01 12.7468L121.036 13.328H120.334L120.314 12.8099C120.307 12.5697 120.21 12.3304 119.96 12.3304H119.014V13.327L119.013 13.3291ZM121.405 13.3291H122.126V10.4971H121.405V13.3291ZM115.517 10.5011H117.877V11.1099H116.24V11.6402H117.832V12.1767H116.24V12.7346H117.877V13.328H115.517V10.5011ZM110.244 13.3291H111.699V11.23L112.664 13.3291H113.321L114.308 11.2656V13.3291H115.031V10.5001H113.879L112.991 12.3976L112.108 10.5001H110.976V13.2242L109.715 10.5001H108.759L107.473 13.328H108.234L108.516 12.6969H109.957L110.244 13.3291ZM126.283 12.7H124.843L124.56 13.3311H123.607C122.807 13.3311 122.451 12.6857 122.468 11.9029C122.493 10.7414 123.207 10.5001 123.536 10.5001H124.478V11.116H124.032C123.552 11.116 123.179 11.1638 123.179 11.8265V12.0322C123.182 12.531 123.453 12.6491 123.628 12.6837C123.67 12.6928 123.749 12.6969 123.778 12.6949L124.09 12.6928L125.086 10.5022H126.042L127.273 13.156V10.4991H128.339L129.557 12.4567V10.4991H130.28V13.3301H129.295L127.994 11.2595V13.3301H126.57L126.283 12.7Z" fill="#00ACEC"/>
<path d="M132.173 14.9212V2.33301H107.473V12.0668L108.398 10.0726H109.972L110.488 11.2585V10.0726H112.404L112.987 11.2473L113.555 10.0726H120.313C120.576 10.0726 120.933 10.1612 121.093 10.4391V10.0726H122.507V10.5012C122.693 10.262 122.97 10.0726 123.512 10.0726H126.395L126.924 11.2209V10.0726H128.63L129.237 11.0702V10.0726H130.799V13.7587H129.119L128.418 12.6735V13.7587H126.289L125.946 13.039H125.271L124.953 13.7587H123.618C123.327 13.7342 122.653 13.6202 122.507 13.1917V13.7587H119.943V12.9514C119.943 12.8374 119.836 12.699 119.691 12.699H119.413V13.7587H113.952V12.926L113.542 13.7587H112.431L112.008 12.9127V13.7587H109.827L109.536 13.1021H108.834L108.53 13.7587H107.473V25.6648H132.173V18.368C132.042 18.5075 131.83 18.6205 131.512 18.6205H129.449V18.3426C129.291 18.5075 129.066 18.6205 128.708 18.6205H122.891V17.8509C122.877 17.7491 122.93 17.5353 122.64 17.5353H122.402V18.6205H120.855V17.3694C120.696 17.6229 120.353 17.6351 120.127 17.6473H119.307V18.6195H117.245L116.649 17.9252L116.015 18.6195H112.511V14.9202H116.068L116.689 15.589L117.324 14.9202H120.14C120.339 14.9324 120.715 15.021 120.855 15.2225V14.9202H123.261C123.473 14.9202 123.883 15.0077 124.055 15.2724V14.9202H127.069V15.248C127.227 15.0464 127.48 14.9202 127.862 14.9202H129.793V15.2357C129.938 15.0332 130.322 14.9202 130.547 14.9202L132.173 14.9212ZM138.972 14.5995C138.972 15.0718 137.086 14.5506 137.086 15.701C137.086 16.2262 137.531 16.4634 138.031 16.4634C138.426 16.4634 138.729 16.385 139.027 16.1204L139.135 16.3911H140.086C140.031 16.2924 140.023 16.1641 140.023 16.0206V14.8377C140.023 14.2341 139.947 13.7902 138.694 13.7902C137.647 13.7902 137.248 14.1038 137.248 14.6392H138.259C138.284 14.4224 138.481 14.3939 138.628 14.3939C138.739 14.3939 138.972 14.4183 138.972 14.6005V14.5995ZM144.442 16.0501V16.3881H145.387V12.9117H144.336V14.1139C144.113 13.8625 143.88 13.7862 143.547 13.7862C142.915 13.7862 142.425 14.3308 142.425 15.1716C142.425 15.8862 142.829 16.4604 143.628 16.4604C143.967 16.4604 144.195 16.3596 144.442 16.0501ZM142.152 14.6565V13.8004C142.107 13.7953 142.061 13.7862 142.016 13.7862C141.607 13.7862 141.348 13.9745 141.202 14.3705H141.191V13.8584H140.236V16.3871H141.287V15.3915C141.287 14.8459 141.505 14.6524 141.934 14.6524L142.152 14.6565ZM135.877 14.2341C135.841 13.8727 135.603 13.665 135.229 13.665C134.809 13.665 134.556 14.0081 134.556 14.6789C134.556 15.1665 134.668 15.6246 135.273 15.6246C135.659 15.6246 135.841 15.3701 135.886 15.0362H137.034C136.929 15.9341 136.255 16.4736 135.295 16.4736C134.092 16.4736 133.364 15.7702 133.364 14.6402C133.364 13.5154 134.163 12.816 135.179 12.816C136.291 12.816 136.914 13.3423 137.009 14.2341H135.877Z" fill="#00ACEC"/>
<path d="M118.871 16.6485H119.771C120.066 16.6485 120.171 16.4836 120.171 16.2943C120.171 16.1559 120.076 15.9696 119.774 15.9696H118.871V16.6475V16.6485ZM115.377 15.9645H113.739V16.4938H115.331V17.0303H113.739V17.5902H115.404L116.198 16.7371L115.495 15.9675L115.377 15.9645ZM121.964 16.6109H122.864C123.159 16.6109 123.264 16.4847 123.264 16.2943C123.264 16.1559 123.169 15.9696 122.867 15.9696H121.964V16.6109ZM119.014 11.7501H119.915C120.211 11.7501 120.315 11.6239 120.315 11.4345C120.315 11.2961 120.22 11.1088 119.918 11.1088H119.014V11.7501ZM109.679 12.0881H108.801L109.231 11.0996L109.679 12.0881ZM125.556 11.1006L125.126 12.0891H126.009L125.556 11.1006Z" fill="white"/>
<path d="M147.136 17.1621L138.297 25.657H139.552L147.136 18.3684V17.1621Z" fill="#3B4095"/>
<path d="M147.138 19.5371L140.773 25.6551H142.027L147.138 20.7444V19.5371Z" fill="#00ACEC"/>
<path d="M147.136 21.915L143.242 25.6551H144.498L147.136 23.1203V21.915Z" fill="#6CB35E"/>
<path d="M132.965 24.3179C132.965 24.1417 133.001 23.9671 133.072 23.8039C133.142 23.6418 133.246 23.4942 133.376 23.3692C133.505 23.245 133.66 23.1464 133.831 23.0791C134 23.0119 134.181 22.9774 134.365 22.9775C134.549 22.9777 134.73 23.0126 134.899 23.0801C135.069 23.1476 135.223 23.2463 135.351 23.3702C135.481 23.4944 135.584 23.642 135.654 23.8049C135.725 23.9678 135.759 24.1418 135.759 24.3179C135.759 24.494 135.725 24.6691 135.655 24.833C135.586 24.9956 135.484 25.144 135.354 25.2697C135.223 25.3949 135.069 25.4937 134.9 25.5619C134.731 25.6296 134.549 25.6645 134.365 25.6647C134.181 25.6647 133.999 25.6301 133.829 25.5629C133.658 25.4949 133.504 25.3956 133.374 25.2708C133.243 25.145 133.14 24.9962 133.071 24.833C133.001 24.6693 132.965 24.4944 132.965 24.3179Z" fill="#00ACEC"/>
<path d="M135.596 24.3174C135.596 24.1627 135.564 24.01 135.502 23.8665C135.441 23.7242 135.351 23.5946 135.236 23.4847C135.123 23.3757 134.988 23.2888 134.838 23.2292C134.69 23.1702 134.53 23.1397 134.37 23.1397C134.208 23.1391 134.049 23.1692 133.9 23.2282C133.75 23.2874 133.615 23.3739 133.501 23.4827C133.386 23.5928 133.296 23.7229 133.235 23.8655C133.173 24.0087 133.141 24.1618 133.141 24.3164C133.141 24.6289 133.27 24.9292 133.5 25.1501C133.612 25.2592 133.747 25.346 133.896 25.4054C134.045 25.4649 134.206 25.4957 134.368 25.4963C134.693 25.4963 135.005 25.3721 135.235 25.1501C135.467 24.9271 135.596 24.6288 135.596 24.3174Z" fill="white"/>
<path d="M135.062 25.0699H134.836L134.388 24.3767H134.039V25.0699H133.848V23.5674H134.528C134.659 23.5674 134.791 23.5745 134.909 23.6417C135.026 23.7089 135.083 23.8392 135.083 23.9654C135.083 24.2616 134.868 24.3706 134.59 24.3777L135.062 25.0699Z" fill="#00ACEC"/>
<path d="M134.332 24.2332C134.551 24.2332 134.892 24.2689 134.892 23.9614C134.892 23.7293 134.679 23.7018 134.485 23.7018H134.039V24.2332H134.332ZM138.822 15.269C138.824 15.7424 138.673 15.892 138.307 15.892C138.101 15.892 137.975 15.8045 137.975 15.6803C137.976 15.3515 138.48 15.4288 138.822 15.269ZM144.185 15.1458C144.185 15.44 144.07 15.7342 143.708 15.7342C143.367 15.7342 143.298 15.4258 143.298 15.1601C143.298 14.8812 143.392 14.5615 143.74 14.5615C144.087 14.5615 144.185 14.8659 144.185 15.1458Z" fill="white"/>
</g>
<defs>
<clipPath id="clip0_138_3958">
<rect width="203" height="29" fill="white"/>
</clipPath>
</defs>
</svg>
