<svg width="203" height="29" viewBox="0 0 203 29" fill="none" xmlns="http://www.w3.org/2000/svg">
<path d="M0.398438 2.5435C0.398438 1.93523 0.640073 1.35186 1.07018 0.921745C1.50029 0.491634 2.08365 0.25 2.69192 0.25H42.1684C42.7767 0.25 43.3601 0.491634 43.7902 0.921745C44.2203 1.35186 44.4619 1.93523 44.4619 2.5435V25.4664C44.4619 26.0746 44.2203 26.658 43.7902 27.0881C43.3601 27.5182 42.7767 27.7598 42.1684 27.7598H2.69192C2.08365 27.7598 1.50029 27.5182 1.07018 27.0881C0.64007 26.658 0.398438 26.0746 0.398438 25.4664V2.5435Z" fill="white" stroke="#BCBCBC" stroke-width="0.5"/>
<path fill-rule="evenodd" clip-rule="evenodd" d="M18.4102 18.4649L19.8459 9.56055H22.1413L20.7056 18.4649H18.4102Z" fill="#26337A"/>
<path d="M29.0266 9.77848C28.5726 9.59981 27.86 9.4043 26.9708 9.4043C24.7027 9.4043 23.1052 10.613 23.0926 12.343C23.0778 13.6231 24.2319 14.3357 25.1021 14.7625C25.9955 15.1976 26.2961 15.4771 26.294 15.8681C26.2877 16.463 25.5793 16.7363 24.9213 16.7363C24.0027 16.7363 23.5151 16.6017 22.7604 16.2696L22.4661 16.1288L22.1445 18.1215C22.6806 18.3696 23.6706 18.584 24.7006 18.5966C27.1117 18.5966 28.6777 17.4026 28.6966 15.5549C28.705 14.5396 28.0933 13.7703 26.769 13.1355C25.9682 12.7214 25.4742 12.4481 25.4805 12.0298C25.4805 11.6598 25.8967 11.2646 26.7943 11.2646C27.5447 11.252 28.0891 11.4244 28.5116 11.6073L28.7176 11.7082L29.0287 9.77848" fill="#26337A"/>
<path d="M32.0798 15.307L32.9942 12.8181C32.9816 12.8413 33.1834 12.301 33.299 11.9689L33.4546 12.7362L33.9864 15.307H32.0819H32.0798ZM34.9113 9.56836H33.1371C32.5864 9.56836 32.1765 9.72601 31.9348 10.3062L28.5273 18.4663H30.9363L31.4177 17.1294L34.3563 17.1336L34.6359 18.4663H36.7653L34.9092 9.56836H34.9113Z" fill="#26337A"/>
<path d="M16.4832 9.56592L14.2382 15.6366L13.9986 14.4027C13.5803 12.9817 12.277 11.441 10.8203 10.6674L12.874 18.4555H15.3019L18.9153 9.56592H16.4832Z" fill="#26337A"/>
<path d="M12.1548 9.56006H8.45521L8.42578 9.74503C11.3056 10.4829 13.2101 12.2633 14.0004 14.4032L13.1953 10.3126C13.0566 9.74714 12.653 9.58108 12.1548 9.56006Z" fill="#EC982D"/>
<path d="M52.8945 2.54317C52.8945 1.93498 53.1361 1.35171 53.5662 0.921653C53.9963 0.491599 54.5795 0.25 55.1877 0.25H94.6651C95.2733 0.25 95.8566 0.491599 96.2866 0.921653C96.7167 1.35171 96.9583 1.93498 96.9583 2.54317V25.4678C96.9583 26.076 96.7167 26.6593 96.2866 27.0893C95.8566 27.5194 95.2733 27.761 94.6651 27.761H55.1877C54.5795 27.761 53.9963 27.5194 53.5662 27.0893C53.1361 26.6593 52.8945 26.076 52.8945 25.4678V2.54317Z" fill="white" stroke="#BCBCBC" stroke-width="0.5"/>
<path d="M86.0181 22.8208V22.8675H86.0612C86.0869 22.8593 86.0893 22.857 86.0904 22.8535C86.0893 22.8302 86.0869 22.8278 86.0834 22.8267L86.0181 22.8208ZM86.0612 22.7882C86.0799 22.787 86.0986 22.7928 86.1126 22.8033C86.1301 22.829 86.1312 22.836 86.1312 22.8442C86.1254 22.8698 86.1219 22.8757 86.1161 22.8803C86.1102 22.885 86.0904 22.8967 86.0753 22.8978L86.1336 22.9632H86.0881L86.0356 22.8978H86.0181V22.9632H85.9807V22.7882H86.0624H86.0612ZM86.0496 23.0238C86.0694 23.0238 86.0881 23.0203 86.1067 23.0122C86.1254 23.004 86.1394 22.9947 86.1522 22.9807C86.1651 22.9667 86.1767 22.9515 86.1837 22.934C86.1989 22.8978 86.1989 22.8558 86.1837 22.8197C86.1767 22.8022 86.1662 22.787 86.1522 22.773C86.1393 22.7596 86.1238 22.7489 86.1067 22.7415C86.0881 22.7345 86.0694 22.731 86.0496 22.731C86.0298 22.731 86.0099 22.7345 85.9924 22.7415C85.9749 22.7485 85.9586 22.759 85.9446 22.773C85.9248 22.794 85.9107 22.8208 85.9049 22.8488C85.8991 22.8768 85.9026 22.9072 85.9143 22.934C85.9213 22.9515 85.9318 22.9667 85.9446 22.9807C85.9574 22.9947 85.9749 23.0052 85.9924 23.0122C86.0099 23.0192 86.0298 23.0238 86.0496 23.0238ZM86.0496 22.6902C86.1009 22.6902 86.1488 22.71 86.1849 22.745C86.2024 22.7625 86.2164 22.7823 86.2269 22.8045C86.2374 22.8267 86.2409 22.8523 86.2409 22.878C86.2409 22.9037 86.2362 22.9282 86.2269 22.9515C86.2176 22.9748 86.2024 22.9947 86.1849 23.011C86.1674 23.0273 86.1476 23.0413 86.1243 23.0518C86.1009 23.0623 86.0753 23.067 86.0496 23.067C86.0239 23.067 85.9983 23.0623 85.9738 23.0518C85.9512 23.0421 85.9306 23.0282 85.9131 23.011C85.8956 22.9935 85.8816 22.9725 85.8723 22.9492C85.8629 22.9258 85.8571 22.9013 85.8571 22.8757C85.8571 22.85 85.8629 22.8255 85.8723 22.8022C85.8816 22.7788 85.8956 22.759 85.9131 22.7427C85.9306 22.7263 85.9516 22.7112 85.9749 22.7018C85.9988 22.6915 86.0247 22.6864 86.0507 22.6867L86.0496 22.689V22.6902ZM68.3653 22.0147C68.3653 21.6811 68.5834 21.4081 68.9404 21.4081C69.281 21.4081 69.5108 21.6706 69.5108 22.0147C69.5108 22.3589 69.281 22.6213 68.9404 22.6213C68.5834 22.6213 68.3653 22.3472 68.3653 22.0147ZM69.9005 22.0147V21.0663H69.4875V21.2973C69.3568 21.1269 69.1585 21.0196 68.889 21.0196C68.3582 21.0196 67.9406 21.4361 67.9406 22.0147C67.9406 22.5933 68.3571 23.0098 68.889 23.0098C69.1585 23.0098 69.3568 22.9025 69.4875 22.7322V22.962H69.8993V22.0136L69.9005 22.0147ZM83.8272 22.0147C83.8272 21.6811 84.0454 21.4081 84.4023 21.4081C84.7442 21.4081 84.974 21.6706 84.974 22.0147C84.974 22.3589 84.7442 22.6213 84.4023 22.6213C84.0465 22.6213 83.8272 22.3472 83.8272 22.0147ZM85.3624 22.0147V20.3057H84.9506V21.2973C84.82 21.1269 84.6217 21.0196 84.351 21.0196C83.8202 21.0196 83.4038 21.4361 83.4038 22.0147C83.4038 22.5933 83.8202 23.0098 84.351 23.0098C84.6217 23.0098 84.82 22.9025 84.9506 22.7322V22.962H85.3624V22.0147ZM75.016 21.3883C75.282 21.3883 75.4523 21.5551 75.4955 21.8479H74.512C74.5563 21.5737 74.722 21.3883 75.016 21.3883ZM75.0241 21.0185C74.4688 21.0185 74.0804 21.4221 74.0804 22.0136C74.0804 22.6167 74.484 23.0087 75.0521 23.0087C75.3368 23.0087 75.5993 22.9375 75.8291 22.7427L75.6273 22.437C75.4674 22.5642 75.2656 22.6353 75.0755 22.6353C74.8095 22.6353 74.568 22.5129 74.5085 22.171H75.9154L75.9236 22.0124C75.9201 21.4209 75.5549 21.0185 75.0241 21.0185ZM80.0008 22.0136C80.0008 21.6799 80.219 21.4069 80.5759 21.4069C80.9166 21.4069 81.1464 21.6694 81.1464 22.0136C81.1464 22.3577 80.9166 22.6202 80.5759 22.6202C80.219 22.6202 80.0008 22.346 80.0008 22.0136ZM81.5349 22.0136V21.0663H81.1231V21.2973C80.9924 21.1269 80.7941 21.0196 80.5246 21.0196C79.9938 21.0196 79.5762 21.4361 79.5762 22.0147C79.5762 22.5933 79.9926 23.0098 80.5246 23.0098C80.7941 23.0098 80.9924 22.9025 81.1231 22.7322V22.962H81.5349V22.0136ZM77.6723 22.0136C77.6723 22.5887 78.0736 23.0087 78.6837 23.0087C78.9695 23.0087 79.1597 22.9457 79.365 22.7823L79.1679 22.4487C79.0127 22.5595 78.8506 22.619 78.6709 22.619C78.3419 22.6155 78.1004 22.3775 78.1004 22.0124C78.1004 21.6472 78.3419 21.4093 78.6709 21.4058C78.8494 21.4058 79.0127 21.4653 79.1679 21.5761L79.365 21.2424C79.1597 21.0803 78.9695 21.0161 78.6837 21.0161C78.0736 21.0161 77.6723 21.4361 77.6723 22.0112V22.0136ZM82.9873 21.0185C82.8866 21.0154 82.787 21.0396 82.6989 21.0885C82.6108 21.1374 82.5375 21.2091 82.4868 21.2961V21.0663H82.0785V22.962H82.4915V21.8992C82.4915 21.5854 82.6256 21.4116 82.8951 21.4116C82.9834 21.4103 83.071 21.4265 83.1529 21.4594L83.2801 21.0709C83.1858 21.0371 83.0863 21.0198 82.9861 21.0196L82.9873 21.0185ZM71.9373 21.2168C71.739 21.0861 71.466 21.0185 71.1651 21.0185C70.6844 21.0185 70.3753 21.2483 70.3753 21.6251C70.3753 21.9342 70.6051 22.1244 71.0297 22.1839L71.2246 22.2119C71.4497 22.2434 71.557 22.3029 71.557 22.4102C71.557 22.5572 71.4066 22.64 71.1254 22.64C70.8443 22.64 70.6331 22.549 70.4943 22.4417L70.3006 22.7637C70.5269 22.9305 70.8127 23.0098 71.1219 23.0098C71.669 23.0098 71.9863 22.752 71.9863 22.3915C71.9863 22.0579 71.7367 21.8841 71.3237 21.8246L71.1301 21.7966C70.9516 21.7732 70.8081 21.7371 70.8081 21.6111C70.8081 21.4723 70.9434 21.3894 71.1686 21.3894C71.4112 21.3894 71.6457 21.4804 71.76 21.5516L71.9385 21.2179L71.9373 21.2168ZM77.257 21.0185C77.019 21.0185 76.8639 21.1293 76.7577 21.2961V21.0651H76.3482V22.9608H76.7612V21.8981C76.7612 21.5842 76.8954 21.4104 77.1648 21.4104C77.2531 21.4091 77.3407 21.4254 77.4226 21.4583L77.5498 21.0698C77.4555 21.036 77.356 21.0186 77.2558 21.0185H77.257ZM73.7386 21.0663H73.0654V20.4912H72.6478V21.0663H72.264V21.4431H72.6478V22.3075C72.6478 22.7473 72.8193 23.0098 73.3069 23.0098C73.4892 23.0103 73.6679 22.9594 73.8225 22.8628L73.7036 22.5094C73.5799 22.5805 73.4458 22.6167 73.3384 22.6167C73.1319 22.6167 73.0654 22.4895 73.0654 22.2994V21.4431H73.7386V21.0663ZM67.5766 22.962V21.7721C67.5766 21.3241 67.2908 21.0231 66.83 21.0185C66.5885 21.015 66.3389 21.0896 66.1639 21.3556C66.0332 21.1456 65.8279 21.0185 65.5374 21.0185C65.3356 21.0185 65.1373 21.0779 64.9821 21.2996V21.0651H64.5703V22.9608H64.9856V21.9097C64.9856 21.5807 65.1688 21.4058 65.4499 21.4058C65.7241 21.4058 65.8629 21.5842 65.8629 21.9051V22.9597H66.2794V21.9086C66.2794 21.5796 66.4695 21.4046 66.7425 21.4046C67.0248 21.4046 67.159 21.5831 67.159 21.9039V22.9585L67.5766 22.9597V22.962Z" fill="#231F20"/>
<path d="M78.0506 17.8452H71.8047V6.61914H78.0518L78.0506 17.8452Z" fill="#FF5F00"/>
<path d="M72.1991 12.2331C72.1991 9.95592 73.2654 7.92722 74.9266 6.62064C73.669 5.63021 72.1151 5.09124 70.5145 5.09474C68.621 5.09474 66.805 5.84694 65.4661 7.18586C64.1272 8.52479 63.375 10.3408 63.375 12.2343C63.375 14.1278 64.1272 15.9438 65.4661 17.2827C66.805 18.6216 68.621 19.3738 70.5145 19.3738C72.1151 19.3761 73.669 18.8383 74.9266 17.8479C73.2654 16.5413 72.1991 14.5126 72.1991 12.2343V12.2331Z" fill="#EB001B"/>
<path d="M86.4762 12.2333C86.4762 14.1266 85.7242 15.9424 84.3855 17.2813C83.0468 18.6202 81.2312 19.3725 79.3378 19.3728C77.7373 19.3752 76.1822 18.8374 74.9258 17.8469C75.7761 17.1794 76.4634 16.3272 76.9357 15.3549C77.408 14.3825 77.653 13.3155 77.6521 12.2345C77.6532 11.1533 77.4083 10.086 76.9359 9.11341C76.4636 8.14085 75.7762 7.28848 74.9258 6.62082C76.1822 5.63039 77.7373 5.09142 79.3378 5.09376C81.2312 5.09407 83.0468 5.8464 84.3855 7.18529C85.7242 8.52418 86.4762 10.34 86.4762 12.2333Z" fill="#F79E1B"/>
<path d="M156.102 2.54317C156.102 1.93498 156.343 1.3517 156.773 0.921653C157.203 0.4916 157.787 0.25 158.395 0.25H197.872C198.48 0.25 199.064 0.4916 199.494 0.921653C199.924 1.3517 200.165 1.93498 200.165 2.54317V25.4678C200.165 26.076 199.924 26.6593 199.494 27.0893C199.064 27.5194 198.48 27.761 197.872 27.761H158.395C157.787 27.761 157.203 27.5194 156.773 27.0893C156.343 26.6593 156.102 26.076 156.102 25.4678V2.54317Z" fill="white" stroke="#BCBCBC" stroke-width="0.5"/>
<path fill-rule="evenodd" clip-rule="evenodd" d="M169.822 10.3355C169.026 10.2884 168.35 10.7871 167.97 10.7871C167.591 10.7871 167.008 10.3596 166.38 10.3709C165.561 10.383 164.801 10.8466 164.385 11.5828C163.53 13.0558 164.16 15.2412 164.991 16.4406C165.395 17.0343 165.881 17.6875 166.522 17.6641C167.127 17.6408 167.365 17.2721 168.101 17.2721C168.836 17.2721 169.05 17.6641 169.692 17.6528C170.357 17.6408 170.772 17.0588 171.176 16.4647C171.638 15.7878 171.828 15.1346 171.84 15.0988C171.828 15.0867 170.559 14.5993 170.546 13.1383C170.534 11.9156 171.543 11.3332 171.591 11.2974C171.021 10.4546 170.13 10.3596 169.822 10.3355ZM169.328 9.54993C169.662 9.13301 169.887 8.57283 169.828 8.00098C169.34 8.02511 168.745 8.32252 168.4 8.74022C168.091 9.09758 167.817 9.68073 167.888 10.2284C168.435 10.2763 168.983 9.95478 169.328 9.54993Z" fill="black"/>
<path fill-rule="evenodd" clip-rule="evenodd" d="M186.769 19.9799V18.8992C186.868 18.9237 187.089 18.9237 187.201 18.9237C187.818 18.9237 188.152 18.6645 188.355 17.998C188.355 17.9856 188.473 17.6025 188.473 17.5963L186.127 11.0941L187.571 11.0945L189.214 16.3798H189.239L190.881 11.0945H192.289L189.856 17.9299C189.3 19.5045 188.658 20.0106 187.312 20.0106C187.201 20.0106 186.868 19.9985 186.769 19.9799ZM176.748 8.68018C178.477 8.68018 179.681 9.87216 179.681 11.6068C179.681 13.3484 178.452 14.5463 176.705 14.5463H174.79V17.5901H173.407V8.68018H176.748ZM174.79 13.3854H176.378C177.582 13.3854 178.267 12.7369 178.267 11.6134C178.267 10.4896 177.582 9.84724 176.383 9.84724H174.79V13.3854ZM180.042 15.7441C180.042 14.6078 180.913 13.9106 182.456 13.8234L184.235 13.7187V13.2188C184.235 12.4959 183.747 12.0638 182.932 12.0638C182.16 12.0638 181.678 12.4344 181.561 13.0148H180.301C180.375 11.8419 181.376 10.9769 182.981 10.9769C184.556 10.9769 185.562 11.8112 185.562 13.1137V17.5901H184.284V16.5219H184.253C183.877 17.2448 183.055 17.7014 182.203 17.7014C180.931 17.7014 180.042 16.9108 180.042 15.7441ZM184.235 15.1574V14.6451L182.635 14.744C181.839 14.7997 181.388 15.1512 181.388 15.7071C181.388 16.2751 181.857 16.6457 182.573 16.6457C183.506 16.6457 184.235 16.0033 184.235 15.1574Z" fill="black"/>
<path d="M105.391 2.54317C105.391 1.93498 105.632 1.3517 106.062 0.921653C106.492 0.4916 107.076 0.25 107.684 0.25H147.161C147.769 0.25 148.353 0.4916 148.783 0.921653C149.213 1.3517 149.454 1.93498 149.454 2.54317V25.4678C149.454 26.076 149.213 26.6593 148.783 27.0893C148.353 27.5194 147.769 27.761 147.161 27.761H107.684C107.076 27.761 106.492 27.5194 106.062 27.0893C105.632 26.6593 105.391 26.076 105.391 25.4678V2.54317Z" fill="black" stroke="#BCBCBC" stroke-width="0.5"/>
<path fill-rule="evenodd" clip-rule="evenodd" d="M120.956 16.7835C120.956 16.9309 120.852 17.1094 120.723 17.1831L116.212 19.7925C116.083 19.8662 115.874 19.8662 115.745 19.7925L111.234 17.1831C111.105 17.1094 111 16.9309 111 16.7835V11.5643C111 11.4169 111.105 11.2384 111.234 11.1643L115.745 8.55529C115.874 8.48157 116.083 8.48157 116.212 8.55529L120.723 11.1643C120.852 11.2384 120.956 11.4169 120.956 11.5643V16.7835ZM146 11.9398H141.962V12.9063H143.412V17.0357H144.555V12.9063H146V11.9398ZM127.655 11.9398H123.612V12.9063H125.062V17.0357H126.205V12.9063H127.655L127.655 11.9398ZM139.344 11.7799C138.072 11.7799 137.365 12.592 137.365 13.768V17.0357H138.496V13.743C138.496 13.2326 138.798 12.8386 139.356 12.8386C139.915 12.8386 140.211 13.3063 140.211 13.743V17.0357H141.342V13.768C141.348 12.592 140.616 11.7799 139.344 11.7799ZM135.079 11.9398V17.0357H136.21V11.9398H135.079ZM131.245 13.9582L131.281 14.1862L132.345 17.0357H132.805L134.25 11.9398H133.137L132.449 14.6169L132.406 14.9061L132.35 14.6169L131.429 11.9398H131.06L130.138 14.6169L130.083 14.9061L130.046 14.6169L129.358 11.9398H128.239L129.683 17.0357H130.144L131.207 14.1862L131.244 13.9582H131.245Z" fill="white"/>
<path fill-rule="evenodd" clip-rule="evenodd" d="M118.332 14.1868L117.152 15.9159L116.55 14.9929L117.244 13.9531C117.373 13.7686 117.649 13.2582 117.33 12.5628C117.072 11.996 116.513 11.7261 116.021 11.7261C115.529 11.7261 114.994 11.9783 114.706 12.5628C114.38 13.2332 114.663 13.7561 114.785 13.935C114.785 13.935 115.173 14.5014 115.492 14.9813L116.015 15.7374L116.801 16.9444C116.807 16.9505 116.931 17.1414 117.152 17.1414C117.361 17.1414 117.489 16.9505 117.508 16.9319L119.352 14.1997H118.332V14.1872V14.1868ZM116.015 14.2303C116.015 14.2303 115.708 13.7626 115.505 13.4358C115.29 13.0854 115.529 12.5624 116.015 12.5624C116.5 12.5624 116.741 13.0858 116.525 13.4358C116.329 13.7626 116.015 14.2303 116.015 14.2303Z" fill="url(#paint0_radial_138_3958)"/>
<path fill-rule="evenodd" clip-rule="evenodd" d="M114.884 15.8613L113.729 14.2361C113.729 14.2361 113.421 13.7684 113.219 13.442C113.003 13.0911 113.243 12.5682 113.729 12.5682C113.79 12.5682 113.845 12.5747 113.901 12.5928L114.306 11.8479C114.122 11.7673 113.919 11.7246 113.735 11.7246C113.243 11.7246 112.709 11.9768 112.42 12.5618C112.094 13.2321 112.377 13.7555 112.5 13.9339L114.522 16.9313C114.54 16.9555 114.669 17.1468 114.884 17.1468C115.099 17.1468 115.222 16.9623 115.241 16.9373L115.849 16.0083L115.326 15.2392L114.884 15.8605V15.8613Z" fill="url(#paint1_radial_138_3958)"/>
<defs>
<radialGradient id="paint0_radial_138_3958" cx="0" cy="0" r="1" gradientUnits="userSpaceOnUse" gradientTransform="translate(115.658 12.213) scale(6.25008 6.47758)">
<stop stop-color="#FFCC00"/>
<stop offset="0.0901961" stop-color="#FFC800"/>
<stop offset="0.168627" stop-color="#FFBD00"/>
<stop offset="0.25098" stop-color="#FFAB00"/>
<stop offset="0.329412" stop-color="#FF9100"/>
<stop offset="0.4" stop-color="#FF7000"/>
<stop offset="0.478431" stop-color="#FF4700"/>
<stop offset="0.54902" stop-color="#FF1800"/>
<stop offset="0.580392" stop-color="#FF0000"/>
<stop offset="1" stop-color="#FF0000"/>
</radialGradient>
<radialGradient id="paint1_radial_138_3958" cx="0" cy="0" r="1" gradientUnits="userSpaceOnUse" gradientTransform="translate(112.376 12.5378) scale(5.73187 6.01069)">
<stop stop-color="#00B4E6"/>
<stop offset="0.2" stop-color="#00B0E3"/>
<stop offset="0.388235" stop-color="#01A5DB"/>
<stop offset="0.568627" stop-color="#0292CD"/>
<stop offset="0.74902" stop-color="#0377BA"/>
<stop offset="0.929412" stop-color="#0455A1"/>
<stop offset="1" stop-color="#054696"/>
</radialGradient>
</defs>
</svg>
