<svg width="67" height="67" viewBox="0 0 67 67" fill="none" xmlns="http://www.w3.org/2000/svg">
<path d="M45.7849 1.73198L6.37511 12.2918C2.83982 13.2391 0.714341 16.666 1.5995 19.9694L9.62807 49.9324C10.5132 53.2359 14.0674 55.1409 17.6027 54.1937L21.7755 53.0756L24.1514 61.9428C24.2912 62.4644 24.7787 62.8928 25.3624 62.9848C25.6253 63.0386 25.7992 62.9921 26.031 62.9299C26.3787 62.8368 26.6954 62.6277 26.9386 62.3762L37.4235 48.8827L57.0125 43.6338C60.5477 42.6866 62.6732 39.2597 61.7881 35.9562L53.7595 5.99319C52.8743 2.68973 49.3202 0.784699 45.7849 1.73198ZM31.4454 33.5267C30.7873 35.9392 29.1543 37.4949 26.6043 38.1782L19.3019 40.1348L14.7829 23.2698L22.0853 21.3131C23.1285 21.0336 24.0289 20.9165 24.7865 20.962C26.0543 21.0571 27.2259 21.4886 28.2588 22.3299C29.0713 23.044 29.71 23.8046 30.2058 24.7277C30.7016 25.6508 31.066 26.5471 31.2989 27.4164C31.9201 29.7346 31.9689 31.7714 31.4454 33.5267ZM49.2225 32.1797L36.4143 35.6117L31.8798 18.6887L44.2823 15.3654L45.0898 18.3791L36.1646 20.7706L37.1274 24.3638L45.3571 22.1587L46.1491 25.1144L37.9194 27.3196L39.0841 31.6662L48.4729 29.1505L49.2804 32.1642L49.2225 32.1797Z" fill="black" fill-opacity="0.24"/>
<path d="M22.2982 24.4241L19.0527 25.2937L22.0188 36.3632L25.2643 35.4936C26.945 35.0432 27.8867 33.9213 28.0739 32.0697C28.1732 31.0493 28.0675 29.9595 27.7259 28.6845C27.26 26.9458 26.613 25.6905 25.8585 24.9609C25.0884 24.1734 23.921 23.9893 22.2982 24.4241Z" fill="black" fill-opacity="0.24"/>
</svg>
