<svg width="44" height="39" viewBox="0 0 44 39" fill="none" xmlns="http://www.w3.org/2000/svg">
<path d="M38.418 1.84863C39.4281 1.84689 40.3167 2.06418 41.0586 2.52344C41.8013 2.98326 42.3845 3.67751 42.7969 4.60547H42.7959C43.0568 5.19156 43.1645 5.88296 43.168 6.5166C43.1916 12.5364 43.1446 20.5459 43.1953 26.5586C43.2165 29.171 41.152 31.3075 38.4717 31.29C32.8894 31.2563 27.3078 31.2793 21.7236 31.2793C21.4046 31.2793 21.1311 31.2242 20.917 31.0879C20.6967 30.9476 20.5619 30.736 20.4961 30.4727V30.4717C20.3571 29.9071 20.6483 29.3691 21.2285 29.2334C21.4504 29.1816 21.68 29.1641 21.8994 29.1641H34.1436C34.1969 29.1641 34.2595 29.1716 34.2939 29.1748C34.318 29.177 34.3357 29.1757 34.3486 29.1758C34.3493 29.1696 34.3514 29.1623 34.3516 29.1533C34.3788 27.6713 34.4307 26.2501 33.7217 24.958C33.1243 23.8688 32.3752 23.0508 31.4707 22.5068C30.5664 21.9631 29.4941 21.6861 28.2402 21.6943C25.513 21.7107 23.0925 23.7793 22.5791 26.5361V26.5381C22.5576 26.6485 22.5332 26.8001 22.4814 26.9355L22.4805 26.9375C22.2924 27.417 21.8618 27.6724 21.3779 27.6104L21.2803 27.5938C20.8024 27.4924 20.3989 27.0663 20.4824 26.5166C20.5701 25.9399 20.6744 25.3275 20.9004 24.7695C22.1287 21.7368 24.4021 19.914 27.6641 19.6162C30.9973 19.3117 33.6043 20.7247 35.3672 23.5674C36.0769 24.7121 36.4161 25.9872 36.4473 27.3291L36.457 28.1729C36.4575 28.4535 36.4558 28.7336 36.4541 29.0137C36.4542 29.1271 36.4729 29.1566 36.4766 29.1611C36.477 29.1616 36.4783 29.1627 36.4805 29.1641C36.4831 29.1657 36.489 29.1688 36.499 29.1719C36.5202 29.1784 36.5565 29.1843 36.6162 29.1836L37.6104 29.168C37.7753 29.1658 37.94 29.1652 38.6064 29.1602L38.8652 29.1465C40.1384 29.0211 41.0595 28.0378 41.0859 26.7148L41.0947 25.5439C41.0935 25.1536 41.0898 24.7622 41.0898 24.3682V6.54785C41.0898 5.64274 40.7648 4.92695 40.0557 4.41504L39.9092 4.31543C39.4074 3.99724 38.8306 3.95117 38.1992 3.95117H23.0879C20.5159 3.95117 17.9454 3.94357 15.375 3.95117L12.8047 3.96484C12.3638 3.96767 11.892 4.04752 11.4854 4.20898L11.3154 4.2832C10.5014 4.67144 10.0893 5.36722 10.0146 6.26953L10.0039 6.45312C9.9973 6.64457 9.99902 6.83584 9.99902 7.03418C9.99902 7.13229 9.99825 7.23173 9.99609 7.33203L9.9834 7.63574C9.94504 8.16856 9.52599 8.52907 9.0127 8.55371L9.01367 8.55469C8.76185 8.56697 8.50714 8.49192 8.30957 8.35254C8.13603 8.23002 7.99577 8.04896 7.9541 7.8252L7.94238 7.72656C7.88569 6.61273 7.79267 5.40823 8.41016 4.30176C9.30539 2.7044 10.6781 1.8629 12.5195 1.85938C16.7945 1.85276 21.0666 1.8591 25.3408 1.85938L25.3369 1.84863H38.418Z" fill="black" stroke="black" stroke-width="0.4"/>
<path d="M8.63086 23.5361C13.1096 22.9803 17.5669 26.0194 18.3545 30.8564L18.3926 31.1357C18.4683 31.7891 18.4486 32.4595 18.459 33.0938L18.4697 34.5449C18.4694 35.028 18.4672 35.5103 18.4688 35.9893L18.4648 36.1084C18.4475 36.3806 18.3688 36.6157 18.2158 36.7891C18.0372 36.9914 17.781 37.0832 17.4834 37.0762C17.1967 37.069 16.9556 36.9617 16.791 36.7549C16.6307 36.5533 16.5599 36.2786 16.5615 35.9648L16.5869 33.8574C16.5915 33.3339 16.5894 32.8125 16.5684 32.292L16.54 31.7715C16.3307 28.5928 14.11 26.1194 10.9854 25.4785C7.49875 24.7625 3.89028 27.0818 3.04688 30.541L2.97363 30.8789C2.8468 31.5574 2.84057 32.2608 2.82227 32.9775C2.7981 33.9899 2.82248 34.995 2.81641 36.0166C2.81641 36.3362 2.74872 36.6072 2.57812 36.7988C2.40402 36.9943 2.15272 37.0744 1.86133 37.0762H1.86035C1.5728 37.0762 1.32763 36.9691 1.1582 36.7656C0.992161 36.5661 0.913372 36.2925 0.915039 35.9824V33.8896L0.831055 33.8809V33.6992C0.94961 32.5195 0.956425 31.2556 1.22266 30.0713C2.00002 26.6062 5.1126 23.9744 8.63086 23.5361Z" fill="black" stroke="black" stroke-width="0.358327"/>
<path d="M9.76172 10.8506C12.8708 10.8318 15.4363 13.3559 15.4395 16.4756C15.4425 19.7364 12.7351 22.1781 9.67773 22.125C6.65646 22.0747 4.18088 19.5862 4.16504 16.4648C4.1494 13.3933 6.66885 10.8693 9.76172 10.8506ZM9.69531 12.7549C7.64571 12.8309 6.03406 14.4821 6.05078 16.5039C6.071 18.6096 7.7473 20.2508 9.87695 20.2393C11.8108 20.228 13.4468 18.6207 13.5342 16.6865L13.5381 16.498C13.5236 14.3972 11.8706 12.7405 9.81543 12.7549H9.69531Z" fill="black" stroke="black" stroke-width="0.358327"/>
<path d="M28.4092 7.76855C31.5297 7.77216 33.9014 10.1596 33.9014 13.292C33.9013 16.1999 31.4534 18.5853 28.4902 18.5889C25.4552 18.5889 23.0783 16.223 23.0713 13.1875V12.9873H23.0791C23.1793 10.1249 25.5618 7.76512 28.4092 7.76855ZM28.5078 9.88086C26.6935 9.85858 25.1638 11.3671 25.167 13.1768L25.1709 13.3457C25.26 15.0847 26.7172 16.5061 28.4355 16.5C30.3102 16.4967 31.79 15.0362 31.8027 13.1855C31.8154 11.3971 30.3293 9.90328 28.5078 9.88086Z" fill="black" stroke="black" stroke-width="0.4"/>
</svg>
