<svg width="50" height="43" viewBox="0 0 50 43" fill="none" xmlns="http://www.w3.org/2000/svg">
<path d="M33.1611 9.21287C35.5972 7.75674 38.6759 8.07144 40.7949 9.99021C42.7928 11.7993 43.7603 15.1875 41.8711 18.2451C42.5495 18.7711 43.2917 19.2853 43.9229 19.8926C46.0926 21.9821 47.1974 24.5626 47.2256 27.5801C47.2407 29.2146 47.2398 30.8494 47.2197 32.4834V33.4102L47.2246 33.4492C47.2286 33.4822 47.2337 33.5288 47.2363 33.584C47.2416 33.6929 47.2395 33.8435 47.207 33.998C47.1747 34.1515 47.1089 34.3248 46.9746 34.4609C46.8635 34.5735 46.7167 34.6477 46.5342 34.6738L46.5303 34.6885L46.3867 34.6875C40.9182 34.6829 35.4498 34.6821 29.9814 34.6816H8.80569C7.21546 34.6823 5.62513 34.6846 4.03519 34.6904C3.91652 34.6904 3.85804 34.6903 3.73049 34.6895C3.53783 34.6893 3.35016 34.6259 3.19729 34.5107C2.97198 34.3406 2.84127 34.1475 2.78909 33.9453C2.73761 33.7454 2.76845 33.5578 2.82424 33.4043C2.87982 33.2515 2.96352 33.1247 3.0303 33.0381C3.06409 32.9943 3.0945 32.9591 3.11721 32.9346C3.1285 32.9224 3.13763 32.9122 3.14456 32.9053C3.14804 32.9018 3.15119 32.8986 3.15335 32.8965C3.15433 32.8955 3.15559 32.8952 3.15627 32.8945L3.15725 32.8936L3.19144 32.8604C3.19651 32.8495 3.20472 32.8355 3.21096 32.8164C3.23185 32.7522 3.24359 32.6759 3.24416 32.627C3.25655 31.5682 3.22664 30.473 3.25589 29.4023C3.33881 26.3435 4.66029 23.9639 7.27443 22.3389C6.32328 21.044 6.01441 19.5857 6.37796 18.0098L6.43459 17.7871C6.74037 16.6862 7.38914 15.7887 8.31252 15.0947L8.50002 14.9609C10.4622 13.6241 13.1617 13.8424 14.9082 15.5059C16.684 17.1966 17.1033 20.0536 15.4688 22.3271C17.996 23.9346 19.3468 26.2527 19.4746 29.2705C19.6349 29.2869 19.8077 29.3046 19.9639 29.3428L20.1689 29.4023C21.1666 29.7366 21.7754 30.6218 21.7998 31.751C21.8069 32.0905 21.8021 32.433 21.8008 32.7842H24.6055C24.5104 32.4853 24.4053 32.1698 24.3496 31.8574V31.8564C24.1399 30.6768 24.5361 29.6705 25.3984 28.8896C25.52 28.7796 25.5913 28.6823 25.6328 28.585C25.6636 28.5125 25.6813 28.4314 25.6855 28.332V28.2256C25.5919 26.1369 26.0266 24.164 27.0684 22.335C28.0362 20.636 29.3691 19.302 31.0811 18.2949C29.9901 16.5607 29.7184 14.692 30.3477 12.7207C30.8011 11.3006 31.6818 10.1765 32.9277 9.35936L33.1611 9.21287ZM40.4746 19.7783L40.3672 19.8467C37.9748 21.6374 34.9436 21.6439 32.5547 19.8594C32.4553 19.7855 32.3985 19.7695 32.3594 19.7686C32.3381 19.7681 32.3127 19.7711 32.2793 19.7822L32.1504 19.8438C30.0042 21.0646 28.5822 22.853 27.8809 25.2139C27.6113 26.1228 27.499 27.0538 27.5469 28.002H30.6338C30.6327 27.3766 30.6268 26.7696 30.6367 26.165L30.6514 25.999C30.6773 25.838 30.7386 25.6928 30.8398 25.5723C30.9746 25.4119 31.1649 25.3127 31.3867 25.2676C31.8224 25.179 32.2967 25.4146 32.4297 25.8428L32.4629 25.9873C32.4877 26.1324 32.4881 26.2777 32.4893 26.3965C32.4945 26.929 32.4927 27.4623 32.4922 28.0049H40.4053C40.4039 27.4113 40.3986 26.8318 40.4092 26.2549C40.4144 25.9586 40.4997 25.7003 40.6738 25.5166C40.8503 25.3306 41.0956 25.245 41.3701 25.2529C41.6349 25.2605 41.8669 25.354 42.0303 25.541C42.1909 25.725 42.2652 25.9765 42.2676 26.2617C42.2734 27.0584 42.2694 27.8547 42.2686 28.6494C42.2685 29.0656 42.2261 29.4054 42.0098 29.624C41.7925 29.8434 41.4537 29.8867 41.041 29.8867C36.6875 29.8867 32.334 29.8871 27.9805 29.8896C27.747 29.8896 27.5211 29.8963 27.3086 29.9355L27.3096 29.9365C26.686 30.0531 26.2083 30.6125 26.1797 31.2471C26.1581 31.7153 26.3108 32.1013 26.5801 32.3701C26.8502 32.6397 27.253 32.8063 27.7568 32.8066C31.762 32.81 35.7663 32.8105 39.7715 32.8105H45.3076C45.3155 30.7239 45.44 28.7125 45.2744 26.7129C45.02 23.6349 43.3789 21.3631 40.7002 19.8105C40.6138 19.7604 40.5678 19.7549 40.5391 19.7578C40.5226 19.7595 40.5021 19.7652 40.4746 19.7783ZM13.9473 23.7188C13.8935 23.7239 13.843 23.7382 13.8096 23.7549L13.8105 23.7559C12.2875 24.5223 10.7629 24.5697 9.23732 23.9043L8.93264 23.7617C8.89698 23.744 8.83646 23.7286 8.76857 23.7266C8.69949 23.7245 8.64825 23.7366 8.62404 23.749C6.88131 24.6449 5.7028 26.0076 5.3389 27.8594L5.27736 28.2354C5.07926 29.7252 5.18553 31.2391 5.17092 32.7891H6.97854C7.11312 31.9479 7.24399 31.135 7.37111 30.3213V30.3203C7.37573 30.2908 7.37615 30.2565 7.37502 30.2119C7.37407 30.1749 7.37111 30.1099 7.37111 30.0596C7.37111 29.2724 7.34864 28.4653 7.38576 27.666C7.39245 27.5205 7.43188 27.3606 7.49416 27.2178C7.55536 27.0774 7.64767 26.9332 7.77443 26.8389C7.89953 26.7466 8.07419 26.6956 8.23049 26.6797C8.3829 26.6642 8.57046 26.6759 8.71097 26.7607C8.85037 26.8452 8.97266 26.9808 9.06154 27.123C9.15051 27.2655 9.21841 27.4348 9.2344 27.5977C9.28912 28.1556 9.26524 28.7306 9.25881 29.2686H13.4824C13.481 28.6971 13.476 28.1554 13.4873 27.6162C13.4975 27.0966 13.8206 26.6746 14.332 26.6348C14.5422 26.6183 14.7438 26.6564 14.915 26.7617C15.0872 26.8677 15.2128 27.0323 15.2871 27.2412L15.3281 27.3809C15.3602 27.5224 15.3691 27.6667 15.3711 27.7949C15.3785 28.2816 15.3749 28.7697 15.374 29.252H17.5693C17.612 28.2042 17.2615 27.0617 16.6504 26.0654C16.0035 25.0109 15.0783 24.1413 14.0605 23.7275C14.0417 23.7202 14.002 23.7135 13.9473 23.7188ZM9.70607 31.1387C9.36452 31.1415 9.19218 31.2044 9.09768 31.2979C9.00386 31.3908 8.94095 31.5589 8.93851 31.8926C8.93644 32.1795 8.93797 32.4649 8.93851 32.7754H19.9189V31.9385L19.9072 31.6895C19.8859 31.4754 19.8354 31.3593 19.7666 31.29C19.6755 31.1983 19.5022 31.1387 19.124 31.1387H9.70607ZM11.3438 15.957C9.57042 15.9749 8.11137 17.4281 8.09964 19.1943C8.08703 21.0063 9.55335 22.4828 11.3682 22.4844C13.1609 22.4857 14.63 21.024 14.6348 19.2334L14.6309 19.0674C14.5474 17.3619 13.1037 15.9609 11.3857 15.957H11.3438ZM36.4746 10.1816C33.9554 10.1738 31.8988 12.21 31.8867 14.7197C31.8748 17.2252 33.9281 19.3013 36.4287 19.3135C38.9325 19.3247 41.0095 17.2673 41.0176 14.7666C41.0264 12.25 38.9845 10.1897 36.4746 10.1816Z" fill="#11101D" stroke="#11101D" stroke-width="0.4"/>
</svg>
