<svg width="40" height="40" viewBox="0 0 40 40" fill="none" xmlns="http://www.w3.org/2000/svg">
<path d="M24.374 18.2375C24.374 17.55 23.8115 16.9875 23.124 16.9875H13.124C12.4365 16.9875 11.874 17.55 11.874 18.2375C11.874 18.925 12.4365 19.4875 13.124 19.4875H23.124C23.8115 19.4875 24.374 18.925 24.374 18.2375ZM18.124 8.125H26.874C27.5615 8.125 28.124 7.5625 28.124 6.875C28.124 6.1875 27.5615 5.625 26.874 5.625H18.124C17.4365 5.625 16.874 6.1875 16.874 6.875C16.874 7.5625 17.4365 8.125 18.124 8.125ZM13.124 8.125H13.749C14.4365 8.125 14.999 7.5625 14.999 6.875C14.999 6.1875 14.4365 5.625 13.749 5.625H13.124C12.4365 5.625 11.874 6.1875 11.874 6.875C11.874 7.5625 12.4365 8.125 13.124 8.125ZM13.124 13.8H25.624C26.3115 13.8 26.874 13.2375 26.874 12.55C26.874 11.8625 26.3115 11.3 25.624 11.3H13.124C12.4365 11.3 11.874 11.8625 11.874 12.55C11.874 13.2375 12.4365 13.8 13.124 13.8ZM11.549 27.3L9.32401 30L8.39901 29C7.93651 28.4875 7.13651 28.4625 6.63651 28.925C6.12401 29.3875 6.09901 30.1875 6.56151 30.6875L8.44901 32.75C8.68651 33.0125 9.02401 33.15 9.37401 33.15H9.41151C9.77401 33.15 10.1115 32.975 10.3365 32.7L13.474 28.8875C13.9115 28.35 13.8365 27.5625 13.299 27.125C12.7615 26.6875 11.974 26.7625 11.5365 27.3H11.549Z" fill="#11101D"/>
<path d="M36.8875 14.025L36.7875 13.9625L37.4125 12.8875C38.45 11.1 37.85 8.8 36.0625 7.7625C35.2 7.2625 34.1875 7.125 33.2125 7.375C32.9625 7.4375 32.725 7.5375 32.5 7.65V2.5C32.5 1.8125 31.9375 1.25 31.25 1.25H8.75C8.0625 1.25 7.5 1.8125 7.5 2.5V21.6125C3.8875 22.6875 1.25 26.0375 1.25 30C1.25 34.825 5.175 38.75 10 38.75C12.375 38.75 14.5375 37.8 16.1125 36.25H31.25C31.9375 36.25 32.5 35.6875 32.5 35V21.3375L35.525 16.1375L35.625 16.2C36.225 16.55 36.425 17.3125 36.075 17.9125L34.8875 19.9625C34.5375 20.5625 34.7375 21.325 35.3375 21.675C35.5375 21.7875 35.75 21.85 35.9625 21.85C36.3875 21.85 36.8125 21.625 37.05 21.225L38.2375 19.175C39.275 17.3875 38.675 15.0875 36.8875 14.05V14.025ZM34.175 9.75C34.3875 9.75 34.6 9.8 34.8 9.925C35.4 10.275 35.6 11.0375 35.25 11.6375L34.625 12.7125L32.4625 11.45L33.0875 10.375C33.325 9.975 33.7375 9.75 34.175 9.75ZM10 36.25C6.55 36.25 3.75 33.45 3.75 30C3.75 26.55 6.55 23.75 10 23.75C13.45 23.75 16.25 26.55 16.25 30C16.25 33.45 13.45 36.25 10 36.25ZM17.8875 33.75C18.425 32.6125 18.75 31.3375 18.75 30C18.75 25.175 14.825 21.25 10 21.25V3.75H30V10.7125L29.675 11.275L24.95 19.4C23.6625 21.6 22.9125 24.0875 22.75 26.5625L22.6375 28.35L21.7 29.9625C21.35 30.5625 21.55 31.325 22.15 31.675C22.35 31.7875 22.5625 31.85 22.775 31.85C23.2 31.85 23.625 31.625 23.8625 31.225L24.8 29.6125L26.2875 28.6375C27.6875 27.725 28.9375 26.55 30 25.225V33.7625H17.8875V33.75ZM25.2625 26.3C25.4 24.9 25.775 23.5125 26.3375 22.1875C26.625 22.4375 26.925 22.675 27.2625 22.8625C27.5875 23.05 27.95 23.2 28.3125 23.325C27.45 24.475 26.425 25.475 25.275 26.2875L25.2625 26.3ZM29.725 21.1125C29.2875 21.0375 28.875 20.925 28.5125 20.7125C28.15 20.5 27.85 20.2 27.5625 19.85L31.1875 13.6125L33.35 14.875L29.725 21.1125Z" fill="#11101D"/>
</svg>
