<svg width="549" height="101" viewBox="0 0 549 101" fill="none" xmlns="http://www.w3.org/2000/svg">
<path d="M345.845 22.9709H357.121L357.92 30.4563C360.917 24.7653 367.401 21.4727 374.887 21.4727C388.762 21.4727 397.941 31.5519 397.941 47.0202C397.941 62.4886 389.556 73.5686 374.887 73.5686C367.502 73.5686 361.112 70.6728 358.021 65.6864V95.1307H345.845V22.9709ZM371.997 62.5892C380.578 62.5892 385.671 56.4007 385.671 47.6183C385.671 38.836 380.584 32.5468 371.997 32.5468C363.41 32.5468 358.122 38.7353 358.122 47.6183C358.122 56.5014 363.611 62.5892 371.997 62.5892Z" fill="white"/>
<path d="M400.744 47.6183C400.744 32.15 410.823 21.4727 425.297 21.4727C439.77 21.4727 449.447 31.3506 449.447 46.7241V50.4195L412.322 50.5201C413.222 59.2018 417.811 63.596 425.895 63.596C432.581 63.596 436.975 61.0021 438.373 56.3119H449.648C447.552 67.09 438.568 73.5805 425.694 73.5805C411.025 73.5805 400.744 62.9031 400.744 47.6302V47.6183ZM412.618 42.7327H437.372C437.372 35.946 432.682 31.4572 425.398 31.4572C418.113 31.4572 413.82 35.3479 412.624 42.7327H412.618Z" fill="white"/>
<path d="M452.542 58.2029C452.542 49.1185 459.127 43.4334 470.805 42.5332L485.575 41.4376V40.3421C485.575 33.6561 481.583 30.9616 475.395 30.9616C468.211 30.9616 464.22 33.9581 464.22 39.1458H453.838C453.838 28.4684 462.621 21.4805 475.993 21.4805C489.365 21.4805 497.448 28.6639 497.448 42.3378V72.2795H486.771L485.871 64.9954C483.774 70.0825 477.088 73.5764 469.402 73.5764C458.92 73.5764 452.536 67.4886 452.536 58.2088L452.542 58.2029ZM485.675 52.3105V49.7166L475.395 50.5161C467.809 51.2149 464.919 53.7081 464.919 57.6995C464.919 62.1884 467.915 64.3855 473.399 64.3855C480.884 64.3855 485.675 59.8966 485.675 52.3105Z" fill="white"/>
<path d="M501.658 72.2723V0H513.733V43.6275L532.897 22.9656H548.17L529.409 42.526L547.773 72.2664H533.803L520.928 51.5097L513.745 58.9951V72.2664H501.67L501.658 72.2723Z" fill="white"/>
<path d="M129.664 57.3027C129.764 61.5962 132.956 64.2907 138.547 64.2907C144.137 64.2907 147.329 61.993 147.329 58.4042C147.329 55.9111 146.032 54.1108 141.638 53.1159L132.755 51.0195C123.872 49.0238 119.578 44.831 119.578 36.9488C119.578 27.2663 127.763 21.4805 139.139 21.4805C150.515 21.4805 157.704 27.8703 157.799 37.4462H146.222C146.121 33.2534 143.326 30.5589 138.635 30.5589C133.945 30.5589 131.049 32.756 131.049 36.4454C131.049 39.2406 133.246 41.0349 137.439 42.0358L146.322 44.1322C154.607 46.0272 158.8 49.8232 158.8 57.4034C158.8 67.382 150.314 73.5705 138.138 73.5705C125.962 73.5705 118.074 66.9852 118.074 57.3027H129.652H129.664Z" fill="white"/>
<path d="M168.682 72.274V33.1531H159.201V22.9732H168.682V9.5835H180.858V22.9732H190.439V33.1531H180.858V72.274H168.682Z" fill="white"/>
<path d="M237.649 22.9722V72.273H226.374L225.474 65.6878C222.477 70.378 216.093 73.57 209.502 73.57C198.126 73.57 191.44 65.8832 191.44 53.8082V22.9663H203.616V49.5147C203.616 58.8952 207.311 62.6912 214.098 62.6912C221.784 62.6912 225.474 58.2023 225.474 48.8159V22.9663H237.649V22.9722Z" fill="white"/>
<path d="M240.353 47.8217C240.353 32.454 249.337 21.4746 264.207 21.4746C271.094 21.4746 277.182 24.3705 280.273 29.2621V0.00732422H292.348V72.2796H281.173L280.374 64.5928C277.383 70.2839 270.994 73.5765 263.508 73.5765C249.236 73.5765 240.353 63.0946 240.353 47.8276V47.8217ZM280.173 47.4249C280.173 38.5419 274.683 32.3534 266.203 32.3534C257.722 32.3534 252.529 38.6426 252.529 47.4249C252.529 56.2073 257.716 62.3958 266.203 62.3958C274.689 62.3958 280.173 56.3079 280.173 47.4249Z" fill="white"/>
<path d="M294.746 84.9462H302.03C306.821 84.9462 309.812 83.8506 311.908 78.0589L313.306 74.3635L293.443 22.9663H306.318L318.991 58.8952L332.363 22.9663H344.935L320.779 83.2466C317.09 92.4257 311.896 96.2217 303.813 96.2217C300.42 96.2217 297.423 95.8249 294.728 95.1261V84.9462H294.746Z" fill="white"/>
<path d="M23.7532 63.7911L9.62919 77.9151L0 68.2859L14.1122 54.1737L11.2874 51.3548C7.95919 48.0266 6.12929 43.6088 6.12929 38.9008C6.12929 34.1928 7.95919 29.775 11.2874 26.4468C18.151 19.5832 29.3258 19.5773 36.1894 26.4468C39.5176 29.775 41.3475 34.1928 41.3475 38.9008C41.3475 43.6088 39.5176 48.0266 36.1894 51.3548L33.3824 54.1619L47.0504 67.7943L37.4331 77.4413L23.7532 63.797V63.7911ZM20.9166 36.0819C20.1645 36.834 19.7499 37.8349 19.7499 38.9008C19.7499 39.9668 20.1645 40.9676 20.9106 41.7138L23.7414 44.5386L26.5603 41.7197C27.3123 40.9676 27.7269 39.9668 27.7269 38.9008C27.7269 37.8349 27.3123 36.834 26.5603 36.0819C25.8082 35.3298 24.8073 34.9153 23.7414 34.9153C22.6754 34.9153 21.6746 35.3298 20.9225 36.0819H20.9166Z" fill="#18C867"/>
<path d="M25.2347 95.8545C21.9066 92.5263 20.0767 88.1085 20.0767 83.4005C20.0767 78.6925 21.9066 74.2747 25.2347 70.9465L57.4505 38.7308L54.6316 35.9059C51.3035 32.5778 49.4736 28.1599 49.4736 23.4519C49.4736 18.7439 51.3035 14.3261 54.6316 10.9979C57.9598 7.66976 62.3776 5.83984 67.0856 5.83984C71.7877 5.83984 76.2115 7.66976 79.5396 10.9979C82.8678 14.3261 84.6977 18.7439 84.6977 23.4519C84.6977 28.1599 82.8678 32.5778 79.5396 35.9059L76.7149 38.7308L106.337 68.3823L96.7017 78.0055L67.0797 48.3599L47.2706 68.1691L50.0539 70.8577L50.1368 70.9406C53.465 74.2688 55.2949 78.6866 55.2949 83.3946C55.2949 88.1026 53.465 92.5204 50.1368 95.8486C46.7021 99.2834 42.1954 101.001 37.6828 101.001C33.1762 101.001 28.6636 99.2834 25.2288 95.8486L25.2347 95.8545ZM37.6414 77.8102L34.8699 80.5816C34.1178 81.3337 33.7032 82.3346 33.7032 83.4005C33.7032 84.4665 34.1178 85.4673 34.8699 86.2194C36.4274 87.7769 38.9561 87.7769 40.5136 86.2194C41.2656 85.4673 41.6802 84.4665 41.6802 83.4005C41.6802 82.3346 41.2775 81.3633 40.5432 80.6113L37.6414 77.8102ZM64.2668 20.639C63.5147 21.3911 63.1001 22.3919 63.1001 23.4578C63.1001 24.5238 63.5147 25.5246 64.2727 26.2827L67.0916 29.1015L69.9164 26.2767C70.6685 25.5246 71.083 24.5238 71.083 23.4578C71.083 22.3919 70.6685 21.3911 69.9164 20.639C69.1643 19.8869 68.1634 19.4723 67.0975 19.4723C66.0315 19.4723 65.0307 19.8869 64.2786 20.639H64.2668Z" fill="#18C867"/>
</svg>
