<?xml version="1.0" standalone="no"?>
<!DOCTYPE svg PUBLIC "-//W3C//DTD SVG 20010904//EN"
 "http://www.w3.org/TR/2001/REC-SVG-20010904/DTD/svg10.dtd">
<svg version="1.0" xmlns="http://www.w3.org/2000/svg"
 width="900.000000pt" height="900.000000pt" viewBox="0 0 900.000000 900.000000"
 preserveAspectRatio="xMidYMid meet">
<metadata>
Created by potrace 1.10, written by Peter Selinger 2001-2011
</metadata>
<g transform="translate(0.000000,900.000000) scale(0.100000,-0.100000)"
fill="#000000" stroke="none">
<path d="M2720 8985 c0 -9 -14 -17 -37 -20 -21 -4 -52 -13 -70 -21 -17 -8 -38
-14 -46 -14 -9 0 -18 -4 -21 -9 -3 -5 -24 -18 -46 -30 -21 -11 -48 -28 -58
-38 -11 -10 -35 -30 -55 -46 -33 -25 -121 -136 -155 -196 -14 -23 -29 -67 -60
-171 -14 -49 -16 -191 -21 -1310 l-6 -1255 -745 -5 c-608 -4 -751 -8 -780 -19
-136 -54 -218 -118 -282 -216 -26 -41 -48 -81 -48 -90 0 -9 -8 -30 -18 -48
-16 -30 -17 -118 -17 -1432 l0 -1400 22 -60 c12 -33 32 -79 44 -103 26 -49
128 -158 162 -173 12 -5 40 -20 62 -34 22 -13 51 -24 65 -25 15 0 32 -6 38
-12 10 -10 178 -14 757 -16 l744 -2 4 -823 c3 -720 5 -829 20 -877 54 -184 80
-231 188 -339 64 -65 109 -101 146 -117 17 -7 34 -18 38 -24 3 -5 13 -10 22
-10 8 0 29 -6 46 -14 18 -7 57 -19 87 -25 74 -16 5454 -11 5516 5 23 6 84 32
135 58 140 69 237 172 322 341 24 48 38 113 48 224 5 61 8 1280 7 2975 l-3
2871 -21 32 c-24 37 -52 68 -694 732 -135 140 -263 272 -284 295 -21 22 -82
86 -135 141 -53 55 -200 208 -326 339 -127 132 -266 276 -310 320 -44 45 -128
133 -187 196 -164 176 -380 395 -410 414 -16 10 -28 25 -28 32 0 12 -274 14
-1805 14 -1573 0 -1805 -2 -1805 -15z m3234 -351 c3 -9 6 -522 6 -1140 0
-1089 1 -1126 19 -1162 11 -21 34 -52 52 -70 l33 -32 1144 0 c769 0 1150 -3
1163 -10 19 -11 19 -52 19 -2803 -1 -2401 -3 -2795 -15 -2817 -8 -14 -14 -33
-15 -42 0 -27 -57 -105 -103 -140 -46 -36 -95 -62 -142 -74 -16 -5 -1204 -10
-2640 -12 -2036 -2 -2625 0 -2680 9 -111 20 -205 91 -267 203 l-23 41 0 825 0
825 1520 5 c1279 4 1526 7 1555 19 150 61 262 148 309 241 12 25 26 52 30 60
35 62 35 82 38 1480 3 1209 2 1381 -12 1422 -8 26 -15 54 -15 62 0 41 -88 165
-162 228 -49 41 -90 64 -178 99 -29 12 -291 15 -1560 19 l-1525 5 0 1260 0
1260 23 42 c57 102 151 178 247 199 35 8 507 12 1611 13 1416 1 1562 0 1568
-15z m557 -322 c211 -216 601 -622 724 -752 50 -52 121 -127 160 -166 106
-107 506 -524 719 -748 31 -33 55 -65 53 -70 -4 -12 -1790 -22 -1834 -11 l-23
5 0 960 c0 795 2 960 13 960 8 0 92 -80 188 -178z m-1037 -2791 c85 -26 118
-63 139 -153 16 -67 17 -178 17 -1318 -1 -1176 -2 -1249 -19 -1315 -22 -81
-61 -123 -135 -143 -68 -18 -4695 -17 -4746 1 -58 20 -98 55 -120 104 -20 45
-20 62 -20 1365 0 1277 1 1320 19 1356 26 51 63 82 118 102 45 16 215 17 2368
19 2226 1 2322 0 2379 -18z"/>
<path d="M1275 4748 c-3 -7 -4 -337 -3 -733 l3 -720 140 0 140 0 3 263 c2 261
2 263 25 271 12 5 129 14 259 20 232 11 267 17 328 52 8 5 25 13 37 19 32 13
115 101 134 141 50 104 53 118 53 258 1 108 -3 142 -16 166 -9 17 -19 37 -23
45 -22 55 -127 170 -155 170 -9 0 -21 5 -27 11 -6 6 -46 19 -90 30 -68 16
-123 18 -441 19 -281 0 -364 -3 -367 -12z m660 -250 c107 -28 155 -89 155
-195 0 -60 -4 -73 -32 -115 -50 -73 -89 -86 -289 -94 -117 -4 -172 -3 -188 5
-20 11 -21 18 -21 197 0 116 4 193 11 206 11 20 17 20 163 15 83 -3 174 -12
201 -19z"/>
<path d="M2660 4025 l0 -735 369 0 c383 0 422 4 503 46 14 8 31 14 37 14 19 0
97 59 147 112 28 29 63 80 78 113 15 33 36 77 47 98 10 21 19 50 19 66 0 16 7
45 15 64 11 28 15 78 15 210 0 130 -4 185 -15 217 -8 23 -15 56 -15 72 0 16
-13 56 -30 90 -16 33 -30 64 -30 69 0 40 -198 239 -238 239 -7 0 -23 5 -35 12
-12 7 -51 20 -87 30 -56 14 -116 17 -422 17 l-358 1 0 -735z m671 473 c127
-29 205 -115 239 -268 21 -90 24 -331 6 -385 -9 -25 -16 -59 -16 -75 0 -63
-105 -210 -151 -210 -9 0 -33 -7 -52 -15 -54 -23 -392 -22 -401 1 -11 29 -7
934 5 955 10 19 19 20 157 16 81 -2 177 -11 213 -19z"/>
<path d="M4160 4025 l0 -735 145 0 145 0 0 304 c0 241 3 306 13 315 9 7 111
12 308 13 l294 3 0 115 0 115 -300 3 c-224 2 -301 5 -307 15 -13 21 -10 311 5
330 11 15 47 17 357 19 l345 3 0 115 0 115 -502 3 -503 2 0 -735z"/>
</g>
</svg>
