<svg width="28" height="32" viewBox="0 0 28 32" fill="none" xmlns="http://www.w3.org/2000/svg">
<path d="M18.4703 5.87084H18.4703V5.87557C18.4703 7.20912 18.027 8.27709 17.135 9.17457C16.2462 10.0628 15.174 10.5074 13.8385 10.5074C12.5092 10.5074 11.4365 10.0629 10.5469 9.17335C9.65787 8.28428 9.21289 7.21176 9.21289 5.87557C9.21289 4.54143 9.65657 3.4731 10.5494 2.57536C11.4325 1.68739 12.5074 1.25 13.8447 1.25C15.1789 1.25 16.2472 1.69368 17.1449 2.58648C18.0363 3.47293 18.4753 4.54185 18.4703 5.87084Z" stroke="#11101D" stroke-width="2.5"/>
<path d="M26.0743 25.7746L26.0706 25.7748C23.9091 25.9278 21.7811 26.4198 19.7724 27.2311C17.6342 28.0892 15.6349 29.2635 13.8401 30.7142C13.7777 30.7623 13.6939 30.7624 13.6314 30.7142C11.8366 29.2635 9.83714 28.0892 7.6988 27.231C5.69019 26.4198 3.56225 25.9278 1.40087 25.7748L1.39718 25.7746C1.31856 25.7692 1.25 25.6983 1.25 25.6153V12.0963C1.25217 11.997 1.33061 11.9264 1.41889 11.9264L1.43486 11.9264L1.43804 11.9264C3.1509 12.0989 4.86569 12.5769 6.59262 13.3788C8.80983 14.4109 10.9106 15.8556 12.8758 17.7312L13.7362 18.5523L14.5991 17.7339C16.5744 15.8603 18.6705 14.4095 20.8857 13.3785L20.8862 13.3783C22.6054 12.5772 24.3262 12.0989 26.0402 11.9263L26.0454 11.9258C26.1226 11.9177 26.1936 11.9647 26.2191 12.035C26.2193 12.0444 26.2195 12.0527 26.2197 12.0598L26.2209 12.0913L26.2214 12.1025V25.6153C26.2214 25.701 26.1564 25.769 26.0743 25.7746Z" stroke="#11101D" stroke-width="2.5"/>
</svg>
