<svg width="21" height="20" viewBox="0 0 21 20" fill="none" xmlns="http://www.w3.org/2000/svg">
<path d="M1.125 16.875H4.875V19.375C4.875 19.72 5.155 20 5.5 20H15.5C15.845 20 16.125 19.72 16.125 19.375V16.875H19.875C20.22 16.875 20.5 16.595 20.5 16.25V6.25C20.5 5.905 20.22 5.625 19.875 5.625H16.125V0.625C16.125 0.28 15.845 0 15.5 0H5.5C5.155 0 4.875 0.28 4.875 0.625V5.625H1.125C0.78 5.625 0.5 5.905 0.5 6.25V16.25C0.5 16.595 0.78 16.875 1.125 16.875ZM14.875 18.75H6.125V12.5H14.875V18.75ZM6.125 1.25H14.875V5.625H6.125V1.25ZM1.75 6.875H5.5H15.5H19.25V15.625H16.125V11.875C16.125 11.53 15.845 11.25 15.5 11.25H5.5C5.155 11.25 4.875 11.53 4.875 11.875V15.625H1.75V6.875Z" fill="#18C867"/>
</svg>
