<svg width="30" height="30" viewBox="0 0 30 30" fill="none" xmlns="http://www.w3.org/2000/svg">
<g opacity="0.6">
<path d="M6.1582 11.8706C6.60938 10.5933 7.3418 9.39209 8.37305 8.3667C12.0352 4.70459 17.9707 4.70459 21.6328 8.3667L22.6348 9.37451H20.625C19.5879 9.37451 18.75 10.2124 18.75 11.2495C18.75 12.2866 19.5879 13.1245 20.625 13.1245H27.1582H27.1816C28.2188 13.1245 29.0566 12.2866 29.0566 11.2495V4.68701C29.0566 3.6499 28.2188 2.81201 27.1816 2.81201C26.1445 2.81201 25.3066 3.6499 25.3066 4.68701V6.74951L24.2812 5.71826C19.1543 0.591309 10.8457 0.591309 5.71875 5.71826C4.28906 7.14795 3.25781 8.82959 2.625 10.6284C2.2793 11.6069 2.79492 12.6733 3.76758 13.019C4.74023 13.3647 5.8125 12.8491 6.1582 11.8765V11.8706ZM2.28516 16.9507C1.99219 17.0386 1.71094 17.1968 1.48242 17.4312C1.24805 17.6655 1.08984 17.9468 1.00781 18.2515C0.990234 18.3218 0.972656 18.3979 0.960937 18.4741C0.943359 18.5737 0.9375 18.6733 0.9375 18.7729V25.312C0.9375 26.3491 1.77539 27.187 2.8125 27.187C3.84961 27.187 4.6875 26.3491 4.6875 25.312V23.2554L5.71875 24.2808C10.8457 29.4019 19.1543 29.4019 24.2754 24.2808C25.7051 22.8511 26.7422 21.1694 27.375 19.3765C27.7207 18.3979 27.2051 17.3315 26.2324 16.9858C25.2598 16.6401 24.1875 17.1558 23.8418 18.1284C23.3906 19.4058 22.6582 20.6069 21.627 21.6323C17.9648 25.2944 12.0293 25.2944 8.36719 21.6323L8.36133 21.6265L7.35938 20.6245H9.375C10.4121 20.6245 11.25 19.7866 11.25 18.7495C11.25 17.7124 10.4121 16.8745 9.375 16.8745H2.83594C2.74219 16.8745 2.64844 16.8804 2.55469 16.8921C2.46094 16.9038 2.37305 16.9214 2.28516 16.9507Z" fill="#363D46"/>
</g>
</svg>
