<svg width="110" height="31" viewBox="0 0 110 31" fill="none" xmlns="http://www.w3.org/2000/svg">
<rect width="110" height="30.9261" fill="#DCF7E4"/>
<g clip-path="url(#clip0_502_5386)">
<path d="M12.1654 27.4478L13.8969 18.6894L7.30298 12.6693L16.167 11.6122L19.8516 3.47803L23.5966 11.582L32.4707 12.5736L25.9221 18.6441L27.719 27.3874L19.9271 23.0333L12.1654 27.4478Z" fill="#FFD759"/>
<path d="M19.8868 15.4628L7.30298 12.6692L13.8969 18.6893L19.8868 15.4628Z" fill="#FABD3B"/>
<path d="M19.887 15.4631L12.1655 27.448L19.9272 23.0336L27.7192 27.3876L19.887 15.4631Z" fill="#FABD3B"/>
<path d="M19.8862 15.463L32.4701 12.5737L25.9214 18.6442L19.8862 15.463Z" fill="#FABD3B"/>
<path d="M19.8511 3.47803L19.8863 15.4629L23.596 11.582L19.8511 3.47803Z" fill="#FABD3B"/>
</g>
<g clip-path="url(#clip1_502_5386)">
<path d="M45.7343 29.8447L47.8121 19.3347L39.8994 12.1106L50.5363 10.8421L54.9578 1.08105L59.4517 10.8059L70.1007 11.9958L62.2423 19.2803L64.3987 29.7722L55.0484 24.5474L45.7343 29.8447Z" fill="#FFD759"/>
<path d="M55 15.4632L39.8994 12.1108L47.8121 19.335L55 15.4632Z" fill="#FABD3B"/>
<path d="M54.9999 15.4631L45.7341 29.845L55.0482 24.5477L64.3985 29.7725L54.9999 15.4631Z" fill="#FABD3B"/>
<path d="M54.9998 15.463L70.1004 11.9958L62.242 19.2804L54.9998 15.463Z" fill="#FABD3B"/>
<path d="M54.9568 1.08105L54.9991 15.4629L59.4507 10.8059L54.9568 1.08105Z" fill="#FABD3B"/>
</g>
<g clip-path="url(#clip2_502_5386)">
<path d="M82.3924 27.4478L84.124 18.6894L77.53 12.6693L86.3941 11.6122L90.0787 3.47803L93.8236 11.582L102.698 12.5736L96.1491 18.6441L97.9461 27.3874L90.1542 23.0333L82.3924 27.4478Z" fill="#FFD759"/>
<path d="M90.1139 15.4628L77.53 12.6692L84.124 18.6893L90.1139 15.4628Z" fill="#FABD3B"/>
<path d="M90.1138 15.4631L82.3923 27.448L90.1541 23.0336L97.946 27.3876L90.1138 15.4631Z" fill="#FABD3B"/>
<path d="M90.1143 15.463L102.698 12.5737L96.1495 18.6442L90.1143 15.463Z" fill="#FABD3B"/>
<path d="M90.0791 3.47803L90.1143 15.4629L93.8241 11.582L90.0791 3.47803Z" fill="#FABD3B"/>
</g>
<defs>
<clipPath id="clip0_502_5386">
<rect width="25.7717" height="25.7717" fill="white" transform="translate(7 2.57715)"/>
</clipPath>
<clipPath id="clip1_502_5386">
<rect width="30.9261" height="30.9261" fill="white" transform="translate(39.5369)"/>
</clipPath>
<clipPath id="clip2_502_5386">
<rect width="25.7717" height="25.7717" fill="white" transform="translate(77.228 2.57715)"/>
</clipPath>
</defs>
</svg>
