<svg width="117" height="121" viewBox="0 0 117 121" fill="none" xmlns="http://www.w3.org/2000/svg">
<path d="M25.8638 0.396484C28.3801 0.998891 30.774 1.84289 32.8762 3.44303C39.418 8.43485 40.6604 18.4028 35.1666 24.3484C34.1124 25.4905 33.1523 26.7204 32.0949 27.9754C33.4127 29.083 34.3195 30.2627 34.3916 31.9067C34.4701 33.6387 33.8708 35.0819 32.4495 36.0671C31.8063 36.5126 31.618 36.9864 31.6463 37.7112C31.6745 38.4108 31.6463 39.1262 31.5176 39.8102C31.1537 41.8119 29.4657 43.3211 27.4294 43.3776C25.0826 43.4434 22.7325 43.4497 20.3888 43.3776C18.1423 43.3054 16.3571 41.4511 16.2284 39.2141C16.2065 38.825 16.1751 38.4265 16.2253 38.0406C16.3445 37.1056 16.0214 36.522 15.2276 35.9196C12.9591 34.2034 12.8085 30.9341 14.782 28.879C15.0236 28.628 15.2903 28.4021 15.6543 28.0633C15.3029 27.555 14.9891 27.0279 14.6063 26.5572C13.938 25.7383 13.2384 24.9477 12.5324 24.1633C5.68947 16.5516 9.70237 2.9473 21.214 0.638074C21.5152 0.578461 21.8101 0.47806 22.105 0.396484C23.3569 0.396484 24.6088 0.396484 25.8638 0.396484ZM22.0611 27.3228C22.0611 26.0239 21.9356 24.8002 22.0894 23.6142C22.3968 21.2423 21.7599 19.3441 19.755 17.951C19.3754 17.6874 19.0773 17.3047 18.7573 16.9627C17.8788 16.0277 17.8098 14.9233 18.569 14.1514C19.3628 13.3451 20.4265 13.3702 21.3646 14.2926C22.196 15.1115 22.9679 15.99 23.9687 17.0568C24.8818 16.0434 25.6285 15.1429 26.4568 14.3146C27.3949 13.3765 28.4523 13.3388 29.2586 14.1263C30.065 14.9139 30.0367 15.9838 29.1331 16.9313C28.2421 17.8663 27.3008 18.7511 26.4035 19.6798C26.1713 19.9214 25.8638 20.2382 25.8575 20.5238C25.8136 22.7796 25.8324 25.0355 25.8324 27.3981C26.6105 27.3981 27.2694 27.4295 27.922 27.3824C28.1479 27.3667 28.4303 27.2098 28.5684 27.0279C29.9175 25.2206 31.16 23.3287 32.5907 21.5937C34.6395 19.1087 35.2137 16.2912 34.6897 13.2321C33.8771 8.48505 30.2626 5.062 25.3806 4.25879C21.123 3.55598 16.5391 5.86207 14.3459 9.82164C12.5764 13.0188 11.9426 18.1581 15.7798 22.2118C16.8497 23.3413 17.9729 24.5273 18.6412 25.8952C19.3001 27.2506 20.1221 27.602 21.4367 27.3981C21.5874 27.373 21.7411 27.3604 22.0611 27.3228ZM23.8464 33.2935C25.6442 33.2935 27.442 33.2841 29.2398 33.2967C29.9959 33.3029 30.6109 33.0927 30.614 32.233C30.6203 31.3828 30.021 31.1475 29.2586 31.1475C25.7007 31.1569 22.1458 31.1569 18.5879 31.1475C17.8286 31.1475 17.2136 31.3765 17.2042 32.2142C17.1979 33.0519 17.8035 33.2998 18.569 33.2935C20.3292 33.281 22.0862 33.2904 23.8464 33.2904V33.2935ZM20.0343 37.1119C20.0123 37.4508 19.9841 37.7174 19.9809 37.9841C19.9558 39.6062 19.9966 39.647 21.5936 39.6502C23.2753 39.6502 24.9602 39.6188 26.6388 39.6627C27.5518 39.6878 27.944 39.3207 27.9063 38.4265C27.8907 38.0092 27.9063 37.5888 27.9063 37.115H20.0374L20.0343 37.1119Z" fill="#1FBB65"/>
<path d="M109.291 95.2071C110.427 95.3483 111.537 95.342 112.557 95.6401C115.327 96.4495 117.081 99.0349 116.997 101.972C116.915 104.795 114.976 107.192 112.046 107.93C107.612 109.047 103.166 110.107 98.7236 111.18C86.2299 114.199 73.73 117.195 61.2426 120.241C59.5609 120.652 57.967 120.646 56.279 120.235C39.465 116.131 22.6384 112.081 5.81807 108.005C2.1503 107.117 -0.00519082 104.118 0.543878 100.71C1.1055 97.2308 4.09557 95.0659 7.91081 95.3796C7.98611 95.3859 8.06141 95.3671 8.25594 95.3451C8.25594 92.8602 8.25594 90.3659 8.25594 87.8684C8.25594 86.9303 8.24652 85.989 8.25594 85.0509C8.29672 81.7502 11.0013 79.8896 14.167 81.0223C22.698 84.0782 31.2227 87.1562 39.7505 90.2278C45.7055 92.3707 51.6512 94.5388 57.6219 96.6315C58.2902 96.8637 59.1812 96.8794 59.8433 96.6441C74.2665 91.4985 88.6709 86.3028 103.078 81.1227C106.665 79.8332 109.228 81.6623 109.237 85.4933C109.244 88.703 109.25 91.9095 109.259 95.1192C109.259 95.1914 109.313 95.2636 109.291 95.2102V95.2071ZM58.673 116.931C59.0652 116.85 59.4103 116.787 59.7491 116.705C74.254 113.204 88.7588 109.699 103.264 106.195C105.959 105.542 108.663 104.918 111.343 104.199C112.758 103.82 113.505 102.442 113.184 101.099C112.852 99.7094 111.493 98.856 110.041 99.1321C109.658 99.2043 109.281 99.3141 108.902 99.4051C92.4987 103.371 76.0988 107.34 59.6895 111.278C59.0746 111.425 58.3655 111.406 57.7474 111.262C52.9564 110.142 48.1748 108.968 43.39 107.814C31.5427 104.952 19.6985 102.088 7.84806 99.2419C7.3335 99.1196 6.75306 99.06 6.24164 99.1666C5.018 99.4271 4.23989 100.503 4.25244 101.73C4.26813 103.076 5.1184 103.992 6.76247 104.391C22.4062 108.168 38.05 111.943 53.6937 115.72C55.3629 116.122 57.032 116.53 58.673 116.925V116.931ZM56.8657 107.211C56.8657 105.144 56.8124 103.267 56.8908 101.394C56.9254 100.553 56.5865 100.255 55.8649 99.9981C41.7146 94.9278 27.5737 89.8293 13.4266 84.7465C13.0407 84.6085 12.6328 84.5269 12.1057 84.3826V96.3836C26.9776 99.9824 41.8464 103.581 56.8657 107.214V107.211ZM105.359 84.3669C104.81 84.5269 104.403 84.621 104.013 84.7622C96.1539 87.5923 88.2944 90.4286 80.4349 93.2587C74.1912 95.5051 67.9412 97.7359 61.707 100.014C61.2865 100.168 60.6935 100.632 60.6747 100.977C60.5774 103.001 60.6276 105.034 60.6276 107.218C75.6313 103.587 90.5221 99.9824 105.479 96.3648C105.479 92.6029 105.479 88.932 105.476 85.2611C105.476 85.0352 105.419 84.8062 105.366 84.37L105.359 84.3669Z" fill="#1FBB65"/>
<path d="M41.7615 74.0716C42.116 73.2307 42.3639 72.4934 42.7278 71.8157C43.0698 71.1819 43.2393 70.6078 42.7624 69.9834C42.6933 69.8924 42.6337 69.7794 42.6086 69.6696C42.2164 68.0475 41.3693 66.9902 39.6029 66.5949C38.4043 66.3282 37.8364 65.252 37.8239 63.9844C37.8145 62.9679 37.8082 61.9513 37.8239 60.9347C37.849 59.3597 38.4545 58.2647 39.9856 58.0043C42.4078 57.5901 42.2164 55.4033 43.0793 53.938C43.1985 53.7372 42.8534 53.2352 42.6808 52.8932C41.5293 50.6123 41.6485 49.8592 43.4746 48.0332C43.6126 47.8952 43.7507 47.7571 43.8887 47.619C46.3674 45.1435 46.518 45.1278 49.6743 46.5209C50.0069 46.6684 50.4681 46.5774 50.8572 46.5209C51.1176 46.4833 51.3435 46.2574 51.6039 46.1977C53.1821 45.8401 54.114 44.9647 54.4842 43.3049C54.754 42.097 55.7925 41.5009 57.0601 41.4789C58.039 41.4601 59.0148 41.4695 59.9937 41.4758C61.8041 41.4883 62.6104 42.0844 63.2128 43.785C63.4167 44.3591 63.5548 45.1529 63.9815 45.4071C64.973 46.0001 66.1087 46.364 67.2194 46.7249C67.4704 46.8064 67.8626 46.5115 68.1732 46.3546C70.5484 45.1624 71.2292 45.269 73.1243 47.1641C73.5102 47.55 73.9024 47.9359 74.2852 48.325C75.7002 49.7588 75.8571 50.7472 74.9817 52.5293C74.7464 53.0093 74.3071 53.596 74.4232 54.0039C74.7527 55.1554 75.2327 56.2912 75.8414 57.3203C76.0547 57.6843 76.814 57.7345 77.3286 57.9102C79.0291 58.4937 79.6409 59.322 79.6566 61.1167C79.666 61.9764 79.666 62.8392 79.6566 63.6989C79.6378 65.4057 79.0291 66.3627 77.3819 66.8145C76.221 67.1314 75.6343 67.7212 75.1417 68.8413C74.5079 70.2783 74.3573 71.4486 75.2233 72.8417C75.8728 73.8896 75.5904 75.0474 74.7244 75.9698C74.031 76.7103 73.3094 77.4288 72.5783 78.1347C71.3578 79.3113 70.3068 79.4431 68.738 78.7026C68.1889 78.4422 67.5363 77.9747 67.05 78.0939C65.9299 78.37 64.8286 78.8563 63.8309 79.4493C63.4638 79.6658 63.3979 80.4125 63.2222 80.924C62.6198 82.681 61.7852 83.2991 59.9341 83.3116C59.1121 83.3179 58.29 83.321 57.4711 83.3116C55.6921 83.2928 54.8576 82.6653 54.2583 80.9742C54.0575 80.4031 53.91 79.6219 53.4802 79.3646C52.4919 78.7685 51.3592 78.392 50.2517 78.0249C50.0038 77.9433 49.6147 78.2539 49.3041 78.4108C46.9572 79.5874 46.2262 79.4713 44.35 77.5919C43.826 77.0679 43.2361 76.5879 42.8 75.9949C42.3764 75.4207 42.1098 74.7336 41.7615 74.0747V74.0716ZM47.1988 53.8314C46.9729 54.462 46.8004 55.0142 46.5807 55.5476C46.2105 56.4481 45.6897 57.3077 45.4512 58.2427C45.0559 59.7801 44.1774 60.7088 42.6431 61.0383C41.9278 61.192 41.523 61.4775 41.5356 62.3655C41.545 63.2189 41.8588 63.5452 42.6149 63.7083C44.1899 64.044 45.103 65.0198 45.4732 66.6043C45.6583 67.3918 46.0034 68.1699 46.4239 68.8633C47.2428 70.2187 47.2522 71.5176 46.4082 72.8291C46.0066 73.4535 45.9219 73.9335 46.5494 74.5485C47.1549 75.1415 47.6193 75.1603 48.2656 74.7336C49.6147 73.8457 50.9451 73.9084 52.3381 74.743C53.0974 75.198 53.9665 75.518 54.8262 75.7502C56.1753 76.1141 56.9848 76.9268 57.3362 78.2571C57.5213 78.963 57.6311 79.5999 58.7167 79.6093C59.7866 79.6188 59.9466 79.0258 60.1286 78.2978C60.4769 76.9111 61.324 76.0953 62.7202 75.7282C63.5799 75.5023 64.4396 75.1603 65.202 74.7054C66.5574 73.899 67.8532 73.8614 69.171 74.7054C69.7891 75.1007 70.2534 75.1948 70.8935 74.5799C71.5869 73.9179 71.4363 73.4127 71.0315 72.7601C70.2377 71.4769 70.2409 70.203 71.0441 68.8947C71.408 68.3017 71.7343 67.6428 71.8818 66.9682C72.2834 65.1328 73.2623 63.9279 75.1637 63.6111C75.9167 63.4856 75.9324 62.9867 75.9104 62.4031C75.8916 61.854 75.9983 61.3112 75.2045 61.1669C73.3376 60.8312 72.2583 59.6986 71.9006 57.8317C71.8065 57.3423 71.612 56.8371 71.3359 56.4261C70.2283 54.7852 70.1875 53.1882 71.2386 51.4908C71.3924 51.2398 71.1382 50.5558 70.8653 50.2734C70.5923 49.991 69.8926 49.7055 69.6636 49.8561C67.9317 50.9888 66.297 50.8664 64.631 49.7557C64.2796 49.5204 63.856 49.3478 63.4418 49.2694C61.4997 48.9054 60.3231 47.8167 59.8807 45.8589C59.8149 45.5734 59.1466 45.2659 58.7544 45.2628C58.359 45.2565 57.6625 45.5514 57.6029 45.8244C57.1731 47.8544 55.918 48.9086 53.9539 49.2976C53.5053 49.3855 53.0503 49.5926 52.6676 49.8498C51.1019 50.8946 49.5363 50.9982 47.9738 49.8938C47.34 49.4451 46.9949 49.8059 46.5964 50.2169C46.2105 50.6185 45.8215 50.9291 46.2168 51.6037C46.6247 52.294 46.8694 53.0815 47.1926 53.8376L47.1988 53.8314Z" fill="#1FBB65"/>
<path d="M86.2017 7.93641C85.7059 7.90817 85.3545 7.90817 85.0063 7.86111C83.9144 7.71992 83.1583 6.88847 83.2022 5.90642C83.2493 4.88673 84.0179 4.15254 85.1569 4.13686C87.19 4.10862 89.2263 4.12744 91.2594 4.12744C98.0678 4.12744 104.873 4.12744 111.682 4.13058C112.108 4.13058 112.679 4.02077 112.937 4.24353C113.451 4.6922 113.991 5.28206 114.157 5.90956C114.374 6.73787 113.843 7.42813 113.002 7.70423C112.497 7.87052 111.945 7.88935 111.283 7.99602C111.283 9.15063 111.405 10.3335 111.242 11.4724C111.123 12.3007 110.816 13.2451 110.27 13.8412C108.036 16.2948 105.679 18.6354 103.298 21.0889C105.463 23.3229 107.521 25.5631 109.714 27.6684C110.882 28.7885 111.478 29.9807 111.302 31.5997C111.211 32.4437 111.286 33.3065 111.286 34.2164C111.838 34.2854 112.303 34.3074 112.748 34.4078C113.715 34.6274 114.226 35.2643 114.204 36.2558C114.179 37.2472 113.633 37.8497 112.657 38.0254C112.353 38.0818 112.033 38.0756 111.722 38.0756C103.075 38.0756 94.4314 38.0756 85.7844 38.0756C85.4706 38.0756 85.1569 38.0787 84.8494 38.0348C83.7983 37.881 83.2304 37.2096 83.2304 36.1993C83.2304 35.2424 83.7732 34.5835 84.7553 34.3952C85.1726 34.3168 85.6055 34.3074 86.2079 34.2478C86.2079 33.0837 86.2613 31.926 86.1923 30.7777C86.1264 29.7078 86.5154 28.9234 87.259 28.1829C89.5526 25.8862 91.7928 23.5425 94.1396 21.1297C93.5435 20.4991 92.9976 19.903 92.436 19.3225C90.6946 17.5216 88.9753 15.7018 87.1931 13.9416C86.4684 13.2232 86.1421 12.4513 86.1923 11.4379C86.2519 10.3115 86.2048 9.17887 86.2048 7.93641H86.2017ZM107.521 34.2572C107.521 33.6767 107.468 33.2438 107.531 32.8265C107.747 31.424 107.22 30.4012 106.194 29.4348C104.403 27.7468 102.727 25.9302 101.014 24.1543C99.0624 22.1306 99.0499 20.0787 100.979 18.0738C102.715 16.2697 104.349 14.3401 106.251 12.7243C107.926 11.2967 107.458 9.6495 107.477 7.96778H89.9604C89.9604 8.60157 90.0201 9.15377 89.9479 9.69029C89.7879 10.8794 90.224 11.736 91.0868 12.5643C92.9756 14.3809 94.7703 16.2948 96.5838 18.1899C98.3408 20.0253 98.3251 22.1745 96.5555 24.0163C94.8487 25.7952 93.2486 27.7029 91.3723 29.2842C89.6467 30.74 89.8946 32.428 90.0546 34.2509H107.518L107.521 34.2572Z" fill="#1FBB65"/>
<path d="M86.1953 48.7897C86.4494 48.1622 86.6722 47.5378 86.9515 46.9417C87.4158 45.9534 88.3351 45.5298 89.2544 45.8436C90.2553 46.1824 90.8169 47.1237 90.4404 48.1904C89.6309 50.4714 88.7587 52.7336 87.8143 54.9644C87.397 55.9464 86.4996 56.3072 85.4611 55.9182C83.2649 55.0961 81.0749 54.2616 78.9068 53.3705C77.8683 52.9438 77.473 51.9084 77.8432 50.9452C78.204 50.0102 79.208 49.5615 80.2622 49.9067C81.0309 50.1577 81.7808 50.4557 82.7754 50.8197C81.3259 47.7449 79.4747 45.2694 77.2 43.1139C62.8458 29.5252 39.5716 35.3893 33.3436 54.1549C33.2683 54.3776 33.2055 54.6036 33.1114 54.82C32.691 55.7833 31.7403 56.2696 30.8304 55.9872C29.8515 55.686 29.2491 54.7134 29.5942 53.6686C30.1182 52.0778 30.639 50.4557 31.414 48.9811C37.027 38.2821 45.8843 32.2706 57.9701 31.9851C70.0904 31.6996 79.2614 37.2655 85.4423 47.7072C85.6211 48.0085 85.7812 48.3253 85.96 48.6265C85.9914 48.683 86.073 48.7081 86.1922 48.7897H86.1953Z" fill="#1FBB65"/>
<path d="M34.6927 73.9122C36.1297 76.9618 37.9495 79.4154 40.1803 81.5677C54.3399 95.2035 77.9154 89.3896 84.1057 70.7433C84.181 70.5205 84.2438 70.2946 84.3316 70.0781C84.7803 68.9549 85.7215 68.4591 86.7444 68.8011C87.6982 69.1211 88.2379 70.0938 87.8739 71.1731C87.3531 72.723 86.8385 74.3044 86.0792 75.7445C80.3972 86.5721 71.4301 92.5899 59.1937 92.7656C47.1299 92.9382 38.0154 87.3565 31.9474 76.8897C31.7717 76.5885 31.6054 76.2841 31.3512 75.8292C31.0563 76.5477 30.8273 77.1501 30.5606 77.7337C30.0743 78.8004 29.1769 79.224 28.1886 78.8757C27.1658 78.5181 26.6575 77.5235 27.0685 76.3971C27.8592 74.2322 28.7063 72.0893 29.5848 69.9589C30.0429 68.8482 30.9496 68.434 32.0666 68.845C34.2283 69.6388 36.3776 70.4766 38.5111 71.3519C39.6186 71.8037 40.0422 72.8548 39.6312 73.8431C39.2453 74.7718 38.2632 75.1891 37.1776 74.8377C36.4152 74.593 35.6716 74.2824 34.6896 73.9122H34.6927Z" fill="#1FBB65"/>
<path d="M58.5725 73.7612C52.2723 73.6232 47.2429 68.4902 47.3339 62.2904C47.428 55.9745 52.6269 50.8572 58.8549 50.9545C65.1582 51.0518 70.2849 56.3008 70.15 62.5132C70.0119 68.8729 64.8382 73.8961 58.5756 73.7612H58.5725ZM58.7294 69.9993C62.9305 70.0087 66.3348 66.6516 66.3912 62.4441C66.4477 58.243 62.9713 54.7227 58.7576 54.7133C54.5533 54.7007 51.0644 58.2085 51.0958 62.4159C51.1271 66.6139 54.5282 69.9899 58.7294 69.9993Z" fill="#1FBB65"/>
</svg>
