<svg width="42" height="21" viewBox="0 0 42 21" fill="none" xmlns="http://www.w3.org/2000/svg">
<mask id="path-1-inside-1_301_22987" fill="white">
<path d="M40.5652 0H35.2174C34.5652 0 33.913 0.515337 33.913 1.28834C33.913 1.93252 34.4348 2.57669 35.2174 2.57669H37.5652L28.0435 11.9816L24 7.98773C23.4783 7.47239 22.6956 7.47239 22.1739 7.98773L15.2609 14.816L10.6957 10.3067C10.1739 9.79141 9.3913 9.79141 8.86957 10.3067L0.391304 18.8098C-0.130435 19.3252 -0.130435 20.0982 0.391304 20.6135C0.913043 21.1288 1.69565 21.1288 2.21739 20.6135L9.78261 13.1411L14.3478 17.6503C14.8696 18.1656 15.6522 18.1656 16.1739 17.6503L23.087 10.8221L27.1304 14.816C27.6522 15.3313 28.4348 15.3313 28.9565 14.816L39.3913 4.5092V6.82822C39.3913 7.47239 39.913 8.11657 40.6956 8.11657C41.3478 8.11657 42 7.60123 42 6.82822V1.54601C41.8696 0.515338 41.3478 0 40.5652 0Z"/>
</mask>
<path d="M40.5652 0H35.2174C34.5652 0 33.913 0.515337 33.913 1.28834C33.913 1.93252 34.4348 2.57669 35.2174 2.57669H37.5652L28.0435 11.9816L24 7.98773C23.4783 7.47239 22.6956 7.47239 22.1739 7.98773L15.2609 14.816L10.6957 10.3067C10.1739 9.79141 9.3913 9.79141 8.86957 10.3067L0.391304 18.8098C-0.130435 19.3252 -0.130435 20.0982 0.391304 20.6135C0.913043 21.1288 1.69565 21.1288 2.21739 20.6135L9.78261 13.1411L14.3478 17.6503C14.8696 18.1656 15.6522 18.1656 16.1739 17.6503L23.087 10.8221L27.1304 14.816C27.6522 15.3313 28.4348 15.3313 28.9565 14.816L39.3913 4.5092V6.82822C39.3913 7.47239 39.913 8.11657 40.6956 8.11657C41.3478 8.11657 42 7.60123 42 6.82822V1.54601C41.8696 0.515338 41.3478 0 40.5652 0Z" fill="#EDF4F1"/>
<path d="M37.5652 2.57669L43.0167 8.09588L56.4584 -5.18089H37.5652V2.57669ZM28.0435 11.9816L22.592 17.5008L28.0435 22.8854L33.4949 17.5008L28.0435 11.9816ZM24 7.98773L29.4515 2.46854V2.46854L24 7.98773ZM22.1739 7.98773L16.7224 2.46854V2.46854L22.1739 7.98773ZM15.2609 14.816L9.8094 20.3351L15.2609 25.7197L20.7123 20.3351L15.2609 14.816ZM8.86957 10.3067L3.41809 4.78756L3.39703 4.80837L3.37612 4.82933L8.86957 10.3067ZM0.391304 18.8098L5.84277 24.329L5.86384 24.3082L5.88475 24.2872L0.391304 18.8098ZM2.21739 20.6135L-3.23408 15.0943H-3.23408L2.21739 20.6135ZM9.78261 13.1411L15.2341 7.62192L9.78261 2.23733L4.33114 7.62192L9.78261 13.1411ZM16.1739 17.6503L21.6254 23.1695H21.6254L16.1739 17.6503ZM23.087 10.8221L28.5384 5.3029L23.087 -0.0816885L17.6355 5.3029L23.087 10.8221ZM27.1304 14.816L21.679 20.3351L21.679 20.3351L27.1304 14.816ZM39.3913 4.5092H47.1489V-14.057L33.9398 -1.00999L39.3913 4.5092ZM42 1.54601H49.7576V1.05709L49.6962 0.572039L42 1.54601ZM40.5652 -7.75758H35.2174V7.75758H40.5652V-7.75758ZM35.2174 -7.75758C30.887 -7.75758 26.1555 -4.35107 26.1555 1.28834H41.6706C41.6706 5.38174 38.2435 7.75758 35.2174 7.75758V-7.75758ZM26.1555 1.28834C26.1555 5.79701 29.7422 10.3343 35.2174 10.3343V-5.18089C39.1273 -5.18089 41.6706 -1.93198 41.6706 1.28834H26.1555ZM35.2174 10.3343H37.5652V-5.18089H35.2174V10.3343ZM32.1137 -2.9425L22.592 6.46241L33.4949 17.5008L43.0167 8.09588L32.1137 -2.9425ZM33.4949 6.46241L29.4515 2.46854L18.5485 13.5069L22.592 17.5008L33.4949 6.46241ZM29.4515 2.46854C25.9081 -1.03131 20.2658 -1.03131 16.7224 2.46854L27.6254 13.5069C25.1255 15.9761 21.0484 15.9761 18.5485 13.5069L29.4515 2.46854ZM16.7224 2.46854L9.8094 9.29676L20.7123 20.3351L27.6254 13.5069L16.7224 2.46854ZM20.7123 9.29676L16.1471 4.78756L5.24418 15.8259L9.8094 20.3351L20.7123 9.29676ZM16.1471 4.78756C12.6038 1.28771 6.96142 1.28771 3.41809 4.78756L14.321 15.8259C11.8212 18.2951 7.74403 18.2951 5.24418 15.8259L16.1471 4.78756ZM3.37612 4.82933L-5.10214 13.3324L5.88475 24.2872L14.363 15.7842L3.37612 4.82933ZM-5.06017 13.2906C-8.65671 16.843 -8.65671 22.5803 -5.06017 26.1327L5.84277 15.0943C6.99981 16.2371 7.75758 17.88 7.75758 19.7117C7.75758 21.5433 6.99981 23.1862 5.84277 24.329L-5.06017 13.2906ZM-5.06017 26.1327C-1.51684 29.6325 4.12553 29.6325 7.66886 26.1327L-3.23408 15.0943C-0.73423 12.6251 3.34292 12.6251 5.84277 15.0943L-5.06017 26.1327ZM7.66886 26.1327L15.2341 18.6603L4.33114 7.62192L-3.23408 15.0943L7.66886 26.1327ZM4.33114 18.6603L8.89635 23.1695L19.7993 12.1311L15.2341 7.62192L4.33114 18.6603ZM8.89635 23.1695C12.4397 26.6694 18.0821 26.6694 21.6254 23.1695L10.7224 12.1311C13.2223 9.66194 17.2994 9.66194 19.7993 12.1311L8.89635 23.1695ZM21.6254 23.1695L28.5384 16.3413L17.6355 5.3029L10.7224 12.1311L21.6254 23.1695ZM17.6355 16.3413L21.679 20.3351L32.5819 9.29676L28.5384 5.3029L17.6355 16.3413ZM21.679 20.3351C25.2223 23.835 30.8647 23.835 34.408 20.3351L23.505 9.29676C26.0049 6.82758 30.0821 6.82758 32.5819 9.29676L21.679 20.3351ZM34.408 20.3351L44.8428 10.0284L33.9398 -1.00999L23.505 9.29676L34.408 20.3351ZM31.6337 4.5092V6.82822H47.1489V4.5092H31.6337ZM31.6337 6.82822C31.6337 11.3369 35.2205 15.8741 40.6956 15.8741V0.358991C44.6056 0.358991 47.1489 3.6079 47.1489 6.82822H31.6337ZM40.6956 15.8741C45.026 15.8741 49.7576 12.4677 49.7576 6.82822H34.2424C34.2424 2.7348 37.6696 0.358991 40.6956 0.358991V15.8741ZM49.7576 6.82822V1.54601H34.2424V6.82822H49.7576ZM49.6962 0.572039C49.5009 -0.971306 48.8965 -3.11788 47.1538 -4.95399C45.2553 -6.95422 42.7927 -7.75758 40.5652 -7.75758V7.75758C39.1203 7.75758 37.3099 7.21189 35.9005 5.727C34.6469 4.40623 34.3687 3.03266 34.3038 2.51999L49.6962 0.572039Z" fill="#11101D" mask="url(#path-1-inside-1_301_22987)"/>
</svg>
