<svg width="79" height="21" viewBox="0 0 79 21" fill="none" xmlns="http://www.w3.org/2000/svg">
<path d="M70.4825 0.822427L59.8625 1.60243L49.2325 2.38242C38.1325 3.20242 40.9125 3.20242 29.8425 2.38242L19.2125 1.60243L8.58254 0.822427C5.10254 0.562427 0.182539 2.27243 0.102539 6.60243V6.83242C0.102539 6.90242 0.102539 6.97242 0.102539 7.05242C0.642539 16.5424 10.1125 19.6924 19.2025 20.5924C21.5625 20.8224 23.8925 20.9024 26.0325 20.9024C32.6525 20.9024 34.4925 15.5024 36.1025 10.8624C37.2625 7.53243 42.3425 7.62243 43.2825 10.7424C44.7025 15.4324 46.3425 20.9024 53.0125 20.9024C55.1525 20.9024 57.4825 20.8224 59.8425 20.5924C68.9325 19.6924 78.4025 16.5524 78.9425 7.05242C79.2025 2.54242 74.0025 0.572422 70.4725 0.832422L70.4825 0.822427ZM26.0425 18.8624C24.0325 18.8624 21.6525 18.7724 19.2125 18.4524C12.2625 17.5524 4.86254 14.8124 4.44254 7.01242C4.31254 4.63242 6.34254 2.68242 8.58254 2.84242L19.2125 3.62242L29.8425 4.40243C32.1225 4.40243 33.9825 4.69243 33.9825 6.97243C33.9825 10.5724 31.9325 18.8424 26.0425 18.8424V18.8624ZM59.8625 18.4524C57.4225 18.7724 55.0425 18.8624 53.0325 18.8624C47.1425 18.8624 45.0925 10.5924 45.0925 6.99243C45.0925 4.71243 46.9525 4.42243 49.2325 4.42243L59.8625 3.64243L70.4825 2.86243C72.7225 2.69243 74.7525 4.65243 74.6225 7.03243C74.2025 14.8324 66.8125 17.5724 59.8525 18.4724L59.8625 18.4524Z" fill="black"/>
</svg>
