<svg width="75" height="22" viewBox="0 0 75 22" fill="none" xmlns="http://www.w3.org/2000/svg">
<path fill-rule="evenodd" clip-rule="evenodd" d="M74.4072 1.65343C71.4772 1.61343 65.1072 -0.136562 58.7172 0.453438C58.1072 0.513438 57.5172 0.57344 56.9572 0.64344C46.4472 1.92344 43.1472 5.28343 37.5272 5.60343C31.9072 5.28343 28.6072 1.92344 18.0972 0.64344C17.5272 0.57344 16.9472 0.513438 16.3372 0.453438C9.95723 -0.136562 3.58723 1.61343 0.647227 1.65343C0.567227 2.03343 0.487227 2.41343 0.407227 2.79343C1.93723 6.39343 2.08723 11.9034 5.21723 15.3934C8.46723 19.0134 12.4172 21.1934 17.5272 21.3534C17.7172 21.3534 17.9072 21.3534 18.0972 21.3634C25.7372 21.4734 31.7472 18.7834 34.1772 12.4334C34.9072 10.5334 35.6972 9.48344 37.5272 9.56344C39.3672 9.48344 40.1572 10.5334 40.8772 12.4334C43.3072 18.7834 49.3172 21.4734 56.9572 21.3634C57.1472 21.3634 57.3372 21.3634 57.5272 21.3534C62.6372 21.1934 66.5872 19.0134 69.8372 15.3934C72.9672 11.9034 73.1272 6.39343 74.6472 2.79343C74.5672 2.41343 74.4872 2.03343 74.4072 1.65343ZM28.6672 17.5234C25.1972 20.0134 21.5772 20.4234 18.1172 20.3434H18.0972C13.5172 20.2334 9.22723 18.6434 6.09723 14.5934C1.21723 8.27344 2.46723 2.44344 11.1272 1.78344C13.4972 1.60344 15.8172 1.65344 18.0972 1.94344C21.6672 2.40344 25.1072 3.47344 28.3672 5.19344C34.6872 8.53344 34.1272 13.6034 28.6672 17.5234ZM68.9672 14.5934C65.8372 18.6434 61.5472 20.2334 56.9672 20.3434H56.9472C53.4872 20.4234 49.8672 20.0134 46.3972 17.5234C40.9372 13.6034 40.3672 8.52344 46.6972 5.19344C49.9572 3.47344 53.3972 2.40344 56.9672 1.94344C59.2472 1.64344 61.5772 1.60344 63.9372 1.78344C72.5972 2.44344 73.8472 8.28344 68.9672 14.5934Z" fill="black"/>
</svg>
