<svg width="75" height="30" viewBox="0 0 75 30" fill="none" xmlns="http://www.w3.org/2000/svg">
<path fill-rule="evenodd" clip-rule="evenodd" d="M73.1721 9.37H71.6921C69.4821 4.01 64.2021 0.25 58.0521 0.25C52.9321 0.25 48.4321 2.85 45.7821 6.81C45.5321 6.72 45.2721 6.64 45.0221 6.56C42.5221 5.77 40.0221 5.37 37.5221 5.37H37.5021C34.9921 5.37 32.4821 5.77 29.9721 6.57C29.7221 6.65 29.4721 6.74 29.2121 6.82C26.5621 2.86 22.0521 0.25 16.9321 0.25C10.7721 0.25 5.50207 4.02 3.28207 9.37H1.89207C1.19207 9.37 0.62207 9.94 0.62207 10.64C0.62207 11.34 1.19207 11.91 1.89207 11.91H2.49207C2.28207 12.91 2.16207 13.94 2.16207 15C2.16207 23.15 8.77207 29.75 16.9221 29.75C22.5721 29.75 27.4821 26.57 29.9621 21.91C31.0621 19.85 31.6821 17.5 31.6821 15C31.6821 13.07 31.3121 11.22 30.6321 9.52C32.9221 8.7 35.2021 8.29 37.4921 8.29C39.7821 8.29 42.0621 8.69 44.3521 9.51C43.6721 11.21 43.2921 13.06 43.2921 15C43.2921 17.5 43.9121 19.86 45.0121 21.92C47.4921 26.58 52.4021 29.75 58.0421 29.75C66.1921 29.75 72.7921 23.14 72.7921 15C72.7921 13.94 72.6821 12.91 72.4721 11.91H73.1621C73.8621 11.91 74.4321 11.34 74.4321 10.64C74.4321 9.94 73.8621 9.37 73.1621 9.37H73.1721ZM29.9621 18.14C28.5521 24.03 23.2521 28.41 16.9221 28.41C9.52207 28.41 3.51207 22.41 3.51207 15C3.51207 7.59 9.52207 1.6 16.9221 1.6C23.2421 1.6 28.5421 5.98 29.9621 11.87C30.2021 12.88 30.3321 13.92 30.3321 15C30.3321 16.08 30.2021 17.13 29.9621 18.14ZM37.4921 6.88C35.0121 6.88 32.5221 7.34 30.0421 8.24L29.9621 8.09C29.8421 7.87 29.7221 7.65 29.5921 7.43C29.7121 7.39 29.8421 7.35 29.9621 7.31C32.4721 6.49 34.9821 6.08 37.4921 6.07H37.5121C40.0121 6.07 42.5121 6.48 45.0121 7.29C45.1321 7.33 45.2621 7.37 45.3821 7.41C45.2521 7.63 45.1221 7.85 45.0121 8.07L44.9421 8.21C42.4621 7.31 39.9721 6.86 37.4921 6.87V6.88ZM58.0521 28.41C51.7321 28.41 46.4421 24.04 45.0221 18.16C44.7821 17.15 44.6521 16.09 44.6521 15C44.6521 13.91 44.7821 12.86 45.0221 11.85C46.4421 5.97 51.7421 1.6 58.0521 1.6C65.4521 1.6 71.4621 7.6 71.4621 15.01C71.4621 22.42 65.4621 28.42 58.0521 28.42V28.41Z" fill="black"/>
</svg>
