<svg width="79" height="28" viewBox="0 0 79 28" fill="none" xmlns="http://www.w3.org/2000/svg">
<path fill-rule="evenodd" clip-rule="evenodd" d="M78.2935 3.10226C77.4624 2.02066 68.5819 0.369812 59.7812 0.688597C54.8286 0.859376 49.8988 1.65635 46.4491 3.52352C44.673 4.49126 43.7508 4.67342 42.2252 4.42294C41.3144 4.26355 40.4263 4.07 39.5269 4.10416C38.6274 4.07 37.7508 4.26355 36.8286 4.42294C35.303 4.67342 34.3808 4.49126 32.6047 3.52352C29.155 1.65635 24.2252 0.859376 19.2726 0.688597C10.4718 0.381197 1.59136 2.02066 0.771625 3.10226C0.680544 4.28632 0.600847 5.459 0.509766 6.64306C1.60275 7.28063 2.24032 8.62408 2.51356 10.662C4.47182 25.0302 12.783 26.7835 18.3276 27.0226C18.635 27.034 18.9424 27.0453 19.2726 27.0453C24.339 27.1137 32.0923 25.941 34.6768 15.5007C34.9956 14.2256 35.451 12.9618 35.8267 11.4476C36.931 6.90492 42.1113 6.90492 43.2157 11.4476C43.5914 12.9732 44.0468 14.2256 44.3656 15.5007C46.95 25.941 54.7034 27.1137 59.7698 27.0453C60.0999 27.0453 60.4187 27.034 60.7261 27.0226C66.2707 26.7835 74.5819 25.0302 76.5402 10.662C76.8134 8.62408 77.451 7.28063 78.544 6.64306C78.4529 5.459 78.3618 4.28632 78.2821 3.10226H78.2935ZM29.1322 22.6051C26.969 24.6203 23.1436 25.793 19.284 25.7702C18.8969 25.7702 18.5212 25.7588 18.1341 25.7247C13.6369 25.4173 9.28776 23.4704 7.47751 20.4875C2.88927 12.9163 4.67675 3.47798 13.1246 2.6127C15.2081 2.39638 17.2574 2.22561 19.2726 2.19145C22.7451 2.13453 26.0923 2.51023 29.2802 3.88784C36.7717 7.13262 32.9576 19.0302 29.1208 22.6051H29.1322ZM71.5876 20.4875C69.7774 23.4704 65.4396 25.4173 60.9311 25.7247C60.544 25.7474 60.1683 25.7588 59.7812 25.7702C55.9216 25.793 52.0961 24.6203 49.933 22.6051C46.0961 19.0302 42.2821 7.14401 49.7736 3.88784C52.95 2.51023 56.3087 2.13453 59.7812 2.19145C61.7963 2.22561 63.8457 2.40777 65.9292 2.6127C74.377 3.47798 76.1759 12.9049 71.5762 20.4875H71.5876Z" fill="black"/>
</svg>
