<svg width="73" height="22" viewBox="0 0 73 22" fill="none" xmlns="http://www.w3.org/2000/svg">
<path d="M66.5734 0.0646858L66.2134 0.0546875H46.9534C43.9234 0.0546875 41.3534 2.11469 40.5634 4.89469C38.1734 4.20469 34.9434 4.24469 32.4934 4.94469C31.7234 2.13469 29.1334 0.0546875 26.0934 0.0546875H6.47336C3.09336 0.254688 0.193359 2.99468 0.193359 6.41468C0.193359 6.52468 0.193359 6.63469 0.193359 6.74469C0.443359 11.5247 0.95336 21.6447 10.1834 21.6447H22.0034C29.1234 21.6447 32.1434 13.4747 32.6534 8.20469C35.0134 7.34469 38.3734 7.30468 40.3834 8.07468C40.8434 13.3347 43.8534 21.6347 51.0434 21.6347H62.8634C72.0834 21.6347 72.5934 11.5147 72.8534 6.73468C73.0434 3.16468 70.0734 0.244687 66.5734 0.0546875V0.0646858ZM22.0034 19.4647H10.1834C3.05336 19.4647 2.59336 10.8247 2.37336 6.72469C2.23336 4.16469 4.40336 2.24469 6.82336 2.24469H26.0834C28.5334 2.24469 30.5334 4.24469 30.5334 6.69469C30.5334 10.5647 28.3234 19.4647 21.9934 19.4647H22.0034ZM62.8534 19.4647H51.0334C44.6934 19.4647 42.4934 10.5647 42.4934 6.69469C42.4934 4.24469 44.4934 2.24469 46.9434 2.24469H66.2034C68.6234 2.24469 70.7934 4.17469 70.6534 6.72469C70.4334 10.8247 69.9734 19.4647 62.8434 19.4647H62.8534Z" fill="black"/>
</svg>
