<svg width="81" height="30" viewBox="0 0 81 30" fill="none" xmlns="http://www.w3.org/2000/svg">
<path d="M77.8379 13.3789H79.2879C79.8379 13.3789 80.2879 13.8289 80.2879 14.3789C80.2879 14.8889 79.8679 15.3089 79.3579 15.3089H77.8479V13.3789H77.8379Z" fill="black"/>
<path d="M12.5524 0.659724C15.7303 0.186942 19.4866 0.21468 23.1872 0.701716L23.9264 0.805232L23.9342 0.806208L25.5241 1.07574L25.5309 1.07769L26.2956 1.22808C27.8199 1.54215 29.3043 1.93516 30.7018 2.40386L31.3932 2.6441L31.3942 2.64508L31.943 2.85797C34.6079 3.96725 36.1715 5.71189 36.6081 8.03668L36.6608 8.31304C36.7685 8.95134 36.7689 9.53199 36.7389 9.96832C36.7217 10.2182 36.6948 10.4232 36.6715 10.567C36.66 10.6385 36.6492 10.6951 36.6413 10.7349C36.6373 10.7546 36.6339 10.7706 36.6315 10.7818C36.6303 10.7874 36.6283 10.7921 36.6276 10.7955C36.6272 10.797 36.6269 10.7983 36.6266 10.7994V10.8023C36.6265 10.8023 36.6257 10.8022 36.6178 10.8003C36.6092 10.881 36.5988 10.9655 36.5807 11.0582L36.5817 11.0591C35.9563 14.6779 34.1622 19.061 28.9294 24.2837C23.7333 29.4696 16.6073 31.4138 9.81607 27.816L9.49283 27.6402C4.23227 24.7198 2.35656 18.8115 2.39713 13.5074V13.4976L2.3981 13.4878L2.50748 11.5181L2.50943 11.5005C2.81383 8.47685 3.72899 5.74856 5.01724 4.03082V4.02984L5.15006 3.86285C5.83154 3.03669 6.82935 2.37571 8.03092 1.85992C9.31555 1.30851 10.8575 0.911906 12.5524 0.659724ZM58.0172 0.701716C61.7178 0.214684 65.4741 0.186936 68.652 0.659724C70.347 0.911906 71.8889 1.30851 73.1735 1.85992C74.3751 2.37572 75.3729 3.03669 76.0544 3.86285L76.1872 4.02984V4.03082L76.4245 4.3648C77.5101 5.97705 78.2982 8.33499 78.6305 10.939L78.695 11.5005L78.6969 11.5181L78.8063 13.4878L78.8073 13.4976V13.5074C78.8466 18.6463 77.0778 24.3516 72.194 27.358L71.7116 27.6402C65.0396 31.3447 58.0074 29.6667 52.7751 24.7681L52.2751 24.2837C48.1085 20.1273 45.7342 14.1756 44.9196 11.8326L44.8366 11.5777C44.6837 11.0674 44.6029 10.5473 44.5827 10.023L44.5768 9.76031V9.18609L44.5895 8.85308C44.6886 7.1905 45.3811 5.57098 46.651 4.44195L46.652 4.44097L46.9723 4.1734C47.7446 3.56275 48.6935 3.0497 49.8112 2.6441L50.5026 2.40386C52.1329 1.8571 53.8813 1.41318 55.6735 1.07769L55.6803 1.07574L57.2702 0.806208L57.278 0.805232L58.0172 0.701716ZM23.8004 1.59429C19.9294 1.02006 15.9651 0.960421 12.6696 1.45074C11.0208 1.69606 9.55012 2.07759 8.34635 2.59429C7.13978 3.11221 6.22547 3.75623 5.65689 4.51129L5.65592 4.51031C4.48438 6.07261 3.6009 8.64467 3.30533 11.5806L3.19693 13.5328C3.16216 18.6832 4.98828 24.2247 9.8815 26.941L10.4928 27.2652C16.8224 30.4524 23.4422 28.6305 28.3649 23.7173C33.4917 18.6004 35.198 14.3636 35.7926 10.9224L35.7946 10.9117L35.8288 10.6607L35.8649 10.3003H35.901C35.9153 10.1934 35.9308 10.0624 35.9411 9.91265C35.9717 9.46627 35.9659 8.85819 35.8258 8.20465L35.8239 8.1939C35.4266 6.05977 33.937 4.42184 31.1217 3.39605V3.39703C29.3446 2.7553 27.3952 2.24041 25.3835 1.86383V1.86285L23.8004 1.59527V1.59429ZM68.5348 1.45074C65.2391 0.960383 61.2744 1.01994 57.403 1.59429L57.404 1.59527L55.82 1.86285L55.821 1.86383C53.8092 2.24041 51.8598 2.75432 50.0827 3.39605L50.0836 3.39703C48.881 3.83348 47.9174 4.39031 47.1823 5.04058C46.0177 6.07622 45.3965 7.61297 45.3776 9.19488V9.77105C45.3786 10.3865 45.4717 10.9882 45.6745 11.5689H45.6754L45.8444 12.0435C46.7786 14.6059 49.0588 19.9457 52.8395 23.7173L53.321 24.1832C58.3506 28.894 65.0137 30.4439 71.3229 26.941L71.7721 26.6783C76.3197 23.8787 78.0411 18.5217 78.0075 13.5328L77.8991 11.5806L77.8366 11.0367C77.4915 8.33575 76.6459 5.97488 75.5475 4.51031V4.51129C74.979 3.75623 74.0646 3.11221 72.8581 2.59429C71.6543 2.0776 70.1835 1.69606 68.5348 1.45074Z" fill="black"/>
<path d="M1.73758 13.3789H3.21758V15.3089H1.73758C1.19758 15.3089 0.767578 14.8789 0.767578 14.3489C0.767578 13.8089 1.19758 13.3789 1.73758 13.3789Z" fill="black"/>
<path d="M57.387 0.0390625H23.877V0.849068H57.387V0.0390625Z" fill="black"/>
<path d="M36.3475 12.3503C36.1675 12.3503 35.9975 12.2203 35.9575 12.0403C35.9375 11.9703 35.5975 10.3403 36.6375 9.05031C37.4275 8.07031 38.7675 7.57031 40.6275 7.57031C42.4875 7.57031 43.8575 8.07031 44.6575 9.05031C45.6875 10.3203 45.3675 11.9003 45.3475 11.9703C45.2975 12.1903 45.0875 12.3203 44.8775 12.2803C44.6675 12.2403 44.5275 12.0203 44.5675 11.8103C44.5675 11.8003 44.8175 10.5203 44.0275 9.56031C43.3875 8.78031 42.2475 8.38031 40.6275 8.38031C39.0075 8.38031 37.8875 8.78031 37.2575 9.56031C36.4575 10.5603 36.7375 11.8703 36.7375 11.8803C36.7875 12.1003 36.6475 12.3103 36.4375 12.3603C36.4075 12.3603 36.3775 12.3603 36.3475 12.3603V12.3503Z" fill="black"/>
</svg>
