<?xml version="1.0" encoding="UTF-8"?> <svg xmlns="http://www.w3.org/2000/svg" width="173" height="173" viewBox="0 0 173 173" fill="none"><g clip-path="url(#clip0_266_2659)"><path d="M173 86.4933C173 111.204 162.641 133.498 146.02 149.277C142.028 153.042 137.69 156.446 133.031 159.423C130.508 161.039 127.891 162.534 125.194 163.869C113.553 169.716 100.404 173 86.4933 173C72.5828 173 59.4466 169.716 47.8056 163.882C45.109 162.534 42.4924 161.052 39.9693 159.437C34.7762 156.113 29.9703 152.254 25.6183 147.929C9.79875 132.27 0 110.523 0 86.4933C0 38.7278 38.7278 0 86.4933 0C134.259 0 173 38.7278 173 86.4933Z" fill="#D7EAF1"></path><path d="M130.361 111.377C123.165 105.597 124.874 99.5893 128.665 89.35C132.443 79.1107 129.56 69.0984 123.552 63.7585C117.545 58.4186 115.129 51.7036 115.129 51.7036L85.372 53.0519L55.6153 51.7036C55.6153 51.7036 53.199 58.4186 47.1916 63.7585C41.1842 69.0984 38.2873 79.1107 42.0786 89.35C45.8566 99.5893 47.5787 105.597 40.3832 111.377C33.1877 117.158 26.0589 131.629 34.7362 144.752H136.008C144.685 131.629 137.57 117.158 130.361 111.377Z" fill="#1A3A27"></path><path d="M146.02 149.277C142.028 153.042 137.69 156.446 133.031 159.423C130.508 161.039 127.891 162.534 125.194 163.869C113.553 169.716 100.404 173 86.4934 173C72.5829 173 59.4467 169.716 47.8056 163.882C45.109 162.534 42.4924 161.052 39.9693 159.437C34.7762 156.112 29.9703 152.254 25.6183 147.929C27.554 145.126 29.8635 142.616 32.4534 140.44C35.7241 137.676 39.4487 135.447 43.507 133.885L51.4768 130.815C53.5594 130.014 55.5485 129.012 57.4041 127.851C59.42 126.583 61.2889 125.114 62.9844 123.472C63.2914 123.179 63.5851 122.871 63.8788 122.564C64.1057 122.337 64.3327 122.097 64.5463 121.857C64.7999 121.577 65.0536 121.296 65.2939 121.003C65.3606 120.936 65.414 120.869 65.4541 120.802C65.5075 120.762 65.5342 120.722 65.5742 120.669C65.5876 120.669 65.5876 120.655 65.6009 120.642C65.7211 120.509 65.8412 120.362 65.948 120.202C65.9747 120.202 65.9881 120.161 66.0014 120.135H104.743C104.983 120.428 105.21 120.722 105.45 121.003C105.69 121.283 105.931 121.563 106.184 121.83C106.171 121.83 106.184 121.857 106.198 121.857L106.344 122.004C106.344 122.004 106.411 122.084 106.438 122.124V122.137C106.598 122.324 106.772 122.498 106.945 122.671L107.746 123.472C109.442 125.114 111.311 126.583 113.326 127.851C115.182 129.012 117.171 130.014 119.254 130.815L127.224 133.885C131.282 135.447 135.007 137.676 138.277 140.44C141.281 142.95 143.897 145.94 146.007 149.277H146.02Z" fill="#1DACAC"></path><path d="M104.743 120.135H65.9881C65.0537 121.31 64.0524 122.431 62.9711 123.472C61.2757 125.114 59.4067 126.583 57.3909 127.851C64.4663 132.684 74.3184 135.634 85.3587 135.634C96.399 135.634 106.251 132.684 113.327 127.851C111.311 126.583 109.442 125.114 107.746 123.472C106.665 122.431 105.664 121.31 104.729 120.135H104.743Z" fill="#007289"></path><path d="M107.76 123.472C101.912 126.876 94.0493 128.959 85.372 128.959C76.6946 128.959 68.8316 126.876 62.9844 123.472C67.8704 118.76 71.328 112.619 72.7564 105.757L73.5174 102.099L75.8803 90.6716H94.8637L97.9875 105.757C98.5883 108.587 99.5094 111.297 100.764 113.834C102.513 117.451 104.889 120.709 107.76 123.472Z" fill="#F69779"></path><path d="M100.764 113.834C97.4268 114.741 95.0506 114.741 95.0506 114.741C95.0506 114.741 81.2202 114.741 73.5173 102.099L75.8802 90.6716H94.8637L97.9875 105.757C98.5883 108.587 99.5094 111.297 100.764 113.834Z" fill="#F37A67"></path><path d="M111.738 38.2739C108.654 32.48 102.754 29.2761 97.3069 27.5139C89.564 24.9908 81.1803 24.9908 73.4374 27.5139C68.0041 29.2894 62.0901 32.4934 59.0063 38.2739C53.4261 48.9537 54.3739 65.5875 54.3739 65.5875L60.1944 71.7551L85.3722 68.5645L110.55 71.7551L116.37 65.5875C116.37 65.5875 117.318 48.967 111.738 38.2739Z" fill="#1A3A27"></path><path d="M111.458 74.3717C107.746 100.404 85.372 100.404 85.372 100.404C85.372 100.404 62.9978 100.404 59.2865 74.3717C57.1772 73.8911 55.375 72.5428 54.1602 70.7539C52.9454 68.965 52.4381 66.7223 52.7585 64.5729C52.9187 63.5183 53.3191 62.437 54.1335 61.7294C54.8677 61.0887 55.869 60.8217 56.8435 60.8617C57.818 60.9018 58.7525 61.2355 59.6336 61.6627C59.6336 61.6627 61.1288 34.1221 79.7384 35.4971C91.0724 37.0323 91.9935 43.3067 93.6756 47.7522C95.3577 52.1843 99.8031 61.2221 105.771 66.1215C111.738 71.0209 111.458 74.3717 111.458 74.3717Z" fill="#F69779"></path><path d="M47.8057 163.882C45.109 162.534 42.4925 161.052 39.9694 159.437L42.6927 144.752L43.5204 140.306L44.3347 144.752L47.8057 163.882Z" fill="#007289"></path><path d="M133.031 159.423C130.508 161.039 127.891 162.534 125.194 163.869L128.665 144.752L129.48 140.306L130.307 144.752L133.031 159.423Z" fill="#007289"></path><path d="M84.1171 66.3484V81.6206H86.707C91.1391 81.6206 84.9448 68.0972 84.1171 66.3484Z" fill="#F37A67"></path><path d="M102.94 60.3945C99.3626 58.6324 95.3843 58.3654 91.6597 59.8472C90.0845 60.4746 90.7653 63.0645 92.3673 62.4237C95.4244 61.2089 98.6283 61.2356 101.592 62.704C103.127 63.465 104.489 61.1555 102.94 60.3945Z" fill="#1A3A27"></path><path d="M99.723 65.1469C98.9086 63.7318 97.1999 63.8252 97.1999 63.8252C95.8115 63.8252 94.6768 64.9466 94.6768 66.3484C94.6768 67.7501 95.7981 68.8715 97.1999 68.8715C97.5069 68.8715 97.8006 68.8047 98.0676 68.7113C98.0676 68.7113 98.0943 68.7113 98.1077 68.6979C98.1878 68.6712 98.2679 68.6312 98.348 68.5911C100.551 67.6299 100.778 65.1869 100.778 65.1869C100.337 65.5607 99.7096 65.1602 99.7096 65.1602L99.723 65.1469Z" fill="#051733"></path><path d="M67.8037 60.3945C71.3814 58.6324 75.3597 58.3654 79.0842 59.8472C80.6595 60.4746 79.9787 63.0645 78.3767 62.4237C75.3196 61.2089 72.1157 61.2356 69.152 62.704C67.6168 63.465 66.2551 61.1555 67.8037 60.3945Z" fill="#1A3A27"></path><path d="M71.021 65.1469C71.8353 63.7318 73.5441 63.8252 73.5441 63.8252C74.9325 63.8252 76.0672 64.9466 76.0672 66.3484C76.0672 67.7501 74.9458 68.8715 73.5441 68.8715C73.2371 68.8715 72.9434 68.8047 72.6764 68.7113C72.6764 68.7113 72.6497 68.7113 72.6363 68.6979C72.5562 68.6712 72.4761 68.6312 72.396 68.5911C70.1933 67.6299 69.9664 65.1869 69.9664 65.1869C70.4069 65.5607 71.0344 65.1602 71.0344 65.1602L71.021 65.1469Z" fill="#051733"></path><path d="M77.1619 87.2009C78.043 90.5117 81.3804 92.9814 85.372 92.9814C89.3636 92.9814 92.6877 90.5117 93.5821 87.2009H77.1752H77.1619Z" fill="white"></path></g><defs><clipPath id="clip0_266_2659"><rect width="173" height="173" fill="white"></rect></clipPath></defs></svg> 