<svg xmlns="http://www.w3.org/2000/svg" id="skin" version="1.1" viewBox="0 0 360 360">
                                <svg id="hair_back" xmlns="http://www.w3.org/2000/svg" xmlns:xlink="http://www.w3.org/1999/xlink" width="360px" height="360px" viewBox="0 0 360 360" e="xMidYMid meet">
                                    <polygon id="background" fill="#E8D8CC" points="0,0 360,0 360,360 0,360 "/>
                                </svg>
                                
                                <svg id="skincolor" xmlns="http://www.w3.org/2000/svg" xmlns:xlink="http://www.w3.org/1999/xlink" width="360px" height="360px" viewBox="0 0 360 360" e="xMidYMid meet">
                                    <g id="skin">
                                        <path id="body" d="M304 360V345C304 298 265 260 218 260H210V238C232 228 247 206 249 181C249 169.5 249 172.5 249 164.5V150.5C249 142.5 250.5 142.5 249 136V128C249 90 218 59 180 59C142 59 111 90 111 128L110.188 136.5C111.188 144.5 110.188 141.5 110.188 149.5V164.5C110.188 172.5 110 175 111 181C113 206 128 228 150 238V260H142C95 260 56 298 56 345V360H304Z" fill="#FDE7AD"/>
                                        <path id="body" d="M111.188 174.918C120.357 174.918 127.79 167.485 127.79 158.317C127.79 149.148 120.357 141.715 111.188 141.715C102.019 141.715 94.5865 149.148 94.5865 158.317C94.5865 167.485 102.019 174.918 111.188 174.918Z" fill="#FDE7AD"/>
                                        <path d="M113.334 171.941C113.334 171.941 113.222 171.941 113.158 171.941C102.261 170.307 100.386 163.096 100.098 160.083C99.6008 155.115 101.989 149.923 105.29 148.737C105.883 148.529 106.556 148.834 106.764 149.426C106.972 150.019 106.668 150.692 106.075 150.901C103.992 151.654 101.972 155.644 102.389 159.859C102.694 162.935 104.536 168.32 113.51 169.666C114.135 169.762 114.568 170.355 114.472 170.98C114.392 171.557 113.895 171.957 113.334 171.957V171.941Z" fill="black" fill-opacity="0.2"/>
                                        <path id="body" d="M249.188 174.918C240.019 174.918 232.586 167.485 232.586 158.317C232.586 149.148 240.019 141.715 249.188 141.715C258.357 141.715 265.79 149.148 265.79 158.317C265.79 167.485 258.357 174.918 249.188 174.918Z" fill="#FDE7AD"/>
                                        <path d="M247.042 171.941C247.042 171.941 247.154 171.941 247.218 171.941C258.115 170.307 259.99 163.096 260.279 160.083C260.776 155.115 258.387 149.923 255.086 148.737C254.493 148.529 253.82 148.834 253.612 149.426C253.404 150.019 253.708 150.692 254.301 150.901C256.384 151.654 258.404 155.644 257.987 159.859C257.682 162.935 255.84 168.32 246.866 169.666C246.241 169.762 245.808 170.355 245.904 170.98C245.984 171.557 246.481 171.957 247.042 171.957V171.941Z" fill="black" fill-opacity="0.2"/>
                                        <path d="M180 256C169 256 159 254 150 250V238C159 243 169 245 180 245C191 245 201 243 210 238V250C201 254 191 256 180 256Z" fill="black" fill-opacity="0.2"/>
                                        <path d="M180 181C189 181 196 177 196 172H164C164 177 171 181 180 181Z" fill="black" fill-opacity="0.2"/>
                                    </g>
                                </svg>
                                
                                <svg id="eyes" xmlns="http://www.w3.org/2000/svg" xmlns:xlink="http://www.w3.org/1999/xlink" width="360px" height="360px" viewBox="0 0 360 360" e="xMidYMid meet">
                                    
                                    <g id="e_default" xmlns="http://www.w3.org/2000/svg" mask="url(#mask1_4_4)" style="display: none;">
                                        <path fill-rule="evenodd" clip-rule="evenodd" d="M138.864 155.77C138.998 156.904 138.042 157.922 136.743 158.022C135.444 158.139 134.278 157.305 134.163 156.17C134.049 155.102 134.125 154.018 134.45 152.967C134.775 151.949 135.291 150.965 136.036 150.064C137.699 148.096 140.125 146.861 142.705 146.511C145.285 146.144 148.018 146.644 150.292 148.079C151.744 148.997 152.852 150.198 153.559 151.516C154.304 152.884 154.629 154.402 154.515 155.903C154.419 157.038 153.292 157.905 151.992 157.822C150.693 157.738 149.699 156.754 149.795 155.62C149.852 154.802 149.68 153.985 149.298 153.251C148.916 152.55 148.323 151.899 147.559 151.416C146.336 150.648 144.864 150.381 143.47 150.565C142.094 150.765 140.794 151.416 139.896 152.483C139.495 152.967 139.208 153.484 139.055 154.035C138.883 154.602 138.826 155.186 138.883 155.753L138.864 155.77Z" fill="black" fill-opacity="0.7"/>
                                        <path fill-rule="evenodd" clip-rule="evenodd" d="M207.316 155.769C207.45 156.904 206.495 157.922 205.195 158.022C203.896 158.122 202.73 157.304 202.615 156.17C202.501 155.102 202.596 154.018 202.902 152.967C203.227 151.949 203.743 150.965 204.488 150.064C206.131 148.079 208.558 146.861 211.157 146.494C213.737 146.127 216.47 146.627 218.744 148.062C220.196 148.98 221.304 150.181 222.011 151.499C222.757 152.867 223.081 154.385 222.967 155.886C222.871 157.021 221.744 157.888 220.444 157.805C219.145 157.721 218.151 156.737 218.247 155.603C218.304 154.785 218.132 153.968 217.75 153.234C217.368 152.533 216.775 151.882 215.992 151.399C214.769 150.631 213.297 150.364 211.902 150.548C210.527 150.748 209.227 151.399 208.329 152.466C207.928 152.95 207.641 153.467 207.469 154.018C207.297 154.585 207.24 155.169 207.297 155.736L207.316 155.769Z" fill="black" fill-opacity="0.7"/>
                                    </g>

                                    <g id="e_eyeroll" style="">
                                        <circle fill="#000000" fill-opacity="0.7" cx="148" cy="153" r="8"/>
                                        <circle fill="#000000" fill-opacity="0.7" cx="212" cy="153" r="8"/>
                                    </g>
                                    <g id="e_dizzy" style="display: none;">
                                        <polygon fill="#000000" fill-opacity="0.7" stroke="#5F4A37" stroke-width="0.9" points="139,141 146,149 154,141 157,145 150,152 157,160 154,163 146,156 139,163 135,160 143,152 135,145 "/>
                                        <polygon fill="#000000" fill-opacity="0.7" points="206,141 213,149 221,141 224,145 217,152 224,160 221,163 213,156 206,163 202,160 210,152 202,145 "/>
                                    </g>
                                    <g id="e_happy" style="display: none;">
                                        <path fill="#000000" fill-opacity="0.7" d="M131 153c-1,0 0,2 1,1 2,-2 5,-3 11,-4 7,1 9,2 11,4 2,1 3,-1 2,-1 -1,-1 -5,-7 -13,-7 -7,0 -12,6 -12,7z"/>
                                        <path fill="#000000" fill-opacity="0.7" d="M202 153c0,0 1,2 2,1 2,-2 5,-3 11,-4 7,1 9,2 11,4 2,1 3,-1 2,-1 -1,-1 -5,-7 -13,-7 -7,0 -12,6 -13,7z"/>
                                    </g>
                                    <g id="e_close" style="display: none;">
                                        <path xmlns="http://www.w3.org/2000/svg" d="M147.659 147.589H135.092C133.848 147.589 132.84 149.596 132.84 152.071C132.84 154.547 133.848 156.554 135.092 156.554H147.659C148.903 156.554 149.911 154.547 149.911 152.071C149.911 149.596 148.903 147.589 147.659 147.589Z" fill="black" fill-opacity="0.7"/>
                                        <path xmlns="http://www.w3.org/2000/svg" d="M225.675 147.589H213.109C211.865 147.589 210.856 149.596 210.856 152.071C210.856 154.547 211.865 156.554 213.109 156.554H225.675C226.919 156.554 227.928 154.547 227.928 152.071C227.928 149.596 226.919 147.589 225.675 147.589Z" fill="black" fill-opacity="0.7"/>
                                    </g>
                                    
                                    
                                    <g id="e_wink" style="display: none;">
                                        <path fill="#000000" fill-opacity="0.7" d="M225 155c1,1 0,3 -2,1 -2,-1 -4,-3 -11,-3 -6,0 -9,2 -11,3 -1,2 -2,0 -2,-1 1,-1 6,-7 13,-7 8,0 12,6 13,7z"/>
                                        <circle fill="#000000" fill-opacity="0.7" cx="148" cy="153" r="7"/>
                                    </g>
                                    
                                    <g id="e_winkwacky" style="display: none;">
                                        <path fill="#000000" fill-opacity="0.7" d="M131 156c-1,1 0,3 1,1 2,-1 5,-3 11,-3 7,0 9,2 11,3 2,2 3,0 2,-1 -1,-1 -5,-7 -13,-7 -7,0 -12,6 -12,7z"/>
                                        <circle fill="#FEFEFE" cx="212" cy="153" r="15"/>
                                        <circle fill="#4D4D4D" cx="212" cy="153" r="8"/>
                                    </g>
                                    <g id="e_cry" style="display:none;">
                                        <circle fill="#000000" fill-opacity="0.7" cx="148" cy="153" r="8"/>
                                        <circle fill="#000000" fill-opacity="0.7" cx="212" cy="153" r="8"/>
                                        <path fill="#92D9FF" d="M134 173c0,-3 6,-12 8,-14 2,2 7,11 7,14 0,4 -3,8 -7,8 0,0 0,0 0,0 0,0 0,0 0,0 -4,0 -8,-4 -8,-8z"/>
                                    </g>
                                </svg>
                                <svg id="eyebrows" xmlns="http://www.w3.org/2000/svg" xmlns:xlink="http://www.w3.org/1999/xlink" width="360px" height="360px" viewBox="0 0 360 360" e="xMidYMid meet">
                                    <g id="eb_default" style="display: none;">
                                        <path d="M175.491 136.109C175.477 135.941 175.459 135.78 175.431 135.613C175.431 135.613 175.431 135.607 175.431 135.601C175.318 134.978 174.644 134.88 174.35 135.405C174.106 135.838 173.77 136.167 173.325 136.265C172.319 136.484 171.281 135.59 170.429 135.064C167.328 133.16 164.628 130.437 162.046 127.615C157.957 123.144 153.901 118.603 149.564 114.5C146.064 111.102 142.046 108.621 137.461 109.665C133.648 110.536 130.523 113.946 130.045 118.787C129.98 119.445 130.794 119.514 130.944 118.937C132.918 111.431 140.394 111.477 144.853 115.423C150.134 120.103 153.648 127.056 157.863 133.022C160.731 137.078 164.343 142.288 168.857 143.373C171.028 143.893 173.236 143.471 174.532 141.036C175.257 139.669 175.641 137.782 175.496 136.109H175.491Z" fill="#3A3A3A"/>
                                        <path d="M175.691 141.316C179.415 137.888 179.261 130.41 176.594 126.175C176.29 125.696 175.724 126.308 175.934 126.798C178.236 132.13 177.581 136.001 175.579 141.177C175.551 141.258 175.616 141.379 175.686 141.31L175.691 141.316Z" fill="#3A3A3A" fill-opacity="0.45"/>
                                        <path d="M180.426 141.314C176.702 137.887 176.857 130.409 179.523 126.174C179.827 125.695 180.393 126.306 180.183 126.797C177.881 132.128 178.536 136 180.538 141.176C180.567 141.257 180.501 141.378 180.431 141.308L180.426 141.314Z" fill="#3A3A3A" fill-opacity="0.45" shape-rendering="crispEdges"/>
                                        <path d="M182.091 136.109C182.104 135.941 182.123 135.78 182.151 135.613C182.151 135.613 182.151 135.607 182.151 135.601C182.264 134.978 182.937 134.88 183.232 135.405C183.475 135.838 183.812 136.167 184.257 136.265C185.262 136.484 186.301 135.59 187.152 135.064C190.254 133.16 192.954 130.437 195.536 127.615C199.625 123.144 203.681 118.603 208.018 114.5C211.518 111.102 215.536 108.621 220.121 109.665C223.934 110.536 227.059 113.946 227.536 118.787C227.602 119.445 226.788 119.514 226.638 118.937C224.664 111.431 217.188 111.477 212.729 115.423C207.447 120.103 203.934 127.056 199.719 133.022C196.851 137.078 193.239 142.288 188.724 143.373C186.554 143.893 184.345 143.471 183.049 141.036C182.324 139.669 181.941 137.782 182.086 136.109H182.091Z" fill="#3A3A3A"/>
                                    </g>
                                    <g id="eb_default2" style="display: none;">
                                        <path d="M244.934 141.603C243.725 142.482 242.234 142.623 240.803 142.609C239.251 142.595 237.679 142.34 236.188 141.957C234.595 141.547 233.084 140.966 231.572 140.314C230.081 139.663 228.63 138.898 227.098 138.345C204.929 130.341 192.756 135.753 188.423 136.971C188.423 136.971 186.367 137.467 184.674 137.878C183.566 138.147 182.498 137.283 182.518 136.107C182.518 135.54 182.76 134.988 183.163 134.605C184.312 133.5 185.501 132.452 186.71 131.432C187.818 130.993 188.967 130.596 190.096 130.242C188.362 131.63 186.71 133.103 185.138 134.676C187.294 132.877 189.572 131.233 191.95 129.732C193.199 129.392 194.469 129.108 195.759 128.853C193.643 130.242 191.587 131.743 189.652 133.358C190.942 132.452 192.252 131.573 193.562 130.709C194.55 130.001 195.578 129.335 196.626 128.698C198.016 128.443 199.447 128.244 200.858 128.117C201.1 128.428 201.16 128.882 200.797 129.222C200.757 129.264 200.717 129.293 200.656 129.335C201.14 129.151 201.624 128.981 202.107 128.825C202.531 128.698 202.954 128.967 203.155 129.335L203.579 129.038C203.941 128.783 204.324 128.868 204.606 129.123C205.191 128.698 205.816 128.301 206.481 127.975C206.602 127.918 206.702 128.074 206.582 128.159C206.017 128.598 205.433 129.023 204.848 129.434C204.949 129.647 205.01 129.888 204.949 130.128C205.11 130.001 205.272 129.873 205.433 129.746C206.279 129.066 207.126 128.513 208.133 128.117C208.355 128.018 208.557 128.386 208.375 128.542C207.67 129.137 206.964 129.647 206.219 130.185C206.662 129.987 207.126 129.803 207.569 129.618C208.436 129.038 209.383 128.57 210.37 128.329C210.592 128.273 210.713 128.584 210.532 128.698C210.411 128.768 210.31 128.839 210.189 128.91C210.189 128.953 210.189 128.995 210.129 129.038C209.826 129.406 209.484 129.732 209.101 130.043C209.141 130.114 209.161 130.199 209.181 130.284C209.867 129.647 210.572 129.023 211.298 128.428C211.62 128.485 211.942 128.542 212.265 128.598C212.184 128.669 212.124 128.74 212.043 128.811C212.063 128.853 212.084 128.91 212.043 128.967C211.862 129.222 211.68 129.477 211.499 129.732C211.701 129.647 211.902 129.562 212.084 129.477C212.144 129.448 212.225 129.434 212.285 129.42C212.668 129.222 213.071 129.023 213.474 128.853C213.877 128.953 214.28 129.052 214.683 129.151C214.421 129.463 214.119 129.746 213.857 130.043C213.716 130.199 213.575 130.341 213.454 130.497C213.454 130.525 213.454 130.539 213.454 130.568C213.958 130.114 214.482 129.675 215.006 129.25C215.187 129.293 215.348 129.349 215.51 129.392C214.885 130.242 214.119 130.936 213.293 131.531C213.535 131.432 213.776 131.318 213.998 131.219L215.006 130.072C215.187 129.859 215.389 129.633 215.57 129.406C215.691 129.434 215.792 129.463 215.913 129.505C216.276 129.618 216.638 129.732 217.021 129.859C216.8 130.143 216.558 130.412 216.316 130.695C216.235 130.794 216.134 130.893 216.034 130.993L217.041 129.916C217.041 129.916 217.041 129.902 217.062 129.888C217.968 130.213 218.896 130.582 219.802 130.978C219.641 131.12 219.5 131.262 219.359 131.389C219.198 131.545 219.037 131.701 218.875 131.857C218.936 131.913 218.976 131.984 219.037 132.055C219.319 131.8 219.601 131.545 219.863 131.29C219.923 131.233 220.004 131.163 220.064 131.092C220.548 131.304 221.032 131.531 221.495 131.758C221.314 131.928 221.133 132.098 220.931 132.268C221.173 132.126 221.395 131.97 221.636 131.828C221.717 131.871 221.818 131.913 221.898 131.956C225.667 133.798 229.214 136.05 232.963 137.934C236.591 139.762 240.5 141.419 244.612 141.136C244.713 141.136 244.793 141.136 244.894 141.136C245.055 141.207 245.055 141.476 244.894 141.589L244.934 141.603ZM114.176 141.603C115.385 142.482 116.877 142.623 118.308 142.609C119.859 142.595 121.431 142.34 122.923 141.957C124.515 141.547 126.027 140.966 127.538 140.314C129.029 139.663 130.481 138.898 132.012 138.345C154.182 130.341 166.354 135.753 170.688 136.971C170.688 136.971 172.743 137.467 174.436 137.878C175.545 138.147 176.613 137.283 176.593 136.107C176.593 135.54 176.351 134.988 175.948 134.605C174.799 133.5 173.61 132.452 172.401 131.432C171.292 130.993 170.143 130.596 169.015 130.242C170.748 131.63 172.401 133.103 173.973 134.676C171.816 132.877 169.539 131.233 167.161 129.732C165.911 129.392 164.641 129.108 163.352 128.853C165.468 130.242 167.523 131.743 169.458 133.358C168.168 132.452 166.858 131.573 165.548 130.709C164.561 130.001 163.533 129.335 162.485 128.698C161.094 128.443 159.663 128.244 158.253 128.117C158.011 128.428 157.95 128.882 158.313 129.222C158.353 129.264 158.394 129.293 158.454 129.335C157.97 129.151 157.487 128.981 157.003 128.825C156.58 128.698 156.157 128.967 155.955 129.335L155.532 129.038C155.169 128.783 154.786 128.868 154.504 129.123C153.92 128.698 153.295 128.301 152.63 127.975C152.509 127.918 152.408 128.074 152.529 128.159C153.093 128.598 153.678 129.023 154.262 129.434C154.161 129.647 154.101 129.888 154.161 130.128C154 130.001 153.839 129.873 153.678 129.746C152.831 129.066 151.985 128.513 150.977 128.117C150.755 128.018 150.554 128.386 150.735 128.542C151.441 129.137 152.146 129.647 152.892 130.185C152.448 129.987 151.985 129.803 151.541 129.618C150.675 129.038 149.728 128.57 148.74 128.329C148.518 128.273 148.397 128.584 148.579 128.698C148.7 128.768 148.8 128.839 148.921 128.91C148.921 128.953 148.921 128.995 148.982 129.038C149.284 129.406 149.627 129.732 150.01 130.043C149.969 130.114 149.949 130.199 149.929 130.284C149.244 129.647 148.538 129.023 147.813 128.428C147.49 128.485 147.168 128.542 146.846 128.598C146.926 128.669 146.987 128.74 147.067 128.811C147.047 128.853 147.027 128.91 147.067 128.967C147.249 129.222 147.43 129.477 147.611 129.732C147.41 129.647 147.208 129.562 147.027 129.477C146.966 129.448 146.886 129.434 146.825 129.42C146.442 129.222 146.039 129.023 145.636 128.853C145.233 128.953 144.83 129.052 144.427 129.151C144.689 129.463 144.991 129.746 145.253 130.043C145.394 130.199 145.536 130.341 145.656 130.497C145.656 130.525 145.656 130.539 145.656 130.568C145.153 130.114 144.629 129.675 144.105 129.25C143.923 129.293 143.762 129.349 143.601 129.392C144.226 130.242 144.991 130.936 145.818 131.531C145.576 131.432 145.334 131.318 145.112 131.219L144.105 130.072C143.923 129.859 143.722 129.633 143.54 129.406C143.419 129.434 143.319 129.463 143.198 129.505C142.835 129.618 142.472 129.732 142.089 129.859C142.311 130.143 142.553 130.412 142.795 130.695C142.875 130.794 142.976 130.893 143.077 130.993C142.734 130.638 142.412 130.27 142.069 129.916C142.069 129.916 142.069 129.902 142.049 129.888C141.142 130.213 140.215 130.582 139.308 130.978C139.469 131.12 139.61 131.262 139.751 131.389C139.913 131.545 140.074 131.701 140.235 131.857C140.175 131.913 140.134 131.984 140.074 132.055C139.792 131.8 139.51 131.545 139.248 131.29C139.187 131.233 139.106 131.163 139.046 131.092C138.562 131.304 138.079 131.531 137.615 131.758C137.796 131.928 137.978 132.098 138.179 132.268C137.938 132.126 137.716 131.97 137.474 131.828C137.393 131.871 137.293 131.913 137.212 131.956C133.443 133.798 129.896 136.05 126.147 137.934C122.52 139.762 118.61 141.419 114.499 141.136C114.398 141.136 114.317 141.136 114.216 141.136C114.055 141.207 114.055 141.476 114.216 141.589L114.176 141.603Z" fill="#3A3A3A"/>
                                    </g>
                                    <g id="eb_raised" style="display: none;">
                                        <path fill-rule="evenodd" clip-rule="evenodd" d="M152.97 126.041C152.671 125.919 152.352 125.815 152.053 125.711C148.483 124.599 145.452 124.303 141.604 124.547C137.835 124.894 135.004 125.641 131.853 127.205C130.378 128.039 124.615 132.105 126.25 133.6C126.908 133.756 132.651 131.202 134.346 130.733C136.958 130.055 139.091 129.794 141.883 129.846C144.475 129.951 146.429 130.281 148.783 131.063C148.842 131.063 149.281 131.237 149.361 131.271C154.166 133.304 153.748 134.625 157.018 132.661C162.083 130.316 156.878 127.813 152.97 126.041Z" fill="#3A3A3A"/>
                                        <path fill-rule="evenodd" clip-rule="evenodd" d="M207.149 126.038C207.448 125.916 207.767 125.812 208.066 125.708C211.635 124.596 214.666 124.283 218.515 124.526C222.284 124.874 225.095 125.621 228.266 127.185C229.741 128.019 235.504 132.085 233.869 133.579C233.211 133.736 227.468 131.181 225.773 130.712C223.141 130.035 221.027 129.774 218.236 129.826C215.644 129.93 213.689 130.26 211.336 131.042C211.277 131.042 210.838 131.216 210.758 131.251C205.952 133.284 206.371 134.605 203.101 132.641C198.036 130.295 203.241 127.793 207.149 126.02V126.038Z" fill="#3A3A3A"/>
                                    </g>
                                    
                                    <g id="eb_unibrow" style="">
                                        <path xmlns="http://www.w3.org/2000/svg" d="M170.438 135.382C166.539 135.853 149.753 129.544 143.685 127.364C137.999 125.321 130.752 128.169 126.183 130.193C125.519 130.489 124.7 130.545 125.199 130.118C126.224 129.241 127.347 128.062 129.418 126.497C135.547 121.859 142.495 121.663 147.141 123.038C154.831 125.318 170.994 130.901 175.923 130.455C176.727 130.383 176.989 131.29 176.546 131.771C175.398 133.009 173.131 135.058 170.438 135.382ZM187.001 135.382C190.9 135.853 207.686 129.544 213.754 127.364C219.44 125.321 226.687 128.169 231.256 130.193C231.92 130.489 232.739 130.545 232.24 130.118C231.215 129.241 230.092 128.062 228.021 126.497C221.892 121.859 214.944 121.663 210.298 123.038C202.608 125.318 186.445 130.901 181.516 130.455C180.712 130.383 180.449 131.29 180.892 131.771C182.041 133.009 184.307 135.058 187.001 135.382Z" fill="#3A3A3A"/>
                                    </g>

                                    <g id="eb_updown" style="display:none;">
                                        <path xmlns="http://www.w3.org/2000/svg" d="M167.748 139.663C166.543 139.173 165.712 138.388 164.915 137.705C161.279 134.586 155.928 132.157 149.105 131.55C142.515 130.966 135.852 132.16 130.749 134.436C127.97 135.678 125.613 137.201 123.845 138.907C121.923 140.766 120.001 142.833 119.546 144.985C119.512 145.131 119.11 145.138 119.117 144.985C119.117 144.923 119.13 144.861 119.137 144.802C119.09 144.791 119.05 144.773 119.05 144.736C119.365 142.088 120.229 139.436 122.499 137.08C123.878 135.652 125.599 134.341 127.776 133.245C133.354 130.436 141.249 128.654 148.87 128.599C156.531 128.544 164.052 130.458 168.666 133.782C170.266 134.936 172.871 136.532 172.563 138.103C172.543 138.213 172.496 138.326 172.442 138.436C171.873 139.506 169.67 140.437 167.755 139.663H167.748ZM189.519 139.663C190.724 139.173 191.555 138.388 192.351 137.705C195.988 134.586 201.338 132.157 208.162 131.55C214.752 130.966 221.415 132.16 226.518 134.436C229.297 135.678 231.654 137.201 233.422 138.907C235.344 140.766 237.266 142.833 237.721 144.985C237.755 145.131 238.157 145.138 238.15 144.985C238.15 144.923 238.136 144.861 238.13 144.802C238.177 144.791 238.217 144.773 238.217 144.736C237.902 142.088 237.038 139.436 234.768 137.08C233.388 135.652 231.667 134.341 229.491 133.245C223.913 130.436 216.017 128.654 208.397 128.599C200.736 128.544 193.215 130.458 188.601 133.782C187.001 134.936 184.396 136.532 184.704 138.103C184.724 138.213 184.771 138.326 184.825 138.436C185.394 139.506 187.597 140.437 189.512 139.663H189.519Z" fill="#3A3A3A"/>
                                    </g>
                                    <g id="eb_updown2" style="display: none;">
                                        <path xmlns="http://www.w3.org/2000/svg" d="M119.128 142.844C119.128 142.844 119.076 142.883 119.051 142.896C120.85 140.096 123.082 137.786 125.662 135.921C126.668 135.633 127.72 135.437 128.797 135.313C127.765 135.431 126.746 135.607 125.765 135.843C127.733 134.436 129.907 133.291 132.235 132.382C132.351 132.355 132.461 132.329 132.577 132.31C132.513 132.31 132.448 132.323 132.383 132.323C134.351 131.564 136.434 130.975 138.602 130.543C138.737 130.523 138.873 130.504 139.008 130.491C139.214 130.458 139.421 130.432 139.627 130.406V130.366C140.143 130.275 140.666 130.203 141.195 130.137C141.092 130.144 140.982 130.144 140.879 130.151C141.111 130.118 141.343 130.072 141.575 130.046C142.517 129.922 143.465 129.836 144.414 129.758C144.472 129.778 144.504 129.823 144.504 129.876C144.549 129.876 144.601 129.876 144.646 129.876C144.833 129.81 145.026 129.764 145.22 129.706C150.012 129.385 154.85 129.568 159.636 129.823C164.552 130.085 169.402 130.759 173.627 133.252C173.724 133.442 173.814 133.631 173.892 133.815C173.847 133.644 173.795 133.481 173.743 133.317C173.898 133.409 174.047 133.514 174.201 133.605C174.247 133.736 174.298 133.867 174.331 134.004C174.324 133.9 174.318 133.788 174.318 133.684C174.421 133.749 174.53 133.815 174.634 133.887C175.175 135.136 174.795 136.661 174.717 136.785C172.892 139.684 170.047 140.259 166.816 140.371C160.481 140.586 154.005 139.278 147.658 139.023C140.898 138.754 124.101 138.48 119.128 142.85V142.844ZM239.125 142.844C239.125 142.844 239.176 142.883 239.202 142.896C237.402 140.096 235.171 137.786 232.59 135.921C231.584 135.633 230.533 135.437 229.455 135.313C230.488 135.431 231.507 135.607 232.487 135.843C230.52 134.436 228.346 133.291 226.017 132.382C225.901 132.355 225.792 132.329 225.675 132.31C225.74 132.31 225.805 132.323 225.869 132.323C223.902 131.564 221.818 130.975 219.651 130.543C219.515 130.523 219.38 130.504 219.244 130.491C219.038 130.458 218.832 130.432 218.625 130.406V130.366C218.109 130.275 217.587 130.203 217.058 130.137C217.161 130.144 217.271 130.144 217.374 130.151C217.142 130.118 216.909 130.072 216.677 130.046C215.735 129.922 214.787 129.836 213.839 129.758C213.781 129.778 213.749 129.823 213.749 129.876C213.704 129.876 213.652 129.876 213.607 129.876C213.42 129.81 213.226 129.764 213.033 129.706C208.24 129.385 203.402 129.568 198.616 129.823C193.701 130.085 188.85 130.759 184.625 133.252C184.529 133.442 184.438 133.631 184.361 133.815C184.406 133.644 184.458 133.481 184.509 133.317C184.354 133.409 184.206 133.514 184.051 133.605C184.006 133.736 183.954 133.867 183.922 134.004C183.929 133.9 183.935 133.788 183.935 133.684C183.832 133.749 183.722 133.815 183.619 133.887C183.077 135.136 183.458 136.661 183.535 136.785C185.361 139.684 188.205 140.259 191.437 140.371C197.771 140.586 204.247 139.278 210.595 139.023C217.355 138.754 234.151 138.48 239.125 142.85V142.844Z" fill="#3A3A3A"/>
                                    </g>
                                    <g id="eb_angry" style="display: none;">
                                        
                                        <path xmlns="http://www.w3.org/2000/svg" d="M176.071 136.337C175.066 137.064 173.521 137.53 171.845 137.778C173.106 137.631 174.35 137.296 175.497 137.098L175.531 137.132C174.759 137.521 173.799 137.735 172.748 137.873C173.39 137.854 174.026 137.792 174.668 137.811C174.776 137.814 174.81 137.89 174.713 137.916C174.038 138.102 173.22 138.11 172.464 138.104C171.981 138.099 171.374 138.096 170.857 138.023C170.641 138.014 170.425 137.995 170.226 137.952C170.198 137.952 170.164 137.958 170.135 137.961C169.982 137.969 169.891 137.904 169.902 137.845C169.868 137.851 169.834 137.856 169.8 137.859C169.425 137.358 169.045 136.856 168.585 136.368C165.273 132.85 159.678 130.443 151.487 130.508C144.347 130.564 138.809 132.828 134.066 135.246C129.914 137.36 124.535 141.352 117.582 140.503C115.032 140.19 113.197 139.108 113.055 137.823C114.776 138.998 117.349 139.677 120.303 138.956C118.275 139.288 116.094 139.142 114.651 138.175C114.589 138.136 114.691 138.09 114.765 138.121C117.946 139.472 121.178 138.555 123.666 137.064C122.382 137.713 120.848 138.186 118.928 138.279C118.877 138.279 118.832 138.243 118.894 138.231C124.949 136.873 126.438 133.916 129.863 131.359C131.822 129.896 134.555 128.25 137.923 127.455C142.439 125.911 147.789 125.012 153.362 125.082C157.644 125.136 161.717 125.885 165.25 127.066C165.796 127.25 166.307 127.441 166.795 127.639C166.352 127.303 165.847 126.987 165.245 126.703L165.256 126.697C166.46 127.002 167.335 127.537 167.988 128.166C168.766 128.541 169.465 128.938 170.112 129.361C169.647 128.851 169.079 128.355 168.391 127.873L168.465 127.847C169.607 128.541 170.522 129.304 171.163 130.108C171.913 130.686 172.589 131.303 173.22 131.957C172.737 130.956 171.907 129.97 170.959 129.054L170.982 129.048C172.243 130.105 173.515 131.306 174.077 132.523C173.975 132.044 173.816 131.565 173.566 131.103H173.589C174.174 131.957 174.571 132.788 174.611 133.676C174.696 133.8 174.776 133.922 174.855 134.046C174.924 133.549 174.912 133.051 174.833 132.54H174.912C175.185 133.008 175.287 133.49 175.253 133.969C175.304 134.229 175.304 134.488 175.259 134.745C175.293 134.807 175.327 134.866 175.355 134.928C175.48 134.474 175.543 134.015 175.554 133.558H175.617C175.832 134.139 175.776 134.697 175.503 135.249C175.531 135.305 175.56 135.362 175.583 135.418C175.742 135.063 175.889 134.708 176.02 134.344H176.099C176.179 134.801 176.025 135.269 175.702 135.697C175.736 135.787 175.776 135.881 175.81 135.971C174.537 136.664 173.06 137.231 171.402 137.586C173.089 137.31 174.515 136.847 175.986 136.298C176.037 136.278 176.116 136.306 176.077 136.334L176.071 136.337ZM181.024 136.337C182.029 137.064 183.574 137.53 185.25 137.778C183.989 137.631 182.745 137.296 181.598 137.098L181.564 137.132C182.336 137.521 183.296 137.735 184.347 137.873C183.705 137.854 183.069 137.792 182.427 137.811C182.319 137.814 182.285 137.89 182.382 137.916C183.058 138.102 183.876 138.11 184.631 138.104C185.114 138.099 185.722 138.096 186.238 138.023C186.454 138.014 186.67 137.995 186.869 137.952C186.897 137.952 186.931 137.958 186.96 137.961C187.113 137.969 187.204 137.904 187.193 137.845C187.227 137.851 187.261 137.856 187.295 137.859C187.67 137.358 188.051 136.856 188.511 136.368C191.822 132.85 197.417 130.443 205.608 130.508C212.748 130.564 218.286 132.828 223.029 135.246C227.181 137.36 232.56 141.352 239.513 140.503C242.063 140.19 243.898 139.108 244.04 137.823C242.319 138.998 239.746 139.677 236.792 138.956C238.82 139.288 241.001 139.142 242.444 138.175C242.506 138.136 242.404 138.09 242.33 138.121C239.149 139.472 235.917 138.555 233.429 137.064C234.713 137.713 236.247 138.186 238.167 138.279C238.218 138.279 238.263 138.243 238.201 138.231C232.146 136.873 230.657 133.916 227.232 131.359C225.273 129.896 222.54 128.25 219.172 127.455C214.656 125.911 209.306 125.012 203.728 125.082C199.445 125.136 195.372 125.885 191.839 127.066C191.294 127.25 190.783 127.441 190.294 127.639C190.737 127.303 191.243 126.987 191.845 126.703L191.834 126.697C190.629 127.002 189.755 127.537 189.101 128.166C188.323 128.541 187.624 128.938 186.977 129.361C187.443 128.851 188.011 128.355 188.698 127.873L188.624 127.847C187.477 128.541 186.568 129.304 185.926 130.108C185.176 130.686 184.5 131.303 183.87 131.957C184.353 130.956 185.182 129.97 186.131 129.054L186.108 129.048C184.847 130.105 183.574 131.306 183.012 132.523C183.114 132.044 183.273 131.565 183.523 131.103H183.495C182.91 131.957 182.512 132.788 182.473 133.676C182.387 133.8 182.308 133.922 182.228 134.046C182.16 133.549 182.171 133.051 182.251 132.54H182.171C181.899 133.008 181.797 133.49 181.831 133.969C181.78 134.229 181.78 134.488 181.825 134.745C181.791 134.807 181.757 134.866 181.728 134.928C181.603 134.474 181.541 134.015 181.53 133.558H181.467C181.251 134.139 181.308 134.697 181.581 135.249C181.552 135.305 181.524 135.362 181.501 135.418C181.342 135.063 181.195 134.708 181.064 134.344H180.984C180.905 134.801 181.058 135.269 181.382 135.697C181.348 135.787 181.308 135.881 181.274 135.971C182.546 136.664 184.023 137.231 185.682 137.586C183.995 137.31 182.569 136.847 181.098 136.298C181.047 136.278 180.967 136.306 181.007 136.334L181.024 136.337Z" fill="#3A3A3A"/>

                                    </g>
                                    <g id="eb_angry2" style="display: none;">
                                        <path xmlns="http://www.w3.org/2000/svg" d="M173.279 138.74C172.394 139.598 170.593 139.955 169.062 139.545C169.051 139.545 169.041 139.539 169.036 139.539C166.547 138.874 153.501 134.339 149.201 132.946C144.476 131.419 139.126 130.234 133.832 131.443C130.898 132.114 123.602 135.42 122.458 135.871C122.235 135.96 121.935 135.779 122.09 135.651C127.679 131.11 136.518 127.181 145.61 128.126C149.905 128.571 167.778 134.371 174.102 136.706C174.625 136.899 174.78 137.312 174.449 137.623C174.081 137.968 173.621 138.407 173.274 138.74H173.279ZM184.074 138.74C184.959 139.598 186.759 139.955 188.291 139.545C188.302 139.545 188.312 139.539 188.317 139.539C190.806 138.874 203.852 134.339 208.152 132.946C212.876 131.419 218.227 130.234 223.521 131.443C226.455 132.114 233.751 135.42 234.895 135.871C235.118 135.96 235.418 135.779 235.262 135.651C229.674 131.11 220.835 127.181 211.743 128.126C207.448 128.571 189.575 134.371 183.251 136.706C182.728 136.899 182.573 137.312 182.904 137.623C183.272 137.968 183.732 138.407 184.079 138.74H184.074Z" fill="#3A3A3A"/>
                                    </g>
                                </svg>
                                <svg id="mouths" xmlns="http://www.w3.org/2000/svg" xmlns:xlink="http://www.w3.org/1999/xlink" width="360px" height="360px" viewBox="0 0 360 360" e="xMidYMid meet">
                                    <g id="m_tongue" style="display: none;">
                                        <path fill="#000000" d="M180 220l0 0c17,0 31,-10 31,-23l0 -1 -62 0 0 1c0,13 14,23 31,23z"/>
                                        <path fill="#FEFEFE" d="M199 196l-38 0 0 2c0,3 2,5 4,5l30 0c2,0 4,-2 4,-5l0 -2z"/>
                                        <path fill="#FF4F6D" d="M194 220l0 0c0,8 -6,15 -14,15l0 0c-8,0 -14,-7 -14,-15l0 0 0 -7c0,-4 4,-8 8,-8 3,0 5,1 6,2 1,-1 3,-2 6,-2 4,0 8,4 8,8l0 7z"/>
                                    </g>
                                    <g id="m_smile" style="display: none;">
                                        <path fill="#000000" d="M180 220l0 0c13,0 24,-10 24,-23l0 -1 -48 0 0 1c0,13 11,23 24,23z"/>
                                        <path fill="#FF4F6D" d="M180 220l0 0c6,0 11,-2 16,-5 -2,-3 -5,-5 -9,-5 -3,0 -5,1 -7,2 -2,-1 -4,-2 -7,-2 -4,0 -7,2 -9,5 5,3 10,5 16,5z"/>
                                        <path fill="#FEFEFE" d="M199 196l-38 0 0 2c0,3 2,5 4,5l30 0c2,0 4,-2 4,-5l0 -2z"/>
                                    </g>
                                    <g id="m_serious" style="display: none;">
                                        <path fill="#000000" d="M168 203l24 0c2,0 3,2 3,4l0 0c0,2 -1,3 -3,3l-24 0c-2,0 -3,-1 -3,-3l0 0c0,-2 1,-4 3,-4z"/>
                                    </g>
                                    <g id="m_scream" style="display: none;">
                                        <path fill="#000000" d="M180 196l0 0c14,0 24,11 24,24 0,4 0,8 0,11 -8,-1 -16,-2 -24,-2 -8,0 -16,1 -24,2l0 -11c0,-13 10,-24 24,-24z"/>
                                        <path fill="#FEFEFE" d="M180 196l0 0c7,0 13,2 17,7l-34 0c4,-5 10,-7 17,-7z"/>
                                        <path fill="#FF4F6D" d="M180 222c-2,-2 -4,-2 -6,-2 -3,0 -8,1 -9,4 -2,2 -3,3 -5,7 7,-1 13,-2 20,-2l0 0 0 0c7,0 13,1 20,2 -2,-4 -3,-5 -5,-7 -1,-3 -6,-4 -9,-4 -2,0 -4,0 -6,2z"/>
                                    </g>
                                    <g id="m_sad" style="display: none;">
                                        <path fill="#000000" d="M197 217c0,0 0,-1 0,-2 0,-9 -7,-16 -17,-16 -10,0 -17,7 -17,16 0,1 0,2 0,2 4,-4 10,-6 17,-6 7,0 13,2 17,6z"/>
                                    </g>
                                    <g id="m_grimace" style="display: none;">
                                        <path fill="#FEFEFE" fill-rule="nonzero" d="M204 192l-48 0c-3,0 -7,1 -9,4 -3,2 -4,5 -4,9 0,4 1,7 4,9 2,3 6,4 9,4l48 0c3,0 7,-1 9,-4 3,-2 4,-5 4,-9 0,-4 -1,-7 -4,-9 -2,-3 -6,-4 -9,-4z"/>
                                        <path fill="#B2B3B3" d="M143 204l11 0 0 -12c1,0 2,0 2,0l2 0 0 12 12 0 0 -12 4 0 0 12 12 0 0 -12 4 0 0 12 12 0 0 -12 2 0c0,0 1,0 2,0l0 12 11 0c0,0 0,1 0,1 0,1 0,1 0,2l-11 0 0 11c-1,0 -2,0 -2,0l-2 0 0 -11 -12 0 0 11 -4 0 0 -11 -12 0 0 11 -4 0 0 -11 -12 0 0 11 -2 0c0,0 -1,0 -2,0l0 -11 -11 0c0,-1 0,-1 0,-2 0,0 0,-1 0,-1z"/>
                                        <path fill="#000000" fill-rule="nonzero" d="M156 188l48 0c4,0 9,2 12,5 3,3 5,8 5,12 0,5 -2,9 -5,12 -3,3 -8,5 -12,5l-48 0c-4,0 -9,-2 -12,-5 -3,-3 -5,-7 -5,-12 0,-4 2,-9 5,-12 3,-3 8,-5 12,-5zm48 4l-48 0c-3,0 -7,1 -9,4 -3,2 -4,5 -4,9 0,4 1,7 4,9 2,3 6,4 9,4l48 0c3,0 7,-1 9,-4 3,-2 4,-5 4,-9 0,-4 -1,-7 -4,-9 -2,-3 -6,-4 -9,-4z"/>
                                    </g>
                                    <g id="m_eating" style="display: none;">
                                        <circle fill="#E08C65" fill-opacity="0.6" cx="134" cy="199" r="11"/>
                                        <circle fill="#E08C65" fill-opacity="0.6" cx="226" cy="199" r="11"/>
                                        <path fill="#000000" d="M167 201c9,3 18,3 26,0 0,-6 5,-12 12,-13 -5,3 -8,7 -8,12 0,8 7,14 14,14 1,0 1,0 1,0 -2,1 -3,1 -5,1 -7,0 -12,-4 -14,-9 -9,3 -18,3 -27,0 -2,5 -7,8 -13,8 -2,0 -3,0 -5,-1 0,0 0,0 1,0 7,0 14,-6 14,-14 0,-5 -3,-10 -8,-12 7,1 12,7 12,14 0,0 0,0 0,0z"/>
                                    </g>
                                    <g id="m_default" style="">
                                        <path fill="#000000" d="M180 217l0 0c10,0 17,-8 17,-18l0 0 -34 0 0 0c0,10 7,18 17,18z"/>
                                    </g>
                                </svg>
                                <svg id="clothes" xmlns="http://www.w3.org/2000/svg" xmlns:xlink="http://www.w3.org/1999/xlink" width="360px" height="360px" viewBox="0 0 360 360" e="xMidYMid meet">
                                    <g id="c_blazer" style="display: none;">
                                        <path class="tinted" fill="#5793CE" d="M304 360l0 -13c0,-45 -34,-83 -79,-87l-1 -1c-2,0 -4,0 -6,0 1,0 1,1 1,1l-1 0 1 0c0,2 0,3 0,5l-3 2c-24,23 -48,23 -72,0l-3 -2c0,-2 0,-4 1,-6 -2,0 -4,0 -6,0l-1 1c-45,4 -79,42 -79,87l0 13 74 0 19 0 62 0 19 0 74 0z"/>
                                        <path fill="#000000" fill-opacity="0.5" d="M130 360l-20 -45c3,-4 5,-7 7,-10 -2,-3 -4,-7 -7,-10l26 -36c2,0 4,0 6,0 -5,35 0,74 7,101l-19 0z"/>
                                        <path fill="#000000" fill-opacity="0.5" d="M230 360l20 -45c-3,-4 -5,-7 -7,-10 2,-3 4,-7 7,-10l-26 -36c-2,0 -4,0 -6,0 5,35 0,74 -7,101l19 0z"/>
                                        <path fill="#ffffff" d="M244 330c10,-10 12,-13 23,-2 -8,1 -15,2 -23,2z"/>
                                        <path fill="#000000" fill-opacity="0.7" d="M220 271c-27,24 -54,23 -80,-1 0,-1 1,-3 1,-5l3 2c24,23 48,23 72,0l3 -2c0,2 1,4 1,6z"/>
                                        <path fill="#000000" fill-opacity="0.3" d="M149 360l62 0c6,-24 11,-57 9,-89 -2,1 -4,3 -6,5 -4,2 -7,5 -11,7 -21,11 -42,6 -63,-12 -2,32 3,65 9,89z"/>
                                    </g>
                                    <g id="c_sweater" style="display: none;">
                                        <path class="tinted" fill="#5793CE" d="M304 360l0 -15c0,-44 -34,-81 -78,-85l-15 0 0 11c0,3 -1,6 -3,7l0 0c-5,11 -15,19 -28,19 -12,0 -23,-8 -27,-18l-1 -1c-2,-1 -2,-4 -2,-7l0 -11 -16 0c-44,4 -78,41 -78,85l0 15 248 0z"/>
                                        <path fill="#ffffff" d="M150 271l0 -18c-4,0 -14,9 -14,23 0,10 7,18 16,23 1,-4 7,-7 10,-7 4,0 4,1 5,1l-15 -15c-2,-1 -2,-4 -2,-7z"/>
                                        <path fill="#ffffff" d="M211 271l0 -18c4,0 13,9 13,23 0,10 -6,18 -16,23 -1,-4 -7,-7 -10,-7 -3,0 -3,1 -5,1l15 -15c2,-1 3,-4 3,-7z"/>
                                    </g>
                                    <g id="c_vneck" style="display: none;">
                                        <path class="tinted" fill="#5793CE" d="M304 360l0 -15c0,-44 -34,-81 -78,-85l-46 47 -46 -47c-44,4 -78,41 -78,85l0 15 248 0z"/>
                                    </g>
                                    <g id="c_overall" style="display: none;">
                                        <path fill="#e0e0e0" d="M304 360l0 -15c0,-44 -34,-80 -77,-85 -2,24 -22,43 -46,43 -25,0 -45,-19 -47,-43l0 0c-44,4 -78,41 -78,85l0 15 248 0z"/>
                                        <path class="tinted" fill="#5793CE" d="M260 270c-10,-5 -21,-9 -32,-10l0 57 -96 0 0 -57c-11,2 -22,5 -32,11l0 89 160 0 0 -90z"/>
                                        <circle fill="#000000" fill-opacity="0.5" cx="118" cy="330" r="8"/>
                                        <circle fill="#000000" fill-opacity="0.5" cx="242" cy="330" r="8"/>
                                    </g>
                                    <g id="c_hoodie" style="">
                                        <path class="tinted" fill="#5793CE" d="M304 360l0 -15c0,-36 -24,-68 -56,-80 -1,-13 -17,-20 -39,-23l0 22c0,16 -13,29 -30,29l0 0c-16,0 -29,-13 -29,-29l0 -22c-22,3 -38,10 -39,23 -32,13 -55,44 -55,80l0 15 248 0z"/>
                                        <path fill="#ffffff" d="M143 302l0 49c0,2 -2,4 -5,4 -2,0 -4,-2 -4,-4l0 -54c2,2 5,3 9,5z"/>
                                        <path fill="#ffffff" d="M226 297l0 40c0,2 -2,4 -5,4 -2,0 -4,-2 -4,-4l0 -35c3,-2 6,-3 9,-5z"/>
                                        <path fill="#000000" fill-opacity="0.4" d="M111 265c-4,2 -9,4 -14,7 10,22 36,33 69,37l0 0c-31,-5 -55,-25 -55,-42 0,-1 0,-1 0,-2z"/>
                                        <path fill="#000000" fill-opacity="0.4" d="M262 272c-4,-3 -9,-5 -14,-7 0,0 0,1 0,2 0,17 -24,37 -55,42l0 0c33,-4 59,-15 69,-37z"/>
                                    </g>

                                    <g id="c_kurta" style="display: none;">
                                    <path class="tinted" xmlns="http://www.w3.org/2000/svg" d="M139.941 250.347C158.55 288.236 200.267 289.179 219.526 250.448C268.108 263.238 320.604 298.756 316.006 359.837H43.0868C38.5424 298.611 91.7097 263.361 139.941 250.347ZM179.537 283.686C176.99 283.686 174.909 292.531 174.909 303.381C174.909 314.23 176.99 323.074 179.537 323.075C182.084 323.075 184.167 314.23 184.167 303.381C184.167 292.531 182.084 283.686 179.537 283.686Z" fill="#5793CE"/>
                                    <path xmlns="http://www.w3.org/2000/svg" fill-rule="evenodd" clip-rule="evenodd" d="M83.3149 323.531C83.3149 322.84 83.9469 322.284 84.7091 322.284C85.4713 322.284 86.0849 322.857 86.0849 323.548L85.7502 358.152C85.7502 358.843 85.1182 359.399 84.356 359.399C83.5937 359.399 82.9802 358.826 82.9802 358.135L83.3149 323.531Z" fill="black" fill-opacity="0.5"/>
                                    <path xmlns="http://www.w3.org/2000/svg" fill-rule="evenodd" clip-rule="evenodd" d="M273.36 323.531C273.36 322.84 273.993 322.284 274.754 322.284C275.517 322.284 276.13 322.857 276.13 323.548L275.796 358.152C275.796 358.843 275.163 359.399 274.402 359.399C273.639 359.399 273.026 358.826 273.026 358.135L273.36 323.531Z" fill="black" fill-opacity="0.5"/>
                                    <path xmlns="http://www.w3.org/2000/svg" fill-rule="evenodd" clip-rule="evenodd" d="M129.567 253.434C129.511 252.979 129.864 252.558 130.366 252.507C130.868 252.457 131.333 252.777 131.388 253.232C132.43 260.813 137.598 269.59 146.168 275.824C153.176 280.912 162.471 284.298 173.662 283.911C174.164 283.911 174.592 284.248 174.61 284.719C174.61 285.174 174.239 285.562 173.718 285.578C162.044 285.983 152.34 282.445 145.015 277.121C136.055 270.601 130.664 261.403 129.567 253.434Z" fill="black" fill-opacity="0.5"/>
                                    <path xmlns="http://www.w3.org/2000/svg" fill-rule="evenodd" clip-rule="evenodd" d="M227.684 253.232C227.739 252.777 228.204 252.457 228.706 252.507C229.208 252.558 229.58 252.979 229.505 253.434C228.409 261.403 223.018 270.601 214.057 277.121C206.733 282.445 197.029 285.983 185.354 285.578C184.852 285.578 184.443 285.174 184.462 284.719C184.462 284.264 184.908 283.894 185.41 283.911C196.601 284.298 205.896 280.912 212.905 275.824C221.475 269.59 226.624 260.813 227.684 253.232Z" fill="black" fill-opacity="0.5"/>
                                    </g>

                                    <g id="c_dress" style="display: none;">
                                        <path class="tinted" xmlns="http://www.w3.org/2000/svg" fill-rule="evenodd" clip-rule="evenodd" d="M197.716 269.007C188.498 275.302 170.236 274.48 161.423 267.314C161.423 270.162 161.348 272.719 161.348 274.941C172.354 282.135 188.448 281.33 199.678 274.702C199.678 272.739 199.678 270.431 199.678 267.767L197.716 269.007Z" fill="#5793CE"/>
                                        <path class="tinted" xmlns="http://www.w3.org/2000/svg" fill-rule="evenodd" clip-rule="evenodd" d="M82.2962 359.255H277.565C279.418 323.429 268.953 309.157 255.691 296.209C216.322 345.449 145.817 345.314 106.763 295.468C96.4821 304.561 82.2962 320.682 82.2962 359.255Z" fill="#5793CE"/>
                                    </g>

                                    <g id="c_apron" style="display: none;">
                                        <path class="tinted" xmlns="http://www.w3.org/2000/svg" fill-rule="evenodd" clip-rule="evenodd" d="M180.043 359.944H265.995L261.23 326.109H98.8557L94.0901 359.944H180.043Z" fill="#5793CE"/>
                                        <path class="tinted" xmlns="http://www.w3.org/2000/svg" d="M101.753 332.609C103.583 332.681 105.114 331.015 105.177 328.914L111.429 265.323L105.179 269.247L98.5336 328.678C98.4705 330.779 99.9222 332.536 101.753 332.609Z" fill="#5793CE"/>
                                        <path class="tinted" xmlns="http://www.w3.org/2000/svg" d="M258.391 332.694C256.56 332.766 255.03 331.1 254.967 328.999L248.715 265.408L254.964 269.332L261.61 328.763C261.673 330.864 260.221 332.621 258.391 332.694Z" fill="#5793CE"/>
                                    </g>
                                </svg>
                                <svg id="hair_front" xmlns="http://www.w3.org/2000/svg" xmlns:xlink="http://www.w3.org/1999/xlink" width="360px" height="360px" viewBox="0 0 360 360" e="xMidYMid meet">
                                    <g class="h_longhair" style="">
                                        
                                        <path xmlns="http://www.w3.org/2000/svg" d="M91.929 115.998C83.8245 107.354 81.9237 102.222 67.9584 99.1194C67.9584 99.1194 76.459 91.1134 84.6692 92.0029C92.8795 92.8925 74.0303 79.1155 67.9584 71.5657C67.9584 71.5657 75.0862 75.5573 83.3229 74.6905C91.5332 73.801 104.02 65.7948 104.02 65.7948C104.02 65.7948 76.9342 47.707 72.8423 37.1917C72.8423 37.1917 89.1571 44.0118 104.02 40.4534C118.883 36.8953 137.811 37.1917 137.811 37.1917C137.811 37.1917 112.415 22.685 104.02 6.23931C104.02 6.23931 117.141 14.7016 130.287 18.2371C157.769 25.6501 163.762 23.5745 171.867 23.1183C171.867 23.1183 170.89 25.3308 169.279 10.6871C169.279 10.6871 176.698 16.4579 183.35 20.0162C183.35 20.0162 181.661 13.3559 193.356 0.0123291C193.356 0.0123291 191.983 11.5767 200.351 19.1267C208.694 26.6767 213.974 32.0141 213.974 32.0141C213.974 32.0141 210.99 20.4724 213.261 8.47465C213.261 8.47465 218.382 25.8098 228.361 34.6827C238.34 43.5784 244.861 52.9075 244.861 52.9075C244.861 52.9075 243.805 30.2348 235.595 21.362C235.595 21.362 256.583 37.3742 257.479 69.3531C257.479 69.3531 267.854 64.6999 275.14 61.8031C275.14 61.8031 260.937 74.4625 264.554 87.7831C268.171 101.127 259.355 123.115 259.355 123.115C259.355 123.115 266.139 112.007 268.436 99.1194C268.436 99.1194 273.61 126.719 248.451 147.133L243.488 160.911L238.551 163.989C238.551 163.989 250.484 123.548 244.861 104.001C244.861 104.001 248.346 109.749 225.563 119.1C225.563 119.1 199.639 125.67 196.497 136.595C196.497 136.595 207.427 114.653 219.227 109.315C219.227 109.315 211.571 116.432 187.099 118.644C187.099 118.644 193.963 116.865 204.734 106.647C204.734 106.647 177.912 108.768 161.254 117.755C161.254 117.755 166.032 105.324 175.272 101.309C175.272 101.309 144.86 130.346 117.932 130.711C117.932 130.711 131.449 127.973 140.874 112.417C140.874 112.417 122.843 119.009 116.058 126.605C116.058 126.605 112.362 150.646 116.058 160.865L107.663 149.711C107.663 149.711 98.3177 122.819 91.9026 115.976L91.929 115.998Z" fill="#46423D"/>

                                    </g>
                                    
                                    <g class="h_hairbun" style="display: none;">
                                    
                                        <path xmlns="http://www.w3.org/2000/svg" d="M251.746 109.423C250.591 101.781 248.598 93.4979 245.562 87.3759C238.767 73.9312 224.814 68.1893 202.751 60.0866C183.113 52.8241 175.955 56.5254 155.614 60.8869C155.184 59.6064 154.55 58.386 153.689 57.2856C147.528 49.343 132.578 48.9828 120.278 56.4854C107.979 63.9879 103.018 76.5121 109.179 84.4548C110.538 86.2154 112.35 87.5758 114.434 88.5762C110.833 95.5185 108.862 102.321 108.069 106.942C107.933 107.803 107.82 108.603 107.662 109.423C104.966 127.249 107.526 134.592 109.768 138.573C110.788 140.474 111.784 141.614 112.101 142.794C113.279 147.016 112.577 148.396 114.91 152.858C116.428 154.078 120.346 155.739 121.569 158.68C123.721 163.721 124.514 162.861 124.514 162.861C124.514 162.861 121.502 145.115 121.207 138.573C121.162 138.213 121.162 137.873 121.162 137.593C121.162 134.432 122.77 118.546 134.435 109.403C134.979 108.943 135.568 108.503 136.18 108.103C146.01 101.48 162.749 104.281 164.584 104.281C164.947 104.281 168.752 106.922 174.234 109.403C179.534 111.844 186.352 114.125 193.079 113.825C234.893 111.904 243.705 132.171 244.634 136.412C244.588 137.113 244.498 137.833 244.452 138.553C243.954 143.795 243.343 149.897 242.889 153.978C242.119 158.86 241.44 162.841 241.44 162.841C241.44 162.841 242.301 163.702 244.407 158.66C245.426 156.179 248.937 154.638 250.274 153.458C250.523 150.697 251.406 143.555 251.791 142.774C252.154 142.134 252.516 140.534 252.788 138.553C253.264 135.432 253.581 131.411 253.581 128.93C253.581 126.689 253.173 118.526 251.701 109.403L251.746 109.423Z" fill="#46423D"/>
                                    </g>
                                    
                                    <g class="h_nottoolong" style="display: none;">
                                        
                                        <path xmlns="http://www.w3.org/2000/svg" d="M218.93 50.7643C203.748 46.0385 173.528 44.2683 169.372 45.6276C155.174 44.8689 122.168 50.3691 108.859 57.0706C84.7406 69.209 70.6154 88.6178 66.8198 107.647C59.9494 142.324 102.349 166.601 102.349 166.601C102.349 166.601 91.7311 156.991 93.6769 145.833C94.0854 143.494 94.6138 141.328 95.2143 139.289C92.8842 165.795 128.918 179.814 128.918 179.814C128.918 179.814 117.555 173.587 119.645 150.922C120.294 143.826 124.81 134.342 131.296 124.448C130.479 131.529 133.746 134.753 133.746 134.753C133.746 134.753 133.506 118.632 147.295 108.675C152.076 105.229 156.496 102.131 160.82 99.1124C156.424 105.166 155.631 110.935 154.142 113.922C152.172 117.921 143.331 126.724 143.331 126.724C143.331 126.724 161.348 117.447 174.416 105.134C177.828 101.926 180.278 99.0967 182.08 96.6627C181.215 98.4803 180.398 100.172 179.726 101.373C177.347 105.719 165.096 117.367 165.096 117.367C165.096 117.367 181.719 106.968 186.476 101.483C191.232 95.9989 192.025 93.6597 192.025 93.6597C192.025 93.6597 190.896 99.9501 187.269 105.055C179.461 116.04 170.261 120.102 170.261 120.102C170.261 120.102 187.1 113.337 196.205 106.478C202.211 101.957 206.414 96.4414 207.688 92.3005C205.838 98.7806 197.959 108.675 197.959 108.675C197.959 108.675 205.742 105.624 212.06 98.5435C217.032 92.98 219.675 87.6695 218.522 80.6994C240.815 109.907 226.473 135.702 226.473 135.702C226.473 135.702 236.323 121.019 237.5 111.883C237.812 109.591 238.412 108.785 238.412 108.785C238.412 108.785 237.307 114.965 235.53 123.99C233.2 135.844 229.885 144.331 229.885 144.331L241.031 126.661L231.182 152.771C231.182 152.771 236.515 147.476 241.343 142.34C239.349 148.978 237.572 154.368 237.572 154.368C237.572 154.368 310.192 79.1979 218.906 50.7643H218.93ZM207.712 92.2055C207.88 91.6208 208 91.0677 208.048 90.5618C208 91.0677 207.856 91.6366 207.712 92.2055Z" fill="#46423D"/>
                                    </g>
                                    <g class="h_miawallace" style="display: none;">
                                        
                                        <path xmlns="http://www.w3.org/2000/svg" d="M259.691 83.9293C257.665 76.0061 254.244 73.25 251.458 73.7784C251.458 73.7784 121.795 80.002 106.648 73.296C106.496 73.1352 106.243 72.9975 105.863 72.9286C103.077 72.4003 99.6571 75.1563 97.6306 83.0796C95.6042 91.0027 96.9214 97.8007 97.9093 95.504C97.9093 95.504 185.702 108.365 260.602 96.7902L260.298 96.0094C260.881 94.2409 261.083 89.3952 259.664 83.9063L259.691 83.9293Z" fill="white"/>
                                        <path xmlns="http://www.w3.org/2000/svg" d="M106.952 73.3909C105.686 74.3326 78.7095 46.1074 55.7354 81.3602C40.8669 104.142 71.3132 158.526 25.0611 158.549C30.9629 158.342 42.64 159.238 49.3776 155.747C24.8838 166.541 35.2943 189.369 43.5519 207.191C36.6368 180.481 73.7195 179.723 79.748 156.275C82.0529 161.19 83.1675 166.977 81.5211 172.19C100.214 156.068 82.7368 135.054 88.6641 115.189C91.9569 104.211 106.927 73.3909 106.927 73.3909H106.952Z" fill="#46423D"/>
                                        <path xmlns="http://www.w3.org/2000/svg" d="M130.255 158.66C130.255 158.66 129.799 152.666 138.36 133.283C140.564 128.276 146.441 101.429 146.441 101.429C146.441 101.429 145.503 127.289 161.157 134.454C161.157 134.454 158.27 126.898 164.678 109.628C164.678 109.628 180.914 135.143 183.903 155.697C183.903 155.697 206.092 126.898 197.48 102.83C197.48 102.83 206.701 113.532 206.701 132.249C206.701 132.249 219.238 122.489 218.935 104.483C218.935 104.483 228.508 137.623 225.9 157.879C225.9 157.879 235.576 145.064 235.221 133.627C235.221 133.627 239.654 159.579 239.046 168.26C238.032 183.211 232.005 196.646 232.005 196.646C232.005 196.646 254.345 192.994 254.75 116.609C254.876 92.6789 248.748 45.1164 181.294 44.7949C165.387 44.726 140.286 45.438 118.629 67.9217C101.911 85.3068 101.708 124.9 104.849 147.108C110.599 187.781 126.151 200.091 126.151 200.091C126.151 200.091 120.858 176.941 120.503 169.109C120.148 161.048 123.543 136.957 123.543 136.957C123.543 136.957 123.365 152.965 130.23 158.637L130.255 158.66Z" fill="#46423D"/>
                                        <path xmlns="http://www.w3.org/2000/svg" d="M250.394 73.3909C251.66 74.3326 278.637 46.1074 301.612 81.3602C316.479 104.165 286.034 158.549 332.26 158.572C326.358 158.365 314.707 159.261 307.943 155.77C332.437 166.564 322.027 189.392 313.769 207.214C320.685 180.504 283.601 179.746 277.574 156.298C275.269 161.213 274.129 167 275.8 172.213C257.107 156.091 274.61 135.077 268.657 115.212C265.365 104.234 250.394 73.4139 250.394 73.4139V73.3909Z" fill="#46423D"/>

                                    </g>
                                    <g class="h_longhairstraight" style="display: none;">
                                        
                                        <path d="M228.782 87.6345C237.13 86.1257 247.654 84.939 248.095 77.9379C248.536 70.9367 259.09 65.5799 245.479 58.1041C231.868 50.6112 215.642 46.5428 215.642 46.5428C215.642 46.5428 200.708 43.1185 189.743 41.8471C178.749 40.5587 175.339 39.6942 165.579 41.8471C148.559 45.6104 146.266 46.7632 138.358 53.8322C130.45 60.8842 126.952 60.6808 125.629 64.9526C124.307 69.2415 115.958 71.5809 125.629 73.2931C135.301 75.0052 137.035 80.7858 147.148 82.0573C157.231 83.3456 227.459 87.6175 227.459 87.6175H228.782V87.6345Z" fill="#46423D"/>
                                        <path d="M261.912 125.324H227.165L226.401 124.087L223.373 119.476L220.345 124.087L219.581 125.324H187.333L185.128 121.934L182.923 125.324H167.02L165.58 123.171L162.552 118.56L159.582 123.171L158.142 125.324H136.595L133.626 120.679L130.598 125.324H95.8803C85.1506 119.984 93.3228 71.2472 180.807 72.0609C273.935 72.9255 272.7 119.984 261.942 125.324H261.912Z" fill="#46423D"/>
                                        <path d="M135.558 212.467C135.558 212.467 106.309 198.973 101.606 178.766C96.2554 155.897 98.6659 119.434 98.6659 119.434L114.364 118.976C114.364 118.976 114.775 143.489 116.95 182.495C117.421 190.989 135.558 212.467 135.558 212.467Z" fill="#46423D"/>
                                        <path d="M228.5 212.467C228.5 212.467 257.75 198.973 262.453 178.766C267.803 155.897 265.393 119.434 265.393 119.434L249.695 118.976C249.695 118.976 249.284 143.489 247.108 182.495C246.638 190.989 228.5 212.467 228.5 212.467Z" fill="#46423D"/>

                                    </g>
                                    <g class="h_longhairstraight2" style="display: none;">
                                        
                                        <path xmlns="http://www.w3.org/2000/svg" d="M123.087 218.98C131.488 228.472 143.002 235.219 156.057 237.675V256.032H145.027C140.653 256.032 136.352 256.37 132.149 257.018H128.682C129.49 252.849 130.37 248.89 131.298 245.05C126.687 248.515 120.937 249.475 120.931 249.477C120.942 249.469 128.92 243.965 129.894 234.602C130.084 232.706 130.3 231.043 130.514 229.567C129.586 231.98 128.231 234.627 126.234 237.203C121.173 243.71 114.283 246.218 114.274 246.221C114.285 246.213 121.764 241.146 122.572 221.72C122.61 220.938 122.797 220.002 123.087 218.98ZM239.056 211.359C241.58 218.345 243.967 219.143 243.972 219.145C243.972 219.145 241.356 219.263 237.005 216.124C237.837 218.232 238.455 220.246 238.503 221.72C239.311 241.146 246.789 246.213 246.8 246.221C246.791 246.218 239.878 243.71 234.841 237.203C232.868 234.602 231.488 231.98 230.561 229.567C230.775 231.043 230.99 232.706 231.18 234.602L231.227 234.627C232.2 243.983 240.171 249.485 240.191 249.498C240.186 249.498 235.362 248.726 231.014 245.941L232.441 257.018H231.157C226.955 256.37 222.653 256.032 218.28 256.032H203.34V237.042C218.381 233.403 231.137 224.005 239.056 211.359ZM120.214 215.465C120.746 216.17 121.294 216.861 121.857 217.541C118.883 219.201 117.146 219.146 117.104 219.145C117.145 219.13 118.488 218.643 120.214 215.465ZM173.596 34.9479C189.043 30.2497 199.066 35.4656 199.107 35.4867C199.031 35.4842 190.957 35.2186 187.029 38.2958C190.952 36.6563 197.658 36.0707 208.951 40.5678C230.967 49.3276 230.563 65.0216 245.898 69.8465C261.51 74.7637 266.109 68.5047 266.155 68.4412L266.203 68.464C266.203 68.464 259.379 79.5891 247.301 79.6127C245.352 79.6127 245.137 79.5657 245.137 79.5657C245.137 79.5891 249.679 91.4641 250.535 100.341C251.415 109.405 248.656 115.613 247.8 132.57C247.063 147.068 243.093 139.644 238.338 150.324C236.745 153.907 236.673 157.936 236.673 157.936C234.913 158.356 230.301 149.245 233.605 133.39C234.342 129.853 233.582 122.967 231.228 115.73C230.325 117.276 229.327 118.869 228.233 120.485C221.223 130.751 209.706 136.809 209.617 136.856C209.697 136.774 222.237 123.99 221.123 106.853C219.792 109.008 218.295 111.233 216.536 113.528C208.961 123.415 197.144 128.867 197.039 128.915C197.145 128.819 210.731 116.317 210.187 98.7717C199.052 132.989 167.694 141.938 167.605 141.963C167.641 141.946 189.051 131.706 189.621 106.689C189.669 104.722 189.811 102.823 189.929 100.997C187.504 106.149 184.532 111.374 180.989 115.355C180.728 115.659 180.42 115.94 180.135 116.245C163.798 136.916 146.776 138.417 146.682 138.425V138.355C141.214 139.573 134.818 139.362 127.471 136.575C127.423 136.552 127.352 136.529 127.304 136.505C127.019 136.388 126.711 136.248 126.402 136.131C120.791 134.14 119.411 140.768 119.078 144.891C119.006 157.116 116.343 157.023 116.343 157.023C115.013 157.021 116.438 150.042 112.017 145.218C107.595 140.393 100.89 124.185 100.89 107.954C100.89 91.7224 106.643 77.3172 121.621 61.9759C136.6 46.658 158.642 39.2095 158.642 39.2095L152.53 44.7384C156.192 42.0214 162.707 38.2504 173.596 34.9479Z" fill="#46423D"/>

                                    </g>
                                    <g class="h_shorthairdreads" style="display:none;">
                                        
                                        <path xmlns="http://www.w3.org/2000/svg" d="M268.313 93.5092C268.502 92.4612 268.773 91.2207 269.096 89.6594C270.312 84.013 272.904 80.8049 274.904 79.0296L277.632 77.1476C277.632 77.1476 268.477 77.1904 261.076 83.842C261.076 82.0881 260.833 79.9066 260.131 77.2118C260.077 77.0406 259.996 76.891 259.888 76.7199C258.807 66.689 259.32 49.4932 275.552 48.4666C275.552 48.4666 252.92 44.8949 243.575 69.0844C243.521 69.0203 243.44 68.9775 243.386 68.9134C228.505 32.5114 180.702 16 180.702 16C180.486 16.0642 180.27 16.1497 180.054 16.2139C179.838 16.1497 179.621 16.0642 179.405 16C179.405 16 131.602 32.5114 116.694 68.9561C116.64 69.0203 116.559 69.063 116.505 69.1271C107.161 44.959 84.5285 48.5094 84.5285 48.5094C100.76 49.536 101.3 66.7318 100.193 76.7626C100.085 76.9124 99.9767 77.0834 99.9498 77.2545C99.2475 79.9494 99.0045 82.131 99.0045 83.8847C91.6044 77.2331 82.4489 77.1904 82.4489 77.1904L85.1767 79.0725C87.1752 80.8476 89.7679 84.0559 90.9834 89.7021C91.3343 91.2635 91.5775 92.4826 91.7666 93.552C79.6942 80.3771 68 84.3553 68 84.3553C96.1417 95.8833 98.3292 120.415 98.3292 120.415V119.709C98.5453 129.761 103.191 139.108 111.077 147C110.78 144.669 110.618 142.316 110.618 139.921C110.618 127.687 114.453 116.351 121.069 106.812C134.843 92.3543 150.021 106.812 150.021 106.812C150.481 107.475 150.967 108.096 151.48 108.63C156.692 115.924 167.225 120.928 179.405 120.928C179.621 120.928 179.811 120.907 180 120.907C180.216 120.907 180.405 120.928 180.594 120.928C192.774 120.928 203.307 115.924 208.519 108.63C209.033 108.074 209.519 107.454 209.978 106.812C209.978 106.812 225.156 92.3329 238.93 106.812C245.546 116.351 249.382 127.687 249.382 139.921C249.382 142.316 249.219 144.669 248.922 147C256.836 139.108 261.481 129.761 261.67 119.709V120.415C261.67 120.415 263.858 95.8833 292 84.3553C292 84.3553 280.305 80.3771 268.206 93.5092H268.313Z" fill="#46423D"/>

                                    </g>
                                    
                                    <g class="h_shorthairshaggy" style="display: none;">
                                        <path xmlns="http://www.w3.org/2000/svg" d="M268.633 106.481C280.257 111.443 289.063 116.493 289.063 116.493C285.634 102.511 271.885 93.4046 257.471 87.5718C255.884 85.43 254.245 83.4277 252.555 81.5821C270.707 87.3105 288.065 97.2352 288.065 97.2352C282.868 75.9929 253.887 65.9985 234.839 61.6457C239.678 55.6734 249.637 47.4377 269.094 35.6498C269.094 35.6498 245.08 47.4725 214.895 58.1633C214.511 58.111 214.102 58.0414 213.743 57.9891C214.639 51.9473 222.217 42.2315 251.967 24.1755C251.967 24.1755 220.067 39.8809 183.584 51.4423C142.954 39.8288 104.679 20.9892 104.679 20.9892C135.453 39.6546 142.519 49.4051 142.979 55.3948C112.232 44.6169 87.5516 32.4461 87.5516 32.4461C108.596 45.209 118.53 53.7929 122.882 59.8696C105.652 62.8992 67.07 72.3713 61.0024 97.2004C61.0024 97.2004 75.0578 89.1562 91.1102 83.3755C89.6509 85.9351 89.2156 87.5891 89.2156 87.5891C89.1644 87.9896 89.0875 88.3378 89.0109 88.6512C75.5698 94.5189 63.2554 103.347 60.0551 116.475C60.0551 116.475 71.0895 110.172 84.7354 104.722C83.8648 107.578 83.2759 108.361 83.7369 114.856C75.8259 120.428 69.6814 127.845 70.219 137.317C70.219 137.317 76.6707 131.919 85.2985 126.678C86.7323 134.218 89.1644 140.155 90.1886 143.881C97.485 170.66 132.534 187.603 132.534 187.603C132.534 187.603 128.079 180.237 124.111 173.098C121.039 167.561 112.078 158.298 112.078 144.299C112.078 130.3 132.073 112.993 132.073 112.993C132.073 112.993 122.857 123.858 121.039 135.802C119.195 147.764 128.873 157.01 128.873 157.01C128.873 157.01 116.61 141.496 136.195 129.9C142.416 126.208 147.639 122.378 151.838 118.843V118.878C146.922 128.037 156.779 135.733 156.779 135.733C156.779 135.733 156.6 123.98 166.815 120.01C191.7 110.277 195.642 106.272 199.15 98.4366C199.636 97.3746 199.892 96.3821 200.072 95.4244L222.806 118.06C223.881 119.035 225.597 120.706 227.619 122.848C233.508 129.133 241.649 139.406 241.649 148.356C241.649 162.338 237.066 171.845 233.994 177.382C230.026 184.503 221.193 191.659 221.193 191.659C221.193 191.659 256.217 174.718 263.514 147.938C264.537 144.23 267.865 138.153 269.787 130.579C275.239 134.305 278.875 137.334 278.875 137.334C279.283 130.37 276.057 124.537 271.194 119.714C271.194 115.535 270.452 111.095 268.633 106.481Z" fill="#46423D"/>
                                    </g>
                                    <g class="h_shorthaircurly" style="display:none;">
                                        <path d="M94.7531 110.764C98.6142 107.558 103.321 102.155 107.26 93.1668C107.283 93.1072 107.313 93.0407 107.329 92.9743C108.713 88.7526 110.113 85.4999 110.113 85.4999C110.113 85.4999 109.913 85.5198 107.975 85.5198C103.237 85.5132 99.3219 83.9931 96.3145 82.1543C94.4839 81.0391 95.5453 78.5631 97.7759 78.6429C100.676 78.7491 104.452 78.3575 109.306 77.0165C124.496 72.8014 124.112 59.0805 145.948 51.4203C149.002 50.3516 151.686 49.6347 154.101 49.1567C151.671 48.6523 151.847 45.6187 154.347 45.3266C158.378 44.8487 162.5 44.7491 166.485 44.8553C170.438 44.6761 175.345 45.008 180.999 46.5214C187.406 48.2407 192.259 50.0993 195.928 51.8186C195.851 51.7257 195.774 51.6261 195.697 51.5332C194.197 49.7542 196.674 47.5371 198.789 48.7717C201.235 50.1923 203.535 51.812 205.742 53.4847C205.581 53.2524 205.427 53.0267 205.273 52.801C203.981 50.8694 202.512 48.9244 201.02 47.1587C199.52 45.3797 201.996 43.1626 204.112 44.3973C208.15 46.7405 211.895 49.555 215.226 52.4094C215.588 52.7214 215.934 53.0333 216.28 53.3453C219.079 55.8213 221.572 58.2973 223.61 60.4878C225.14 62.1341 228.186 60.7468 227.509 58.7089C227.486 58.6424 227.463 58.5761 227.44 58.5164C226.794 56.5847 229.471 55.1774 231.17 56.5449C257.56 77.74 253.061 110.32 253.061 110.32C253.061 124.478 246.407 138.67 242.031 142.892C237.662 147.107 239.062 153.221 237.755 153.221C237.755 153.221 235.124 153.301 235.039 142.614C234.716 139.009 233.355 133.214 227.786 134.947C227.486 135.059 227.186 135.172 226.886 135.278C226.84 135.305 226.779 135.318 226.725 135.345C198.774 144.711 184.491 120.973 184.491 120.973C184.491 120.973 175.945 105.753 166.385 100.177C163.569 98.5303 159.885 97.2757 155.416 96.1141C129.95 89.4628 119.389 123.556 121.535 132.55C124.804 146.404 120.243 154.383 118.497 154.004C118.497 154.004 118.428 150.486 116.843 147.353C112.144 138.013 108.198 144.499 107.475 131.84C107.006 123.609 105.944 118.278 105.252 113.804C105.044 112.49 103.398 111.7 102.052 112.324C100.583 113.008 98.8988 113.592 96.9759 114.05C94.6916 114.601 93.0302 112.211 94.7454 110.791L94.7531 110.764Z" fill="#46423D"/>
                                    </g>
                                    
                                    <g class="h_shorthairwaved" style="display: none;">
                                        <path d="M119.522 198.069C126.228 219.894 141.22 236.313 159.469 240.817V262.385H147.255C142.106 262.385 137.065 263.046 132.183 264.308C121.216 254.079 114.483 240.227 114.483 224.975C114.483 216.835 116.267 207.475 119.522 198.069Z" fill="#46423D"/>
                                        <path d="M238.684 203.027C241.221 210.734 242.618 218.268 242.618 224.975C242.618 239.773 236.278 253.256 225.882 263.389C222.31 262.727 218.664 262.385 214.962 262.385H203.172V240.045C218.791 235.083 231.741 221.307 238.684 203.027Z" fill="#46423D"/>
                                        <path d="M250.508 144.961C249.036 146.532 247.261 149.885 246.163 153.178C243.874 159.853 238.712 180.726 238.712 180.726C238.712 180.726 244.645 132.456 244.645 125.206C244.645 117.956 240.487 84.6683 218.135 82.7652C205.966 81.708 192.325 86.8432 179.97 86.8432H178.989C166.866 86.5713 156.963 83.6111 145.028 82.1308C126.973 79.9257 115.971 118.258 115.971 125.448C115.971 132.637 119.498 177.434 119.498 177.434C119.498 177.434 115.668 159.853 113.379 153.178C112.071 149.311 109.969 147.106 108.31 145.535C104.69 94.3949 107.002 19.6931 179.175 19.6931H179.572C252.143 19.6931 254.829 96.5698 250.508 144.961Z" fill="#46423D"/>
                                    </g>
                                </svg>
                                <svg id="facialhair" xmlns="http://www.w3.org/2000/svg" xmlns:xlink="http://www.w3.org/1999/xlink" width="360px" height="360px" viewBox="0 0 360 360" e="xMidYMid meet">
                                    <g id="f_magnum" style="display:none;">
                                        <path class="tinted" fill="#6f2912" d="M170 201c7,-1 10,-4 10,-10 0,6 3,9 10,10 10,1 12,-3 20,-3 7,1 8,2 10,2 1,0 1,-1 1,-2 -6,-16 -26,-17 -31,-16 -6,1 -10,4 -10,9 0,-5 -4,-8 -10,-9 -5,-1 -25,0 -31,16 0,1 0,2 1,2 2,0 3,-1 10,-2 8,0 10,4 20,3z"/>
                                    </g>
                                    <g id="f_fancy" style="display:none;">
                                        <path class="tinted" fill="#6f2912" d="M127 194c2,2 18,0 24,-5 6,-5 20,-5 25,-1 2,2 1,5 0,5 -7,4 -15,7 -22,9 -12,4 -21,1 -27,-7 -1,-1 0,-2 0,-1zm106 0c-2,2 -18,0 -24,-5 -6,-5 -20,-5 -25,-1 -2,2 -1,5 0,5 7,4 15,7 22,9 12,4 21,1 27,-7 1,-1 0,-2 0,-1z"/>
                                    </g>
                                    <g id="f_magestic" style="display:none;">
                                        <path class="tinted" fill="#6f2912" d="M111 136c1,11 -1,61 16,60 9,0 20,-15 29,-16 13,-1 20,0 24,5 4,-5 11,-6 24,-5 9,1 20,16 29,16 17,1 15,-49 16,-60 2,13 5,25 5,38 1,11 -2,22 -4,34 -1,11 0,24 -4,35 -2,7 -9,12 -13,18 -3,3 -5,8 -8,10 -5,3 -11,3 -16,6 -18,7 -10,8 -29,8 -19,0 -11,-1 -29,-8 -5,-3 -11,-3 -16,-6 -3,-2 -5,-7 -8,-10 -4,-6 -11,-11 -13,-18 -4,-11 -3,-24 -4,-35 -2,-12 -5,-23 -4,-34 0,-13 3,-25 5,-38zm69 56c-3,3 -7,4 -13,5 -6,2 -15,4 -15,14 0,7 7,14 13,15 8,1 5,-4 15,-4 10,0 7,5 15,4 6,-1 13,-8 13,-15 0,-10 -9,-12 -15,-14 -6,-1 -10,-2 -13,-5z"/>
                                    </g>
                                    <g id="f_light" style="display:none;">
                                        <path class="tinted" fill="#6f2912" d="M174 183c-5,0 -7,0 -12,0 -6,0 -12,7 -15,13 -3,4 -4,10 -10,8 -14,-2 -20,-19 -20,-36l0 -27c0,-4 -3,-6 -6,-6 0,15 0,30 0,45 0,41 31,66 69,66 38,0 69,-25 69,-66 0,-15 0,-30 0,-45 -3,0 -6,2 -6,6l0 27c0,17 -6,34 -20,36 -6,2 -7,-4 -10,-8 -3,-6 -9,-13 -15,-13 -5,0 -7,0 -12,0 -3,0 -6,2 -6,5 0,3 3,6 6,6 5,0 8,-1 14,0 7,0 10,9 9,14 0,6 -3,12 -6,16 -3,3 -7,5 -11,5 -5,0 -5,-6 -12,-6 -7,0 -7,6 -12,6 -4,0 -8,-2 -11,-5 -3,-4 -6,-10 -6,-16 -1,-5 2,-14 9,-14 6,-1 9,0 14,0 3,0 6,-3 6,-6 0,-3 -3,-5 -6,-5z"/>
                                    </g>
                                </svg>
                                <svg id="glasses" xmlns="http://www.w3.org/2000/svg" xmlns:xlink="http://www.w3.org/1999/xlink" width="360px" height="360px" viewBox="0 0 360 360" e="xMidYMid meet">
                                    <g id="g_rambo" style="display: none;">
                                        <path xmlns="http://www.w3.org/2000/svg" d="M244.496 147.96H247.02C247.977 147.96 248.76 148.665 248.76 149.527C248.76 150.326 248.029 150.984 247.142 150.984H244.513V147.96H244.496Z" fill="black"/>
                                        <path xmlns="http://www.w3.org/2000/svg" d="M130.85 128.034C136.382 127.293 142.921 127.336 149.363 128.099L150.65 128.262L150.663 128.263L153.431 128.685L153.443 128.688L154.774 128.924C157.427 129.416 160.011 130.032 162.444 130.766L163.647 131.142L163.649 131.144L164.604 131.477C169.243 133.215 171.965 135.949 172.725 139.591L172.817 140.024C173.004 141.024 173.005 141.933 172.953 142.617C172.923 143.009 172.876 143.33 172.836 143.555C172.816 143.667 172.797 143.756 172.783 143.818C172.776 143.849 172.77 143.874 172.766 143.891C172.764 143.9 172.76 143.908 172.759 143.913C172.758 143.915 172.758 143.917 172.757 143.919V143.924C172.757 143.924 172.756 143.923 172.742 143.92C172.727 144.047 172.709 144.179 172.678 144.325L172.679 144.326C171.591 149.995 168.468 156.862 159.359 165.044C150.314 173.169 137.909 176.215 126.087 170.578L125.525 170.303C116.367 165.728 113.102 156.471 113.173 148.162V148.146L113.174 148.131L113.365 145.045L113.368 145.017C113.898 140.28 115.491 136.006 117.734 133.315L117.965 133.052C119.151 131.757 120.888 130.722 122.98 129.914C125.216 129.05 127.9 128.429 130.85 128.034ZM209.993 128.099C216.435 127.336 222.973 127.293 228.505 128.034C231.456 128.429 234.14 129.05 236.376 129.914C238.468 130.722 240.205 131.757 241.391 133.052L241.622 133.313L242.035 133.838C243.925 136.364 245.297 140.058 245.875 144.138L245.988 145.017L245.991 145.045L246.181 148.131L246.183 148.146V148.162C246.251 156.213 243.172 165.151 234.671 169.861L233.831 170.303C222.217 176.107 209.976 173.478 200.868 165.803L199.997 165.044C192.744 158.533 188.611 149.208 187.193 145.538L187.049 145.138C186.783 144.339 186.642 143.524 186.607 142.703L186.597 142.291V141.392L186.619 140.87C186.791 138.265 187.997 135.728 190.207 133.959L190.209 133.958L190.767 133.538C192.111 132.582 193.763 131.778 195.708 131.142L196.912 130.766C199.75 129.909 202.793 129.214 205.913 128.688L205.925 128.685L208.693 128.263L208.706 128.262L209.993 128.099ZM150.43 129.498C143.692 128.598 136.791 128.505 131.054 129.273C128.184 129.657 125.624 130.255 123.529 131.064C121.429 131.876 119.837 132.885 118.847 134.068L118.845 134.066C116.806 136.514 115.268 140.543 114.754 145.143L114.565 148.201C114.504 156.27 117.683 164.952 126.201 169.208L127.265 169.715C138.283 174.709 149.807 171.854 158.376 164.157C167.3 156.141 170.271 149.503 171.306 144.112L171.309 144.095L171.369 143.702L171.431 143.137H171.494C171.519 142.97 171.546 142.764 171.564 142.53C171.617 141.83 171.607 140.878 171.363 139.854L171.36 139.837C170.669 136.494 168.076 133.928 163.175 132.32C160.081 131.315 156.688 130.51 153.186 129.92L150.43 129.498ZM228.301 129.273C222.564 128.505 215.663 128.598 208.924 129.498L208.925 129.499L206.168 129.918L206.17 129.92C202.668 130.51 199.274 131.315 196.181 132.32L196.183 132.322C194.089 133.006 192.412 133.878 191.132 134.897C189.105 136.519 188.024 138.927 187.991 141.405V142.308C187.992 143.272 188.154 144.215 188.507 145.125L188.803 145.868C190.429 149.883 194.399 158.248 200.98 164.157L201.818 164.887C210.573 172.267 222.172 174.695 233.155 169.208L233.937 168.796C241.853 164.41 244.849 156.017 244.791 148.201L244.602 145.143L244.493 144.291C243.893 140.059 242.421 136.361 240.509 134.066C239.519 132.883 237.927 131.876 235.827 131.064C233.732 130.255 231.171 129.657 228.301 129.273Z" fill="black"/>
                                        <path xmlns="http://www.w3.org/2000/svg" d="M112.025 147.96H114.601V150.984H112.025C111.085 150.984 110.336 150.31 110.336 149.48C110.336 148.634 111.085 147.96 112.025 147.96Z" fill="black"/>
                                        <path xmlns="http://www.w3.org/2000/svg" d="M208.896 127.061H150.564V128.33H208.896V127.061Z" fill="black"/>
                                        <path xmlns="http://www.w3.org/2000/svg" d="M172.272 146.349C171.958 146.349 171.662 146.145 171.593 145.863C171.558 145.753 170.966 143.2 172.776 141.179C174.152 139.644 176.484 138.86 179.722 138.86C182.96 138.86 185.345 139.644 186.737 141.179C188.53 143.168 187.973 145.644 187.938 145.753C187.851 146.098 187.486 146.302 187.12 146.239C186.755 146.176 186.511 145.832 186.58 145.503C186.58 145.487 187.016 143.482 185.64 141.978C184.526 140.756 182.542 140.129 179.722 140.129C176.902 140.129 174.952 140.756 173.856 141.978C172.463 143.544 172.95 145.597 172.95 145.612C173.038 145.957 172.794 146.286 172.428 146.364C172.376 146.364 172.324 146.364 172.272 146.364V146.349Z" fill="black"/>
                                    </g>
                                    <g id="g_fancy" style="display: none;">                                        
                                        <path xmlns="http://www.w3.org/2000/svg" fill-rule="evenodd" clip-rule="evenodd" d="M247.901 131.908C242.471 131.814 230.665 127.677 218.823 129.072C217.692 129.214 216.599 129.355 215.561 129.521C196.082 132.546 189.966 140.488 179.55 141.244C169.135 140.488 163.019 132.546 143.54 129.521C142.484 129.355 141.409 129.214 140.278 129.072C128.454 127.677 116.648 131.814 111.2 131.908C111.051 132.806 110.903 133.704 110.755 134.603C113.59 143.112 113.868 156.135 119.669 164.384C125.693 172.941 133.013 178.093 142.484 178.472C142.836 178.472 143.188 178.472 143.54 178.495C157.7 178.755 168.838 172.397 173.342 157.388C174.695 152.897 176.159 150.415 179.55 150.604C182.961 150.415 184.425 152.897 185.759 157.388C190.263 172.397 201.401 178.755 215.561 178.495C215.913 178.495 216.265 178.495 216.617 178.472C226.088 178.093 233.408 172.941 239.432 164.384C245.233 156.135 245.529 143.112 248.346 134.603C248.198 133.704 248.05 132.806 247.901 131.908ZM163.13 169.419C156.699 175.304 149.99 176.273 143.577 176.084H143.54C135.052 175.824 127.101 172.066 121.3 162.493C112.256 147.555 114.573 133.775 130.622 132.215C135.015 131.79 139.315 131.908 143.54 132.594C150.157 133.681 156.532 136.21 162.574 140.275C174.287 148.17 173.249 160.153 163.13 169.419ZM237.819 162.493C232.018 172.066 224.067 175.824 215.579 176.084H215.542C209.13 176.273 202.421 175.304 195.989 169.419C185.87 160.153 184.814 148.146 196.545 140.275C202.587 136.21 208.963 133.681 215.579 132.594C219.805 131.884 224.123 131.79 228.497 132.215C244.547 133.775 246.863 147.579 237.819 162.493Z" fill="black"/>
                                    </g>
                                    <g id="g_old" style="">
                                        <path xmlns="http://www.w3.org/2000/svg" d="M232.643 129.132L232.007 129.112H197.972C192.618 129.112 188.077 133.326 186.681 139.012C182.457 137.601 176.749 137.682 172.42 139.114C171.059 133.366 166.482 129.112 161.11 129.112H126.439C120.466 129.521 115.342 135.125 115.342 142.121C115.342 142.346 115.342 142.571 115.342 142.796C115.783 152.573 116.685 173.273 132.995 173.273H153.883C166.465 173.273 171.801 156.562 172.703 145.782C176.873 144.023 182.811 143.941 186.362 145.516C187.175 156.276 192.494 173.253 205.2 173.253H226.087C242.38 173.253 243.281 152.553 243.741 142.775C244.077 135.473 238.828 129.501 232.643 129.112V129.132ZM153.883 168.814H132.995C120.396 168.814 119.583 151.141 119.194 142.755C118.947 137.519 122.781 133.591 127.058 133.591H161.093C165.422 133.591 168.956 137.682 168.956 142.694C168.956 150.61 165.051 168.814 153.865 168.814H153.883ZM226.07 168.814H205.182C193.979 168.814 190.091 150.61 190.091 142.694C190.091 137.682 193.625 133.591 197.955 133.591H231.99C236.266 133.591 240.101 137.539 239.853 142.755C239.464 151.141 238.652 168.814 226.052 168.814H226.07Z" fill="black"/>
                                    </g>
                                    <g id="g_nerd" style="display: none;">
                                        <path xmlns="http://www.w3.org/2000/svg" fill-rule="evenodd" clip-rule="evenodd" d="M252.667 130.651C251.1 128.68 234.351 125.674 217.752 126.254C208.411 126.565 199.113 128.017 192.607 131.418C189.257 133.181 187.517 133.512 184.64 133.056C182.922 132.766 181.247 132.413 179.551 132.475C177.854 132.413 176.201 132.766 174.462 133.056C171.584 133.512 169.845 133.181 166.495 131.418C159.989 128.017 150.691 126.565 141.35 126.254C124.751 125.694 108.001 128.68 106.455 130.651C106.284 132.807 106.133 134.943 105.961 137.1C108.023 138.261 109.225 140.708 109.741 144.42C113.434 170.591 129.11 173.784 139.567 174.22C140.147 174.241 140.727 174.261 141.35 174.261C150.905 174.386 165.529 172.25 170.403 153.233C171.004 150.911 171.863 148.609 172.572 145.851C174.655 137.577 184.425 137.577 186.508 145.851C187.217 148.63 188.076 150.911 188.677 153.233C193.551 172.25 208.175 174.386 217.73 174.261C218.353 174.261 218.954 174.241 219.534 174.22C229.992 173.784 245.667 170.591 249.361 144.42C249.876 140.708 251.078 138.261 253.14 137.1C252.968 134.943 252.796 132.807 252.646 130.651H252.667ZM159.946 166.174C155.866 169.844 148.651 171.98 141.371 171.939C140.641 171.939 139.932 171.918 139.202 171.856C130.72 171.296 122.517 167.75 119.103 162.317C110.449 148.526 113.821 131.335 129.754 129.759C133.684 129.365 137.549 129.054 141.35 128.992C147.899 128.888 154.212 129.572 160.225 132.081C174.354 137.992 167.161 159.662 159.924 166.174H159.946ZM240.02 162.317C236.605 167.75 228.424 171.296 219.921 171.856C219.191 171.897 218.482 171.918 217.752 171.939C210.472 171.98 203.257 169.844 199.177 166.174C191.941 159.662 184.747 138.012 198.877 132.081C204.868 129.572 211.202 128.888 217.752 128.992C221.553 129.054 225.418 129.386 229.347 129.759C245.281 131.335 248.674 148.505 239.998 162.317H240.02Z" fill="black"/>  

                                    </g>
                                    <g id="g_fancy2" style="display: none;">                                        
                                        <path xmlns="http://www.w3.org/2000/svg" d="M234.121 128.841L215.57 130.586L197.001 132.332C177.611 134.167 182.467 134.167 163.13 132.332L144.561 130.586L125.992 128.841C119.913 128.259 111.319 132.086 111.179 141.777V142.292C111.179 142.448 111.179 142.605 111.179 142.784C112.122 164.023 128.665 171.073 144.544 173.088C148.666 173.603 152.736 173.782 156.474 173.782C168.039 173.782 171.253 161.696 174.065 151.311C176.091 143.858 184.965 144.06 186.607 151.043C189.088 161.539 191.953 173.782 203.604 173.782C207.342 173.782 211.412 173.603 215.535 173.088C231.414 171.073 247.956 164.046 248.9 142.784C249.354 132.69 240.27 128.281 234.104 128.863L234.121 128.841ZM156.492 169.216C152.981 169.216 148.823 169.014 144.561 168.298C132.421 166.284 119.494 160.152 118.76 142.694C118.533 137.368 122.079 133.004 125.992 133.362L144.561 135.107L163.13 136.853C167.113 136.853 170.362 137.502 170.362 142.605C170.362 150.662 166.781 169.171 156.492 169.171V169.216ZM215.57 168.298C211.308 169.014 207.15 169.216 203.639 169.216C193.35 169.216 189.769 150.707 189.769 142.65C189.769 137.547 193.018 136.898 197.001 136.898L215.57 135.152L234.121 133.406C238.034 133.026 241.58 137.413 241.353 142.739C240.62 160.196 227.71 166.329 215.552 168.343L215.57 168.298Z" fill="black"/>

                                    </g>
                                    <g id="g_harry" style="display: none;">                                        
                                        <path xmlns="http://www.w3.org/2000/svg" fill-rule="evenodd" clip-rule="evenodd" d="M244.685 140.992H242.002C237.994 132.416 228.42 126.4 217.268 126.4C207.984 126.4 199.824 130.56 195.018 136.896C194.565 136.752 194.093 136.624 193.64 136.496C189.107 135.232 184.573 134.592 180.04 134.592H180.004C175.452 134.592 170.901 135.232 166.349 136.512C165.896 136.64 165.443 136.784 164.971 136.912C160.166 130.576 151.988 126.4 142.704 126.4C131.533 126.4 121.977 132.432 117.951 140.992H115.431C114.162 140.992 113.128 141.904 113.128 143.024C113.128 144.144 114.162 145.056 115.431 145.056H116.519C116.138 146.656 115.921 148.304 115.921 150C115.921 163.04 127.907 173.6 142.685 173.6C152.931 173.6 161.834 168.512 166.331 161.056C168.326 157.76 169.45 154 169.45 150C169.45 146.912 168.779 143.952 167.546 141.232C171.699 139.92 175.833 139.264 179.986 139.264C184.138 139.264 188.273 139.904 192.425 141.216C191.192 143.936 190.503 146.896 190.503 150C190.503 154 191.627 157.776 193.622 161.072C198.119 168.528 207.022 173.6 217.25 173.6C232.028 173.6 243.996 163.024 243.996 150C243.996 148.304 243.797 146.656 243.416 145.056H244.667C245.937 145.056 246.97 144.144 246.97 143.024C246.97 141.904 245.937 140.992 244.667 140.992H244.685ZM166.331 155.024C163.774 164.448 154.164 171.456 142.685 171.456C129.267 171.456 118.369 161.856 118.369 150C118.369 138.144 129.267 128.56 142.685 128.56C154.146 128.56 163.756 135.568 166.331 144.992C166.766 146.608 167.002 148.272 167.002 150C167.002 151.728 166.766 153.408 166.331 155.024ZM179.986 137.008C175.489 137.008 170.973 137.744 166.476 139.184L166.331 138.944C166.114 138.592 165.896 138.24 165.66 137.888C165.878 137.824 166.114 137.76 166.331 137.696C170.883 136.384 175.434 135.728 179.986 135.712H180.022C184.555 135.712 189.089 136.368 193.622 137.664C193.84 137.728 194.075 137.792 194.293 137.856C194.057 138.208 193.821 138.56 193.622 138.912L193.495 139.136C188.998 137.696 184.483 136.976 179.986 136.992V137.008ZM217.268 171.456C205.808 171.456 196.215 164.464 193.64 155.056C193.205 153.44 192.969 151.744 192.969 150C192.969 148.256 193.205 146.576 193.64 144.96C196.215 135.552 205.826 128.56 217.268 128.56C230.686 128.56 241.585 138.16 241.585 150.016C241.585 161.872 230.705 171.472 217.268 171.472V171.456Z" fill="black"/>
                                    </g>
                                </svg>
                            </svg>