<svg width="50" height="22" viewBox="0 0 50 22" fill="none" xmlns="http://www.w3.org/2000/svg">
<path d="M8.45867 10.014C10.9769 10.014 13.0184 7.97255 13.0184 5.45427C13.0184 2.936 10.9769 0.894531 8.45867 0.894531C5.94039 0.894531 3.89893 2.936 3.89893 5.45427C3.89893 7.97255 5.94039 10.014 8.45867 10.014Z" fill="black" fill-opacity="0.7"/>
<path d="M44.9369 10.014C47.4552 10.014 49.4967 7.97255 49.4967 5.45427C49.4967 2.936 47.4552 0.894531 44.9369 0.894531C42.4187 0.894531 40.3772 2.936 40.3772 5.45427C40.3772 7.97255 42.4187 10.014 44.9369 10.014Z" fill="black" fill-opacity="0.7"/>
<path d="M0.47876 16.8545C0.47876 15.1446 3.89856 10.0149 5.0385 8.875C6.17843 10.0149 9.02827 15.1446 9.02827 16.8545C9.02827 19.1344 7.31837 21.4143 5.0385 21.4143C2.75863 21.4143 0.47876 19.1344 0.47876 16.8545Z" fill="#92D9FF"/>
</svg>
