<svg width="55" height="9" viewBox="0 0 55 9" fill="none" xmlns="http://www.w3.org/2000/svg">
<g clip-path="url(#clip0_2703_14248)">
<path fill-rule="evenodd" clip-rule="evenodd" d="M3.54435 6.76364C3.6252 7.54901 3.04772 8.25353 2.26235 8.32283C1.47698 8.40368 0.772455 7.8262 0.703158 7.04083C0.63386 6.30166 0.680059 5.55094 0.876401 4.82331C1.07274 4.11879 1.38458 3.43736 1.83502 2.81369C2.83983 1.45084 4.30662 0.596171 5.86581 0.35363C7.425 0.0995398 9.07659 0.446027 10.451 1.43929C11.3288 2.07452 11.9986 2.90608 12.426 3.8185C12.8764 4.76556 13.0727 5.81658 13.0034 6.85604C12.9457 7.64141 12.2643 8.24198 11.4789 8.18424C10.6935 8.12649 10.093 7.44506 10.1507 6.65969C10.1854 6.09377 10.0814 5.52784 9.85041 5.01966C9.61942 4.53457 9.26139 4.08414 8.7994 3.7492C8.06023 3.21792 7.17091 3.03313 6.3278 3.16018C5.49623 3.29877 4.71086 3.7492 4.16803 4.48838C3.92549 4.82331 3.75224 5.18135 3.65985 5.56248C3.5559 5.95517 3.52125 6.35941 3.5559 6.75209L3.54435 6.76364Z" fill="black" fill-opacity="0.7"/>
<path fill-rule="evenodd" clip-rule="evenodd" d="M44.9164 6.76347C44.9973 7.54884 44.4198 8.25336 43.6344 8.32266C42.849 8.39196 42.1445 7.82603 42.0752 7.04066C42.0059 6.30149 42.0637 5.55077 42.2485 4.82314C42.4448 4.11862 42.7567 3.4372 43.2071 2.81352C44.2003 1.43912 45.6671 0.596002 47.2379 0.341912C48.7971 0.0878211 50.4487 0.434308 51.8231 1.42757C52.7008 2.0628 53.3707 2.89437 53.798 3.80678C54.2485 4.75385 54.4448 5.80486 54.3755 6.84432C54.3178 7.62969 53.6363 8.23027 52.851 8.17252C52.0656 8.11477 51.465 7.43335 51.5228 6.64797C51.5574 6.08205 51.4535 5.51612 51.2225 5.00794C50.9915 4.52285 50.6335 4.07242 50.1599 3.73748C49.4207 3.2062 48.5314 3.02141 47.6883 3.14846C46.8567 3.28705 46.0714 3.73748 45.5285 4.47666C45.286 4.81159 45.1128 5.16963 45.0088 5.55077C44.9049 5.94345 44.8702 6.34769 44.9049 6.74037L44.9164 6.76347Z" fill="black" fill-opacity="0.7"/>
</g>
<defs>
<clipPath id="clip0_2703_14248">
<rect width="53.717" height="8.0616" fill="white" transform="translate(0.668945 0.273438)"/>
</clipPath>
</defs>
</svg>
