<svg width="50" height="8" viewBox="0 0 50 8" fill="none" xmlns="http://www.w3.org/2000/svg">
<path d="M6.13342 1.12219C6.42632 0.829316 6.90108 0.829302 7.19397 1.12219C7.48686 1.41507 7.48684 1.88984 7.19397 2.18274L5.22424 4.15246L7.19397 6.12219L7.24573 6.17883C7.486 6.47341 7.46855 6.90814 7.19397 7.18273C6.91938 7.45733 6.48464 7.47477 6.19006 7.23449L6.13342 7.18273L4.1637 5.21301L2.19397 7.18273C1.90108 7.47563 1.42632 7.47563 1.13342 7.18273C0.840529 6.88984 0.840529 6.41508 1.13342 6.12219L3.10315 4.15246L1.13342 2.18274L1.08166 2.12609C0.841347 1.83151 0.858815 1.3968 1.13342 1.12219C1.40803 0.847591 1.84275 0.830114 2.13733 1.07043L2.19397 1.12219L4.1637 3.09191L6.13342 1.12219Z" fill="black" fill-opacity="0.7"/>
<path d="M47.7819 1.12219C48.0748 0.829316 48.5495 0.829302 48.8424 1.12219C49.1353 1.41507 49.1353 1.88984 48.8424 2.18274L46.8727 4.15246L48.8424 6.12219L48.8942 6.17883C49.1344 6.47341 49.117 6.90814 48.8424 7.18273C48.5678 7.45733 48.1331 7.47477 47.8385 7.23449L47.7819 7.18273L45.8121 5.21301L43.8424 7.18273C43.5495 7.47563 43.0748 7.47563 42.7819 7.18273C42.489 6.88984 42.489 6.41508 42.7819 6.12219L44.7516 4.15246L42.7819 2.18274L42.7301 2.12609C42.4898 1.83151 42.5073 1.3968 42.7819 1.12219C43.0565 0.847591 43.4912 0.830114 43.7858 1.07043L43.8424 1.12219L45.8121 3.09191L47.7819 1.12219Z" fill="black" fill-opacity="0.7"/>
</svg>
