<svg width="61" height="6" viewBox="0 0 61 6" fill="none" xmlns="http://www.w3.org/2000/svg">
<path d="M0.312123 4.92843C-0.308792 4.92843 0.312123 6.17026 0.933037 5.54935C2.17487 4.30752 4.03761 3.6866 7.7631 3.06569C12.1095 3.6866 13.3513 4.30752 14.5932 5.54935C15.835 6.17026 16.4559 4.92843 15.835 4.92843C15.2141 4.30752 12.7304 0.582031 7.7631 0.582031C3.4167 0.582031 0.312123 4.30752 0.312123 4.92843Z" fill="black" fill-opacity="0.7"/>
<path d="M44.3967 4.92843C44.3967 4.92843 45.0176 6.17026 45.6386 5.54935C46.8804 4.30752 48.7431 3.6866 52.4686 3.06569C56.815 3.6866 58.0568 4.30752 59.2987 5.54935C60.5405 6.17026 61.1614 4.92843 60.5405 4.92843C59.9196 4.30752 57.4359 0.582031 52.4686 0.582031C48.1222 0.582031 45.0176 4.30752 44.3967 4.92843Z" fill="black" fill-opacity="0.7"/>
</svg>
