<svg width="53" height="17" viewBox="0 0 53 17" fill="none" xmlns="http://www.w3.org/2000/svg">
<path d="M1.00942 9.76947C0.470362 10.3085 1.00942 11.3866 1.54847 10.3085C2.62658 9.76947 4.24374 8.69137 7.47807 8.69137C11.2514 8.69137 12.3296 9.76947 13.4077 10.3085C14.4858 11.3866 15.0248 10.3085 14.4858 9.76947C13.9467 9.23042 11.7905 5.99609 7.47807 5.99609C3.70469 5.99609 1.00942 9.23042 1.00942 9.76947Z" fill="black" fill-opacity="0.7"/>
<path d="M44.6727 16.238C49.1384 16.238 52.7585 12.6179 52.7585 8.15222C52.7585 3.68655 49.1384 0.0664062 44.6727 0.0664062C40.2071 0.0664062 36.5869 3.68655 36.5869 8.15222C36.5869 12.6179 40.2071 16.238 44.6727 16.238Z" fill="#E4E4E4"/>
<path d="M44.6725 12.4647C47.0542 12.4647 48.985 10.534 48.985 8.15228C48.985 5.77059 47.0542 3.83984 44.6725 3.83984C42.2909 3.83984 40.3601 5.77059 40.3601 8.15228C40.3601 10.534 42.2909 12.4647 44.6725 12.4647Z" fill="#4D4D4D"/>
</svg>
