<svg width="61" height="11" viewBox="0 0 61 11" fill="none" xmlns="http://www.w3.org/2000/svg">
<path d="M59.9249 6.57445C60.6359 7.28542 59.9249 8.70736 58.503 7.28542C57.081 6.57445 55.6591 5.15251 50.6823 5.15251C46.4165 5.15251 44.2836 6.57445 42.8616 7.28542C42.1507 8.70736 41.4397 7.28542 41.4397 6.57445C42.1507 5.86348 45.7055 1.59766 50.6823 1.59766C56.3701 1.59766 59.2139 5.86348 59.9249 6.57445Z" fill="black" fill-opacity="0.7"/>
<path d="M5.18114 10.1294C7.92974 10.1294 10.1579 7.90118 10.1579 5.15257C10.1579 2.40397 7.92974 0.175781 5.18114 0.175781C2.43253 0.175781 0.204346 2.40397 0.204346 5.15257C0.204346 7.90118 2.43253 10.1294 5.18114 10.1294Z" fill="black" fill-opacity="0.7"/>
</svg>
